<?xml version="1.0" encoding="utf-8" standalone="no"?>
<!DOCTYPE svg PUBLIC "-//W3C//DTD SVG 1.1//EN"
  "http://www.w3.org/Graphics/SVG/1.1/DTD/svg11.dtd">
<svg xmlns:xlink="http://www.w3.org/1999/xlink" width="244.8pt" height="158.4pt" viewBox="0 0 244.8 158.4" xmlns="http://www.w3.org/2000/svg" version="1.1">
 <metadata>
  <rdf:RDF xmlns:dc="http://purl.org/dc/elements/1.1/" xmlns:cc="http://creativecommons.org/ns#" xmlns:rdf="http://www.w3.org/1999/02/22-rdf-syntax-ns#">
   <cc:Work>
    <dc:type rdf:resource="http://purl.org/dc/dcmitype/StillImage"/>
    <dc:date>2025-04-02T10:55:34.211172</dc:date>
    <dc:format>image/svg+xml</dc:format>
    <dc:creator>
     <cc:Agent>
      <dc:title>Matplotlib v3.10.1, https://matplotlib.org/</dc:title>
     </cc:Agent>
    </dc:creator>
   </cc:Work>
  </rdf:RDF>
 </metadata>
 <defs>
  <style type="text/css">*{stroke-linejoin: round; stroke-linecap: butt}</style>
 </defs>
 <g id="figure_1">
  <g id="patch_1">
   <path d="M 0 158.4 
L 244.8 158.4 
L 244.8 0 
L 0 0 
z
" style="fill: #ffffff"/>
  </g>
  <g id="axes_1">
   <g id="patch_2">
    <path d="M 44.064 72.912 
L 205.632 72.912 
L 205.632 4.752 
L 44.064 4.752 
z
" style="fill: #ffffff"/>
   </g>
   <g id="patch_3">
    <path d="M 45.747 38.832 
L 49.113 38.832 
L 49.113 39.344218 
L 45.747 39.344218 
z
" clip-path="url(#pf031f6df98)" style="fill: #029e73"/>
   </g>
   <g id="patch_4">
    <path d="M 52.479 38.832 
L 55.845 38.832 
L 55.845 39.349089 
L 52.479 39.349089 
z
" clip-path="url(#pf031f6df98)" style="fill: #029e73"/>
   </g>
   <g id="patch_5">
    <path d="M 59.211 38.832 
L 62.577 38.832 
L 62.577 39.350401 
L 59.211 39.350401 
z
" clip-path="url(#pf031f6df98)" style="fill: #029e73"/>
   </g>
   <g id="patch_6">
    <path d="M 65.943 38.832 
L 69.309 38.832 
L 69.309 39.300539 
L 65.943 39.300539 
z
" clip-path="url(#pf031f6df98)" style="fill: #029e73"/>
   </g>
   <g id="patch_7">
    <path d="M 72.675 38.832 
L 76.041 38.832 
L 76.041 39.306606 
L 72.675 39.306606 
z
" clip-path="url(#pf031f6df98)" style="fill: #029e73"/>
   </g>
   <g id="patch_8">
    <path d="M 79.407 38.832 
L 82.773 38.832 
L 82.773 39.299268 
L 79.407 39.299268 
z
" clip-path="url(#pf031f6df98)" style="fill: #029e73"/>
   </g>
   <g id="patch_9">
    <path d="M 86.139 38.832 
L 89.505 38.832 
L 89.505 39.283848 
L 86.139 39.283848 
z
" clip-path="url(#pf031f6df98)" style="fill: #029e73"/>
   </g>
   <g id="patch_10">
    <path d="M 92.871 38.832 
L 96.237 38.832 
L 96.237 39.268953 
L 92.871 39.268953 
z
" clip-path="url(#pf031f6df98)" style="fill: #029e73"/>
   </g>
   <g id="patch_11">
    <path d="M 99.603 38.832 
L 102.969 38.832 
L 102.969 39.290539 
L 99.603 39.290539 
z
" clip-path="url(#pf031f6df98)" style="fill: #029e73"/>
   </g>
   <g id="patch_12">
    <path d="M 106.335 38.832 
L 109.701 38.832 
L 109.701 39.361339 
L 106.335 39.361339 
z
" clip-path="url(#pf031f6df98)" style="fill: #029e73"/>
   </g>
   <g id="patch_13">
    <path d="M 113.067 38.832 
L 116.433 38.832 
L 116.433 39.89563 
L 113.067 39.89563 
z
" clip-path="url(#pf031f6df98)" style="fill: #029e73"/>
   </g>
   <g id="patch_14">
    <path d="M 119.799 38.832 
L 123.165 38.832 
L 123.165 40.028743 
L 119.799 40.028743 
z
" clip-path="url(#pf031f6df98)" style="fill: #029e73"/>
   </g>
   <g id="patch_15">
    <path d="M 126.531 38.832 
L 129.897 38.832 
L 129.897 39.86501 
L 126.531 39.86501 
z
" clip-path="url(#pf031f6df98)" style="fill: #029e73"/>
   </g>
   <g id="patch_16">
    <path d="M 133.263 38.832 
L 136.629 38.832 
L 136.629 39.736214 
L 133.263 39.736214 
z
" clip-path="url(#pf031f6df98)" style="fill: #029e73"/>
   </g>
   <g id="patch_17">
    <path d="M 139.995 38.832 
L 143.361 38.832 
L 143.361 39.565322 
L 139.995 39.565322 
z
" clip-path="url(#pf031f6df98)" style="fill: #029e73"/>
   </g>
   <g id="patch_18">
    <path d="M 146.727 38.832 
L 150.093 38.832 
L 150.093 39.458755 
L 146.727 39.458755 
z
" clip-path="url(#pf031f6df98)" style="fill: #029e73"/>
   </g>
   <g id="patch_19">
    <path d="M 153.459 38.832 
L 156.825 38.832 
L 156.825 39.443743 
L 153.459 39.443743 
z
" clip-path="url(#pf031f6df98)" style="fill: #029e73"/>
   </g>
   <g id="patch_20">
    <path d="M 160.191 38.832 
L 163.557 38.832 
L 163.557 39.41895 
L 160.191 39.41895 
z
" clip-path="url(#pf031f6df98)" style="fill: #029e73"/>
   </g>
   <g id="patch_21">
    <path d="M 166.923 38.832 
L 170.289 38.832 
L 170.289 39.380712 
L 166.923 39.380712 
z
" clip-path="url(#pf031f6df98)" style="fill: #029e73"/>
   </g>
   <g id="patch_22">
    <path d="M 173.655 38.832 
L 177.021 38.832 
L 177.021 39.374725 
L 173.655 39.374725 
z
" clip-path="url(#pf031f6df98)" style="fill: #029e73"/>
   </g>
   <g id="patch_23">
    <path d="M 180.387 38.832 
L 183.753 38.832 
L 183.753 39.355867 
L 180.387 39.355867 
z
" clip-path="url(#pf031f6df98)" style="fill: #029e73"/>
   </g>
   <g id="patch_24">
    <path d="M 187.119 38.832 
L 190.485 38.832 
L 190.485 39.343958 
L 187.119 39.343958 
z
" clip-path="url(#pf031f6df98)" style="fill: #029e73"/>
   </g>
   <g id="patch_25">
    <path d="M 193.851 38.832 
L 197.217 38.832 
L 197.217 39.358122 
L 193.851 39.358122 
z
" clip-path="url(#pf031f6df98)" style="fill: #029e73"/>
   </g>
   <g id="patch_26">
    <path d="M 200.583 38.832 
L 203.949 38.832 
L 203.949 39.356994 
L 200.583 39.356994 
z
" clip-path="url(#pf031f6df98)" style="fill: #029e73"/>
   </g>
   <g id="patch_27">
    <path d="M 45.747 39.344218 
L 49.113 39.344218 
L 49.113 39.344218 
L 45.747 39.344218 
z
" clip-path="url(#pf031f6df98)" style="fill: #0173b2"/>
   </g>
   <g id="patch_28">
    <path d="M 52.479 39.349089 
L 55.845 39.349089 
L 55.845 39.349089 
L 52.479 39.349089 
z
" clip-path="url(#pf031f6df98)" style="fill: #0173b2"/>
   </g>
   <g id="patch_29">
    <path d="M 59.211 39.350401 
L 62.577 39.350401 
L 62.577 39.350401 
L 59.211 39.350401 
z
" clip-path="url(#pf031f6df98)" style="fill: #0173b2"/>
   </g>
   <g id="patch_30">
    <path d="M 65.943 39.300539 
L 69.309 39.300539 
L 69.309 39.300539 
L 65.943 39.300539 
z
" clip-path="url(#pf031f6df98)" style="fill: #0173b2"/>
   </g>
   <g id="patch_31">
    <path d="M 72.675 39.306606 
L 76.041 39.306606 
L 76.041 39.306606 
L 72.675 39.306606 
z
" clip-path="url(#pf031f6df98)" style="fill: #0173b2"/>
   </g>
   <g id="patch_32">
    <path d="M 79.407 39.299268 
L 82.773 39.299268 
L 82.773 39.299268 
L 79.407 39.299268 
z
" clip-path="url(#pf031f6df98)" style="fill: #0173b2"/>
   </g>
   <g id="patch_33">
    <path d="M 86.139 39.283848 
L 89.505 39.283848 
L 89.505 39.283848 
L 86.139 39.283848 
z
" clip-path="url(#pf031f6df98)" style="fill: #0173b2"/>
   </g>
   <g id="patch_34">
    <path d="M 92.871 39.268953 
L 96.237 39.268953 
L 96.237 39.268953 
L 92.871 39.268953 
z
" clip-path="url(#pf031f6df98)" style="fill: #0173b2"/>
   </g>
   <g id="patch_35">
    <path d="M 99.603 39.290539 
L 102.969 39.290539 
L 102.969 39.290539 
L 99.603 39.290539 
z
" clip-path="url(#pf031f6df98)" style="fill: #0173b2"/>
   </g>
   <g id="patch_36">
    <path d="M 106.335 39.361339 
L 109.701 39.361339 
L 109.701 39.361339 
L 106.335 39.361339 
z
" clip-path="url(#pf031f6df98)" style="fill: #0173b2"/>
   </g>
   <g id="patch_37">
    <path d="M 113.067 39.89563 
L 116.433 39.89563 
L 116.433 39.89563 
L 113.067 39.89563 
z
" clip-path="url(#pf031f6df98)" style="fill: #0173b2"/>
   </g>
   <g id="patch_38">
    <path d="M 119.799 40.028743 
L 123.165 40.028743 
L 123.165 40.028743 
L 119.799 40.028743 
z
" clip-path="url(#pf031f6df98)" style="fill: #0173b2"/>
   </g>
   <g id="patch_39">
    <path d="M 126.531 39.86501 
L 129.897 39.86501 
L 129.897 39.86501 
L 126.531 39.86501 
z
" clip-path="url(#pf031f6df98)" style="fill: #0173b2"/>
   </g>
   <g id="patch_40">
    <path d="M 133.263 39.736214 
L 136.629 39.736214 
L 136.629 48.379328 
L 133.263 48.379328 
z
" clip-path="url(#pf031f6df98)" style="fill: #0173b2"/>
   </g>
   <g id="patch_41">
    <path d="M 139.995 39.565322 
L 143.361 39.565322 
L 143.361 39.565322 
L 139.995 39.565322 
z
" clip-path="url(#pf031f6df98)" style="fill: #0173b2"/>
   </g>
   <g id="patch_42">
    <path d="M 146.727 39.458755 
L 150.093 39.458755 
L 150.093 39.458755 
L 146.727 39.458755 
z
" clip-path="url(#pf031f6df98)" style="fill: #0173b2"/>
   </g>
   <g id="patch_43">
    <path d="M 153.459 39.443743 
L 156.825 39.443743 
L 156.825 39.443743 
L 153.459 39.443743 
z
" clip-path="url(#pf031f6df98)" style="fill: #0173b2"/>
   </g>
   <g id="patch_44">
    <path d="M 160.191 39.41895 
L 163.557 39.41895 
L 163.557 39.41895 
L 160.191 39.41895 
z
" clip-path="url(#pf031f6df98)" style="fill: #0173b2"/>
   </g>
   <g id="patch_45">
    <path d="M 166.923 39.380712 
L 170.289 39.380712 
L 170.289 39.380712 
L 166.923 39.380712 
z
" clip-path="url(#pf031f6df98)" style="fill: #0173b2"/>
   </g>
   <g id="patch_46">
    <path d="M 173.655 39.374725 
L 177.021 39.374725 
L 177.021 39.374725 
L 173.655 39.374725 
z
" clip-path="url(#pf031f6df98)" style="fill: #0173b2"/>
   </g>
   <g id="patch_47">
    <path d="M 180.387 39.355867 
L 183.753 39.355867 
L 183.753 39.355867 
L 180.387 39.355867 
z
" clip-path="url(#pf031f6df98)" style="fill: #0173b2"/>
   </g>
   <g id="patch_48">
    <path d="M 187.119 39.343958 
L 190.485 39.343958 
L 190.485 39.343958 
L 187.119 39.343958 
z
" clip-path="url(#pf031f6df98)" style="fill: #0173b2"/>
   </g>
   <g id="patch_49">
    <path d="M 193.851 39.358122 
L 197.217 39.358122 
L 197.217 39.358122 
L 193.851 39.358122 
z
" clip-path="url(#pf031f6df98)" style="fill: #0173b2"/>
   </g>
   <g id="patch_50">
    <path d="M 200.583 39.356994 
L 203.949 39.356994 
L 203.949 39.356994 
L 200.583 39.356994 
z
" clip-path="url(#pf031f6df98)" style="fill: #0173b2"/>
   </g>
   <g id="patch_51">
    <path d="M 45.747 39.344218 
L 49.113 39.344218 
L 49.113 39.344218 
L 45.747 39.344218 
z
" clip-path="url(#pf031f6df98)" style="fill: #de8f05"/>
   </g>
   <g id="patch_52">
    <path d="M 52.479 39.349089 
L 55.845 39.349089 
L 55.845 39.349089 
L 52.479 39.349089 
z
" clip-path="url(#pf031f6df98)" style="fill: #de8f05"/>
   </g>
   <g id="patch_53">
    <path d="M 59.211 39.350401 
L 62.577 39.350401 
L 62.577 39.350401 
L 59.211 39.350401 
z
" clip-path="url(#pf031f6df98)" style="fill: #de8f05"/>
   </g>
   <g id="patch_54">
    <path d="M 65.943 39.300539 
L 69.309 39.300539 
L 69.309 39.300539 
L 65.943 39.300539 
z
" clip-path="url(#pf031f6df98)" style="fill: #de8f05"/>
   </g>
   <g id="patch_55">
    <path d="M 72.675 39.306606 
L 76.041 39.306606 
L 76.041 39.306606 
L 72.675 39.306606 
z
" clip-path="url(#pf031f6df98)" style="fill: #de8f05"/>
   </g>
   <g id="patch_56">
    <path d="M 79.407 39.299268 
L 82.773 39.299268 
L 82.773 39.299268 
L 79.407 39.299268 
z
" clip-path="url(#pf031f6df98)" style="fill: #de8f05"/>
   </g>
   <g id="patch_57">
    <path d="M 86.139 39.283848 
L 89.505 39.283848 
L 89.505 39.283848 
L 86.139 39.283848 
z
" clip-path="url(#pf031f6df98)" style="fill: #de8f05"/>
   </g>
   <g id="patch_58">
    <path d="M 92.871 39.268953 
L 96.237 39.268953 
L 96.237 39.268953 
L 92.871 39.268953 
z
" clip-path="url(#pf031f6df98)" style="fill: #de8f05"/>
   </g>
   <g id="patch_59">
    <path d="M 99.603 39.290539 
L 102.969 39.290539 
L 102.969 39.290539 
L 99.603 39.290539 
z
" clip-path="url(#pf031f6df98)" style="fill: #de8f05"/>
   </g>
   <g id="patch_60">
    <path d="M 106.335 39.361339 
L 109.701 39.361339 
L 109.701 39.361339 
L 106.335 39.361339 
z
" clip-path="url(#pf031f6df98)" style="fill: #de8f05"/>
   </g>
   <g id="patch_61">
    <path d="M 113.067 39.89563 
L 116.433 39.89563 
L 116.433 39.89563 
L 113.067 39.89563 
z
" clip-path="url(#pf031f6df98)" style="fill: #de8f05"/>
   </g>
   <g id="patch_62">
    <path d="M 119.799 40.028743 
L 123.165 40.028743 
L 123.165 40.028743 
L 119.799 40.028743 
z
" clip-path="url(#pf031f6df98)" style="fill: #de8f05"/>
   </g>
   <g id="patch_63">
    <path d="M 126.531 39.86501 
L 129.897 39.86501 
L 129.897 39.86501 
L 126.531 39.86501 
z
" clip-path="url(#pf031f6df98)" style="fill: #de8f05"/>
   </g>
   <g id="patch_64">
    <path d="M 133.263 48.379328 
L 136.629 48.379328 
L 136.629 48.379328 
L 133.263 48.379328 
z
" clip-path="url(#pf031f6df98)" style="fill: #de8f05"/>
   </g>
   <g id="patch_65">
    <path d="M 139.995 39.565322 
L 143.361 39.565322 
L 143.361 48.208437 
L 139.995 48.208437 
z
" clip-path="url(#pf031f6df98)" style="fill: #de8f05"/>
   </g>
   <g id="patch_66">
    <path d="M 146.727 39.458755 
L 150.093 39.458755 
L 150.093 39.458755 
L 146.727 39.458755 
z
" clip-path="url(#pf031f6df98)" style="fill: #de8f05"/>
   </g>
   <g id="patch_67">
    <path d="M 153.459 39.443743 
L 156.825 39.443743 
L 156.825 39.443743 
L 153.459 39.443743 
z
" clip-path="url(#pf031f6df98)" style="fill: #de8f05"/>
   </g>
   <g id="patch_68">
    <path d="M 160.191 39.41895 
L 163.557 39.41895 
L 163.557 39.41895 
L 160.191 39.41895 
z
" clip-path="url(#pf031f6df98)" style="fill: #de8f05"/>
   </g>
   <g id="patch_69">
    <path d="M 166.923 38.832 
L 170.289 38.832 
L 170.289 36.315315 
L 166.923 36.315315 
z
" clip-path="url(#pf031f6df98)" style="fill: #de8f05"/>
   </g>
   <g id="patch_70">
    <path d="M 173.655 39.374725 
L 177.021 39.374725 
L 177.021 39.374725 
L 173.655 39.374725 
z
" clip-path="url(#pf031f6df98)" style="fill: #de8f05"/>
   </g>
   <g id="patch_71">
    <path d="M 180.387 39.355867 
L 183.753 39.355867 
L 183.753 39.355867 
L 180.387 39.355867 
z
" clip-path="url(#pf031f6df98)" style="fill: #de8f05"/>
   </g>
   <g id="patch_72">
    <path d="M 187.119 39.343958 
L 190.485 39.343958 
L 190.485 39.343958 
L 187.119 39.343958 
z
" clip-path="url(#pf031f6df98)" style="fill: #de8f05"/>
   </g>
   <g id="patch_73">
    <path d="M 193.851 39.358122 
L 197.217 39.358122 
L 197.217 39.358122 
L 193.851 39.358122 
z
" clip-path="url(#pf031f6df98)" style="fill: #de8f05"/>
   </g>
   <g id="patch_74">
    <path d="M 200.583 39.356994 
L 203.949 39.356994 
L 203.949 39.356994 
L 200.583 39.356994 
z
" clip-path="url(#pf031f6df98)" style="fill: #de8f05"/>
   </g>
   <g id="patch_75">
    <path d="M 45.747 39.344218 
L 49.113 39.344218 
L 49.113 39.344218 
L 45.747 39.344218 
z
" clip-path="url(#pf031f6df98)" style="fill: #d55e00"/>
   </g>
   <g id="patch_76">
    <path d="M 52.479 39.349089 
L 55.845 39.349089 
L 55.845 39.349089 
L 52.479 39.349089 
z
" clip-path="url(#pf031f6df98)" style="fill: #d55e00"/>
   </g>
   <g id="patch_77">
    <path d="M 59.211 39.350401 
L 62.577 39.350401 
L 62.577 39.350401 
L 59.211 39.350401 
z
" clip-path="url(#pf031f6df98)" style="fill: #d55e00"/>
   </g>
   <g id="patch_78">
    <path d="M 65.943 39.300539 
L 69.309 39.300539 
L 69.309 39.300539 
L 65.943 39.300539 
z
" clip-path="url(#pf031f6df98)" style="fill: #d55e00"/>
   </g>
   <g id="patch_79">
    <path d="M 72.675 39.306606 
L 76.041 39.306606 
L 76.041 39.306606 
L 72.675 39.306606 
z
" clip-path="url(#pf031f6df98)" style="fill: #d55e00"/>
   </g>
   <g id="patch_80">
    <path d="M 79.407 39.299268 
L 82.773 39.299268 
L 82.773 39.299268 
L 79.407 39.299268 
z
" clip-path="url(#pf031f6df98)" style="fill: #d55e00"/>
   </g>
   <g id="patch_81">
    <path d="M 86.139 39.283848 
L 89.505 39.283848 
L 89.505 39.283848 
L 86.139 39.283848 
z
" clip-path="url(#pf031f6df98)" style="fill: #d55e00"/>
   </g>
   <g id="patch_82">
    <path d="M 92.871 39.268953 
L 96.237 39.268953 
L 96.237 39.268953 
L 92.871 39.268953 
z
" clip-path="url(#pf031f6df98)" style="fill: #d55e00"/>
   </g>
   <g id="patch_83">
    <path d="M 99.603 39.290539 
L 102.969 39.290539 
L 102.969 39.290539 
L 99.603 39.290539 
z
" clip-path="url(#pf031f6df98)" style="fill: #d55e00"/>
   </g>
   <g id="patch_84">
    <path d="M 106.335 39.361339 
L 109.701 39.361339 
L 109.701 39.361339 
L 106.335 39.361339 
z
" clip-path="url(#pf031f6df98)" style="fill: #d55e00"/>
   </g>
   <g id="patch_85">
    <path d="M 113.067 39.89563 
L 116.433 39.89563 
L 116.433 39.89563 
L 113.067 39.89563 
z
" clip-path="url(#pf031f6df98)" style="fill: #d55e00"/>
   </g>
   <g id="patch_86">
    <path d="M 119.799 40.028743 
L 123.165 40.028743 
L 123.165 40.028743 
L 119.799 40.028743 
z
" clip-path="url(#pf031f6df98)" style="fill: #d55e00"/>
   </g>
   <g id="patch_87">
    <path d="M 126.531 38.832 
L 129.897 38.832 
L 129.897 30.350728 
L 126.531 30.350728 
z
" clip-path="url(#pf031f6df98)" style="fill: #d55e00"/>
   </g>
   <g id="patch_88">
    <path d="M 133.263 48.379328 
L 136.629 48.379328 
L 136.629 48.379328 
L 133.263 48.379328 
z
" clip-path="url(#pf031f6df98)" style="fill: #d55e00"/>
   </g>
   <g id="patch_89">
    <path d="M 139.995 48.208437 
L 143.361 48.208437 
L 143.361 48.208437 
L 139.995 48.208437 
z
" clip-path="url(#pf031f6df98)" style="fill: #d55e00"/>
   </g>
   <g id="patch_90">
    <path d="M 146.727 39.458755 
L 150.093 39.458755 
L 150.093 39.458755 
L 146.727 39.458755 
z
" clip-path="url(#pf031f6df98)" style="fill: #d55e00"/>
   </g>
   <g id="patch_91">
    <path d="M 153.459 39.443743 
L 156.825 39.443743 
L 156.825 39.443743 
L 153.459 39.443743 
z
" clip-path="url(#pf031f6df98)" style="fill: #d55e00"/>
   </g>
   <g id="patch_92">
    <path d="M 160.191 39.41895 
L 163.557 39.41895 
L 163.557 39.41895 
L 160.191 39.41895 
z
" clip-path="url(#pf031f6df98)" style="fill: #d55e00"/>
   </g>
   <g id="patch_93">
    <path d="M 166.923 39.380712 
L 170.289 39.380712 
L 170.289 39.380712 
L 166.923 39.380712 
z
" clip-path="url(#pf031f6df98)" style="fill: #d55e00"/>
   </g>
   <g id="patch_94">
    <path d="M 173.655 39.374725 
L 177.021 39.374725 
L 177.021 39.374725 
L 173.655 39.374725 
z
" clip-path="url(#pf031f6df98)" style="fill: #d55e00"/>
   </g>
   <g id="patch_95">
    <path d="M 180.387 39.355867 
L 183.753 39.355867 
L 183.753 39.355867 
L 180.387 39.355867 
z
" clip-path="url(#pf031f6df98)" style="fill: #d55e00"/>
   </g>
   <g id="patch_96">
    <path d="M 187.119 39.343958 
L 190.485 39.343958 
L 190.485 39.343958 
L 187.119 39.343958 
z
" clip-path="url(#pf031f6df98)" style="fill: #d55e00"/>
   </g>
   <g id="patch_97">
    <path d="M 193.851 39.358122 
L 197.217 39.358122 
L 197.217 39.358122 
L 193.851 39.358122 
z
" clip-path="url(#pf031f6df98)" style="fill: #d55e00"/>
   </g>
   <g id="patch_98">
    <path d="M 200.583 39.356994 
L 203.949 39.356994 
L 203.949 39.356994 
L 200.583 39.356994 
z
" clip-path="url(#pf031f6df98)" style="fill: #d55e00"/>
   </g>
   <g id="patch_99">
    <path d="M 45.747 39.344218 
L 49.113 39.344218 
L 49.113 39.344218 
L 45.747 39.344218 
z
" clip-path="url(#pf031f6df98)" style="fill: #cc78bc"/>
   </g>
   <g id="patch_100">
    <path d="M 52.479 39.349089 
L 55.845 39.349089 
L 55.845 39.349089 
L 52.479 39.349089 
z
" clip-path="url(#pf031f6df98)" style="fill: #cc78bc"/>
   </g>
   <g id="patch_101">
    <path d="M 59.211 39.350401 
L 62.577 39.350401 
L 62.577 39.350401 
L 59.211 39.350401 
z
" clip-path="url(#pf031f6df98)" style="fill: #cc78bc"/>
   </g>
   <g id="patch_102">
    <path d="M 65.943 39.300539 
L 69.309 39.300539 
L 69.309 39.300539 
L 65.943 39.300539 
z
" clip-path="url(#pf031f6df98)" style="fill: #cc78bc"/>
   </g>
   <g id="patch_103">
    <path d="M 72.675 39.306606 
L 76.041 39.306606 
L 76.041 39.306606 
L 72.675 39.306606 
z
" clip-path="url(#pf031f6df98)" style="fill: #cc78bc"/>
   </g>
   <g id="patch_104">
    <path d="M 79.407 39.299268 
L 82.773 39.299268 
L 82.773 39.299268 
L 79.407 39.299268 
z
" clip-path="url(#pf031f6df98)" style="fill: #cc78bc"/>
   </g>
   <g id="patch_105">
    <path d="M 86.139 39.283848 
L 89.505 39.283848 
L 89.505 39.283848 
L 86.139 39.283848 
z
" clip-path="url(#pf031f6df98)" style="fill: #cc78bc"/>
   </g>
   <g id="patch_106">
    <path d="M 92.871 39.268953 
L 96.237 39.268953 
L 96.237 39.268953 
L 92.871 39.268953 
z
" clip-path="url(#pf031f6df98)" style="fill: #cc78bc"/>
   </g>
   <g id="patch_107">
    <path d="M 99.603 39.290539 
L 102.969 39.290539 
L 102.969 39.290539 
L 99.603 39.290539 
z
" clip-path="url(#pf031f6df98)" style="fill: #cc78bc"/>
   </g>
   <g id="patch_108">
    <path d="M 106.335 39.361339 
L 109.701 39.361339 
L 109.701 39.361339 
L 106.335 39.361339 
z
" clip-path="url(#pf031f6df98)" style="fill: #cc78bc"/>
   </g>
   <g id="patch_109">
    <path d="M 113.067 39.89563 
L 116.433 39.89563 
L 116.433 39.89563 
L 113.067 39.89563 
z
" clip-path="url(#pf031f6df98)" style="fill: #cc78bc"/>
   </g>
   <g id="patch_110">
    <path d="M 119.799 40.028743 
L 123.165 40.028743 
L 123.165 40.028743 
L 119.799 40.028743 
z
" clip-path="url(#pf031f6df98)" style="fill: #cc78bc"/>
   </g>
   <g id="patch_111">
    <path d="M 126.531 39.86501 
L 129.897 39.86501 
L 129.897 39.86501 
L 126.531 39.86501 
z
" clip-path="url(#pf031f6df98)" style="fill: #cc78bc"/>
   </g>
   <g id="patch_112">
    <path d="M 133.263 38.832 
L 136.629 38.832 
L 136.629 27.719619 
L 133.263 27.719619 
z
" clip-path="url(#pf031f6df98)" style="fill: #cc78bc"/>
   </g>
   <g id="patch_113">
    <path d="M 139.995 38.832 
L 143.361 38.832 
L 143.361 28.886586 
L 139.995 28.886586 
z
" clip-path="url(#pf031f6df98)" style="fill: #cc78bc"/>
   </g>
   <g id="patch_114">
    <path d="M 146.727 39.458755 
L 150.093 39.458755 
L 150.093 39.458755 
L 146.727 39.458755 
z
" clip-path="url(#pf031f6df98)" style="fill: #cc78bc"/>
   </g>
   <g id="patch_115">
    <path d="M 153.459 39.443743 
L 156.825 39.443743 
L 156.825 39.443743 
L 153.459 39.443743 
z
" clip-path="url(#pf031f6df98)" style="fill: #cc78bc"/>
   </g>
   <g id="patch_116">
    <path d="M 160.191 39.41895 
L 163.557 39.41895 
L 163.557 39.41895 
L 160.191 39.41895 
z
" clip-path="url(#pf031f6df98)" style="fill: #cc78bc"/>
   </g>
   <g id="patch_117">
    <path d="M 166.923 39.380712 
L 170.289 39.380712 
L 170.289 39.380712 
L 166.923 39.380712 
z
" clip-path="url(#pf031f6df98)" style="fill: #cc78bc"/>
   </g>
   <g id="patch_118">
    <path d="M 173.655 39.374725 
L 177.021 39.374725 
L 177.021 39.374725 
L 173.655 39.374725 
z
" clip-path="url(#pf031f6df98)" style="fill: #cc78bc"/>
   </g>
   <g id="patch_119">
    <path d="M 180.387 39.355867 
L 183.753 39.355867 
L 183.753 39.355867 
L 180.387 39.355867 
z
" clip-path="url(#pf031f6df98)" style="fill: #cc78bc"/>
   </g>
   <g id="patch_120">
    <path d="M 187.119 39.343958 
L 190.485 39.343958 
L 190.485 39.343958 
L 187.119 39.343958 
z
" clip-path="url(#pf031f6df98)" style="fill: #cc78bc"/>
   </g>
   <g id="patch_121">
    <path d="M 193.851 39.358122 
L 197.217 39.358122 
L 197.217 39.358122 
L 193.851 39.358122 
z
" clip-path="url(#pf031f6df98)" style="fill: #cc78bc"/>
   </g>
   <g id="patch_122">
    <path d="M 200.583 39.356994 
L 203.949 39.356994 
L 203.949 39.356994 
L 200.583 39.356994 
z
" clip-path="url(#pf031f6df98)" style="fill: #cc78bc"/>
   </g>
   <g id="matplotlib.axis_1">
    <g id="xtick_1">
     <g id="line2d_1">
      <defs>
       <path id="md52ecded1c" d="M 0 0 
L 0 3.5 
" style="stroke: #000000; stroke-width: 0.8"/>
      </defs>
      <g>
       <use xlink:href="#md52ecded1c" x="47.43" y="72.912" style="stroke: #000000; stroke-width: 0.8"/>
      </g>
     </g>
    </g>
    <g id="xtick_2">
     <g id="line2d_2">
      <g>
       <use xlink:href="#md52ecded1c" x="54.162" y="72.912" style="stroke: #000000; stroke-width: 0.8"/>
      </g>
     </g>
    </g>
    <g id="xtick_3">
     <g id="line2d_3">
      <g>
       <use xlink:href="#md52ecded1c" x="60.894" y="72.912" style="stroke: #000000; stroke-width: 0.8"/>
      </g>
     </g>
    </g>
    <g id="xtick_4">
     <g id="line2d_4">
      <g>
       <use xlink:href="#md52ecded1c" x="67.626" y="72.912" style="stroke: #000000; stroke-width: 0.8"/>
      </g>
     </g>
    </g>
    <g id="xtick_5">
     <g id="line2d_5">
      <g>
       <use xlink:href="#md52ecded1c" x="74.358" y="72.912" style="stroke: #000000; stroke-width: 0.8"/>
      </g>
     </g>
    </g>
    <g id="xtick_6">
     <g id="line2d_6">
      <g>
       <use xlink:href="#md52ecded1c" x="81.09" y="72.912" style="stroke: #000000; stroke-width: 0.8"/>
      </g>
     </g>
    </g>
    <g id="xtick_7">
     <g id="line2d_7">
      <g>
       <use xlink:href="#md52ecded1c" x="87.822" y="72.912" style="stroke: #000000; stroke-width: 0.8"/>
      </g>
     </g>
    </g>
    <g id="xtick_8">
     <g id="line2d_8">
      <g>
       <use xlink:href="#md52ecded1c" x="94.554" y="72.912" style="stroke: #000000; stroke-width: 0.8"/>
      </g>
     </g>
    </g>
    <g id="xtick_9">
     <g id="line2d_9">
      <g>
       <use xlink:href="#md52ecded1c" x="101.286" y="72.912" style="stroke: #000000; stroke-width: 0.8"/>
      </g>
     </g>
    </g>
    <g id="xtick_10">
     <g id="line2d_10">
      <g>
       <use xlink:href="#md52ecded1c" x="108.018" y="72.912" style="stroke: #000000; stroke-width: 0.8"/>
      </g>
     </g>
    </g>
    <g id="xtick_11">
     <g id="line2d_11">
      <g>
       <use xlink:href="#md52ecded1c" x="114.75" y="72.912" style="stroke: #000000; stroke-width: 0.8"/>
      </g>
     </g>
    </g>
    <g id="xtick_12">
     <g id="line2d_12">
      <g>
       <use xlink:href="#md52ecded1c" x="121.482" y="72.912" style="stroke: #000000; stroke-width: 0.8"/>
      </g>
     </g>
    </g>
    <g id="xtick_13">
     <g id="line2d_13">
      <g>
       <use xlink:href="#md52ecded1c" x="128.214" y="72.912" style="stroke: #000000; stroke-width: 0.8"/>
      </g>
     </g>
    </g>
    <g id="xtick_14">
     <g id="line2d_14">
      <g>
       <use xlink:href="#md52ecded1c" x="134.946" y="72.912" style="stroke: #000000; stroke-width: 0.8"/>
      </g>
     </g>
    </g>
    <g id="xtick_15">
     <g id="line2d_15">
      <g>
       <use xlink:href="#md52ecded1c" x="141.678" y="72.912" style="stroke: #000000; stroke-width: 0.8"/>
      </g>
     </g>
    </g>
    <g id="xtick_16">
     <g id="line2d_16">
      <g>
       <use xlink:href="#md52ecded1c" x="148.41" y="72.912" style="stroke: #000000; stroke-width: 0.8"/>
      </g>
     </g>
    </g>
    <g id="xtick_17">
     <g id="line2d_17">
      <g>
       <use xlink:href="#md52ecded1c" x="155.142" y="72.912" style="stroke: #000000; stroke-width: 0.8"/>
      </g>
     </g>
    </g>
    <g id="xtick_18">
     <g id="line2d_18">
      <g>
       <use xlink:href="#md52ecded1c" x="161.874" y="72.912" style="stroke: #000000; stroke-width: 0.8"/>
      </g>
     </g>
    </g>
    <g id="xtick_19">
     <g id="line2d_19">
      <g>
       <use xlink:href="#md52ecded1c" x="168.606" y="72.912" style="stroke: #000000; stroke-width: 0.8"/>
      </g>
     </g>
    </g>
    <g id="xtick_20">
     <g id="line2d_20">
      <g>
       <use xlink:href="#md52ecded1c" x="175.338" y="72.912" style="stroke: #000000; stroke-width: 0.8"/>
      </g>
     </g>
    </g>
    <g id="xtick_21">
     <g id="line2d_21">
      <g>
       <use xlink:href="#md52ecded1c" x="182.07" y="72.912" style="stroke: #000000; stroke-width: 0.8"/>
      </g>
     </g>
    </g>
    <g id="xtick_22">
     <g id="line2d_22">
      <g>
       <use xlink:href="#md52ecded1c" x="188.802" y="72.912" style="stroke: #000000; stroke-width: 0.8"/>
      </g>
     </g>
    </g>
    <g id="xtick_23">
     <g id="line2d_23">
      <g>
       <use xlink:href="#md52ecded1c" x="195.534" y="72.912" style="stroke: #000000; stroke-width: 0.8"/>
      </g>
     </g>
    </g>
    <g id="xtick_24">
     <g id="line2d_24">
      <g>
       <use xlink:href="#md52ecded1c" x="202.266" y="72.912" style="stroke: #000000; stroke-width: 0.8"/>
      </g>
     </g>
    </g>
   </g>
   <g id="matplotlib.axis_2">
    <g id="ytick_1">
     <g id="line2d_25">
      <defs>
       <path id="mc6adad1357" d="M 0 0 
L -3.5 0 
" style="stroke: #000000; stroke-width: 0.8"/>
      </defs>
      <g>
       <use xlink:href="#mc6adad1357" x="44.064" y="69.813818" style="stroke: #000000; stroke-width: 0.8"/>
      </g>
     </g>
     <g id="text_1">
      <!-- $\mathdefault{−1}$ -->
      <g transform="translate(25.288791 72.927143) scale(0.09 -0.09)">
       <defs>
        <path id="CMSY10-0" d="M 4218 1472 
C 4326 1472 4442 1472 4442 1600 
C 4442 1728 4326 1728 4218 1728 
L 755 1728 
C 646 1728 531 1728 531 1600 
C 531 1472 646 1472 755 1472 
L 4218 1472 
z
" transform="scale(0.015625)"/>
        <path id="CMR17-31" d="M 1702 4058 
C 1702 4192 1696 4192 1606 4192 
C 1357 3916 979 3827 621 3827 
C 602 3827 570 3827 563 3808 
C 557 3795 557 3782 557 3648 
C 755 3648 1088 3686 1344 3839 
L 1344 461 
C 1344 236 1331 160 781 160 
L 589 160 
L 589 0 
C 896 0 1216 0 1523 0 
C 1830 0 2150 0 2458 0 
L 2458 160 
L 2266 160 
C 1715 160 1702 230 1702 458 
L 1702 4058 
z
" transform="scale(0.015625)"/>
       </defs>
       <use xlink:href="#CMSY10-0" transform="scale(0.996264)"/>
       <use xlink:href="#CMR17-31" transform="translate(77.487468 0) scale(0.996264)"/>
      </g>
     </g>
    </g>
    <g id="ytick_2">
     <g id="line2d_26">
      <g>
       <use xlink:href="#mc6adad1357" x="44.064" y="38.832" style="stroke: #000000; stroke-width: 0.8"/>
      </g>
     </g>
     <g id="text_2">
      <!-- $\mathdefault{0}$ -->
      <g transform="translate(32.456309 41.945325) scale(0.09 -0.09)">
       <defs>
        <path id="CMR17-30" d="M 2688 2025 
C 2688 2416 2682 3080 2413 3591 
C 2176 4039 1798 4198 1466 4198 
C 1158 4198 768 4058 525 3597 
C 269 3118 243 2524 243 2025 
C 243 1661 250 1106 448 619 
C 723 -39 1216 -128 1466 -128 
C 1760 -128 2208 -7 2470 600 
C 2662 1042 2688 1559 2688 2025 
z
M 1466 -26 
C 1056 -26 813 325 723 812 
C 653 1188 653 1738 653 2096 
C 653 2588 653 2997 736 3387 
C 858 3929 1216 4096 1466 4096 
C 1728 4096 2067 3923 2189 3400 
C 2272 3036 2278 2607 2278 2096 
C 2278 1680 2278 1169 2202 792 
C 2067 95 1690 -26 1466 -26 
z
" transform="scale(0.015625)"/>
       </defs>
       <use xlink:href="#CMR17-30" transform="scale(0.996264)"/>
      </g>
     </g>
    </g>
    <g id="ytick_3">
     <g id="line2d_27">
      <g>
       <use xlink:href="#mc6adad1357" x="44.064" y="7.850182" style="stroke: #000000; stroke-width: 0.8"/>
      </g>
     </g>
     <g id="text_3">
      <!-- $\mathdefault{1}$ -->
      <g transform="translate(32.456309 10.963507) scale(0.09 -0.09)">
       <use xlink:href="#CMR17-31" transform="scale(0.996264)"/>
      </g>
     </g>
    </g>
    <g id="text_4">
     <!-- Q (m$^3$/s) -->
     <g transform="translate(19.047197 57.572005) rotate(-90) scale(0.09 -0.09)">
      <defs>
       <path id="CMR17-51" d="M 3027 83 
C 3789 408 4307 1236 4307 2193 
C 4307 3499 3366 4480 2304 4480 
C 1216 4480 294 3488 294 2199 
C 294 928 1216 -64 2304 -64 
C 2451 -64 2656 -45 2899 38 
C 3008 -747 3078 -1216 3629 -1216 
C 4307 -1216 4339 -213 4339 -33 
C 4339 32 4339 76 4294 76 
C 4262 76 4256 31 4256 18 
C 4211 -603 3866 -732 3661 -732 
C 3283 -732 3149 -394 3027 83 
z
M 1958 100 
C 1293 310 768 1017 768 2199 
C 768 3711 1606 4365 2298 4365 
C 3014 4365 3834 3686 3834 2198 
C 3834 1124 3405 527 2976 254 
C 2880 579 2726 960 2310 960 
C 2003 960 1830 692 1830 450 
C 1830 304 1888 183 1958 100 
z
M 2874 192 
C 2618 57 2413 57 2304 57 
C 2016 57 1933 315 1933 454 
C 1933 650 2067 858 2310 858 
C 2720 858 2822 493 2874 192 
z
" transform="scale(0.015625)"/>
       <path id="CMR17-28" d="M 1958 -1561 
C 1958 -1555 1958 -1542 1939 -1523 
C 1645 -1224 858 -407 858 1581 
C 858 3569 1632 4379 1946 4697 
C 1946 4704 1958 4717 1958 4736 
C 1958 4755 1939 4768 1914 4768 
C 1843 4768 1299 4296 986 3594 
C 666 2887 576 2199 576 1588 
C 576 1128 621 351 1005 -471 
C 1312 -1135 1837 -1600 1914 -1600 
C 1946 -1600 1958 -1587 1958 -1561 
z
" transform="scale(0.015625)"/>
       <path id="CMR17-6d" d="M 4326 1933 
C 4326 2252 4269 2790 3507 2790 
C 3072 2790 2771 2496 2656 2151 
L 2650 2151 
C 2573 2676 2195 2790 1837 2790 
C 1331 2790 1069 2400 973 2144 
L 966 2144 
L 966 2790 
L 211 2720 
L 211 2554 
C 589 2554 646 2515 646 2208 
L 646 428 
C 646 184 621 153 211 153 
L 211 -13 
C 365 0 646 0 813 0 
C 979 0 1267 0 1421 -13 
L 1421 153 
C 1011 153 986 178 986 428 
L 986 1658 
C 986 2247 1344 2688 1792 2688 
C 2266 2688 2317 2266 2317 1958 
L 2317 428 
C 2317 184 2291 153 1882 153 
L 1882 -13 
C 2035 0 2317 0 2483 0 
C 2650 0 2938 0 3091 -13 
L 3091 153 
C 2682 153 2656 178 2656 428 
L 2656 1658 
C 2656 2247 3014 2688 3462 2688 
C 3936 2688 3987 2266 3987 1958 
L 3987 428 
C 3987 184 3962 153 3552 153 
L 3552 -13 
C 3706 0 3987 0 4154 0 
C 4320 0 4608 0 4762 -13 
L 4762 153 
C 4352 153 4326 178 4326 428 
L 4326 1933 
z
" transform="scale(0.015625)"/>
       <path id="CMR17-33" d="M 1414 2157 
C 1984 2157 2234 1662 2234 1090 
C 2234 320 1824 25 1453 25 
C 1114 25 563 194 390 693 
C 422 680 454 680 486 680 
C 640 680 755 782 755 948 
C 755 1133 614 1216 486 1216 
C 378 1216 211 1165 211 926 
C 211 335 787 -128 1466 -128 
C 2176 -128 2720 430 2720 1085 
C 2720 1707 2208 2157 1600 2227 
C 2086 2328 2554 2756 2554 3329 
C 2554 3820 2048 4179 1472 4179 
C 890 4179 378 3829 378 3329 
C 378 3110 544 3072 627 3072 
C 762 3072 877 3155 877 3321 
C 877 3486 762 3569 627 3569 
C 602 3569 570 3569 544 3557 
C 730 3959 1235 4032 1459 4032 
C 1683 4032 2106 3925 2106 3320 
C 2106 3143 2080 2828 1862 2550 
C 1670 2304 1453 2304 1242 2284 
C 1210 2284 1062 2269 1037 2269 
C 992 2263 966 2257 966 2208 
C 966 2163 973 2157 1101 2157 
L 1414 2157 
z
" transform="scale(0.015625)"/>
       <path id="CMR17-2f" d="M 2605 4545 
C 2637 4627 2637 4640 2637 4653 
C 2637 4729 2579 4768 2528 4768 
C 2451 4768 2426 4717 2400 4640 
L 326 -1377 
C 294 -1460 294 -1473 294 -1486 
C 294 -1562 352 -1600 403 -1600 
C 480 -1600 506 -1549 531 -1473 
L 2605 4545 
z
" transform="scale(0.015625)"/>
       <path id="CMR17-73" d="M 1978 2697 
C 1978 2813 1971 2819 1933 2819 
C 1907 2819 1901 2813 1824 2717 
C 1805 2691 1747 2626 1728 2601 
C 1523 2819 1235 2819 1126 2819 
C 416 2819 160 2447 160 2076 
C 160 1498 813 1365 998 1325 
C 1402 1243 1542 1217 1677 1101 
C 1760 1025 1901 884 1901 654 
C 1901 384 1747 38 1158 38 
C 602 38 403 460 288 1021 
C 269 1110 269 1117 218 1117 
C 166 1117 160 1110 160 983 
L 160 63 
C 160 -51 166 -58 205 -58 
C 237 -58 243 -51 275 0 
C 314 57 410 211 448 276 
C 576 103 800 -64 1158 -64 
C 1792 -64 2131 283 2131 784 
C 2131 1112 1958 1285 1875 1362 
C 1683 1561 1459 1606 1190 1657 
C 838 1735 390 1825 390 2217 
C 390 2383 480 2737 1126 2737 
C 1811 2737 1850 2094 1862 1888 
C 1869 1856 1901 1849 1920 1849 
C 1978 1849 1978 1869 1978 1978 
L 1978 2697 
z
" transform="scale(0.015625)"/>
       <path id="CMR17-29" d="M 1683 1581 
C 1683 2040 1638 2817 1254 3639 
C 947 4303 422 4768 346 4768 
C 326 4768 301 4761 301 4729 
C 301 4717 307 4710 314 4697 
C 621 4378 1402 3568 1402 1584 
C 1402 -407 627 -1217 314 -1537 
C 307 -1549 301 -1556 301 -1568 
C 301 -1600 326 -1600 346 -1600 
C 416 -1600 960 -1128 1274 -426 
C 1594 281 1683 969 1683 1581 
z
" transform="scale(0.015625)"/>
      </defs>
      <use xlink:href="#CMR17-51" transform="scale(0.996264)"/>
      <use xlink:href="#CMR17-28" transform="translate(101.790755 0) scale(0.996264)"/>
      <use xlink:href="#CMR17-6d" transform="translate(137.071523 0) scale(0.996264)"/>
      <use xlink:href="#CMR17-33" transform="translate(213.991112 36.153639) scale(0.697382)"/>
      <use xlink:href="#CMR17-2f" transform="translate(246.472426 0) scale(0.996264)"/>
      <use xlink:href="#CMR17-73" transform="translate(292.162904 0) scale(0.996264)"/>
      <use xlink:href="#CMR17-29" transform="translate(327.964241 0) scale(0.996264)"/>
     </g>
    </g>
   </g>
   <g id="line2d_28">
    <path d="M 44.064 38.832 
L 205.632 38.832 
" clip-path="url(#pf031f6df98)" style="fill: none; stroke: #000000; stroke-width: 1.5; stroke-linecap: square"/>
   </g>
   <g id="patch_123">
    <path d="M 44.064 72.912 
L 44.064 4.752 
" style="fill: none; stroke: #000000; stroke-width: 0.8; stroke-linejoin: miter; stroke-linecap: square"/>
   </g>
   <g id="patch_124">
    <path d="M 44.064 72.912 
L 205.632 72.912 
" style="fill: none; stroke: #000000; stroke-width: 0.8; stroke-linejoin: miter; stroke-linecap: square"/>
   </g>
   <g id="legend_1">
    <g id="patch_125">
     <path d="M 5.671089 153.051407 
L 244.024911 153.051407 
L 244.024911 137.3928 
L 5.671089 137.3928 
z
" style="fill: #ffffff; opacity: 0.8; stroke: #cccccc; stroke-linejoin: miter"/>
    </g>
    <g id="patch_126">
     <path d="M 9.271089 147.2928 
L 25.471089 147.2928 
L 25.471089 140.9928 
L 9.271089 140.9928 
z
" style="fill: #029e73"/>
    </g>
    <g id="text_5">
     <!-- $Q_{irr,4}$ -->
     <g transform="translate(29.071089 147.2928) scale(0.09 -0.09)">
      <defs>
       <path id="CMMI12-51" d="M 2726 45 
C 3827 490 4646 1663 4646 2829 
C 4646 3893 3955 4544 3059 4544 
C 1690 4544 307 3062 307 1573 
C 307 561 973 -128 1901 -128 
C 2118 -128 2330 -96 2534 -33 
C 2496 -411 2496 -442 2496 -562 
C 2496 -744 2496 -1216 3008 -1216 
C 3770 -1216 4051 -37 4051 2 
C 4051 39 4026 64 3994 64 
C 3955 64 3942 34 3923 -36 
C 3782 -429 3450 -654 3168 -654 
C 2842 -654 2758 -435 2726 45 
z
M 1574 77 
C 1069 252 826 787 826 1379 
C 826 1831 992 2689 1414 3340 
C 1888 4075 2522 4404 3021 4404 
C 3686 4404 4134 3862 4134 3024 
C 4134 2547 3910 948 2707 240 
C 2675 571 2586 960 2163 960 
C 1818 960 1523 609 1523 291 
C 1523 220 1549 123 1574 77 
z
M 2547 156 
C 2317 52 2118 12 1939 12 
C 1875 12 1651 12 1651 298 
C 1651 533 1875 832 2163 832 
C 2483 832 2554 611 2554 286 
C 2554 246 2554 194 2547 156 
z
" transform="scale(0.015625)"/>
       <path id="CMMI12-69" d="M 1811 913 
C 1811 945 1786 971 1747 971 
C 1690 971 1683 952 1651 843 
C 1485 262 1222 64 1011 64 
C 934 64 845 83 845 275 
C 845 447 922 639 992 830 
L 1440 2018 
C 1459 2069 1504 2184 1504 2305 
C 1504 2574 1312 2816 998 2816 
C 410 2816 173 1890 173 1839 
C 173 1814 198 1782 243 1782 
C 301 1782 307 1807 333 1896 
C 486 2428 730 2682 979 2682 
C 1037 2682 1146 2682 1146 2478 
C 1146 2312 1062 2101 1011 1961 
L 563 773 
C 525 671 486 568 486 453 
C 486 166 685 -64 992 -64 
C 1581 -64 1811 869 1811 913 
z
M 1760 4013 
C 1760 4109 1683 4224 1542 4224 
C 1395 4224 1229 4083 1229 3917 
C 1229 3758 1363 3707 1440 3707 
C 1613 3707 1760 3873 1760 4013 
z
" transform="scale(0.015625)"/>
       <path id="CMMI12-72" d="M 2490 2612 
C 2291 2574 2189 2433 2189 2293 
C 2189 2139 2310 2088 2400 2088 
C 2579 2088 2726 2242 2726 2433 
C 2726 2638 2528 2816 2208 2816 
C 1952 2816 1658 2701 1389 2312 
C 1344 2650 1088 2816 832 2816 
C 582 2816 454 2625 378 2484 
C 269 2254 173 1871 173 1839 
C 173 1814 198 1782 243 1782 
C 294 1782 301 1788 339 1935 
C 435 2318 557 2689 813 2689 
C 966 2689 1011 2580 1011 2395 
C 1011 2254 947 2005 902 1807 
L 723 1118 
C 698 996 627 709 595 594 
C 550 428 480 128 480 96 
C 480 6 550 -64 646 -64 
C 717 -64 838 -19 877 109 
C 896 160 1133 1124 1171 1271 
C 1203 1411 1242 1546 1274 1686 
C 1299 1775 1325 1878 1344 1961 
C 1363 2018 1536 2331 1696 2472 
C 1773 2542 1939 2689 2202 2689 
C 2304 2689 2406 2670 2490 2612 
z
" transform="scale(0.015625)"/>
       <path id="CMMI12-3b" d="M 1248 -31 
C 1248 343 1126 619 864 619 
C 659 619 557 453 557 313 
C 557 172 653 0 870 0 
C 954 0 1024 26 1082 83 
C 1094 96 1101 96 1107 96 
C 1120 96 1120 5 1120 -27 
C 1120 -240 1082 -659 710 -1080 
C 640 -1157 640 -1170 640 -1183 
C 640 -1216 672 -1248 704 -1248 
C 755 -1248 1248 -771 1248 -31 
z
" transform="scale(0.015625)"/>
       <path id="CMR17-34" d="M 2150 4122 
C 2150 4256 2144 4256 2029 4256 
L 128 1254 
L 128 1088 
L 1779 1088 
L 1779 457 
C 1779 224 1766 160 1318 160 
L 1197 160 
L 1197 0 
C 1402 0 1747 0 1965 0 
C 2182 0 2528 0 2733 0 
L 2733 160 
L 2611 160 
C 2163 160 2150 224 2150 457 
L 2150 1088 
L 2803 1088 
L 2803 1254 
L 2150 1254 
L 2150 4122 
z
M 1798 3703 
L 1798 1254 
L 256 1254 
L 1798 3703 
z
" transform="scale(0.015625)"/>
      </defs>
      <use xlink:href="#CMMI12-51" transform="scale(0.996264)"/>
      <use xlink:href="#CMMI12-69" transform="translate(77.260399 -14.943915) scale(0.697382)"/>
      <use xlink:href="#CMMI12-72" transform="translate(100.555306 -14.943915) scale(0.697382)"/>
      <use xlink:href="#CMMI12-72" transform="translate(133.224575 -14.943915) scale(0.697382)"/>
      <use xlink:href="#CMMI12-3b" transform="translate(162.100254 -14.943915) scale(0.697382)"/>
      <use xlink:href="#CMR17-34" transform="translate(181.068187 -14.943915) scale(0.697382)"/>
     </g>
    </g>
    <g id="patch_127">
     <path d="M 57.25739 147.2928 
L 73.45739 147.2928 
L 73.45739 140.9928 
L 57.25739 140.9928 
z
" style="fill: #0173b2"/>
    </g>
    <g id="text_6">
     <!-- $Q_{P3s}$ -->
     <g transform="translate(77.05739 147.2928) scale(0.09 -0.09)">
      <defs>
       <path id="CMMI12-50" d="M 1894 2023 
L 2970 2023 
C 3853 2023 4736 2673 4736 3401 
C 4736 3898 4314 4352 3507 4352 
L 1530 4352 
C 1408 4352 1350 4352 1350 4231 
C 1350 4167 1408 4167 1504 4167 
C 1894 4167 1894 4116 1894 4046 
C 1894 4034 1894 3995 1869 3899 
L 1005 472 
C 947 249 934 185 486 185 
C 365 185 301 185 301 70 
C 301 0 358 0 397 0 
C 518 0 646 0 768 0 
L 1517 0 
C 1638 0 1773 0 1894 0 
C 1946 0 2016 0 2016 121 
C 2016 185 1958 185 1862 185 
C 1478 185 1472 230 1472 293 
C 1472 325 1478 369 1485 401 
L 1894 2023 
z
M 2355 3930 
C 2413 4167 2438 4167 2688 4167 
L 3322 4167 
C 3802 4167 4198 4013 4198 3535 
C 4198 3369 4115 2827 3821 2534 
C 3712 2419 3405 2176 2822 2176 
L 1920 2176 
L 2355 3930 
z
" transform="scale(0.015625)"/>
       <path id="CMMI12-73" d="M 1459 1280 
C 1568 1261 1741 1223 1779 1216 
C 1862 1192 2150 1090 2150 783 
C 2150 586 1971 70 1229 70 
C 1094 70 614 70 486 436 
C 742 404 870 603 870 745 
C 870 880 781 950 653 950 
C 512 950 326 841 326 552 
C 326 173 710 -64 1222 -64 
C 2195 -64 2483 651 2483 984 
C 2483 1079 2483 1258 2278 1462 
C 2118 1616 1965 1648 1619 1718 
C 1446 1756 1171 1814 1171 2101 
C 1171 2229 1286 2689 1894 2689 
C 2163 2689 2426 2589 2490 2368 
C 2208 2368 2195 2125 2195 2119 
C 2195 1984 2317 1946 2374 1946 
C 2464 1946 2643 2015 2643 2281 
C 2643 2545 2400 2816 1901 2816 
C 1062 2816 838 2160 838 1899 
C 838 1414 1312 1312 1459 1280 
z
" transform="scale(0.015625)"/>
      </defs>
      <use xlink:href="#CMMI12-51" transform="scale(0.996264)"/>
      <use xlink:href="#CMMI12-50" transform="translate(77.260399 -14.943915) scale(0.697382)"/>
      <use xlink:href="#CMR17-33" transform="translate(130.758222 -14.943915) scale(0.697382)"/>
      <use xlink:href="#CMMI12-73" transform="translate(162.741404 -14.943915) scale(0.697382)"/>
     </g>
    </g>
    <g id="patch_128">
     <path d="M 102.503312 147.2928 
L 118.703312 147.2928 
L 118.703312 140.9928 
L 102.503312 140.9928 
z
" style="fill: #de8f05"/>
    </g>
    <g id="text_7">
     <!-- $Q_{P3g}$ -->
     <g transform="translate(122.303312 147.2928) scale(0.09 -0.09)">
      <defs>
       <path id="CMMI12-67" d="M 2163 811 
C 2138 709 2125 683 2042 588 
C 1779 249 1510 128 1312 128 
C 1101 128 902 294 902 734 
C 902 1073 1094 1788 1235 2076 
C 1421 2433 1709 2689 1978 2689 
C 2400 2689 2483 2165 2483 2127 
L 2464 2037 
L 2163 811 
z
M 2560 2395 
C 2477 2580 2298 2816 1978 2816 
C 1280 2816 486 1941 486 990 
C 486 326 890 0 1299 0 
C 1638 0 1939 268 2054 396 
L 1914 -171 
C 1824 -516 1786 -674 1555 -894 
C 1293 -1152 1050 -1152 909 -1152 
C 717 -1152 557 -1139 397 -1089 
C 602 -1033 653 -858 653 -789 
C 653 -689 576 -588 435 -588 
C 282 -588 115 -714 115 -922 
C 115 -1180 378 -1280 922 -1280 
C 1747 -1280 2176 -753 2259 -410 
L 2970 2435 
C 2989 2511 2989 2524 2989 2536 
C 2989 2625 2918 2695 2822 2695 
C 2669 2695 2579 2567 2560 2395 
z
" transform="scale(0.015625)"/>
      </defs>
      <use xlink:href="#CMMI12-51" transform="scale(0.996264)"/>
      <use xlink:href="#CMMI12-50" transform="translate(77.260399 -14.943915) scale(0.697382)"/>
      <use xlink:href="#CMR17-33" transform="translate(130.758222 -14.943915) scale(0.697382)"/>
      <use xlink:href="#CMMI12-67" transform="translate(162.741404 -14.943915) scale(0.697382)"/>
     </g>
    </g>
    <g id="patch_129">
     <path d="M 147.888238 147.2928 
L 164.088238 147.2928 
L 164.088238 140.9928 
L 147.888238 140.9928 
z
" style="fill: #d55e00"/>
    </g>
    <g id="text_8">
     <!-- $Q_{P24s}$ -->
     <g transform="translate(167.688238 147.2928) scale(0.09 -0.09)">
      <defs>
       <path id="CMR17-32" d="M 2669 989 
L 2554 989 
C 2490 536 2438 459 2413 420 
C 2381 369 1920 369 1830 369 
L 602 369 
C 832 619 1280 1072 1824 1597 
C 2214 1967 2669 2402 2669 3035 
C 2669 3790 2067 4224 1395 4224 
C 691 4224 262 3604 262 3030 
C 262 2780 448 2748 525 2748 
C 589 2748 781 2787 781 3010 
C 781 3207 614 3264 525 3264 
C 486 3264 448 3258 422 3245 
C 544 3790 915 4058 1306 4058 
C 1862 4058 2227 3617 2227 3035 
C 2227 2479 1901 2000 1536 1584 
L 262 146 
L 262 0 
L 2515 0 
L 2669 989 
z
" transform="scale(0.015625)"/>
      </defs>
      <use xlink:href="#CMMI12-51" transform="scale(0.996264)"/>
      <use xlink:href="#CMMI12-50" transform="translate(77.260399 -14.943915) scale(0.697382)"/>
      <use xlink:href="#CMR17-32" transform="translate(130.758222 -14.943915) scale(0.697382)"/>
      <use xlink:href="#CMR17-34" transform="translate(162.741404 -14.943915) scale(0.697382)"/>
      <use xlink:href="#CMMI12-73" transform="translate(194.724586 -14.943915) scale(0.697382)"/>
     </g>
    </g>
    <g id="patch_130">
     <path d="M 196.787072 147.2928 
L 212.987072 147.2928 
L 212.987072 140.9928 
L 196.787072 140.9928 
z
" style="fill: #cc78bc"/>
    </g>
    <g id="text_9">
     <!-- $Q_{P24g}$ -->
     <g transform="translate(216.587072 147.2928) scale(0.09 -0.09)">
      <use xlink:href="#CMMI12-51" transform="scale(0.996264)"/>
      <use xlink:href="#CMMI12-50" transform="translate(77.260399 -14.943915) scale(0.697382)"/>
      <use xlink:href="#CMR17-32" transform="translate(130.758222 -14.943915) scale(0.697382)"/>
      <use xlink:href="#CMR17-34" transform="translate(162.741404 -14.943915) scale(0.697382)"/>
      <use xlink:href="#CMMI12-67" transform="translate(194.724586 -14.943915) scale(0.697382)"/>
     </g>
    </g>
   </g>
  </g>
  <g id="axes_2">
   <g id="patch_131">
    <path d="M 44.064 117.216 
L 205.632 117.216 
L 205.632 83.136 
L 44.064 83.136 
z
" style="fill: #ffffff"/>
   </g>
   <g id="FillBetweenPolyCollection_1"/>
   <g id="matplotlib.axis_3">
    <g id="xtick_25">
     <g id="line2d_29">
      <g>
       <use xlink:href="#md52ecded1c" x="47.43" y="117.216" style="stroke: #000000; stroke-width: 0.8"/>
      </g>
     </g>
     <g id="text_10">
      <!-- 0 -->
      <g transform="translate(49.671594 128.823691) rotate(-90) scale(0.09 -0.09)">
       <use xlink:href="#CMR17-30" transform="scale(0.996264)"/>
      </g>
     </g>
    </g>
    <g id="xtick_26">
     <g id="line2d_30">
      <g>
       <use xlink:href="#md52ecded1c" x="54.162" y="117.216" style="stroke: #000000; stroke-width: 0.8"/>
      </g>
     </g>
    </g>
    <g id="xtick_27">
     <g id="line2d_31">
      <g>
       <use xlink:href="#md52ecded1c" x="60.894" y="117.216" style="stroke: #000000; stroke-width: 0.8"/>
      </g>
     </g>
    </g>
    <g id="xtick_28">
     <g id="line2d_32">
      <g>
       <use xlink:href="#md52ecded1c" x="67.626" y="117.216" style="stroke: #000000; stroke-width: 0.8"/>
      </g>
     </g>
    </g>
    <g id="xtick_29">
     <g id="line2d_33">
      <g>
       <use xlink:href="#md52ecded1c" x="74.358" y="117.216" style="stroke: #000000; stroke-width: 0.8"/>
      </g>
     </g>
    </g>
    <g id="xtick_30">
     <g id="line2d_34">
      <g>
       <use xlink:href="#md52ecded1c" x="81.09" y="117.216" style="stroke: #000000; stroke-width: 0.8"/>
      </g>
     </g>
    </g>
    <g id="xtick_31">
     <g id="line2d_35">
      <g>
       <use xlink:href="#md52ecded1c" x="87.822" y="117.216" style="stroke: #000000; stroke-width: 0.8"/>
      </g>
     </g>
     <g id="text_11">
      <!-- 6 -->
      <g transform="translate(90.063594 128.823691) rotate(-90) scale(0.09 -0.09)">
       <defs>
        <path id="CMR17-36" d="M 678 2176 
C 678 3690 1395 4032 1811 4032 
C 1946 4032 2272 4009 2400 3776 
C 2298 3776 2106 3776 2106 3553 
C 2106 3381 2246 3323 2336 3323 
C 2394 3323 2566 3348 2566 3560 
C 2566 3954 2246 4179 1805 4179 
C 1043 4179 243 3390 243 1984 
C 243 253 966 -128 1478 -128 
C 2099 -128 2688 427 2688 1283 
C 2688 2081 2170 2662 1517 2662 
C 1126 2662 838 2407 678 1960 
L 678 2176 
z
M 1478 25 
C 691 25 691 1200 691 1436 
C 691 1896 909 2560 1504 2560 
C 1613 2560 1926 2560 2138 2120 
C 2253 1870 2253 1609 2253 1289 
C 2253 944 2253 690 2118 434 
C 1978 171 1773 25 1478 25 
z
" transform="scale(0.015625)"/>
       </defs>
       <use xlink:href="#CMR17-36" transform="scale(0.996264)"/>
      </g>
     </g>
    </g>
    <g id="xtick_32">
     <g id="line2d_36">
      <g>
       <use xlink:href="#md52ecded1c" x="94.554" y="117.216" style="stroke: #000000; stroke-width: 0.8"/>
      </g>
     </g>
    </g>
    <g id="xtick_33">
     <g id="line2d_37">
      <g>
       <use xlink:href="#md52ecded1c" x="101.286" y="117.216" style="stroke: #000000; stroke-width: 0.8"/>
      </g>
     </g>
    </g>
    <g id="xtick_34">
     <g id="line2d_38">
      <g>
       <use xlink:href="#md52ecded1c" x="108.018" y="117.216" style="stroke: #000000; stroke-width: 0.8"/>
      </g>
     </g>
    </g>
    <g id="xtick_35">
     <g id="line2d_39">
      <g>
       <use xlink:href="#md52ecded1c" x="114.75" y="117.216" style="stroke: #000000; stroke-width: 0.8"/>
      </g>
     </g>
    </g>
    <g id="xtick_36">
     <g id="line2d_40">
      <g>
       <use xlink:href="#md52ecded1c" x="121.482" y="117.216" style="stroke: #000000; stroke-width: 0.8"/>
      </g>
     </g>
    </g>
    <g id="xtick_37">
     <g id="line2d_41">
      <g>
       <use xlink:href="#md52ecded1c" x="128.214" y="117.216" style="stroke: #000000; stroke-width: 0.8"/>
      </g>
     </g>
     <g id="text_12">
      <!-- 12 -->
      <g transform="translate(130.455594 133.431381) rotate(-90) scale(0.09 -0.09)">
       <use xlink:href="#CMR17-31" transform="scale(0.996264)"/>
       <use xlink:href="#CMR17-32" transform="translate(45.690477 0) scale(0.996264)"/>
      </g>
     </g>
    </g>
    <g id="xtick_38">
     <g id="line2d_42">
      <g>
       <use xlink:href="#md52ecded1c" x="134.946" y="117.216" style="stroke: #000000; stroke-width: 0.8"/>
      </g>
     </g>
    </g>
    <g id="xtick_39">
     <g id="line2d_43">
      <g>
       <use xlink:href="#md52ecded1c" x="141.678" y="117.216" style="stroke: #000000; stroke-width: 0.8"/>
      </g>
     </g>
    </g>
    <g id="xtick_40">
     <g id="line2d_44">
      <g>
       <use xlink:href="#md52ecded1c" x="148.41" y="117.216" style="stroke: #000000; stroke-width: 0.8"/>
      </g>
     </g>
    </g>
    <g id="xtick_41">
     <g id="line2d_45">
      <g>
       <use xlink:href="#md52ecded1c" x="155.142" y="117.216" style="stroke: #000000; stroke-width: 0.8"/>
      </g>
     </g>
    </g>
    <g id="xtick_42">
     <g id="line2d_46">
      <g>
       <use xlink:href="#md52ecded1c" x="161.874" y="117.216" style="stroke: #000000; stroke-width: 0.8"/>
      </g>
     </g>
    </g>
    <g id="xtick_43">
     <g id="line2d_47">
      <g>
       <use xlink:href="#md52ecded1c" x="168.606" y="117.216" style="stroke: #000000; stroke-width: 0.8"/>
      </g>
     </g>
     <g id="text_13">
      <!-- 18 -->
      <g transform="translate(170.847594 133.431381) rotate(-90) scale(0.09 -0.09)">
       <defs>
        <path id="CMR17-38" d="M 1741 2264 
C 2144 2467 2554 2773 2554 3263 
C 2554 3841 1990 4179 1472 4179 
C 890 4179 378 3759 378 3180 
C 378 3021 416 2747 666 2505 
C 730 2442 998 2251 1171 2130 
C 883 1983 211 1634 211 934 
C 211 279 838 -128 1459 -128 
C 2144 -128 2720 362 2720 1010 
C 2720 1590 2330 1857 2074 2029 
L 1741 2264 
z
M 902 2822 
C 851 2854 595 3051 595 3351 
C 595 3739 998 4032 1459 4032 
C 1965 4032 2336 3676 2336 3262 
C 2336 2669 1670 2331 1638 2331 
C 1632 2331 1626 2331 1574 2370 
L 902 2822 
z
M 2080 1519 
C 2176 1449 2483 1240 2483 851 
C 2483 381 2010 25 1472 25 
C 890 25 448 438 448 940 
C 448 1443 838 1862 1280 2060 
L 2080 1519 
z
" transform="scale(0.015625)"/>
       </defs>
       <use xlink:href="#CMR17-31" transform="scale(0.996264)"/>
       <use xlink:href="#CMR17-38" transform="translate(45.690477 0) scale(0.996264)"/>
      </g>
     </g>
    </g>
    <g id="xtick_44">
     <g id="line2d_48">
      <g>
       <use xlink:href="#md52ecded1c" x="175.338" y="117.216" style="stroke: #000000; stroke-width: 0.8"/>
      </g>
     </g>
    </g>
    <g id="xtick_45">
     <g id="line2d_49">
      <g>
       <use xlink:href="#md52ecded1c" x="182.07" y="117.216" style="stroke: #000000; stroke-width: 0.8"/>
      </g>
     </g>
    </g>
    <g id="xtick_46">
     <g id="line2d_50">
      <g>
       <use xlink:href="#md52ecded1c" x="188.802" y="117.216" style="stroke: #000000; stroke-width: 0.8"/>
      </g>
     </g>
    </g>
    <g id="xtick_47">
     <g id="line2d_51">
      <g>
       <use xlink:href="#md52ecded1c" x="195.534" y="117.216" style="stroke: #000000; stroke-width: 0.8"/>
      </g>
     </g>
    </g>
    <g id="xtick_48">
     <g id="line2d_52">
      <g>
       <use xlink:href="#md52ecded1c" x="202.266" y="117.216" style="stroke: #000000; stroke-width: 0.8"/>
      </g>
     </g>
     <g id="text_14">
      <!-- 23 -->
      <g transform="translate(204.507594 133.431381) rotate(-90) scale(0.09 -0.09)">
       <use xlink:href="#CMR17-32" transform="scale(0.996264)"/>
       <use xlink:href="#CMR17-33" transform="translate(45.690477 0) scale(0.996264)"/>
      </g>
     </g>
    </g>
   </g>
   <g id="matplotlib.axis_4">
    <g id="ytick_4">
     <g id="line2d_53">
      <g>
       <use xlink:href="#mc6adad1357" x="44.064" y="111.209563" style="stroke: #000000; stroke-width: 0.8"/>
      </g>
     </g>
     <g id="text_15">
      <!-- 184 -->
      <g transform="translate(23.240928 114.322888) scale(0.09 -0.09)">
       <use xlink:href="#CMR17-31" transform="scale(0.996264)"/>
       <use xlink:href="#CMR17-38" transform="translate(45.690477 0) scale(0.996264)"/>
       <use xlink:href="#CMR17-34" transform="translate(91.380954 0) scale(0.996264)"/>
      </g>
     </g>
    </g>
    <g id="ytick_5">
     <g id="line2d_54">
      <g>
       <use xlink:href="#mc6adad1357" x="44.064" y="96.193471" style="stroke: #000000; stroke-width: 0.8"/>
      </g>
     </g>
     <g id="text_16">
      <!-- 230 -->
      <g transform="translate(23.240928 99.306796) scale(0.09 -0.09)">
       <use xlink:href="#CMR17-32" transform="scale(0.996264)"/>
       <use xlink:href="#CMR17-33" transform="translate(45.690477 0) scale(0.996264)"/>
       <use xlink:href="#CMR17-30" transform="translate(91.380954 0) scale(0.996264)"/>
      </g>
     </g>
    </g>
    <g id="ytick_6">
     <g id="line2d_55">
      <g>
       <use xlink:href="#mc6adad1357" x="44.064" y="83.136" style="stroke: #000000; stroke-width: 0.8"/>
      </g>
     </g>
     <g id="text_17">
      <!-- 270 -->
      <g transform="translate(23.240928 86.249325) scale(0.09 -0.09)">
       <defs>
        <path id="CMR17-37" d="M 2886 3941 
L 2886 4081 
L 1382 4081 
C 634 4081 621 4165 595 4288 
L 480 4288 
L 294 3094 
L 410 3094 
C 429 3215 474 3540 550 3661 
C 589 3712 1062 3712 1171 3712 
L 2579 3712 
L 1869 2661 
C 1395 1954 1069 999 1069 165 
C 1069 89 1069 -128 1299 -128 
C 1530 -128 1530 89 1530 171 
L 1530 465 
C 1530 1508 1709 2196 2003 2636 
L 2886 3941 
z
" transform="scale(0.015625)"/>
       </defs>
       <use xlink:href="#CMR17-32" transform="scale(0.996264)"/>
       <use xlink:href="#CMR17-37" transform="translate(45.690477 0) scale(0.996264)"/>
       <use xlink:href="#CMR17-30" transform="translate(91.380954 0) scale(0.996264)"/>
      </g>
     </g>
    </g>
    <g id="text_18">
     <!-- $W_{R4}$ (10$^3$m$^3$) -->
     <g transform="translate(16.999334 127.087708) rotate(-90) scale(0.09 -0.09)">
      <defs>
       <path id="CMMI12-57" d="M 5779 3646 
C 5926 3894 6067 4129 6451 4168 
C 6509 4174 6566 4180 6566 4282 
C 6566 4352 6509 4352 6490 4352 
C 6477 4352 6432 4352 6010 4352 
C 5818 4352 5619 4352 5434 4352 
C 5395 4352 5318 4352 5318 4226 
C 5318 4166 5370 4160 5408 4160 
C 5536 4160 5741 4122 5741 3925 
C 5741 3842 5715 3797 5651 3690 
L 3904 648 
L 3674 3963 
C 3674 4039 3744 4160 4102 4160 
C 4186 4160 4250 4160 4250 4286 
C 4250 4352 4186 4352 4154 4352 
C 3930 4352 3693 4352 3462 4352 
L 3130 4352 
C 3034 4352 2918 4352 2822 4352 
C 2784 4352 2707 4352 2707 4226 
C 2707 4160 2752 4160 2861 4160 
C 3155 4160 3155 4153 3181 3772 
L 3200 3543 
L 1542 648 
L 1306 3931 
C 1306 4002 1306 4160 1741 4160 
C 1811 4160 1882 4160 1882 4279 
C 1882 4352 1824 4352 1786 4352 
C 1562 4352 1325 4352 1094 4352 
L 762 4352 
C 666 4352 550 4352 454 4352 
C 416 4352 339 4352 339 4226 
C 339 4160 390 4160 480 4160 
C 781 4160 787 4121 800 3918 
L 1082 18 
C 1088 -90 1094 -128 1171 -128 
C 1235 -128 1248 -103 1306 -7 
L 3213 3307 
L 3450 18 
C 3456 -90 3462 -128 3539 -128 
C 3603 -128 3622 -96 3674 -7 
L 5779 3646 
z
" transform="scale(0.015625)"/>
       <path id="CMMI12-52" d="M 2355 3924 
C 2413 4160 2438 4160 2688 4160 
L 3149 4160 
C 3699 4160 4109 3995 4109 3499 
C 4109 3175 3942 2240 2656 2240 
L 1933 2240 
L 2355 3924 
z
M 3245 2169 
C 4038 2341 4659 2851 4659 3398 
C 4659 3894 4154 4352 3264 4352 
L 1530 4352 
C 1402 4352 1344 4352 1344 4226 
C 1344 4160 1389 4160 1510 4160 
C 1894 4160 1894 4112 1894 4045 
C 1894 4033 1894 3994 1869 3899 
L 1005 479 
C 947 256 934 192 493 192 
C 346 192 301 192 301 71 
C 301 7 371 7 390 7 
C 506 7 640 7 762 7 
L 1517 7 
C 1632 7 1766 7 1882 7 
C 1933 7 2003 7 2003 128 
C 2003 192 1946 192 1850 192 
C 1459 192 1459 243 1459 306 
C 1459 313 1459 357 1472 407 
L 1901 2112 
L 2669 2112 
C 3277 2112 3392 1731 3392 1522 
C 3392 1427 3328 1179 3283 1014 
C 3213 723 3194 652 3194 532 
C 3194 82 3565 -128 3994 -128 
C 4512 -128 4736 501 4736 591 
C 4736 635 4704 654 4666 654 
C 4614 654 4602 616 4589 565 
C 4435 114 4173 0 4013 0 
C 3853 0 3750 70 3750 356 
C 3750 509 3827 1088 3834 1120 
C 3866 1355 3866 1380 3866 1432 
C 3866 1896 3488 2093 3245 2169 
z
" transform="scale(0.015625)"/>
      </defs>
      <use xlink:href="#CMMI12-57" transform="scale(0.996264)"/>
      <use xlink:href="#CMMI12-52" transform="translate(92.095909 -14.943915) scale(0.697382)"/>
      <use xlink:href="#CMR17-34" transform="translate(144.645339 -14.943915) scale(0.697382)"/>
      <use xlink:href="#CMR17-28" transform="translate(207.20262 0) scale(0.996264)"/>
      <use xlink:href="#CMR17-31" transform="translate(242.483387 0) scale(0.996264)"/>
      <use xlink:href="#CMR17-30" transform="translate(288.173865 0) scale(0.996264)"/>
      <use xlink:href="#CMR17-33" transform="translate(333.864342 36.153639) scale(0.697382)"/>
      <use xlink:href="#CMR17-6d" transform="translate(366.345656 0) scale(0.996264)"/>
      <use xlink:href="#CMR17-33" transform="translate(443.265246 36.153639) scale(0.697382)"/>
      <use xlink:href="#CMR17-29" transform="translate(475.74656 0) scale(0.996264)"/>
     </g>
    </g>
   </g>
   <g id="line2d_56">
    <path d="M 44.064 111.209563 
L 205.632 111.209563 
" clip-path="url(#p26d5bfac37)" style="fill: none; stroke: #afafaf; stroke-linecap: square"/>
   </g>
   <g id="line2d_57">
    <path d="M 44.064 83.136 
L 205.632 83.136 
" clip-path="url(#p26d5bfac37)" style="fill: none; stroke: #afafaf; stroke-linecap: square"/>
   </g>
   <g id="line2d_58">
    <path d="M 44.064 96.193471 
L 205.632 96.193471 
" clip-path="url(#p26d5bfac37)" style="fill: none; stroke-dasharray: 3.7,1.6; stroke-dashoffset: 0; stroke: #afafaf"/>
   </g>
   <g id="line2d_59">
    <path d="M 44.064 58.653241 
L 205.632 58.653241 
" clip-path="url(#p26d5bfac37)" style="fill: none; stroke-dasharray: 3.7,1.6; stroke-dashoffset: 0; stroke: #afafaf"/>
   </g>
   <g id="line2d_60">
    <path d="M 47.43 96.2129 
L 54.162 96.232514 
L 60.894 96.252177 
L 67.626 96.26995 
L 74.358 96.287952 
L 81.09 96.305676 
L 87.822 96.322815 
L 94.554 96.339389 
L 101.286 96.356782 
L 108.018 96.37686 
L 114.75 96.417205 
L 121.482 96.462598 
L 128.214 96.180078 
L 134.946 96.120714 
L 141.678 96.099132 
L 148.41 96.122906 
L 155.142 96.14611 
L 161.874 96.168373 
L 168.606 96.093726 
L 175.338 96.114312 
L 182.07 96.134183 
L 188.802 96.153602 
L 195.534 96.173558 
L 202.266 96.193471 
" clip-path="url(#p26d5bfac37)" style="fill: none; stroke: #d62728; stroke-width: 1.5; stroke-linecap: square"/>
   </g>
   <g id="patch_132">
    <path d="M 44.064 117.216 
L 44.064 83.136 
" style="fill: none; stroke: #000000; stroke-width: 0.8; stroke-linejoin: miter; stroke-linecap: square"/>
   </g>
   <g id="patch_133">
    <path d="M 44.064 117.216 
L 205.632 117.216 
" style="fill: none; stroke: #000000; stroke-width: 0.8; stroke-linejoin: miter; stroke-linecap: square"/>
   </g>
   <g id="text_19">
    <!-- Time (h) -->
    <g transform="translate(208.86336 130.848) scale(0.09 -0.09)">
     <defs>
      <path id="CMR17-54" d="M 3981 4326 
L 288 4326 
L 179 2918 
L 294 2918 
C 378 3976 467 4160 1453 4160 
C 1568 4160 1754 4160 1805 4154 
C 1926 4135 1926 4058 1926 3912 
L 1926 459 
C 1926 230 1907 160 1376 160 
L 1197 160 
L 1197 0 
C 1504 0 1824 0 2138 0 
C 2451 0 2771 0 3078 0 
L 3078 160 
L 2899 160 
C 2368 160 2349 230 2349 459 
L 2349 3912 
C 2349 4052 2349 4129 2464 4154 
C 2515 4160 2701 4160 2816 4160 
C 3795 4160 3891 3976 3974 2918 
L 4090 2918 
L 3981 4326 
z
" transform="scale(0.015625)"/>
      <path id="CMR17-69" d="M 992 3909 
C 992 4049 877 4170 730 4170 
C 589 4170 467 4056 467 3909 
C 467 3769 582 3648 730 3648 
C 870 3648 992 3763 992 3909 
z
M 243 2706 
L 243 2541 
C 602 2541 653 2502 653 2197 
L 653 427 
C 653 184 627 153 218 153 
L 218 -13 
C 371 0 646 0 806 0 
C 960 0 1222 0 1370 -13 
L 1370 153 
C 992 153 979 191 979 420 
L 979 2776 
L 243 2706 
z
" transform="scale(0.015625)"/>
      <path id="CMR17-65" d="M 2438 1472 
C 2464 1498 2464 1511 2464 1576 
C 2464 2238 2118 2816 1389 2816 
C 710 2816 173 2169 173 1383 
C 173 551 781 -64 1459 -64 
C 2176 -64 2458 607 2458 740 
C 2458 784 2419 784 2406 784 
C 2362 784 2355 771 2330 696 
C 2189 265 1837 51 1504 51 
C 1229 51 954 203 781 480 
C 582 803 582 1176 582 1472 
L 2438 1472 
z
M 589 1568 
C 634 2505 1126 2714 1382 2714 
C 1818 2714 2112 2297 2118 1568 
L 589 1568 
z
" transform="scale(0.015625)"/>
      <path id="CMR17-68" d="M 2656 1933 
C 2656 2259 2592 2790 1837 2790 
C 1312 2790 1056 2368 979 2157 
L 973 2157 
L 973 4396 
L 211 4326 
L 211 4160 
C 589 4160 646 4122 646 3817 
L 646 426 
C 646 184 621 153 211 153 
L 211 -13 
C 365 0 646 0 813 0 
C 979 0 1267 0 1421 -13 
L 1421 153 
C 1011 153 986 178 986 428 
L 986 1658 
C 986 2247 1344 2688 1792 2688 
C 2266 2688 2317 2266 2317 1958 
L 2317 428 
C 2317 184 2291 153 1882 153 
L 1882 -13 
C 2035 0 2317 0 2483 0 
C 2650 0 2938 0 3091 -13 
L 3091 153 
C 2682 153 2656 178 2656 428 
L 2656 1933 
z
" transform="scale(0.015625)"/>
     </defs>
     <use xlink:href="#CMR17-54" transform="scale(0.996264)"/>
     <use xlink:href="#CMR17-69" transform="translate(66.509881 0) scale(0.996264)"/>
     <use xlink:href="#CMR17-6d" transform="translate(91.380939 0) scale(0.996264)"/>
     <use xlink:href="#CMR17-65" transform="translate(168.300529 0) scale(0.996264)"/>
     <use xlink:href="#CMR17-28" transform="translate(238.862156 0) scale(0.996264)"/>
     <use xlink:href="#CMR17-68" transform="translate(274.142924 0) scale(0.996264)"/>
     <use xlink:href="#CMR17-29" transform="translate(325.038293 0) scale(0.996264)"/>
    </g>
   </g>
  </g>
 </g>
 <defs>
  <clipPath id="pf031f6df98">
   <rect x="44.064" y="4.752" width="161.568" height="68.16"/>
  </clipPath>
  <clipPath id="p26d5bfac37">
   <rect x="44.064" y="83.136" width="161.568" height="34.08"/>
  </clipPath>
 </defs>
</svg>
