<?xml version="1.0" encoding="utf-8" standalone="no"?>
<!DOCTYPE svg PUBLIC "-//W3C//DTD SVG 1.1//EN"
  "http://www.w3.org/Graphics/SVG/1.1/DTD/svg11.dtd">
<svg xmlns:xlink="http://www.w3.org/1999/xlink" width="244.8pt" height="158.4pt" viewBox="0 0 244.8 158.4" xmlns="http://www.w3.org/2000/svg" version="1.1">
 <metadata>
  <rdf:RDF xmlns:dc="http://purl.org/dc/elements/1.1/" xmlns:cc="http://creativecommons.org/ns#" xmlns:rdf="http://www.w3.org/1999/02/22-rdf-syntax-ns#">
   <cc:Work>
    <dc:type rdf:resource="http://purl.org/dc/dcmitype/StillImage"/>
    <dc:date>2025-04-17T09:37:55.401714</dc:date>
    <dc:format>image/svg+xml</dc:format>
    <dc:creator>
     <cc:Agent>
      <dc:title>Matplotlib v3.10.1, https://matplotlib.org/</dc:title>
     </cc:Agent>
    </dc:creator>
   </cc:Work>
  </rdf:RDF>
 </metadata>
 <defs>
  <style type="text/css">*{stroke-linejoin: round; stroke-linecap: butt}</style>
 </defs>
 <g id="figure_1">
  <g id="patch_1">
   <path d="M 0 158.4 
L 244.8 158.4 
L 244.8 0 
L 0 0 
z
" style="fill: #ffffff"/>
  </g>
  <g id="axes_1">
   <g id="patch_2">
    <path d="M 41.616 114.048 
L 200.736 114.048 
L 200.736 4.752 
L 41.616 4.752 
z
" style="fill: #ffffff"/>
   </g>
   <g id="patch_3">
    <path d="M 43.2735 59.4 
L 46.5885 59.4 
L 46.5885 59.4 
L 43.2735 59.4 
z
" clip-path="url(#pc0ca5431e7)" style="fill: #c0e3c0"/>
   </g>
   <g id="patch_4">
    <path d="M 49.9035 59.4 
L 53.2185 59.4 
L 53.2185 59.4 
L 49.9035 59.4 
z
" clip-path="url(#pc0ca5431e7)" style="fill: #c0e3c0"/>
   </g>
   <g id="patch_5">
    <path d="M 56.5335 59.4 
L 59.8485 59.4 
L 59.8485 59.4 
L 56.5335 59.4 
z
" clip-path="url(#pc0ca5431e7)" style="fill: #c0e3c0"/>
   </g>
   <g id="patch_6">
    <path d="M 63.1635 59.4 
L 66.4785 59.4 
L 66.4785 59.4 
L 63.1635 59.4 
z
" clip-path="url(#pc0ca5431e7)" style="fill: #c0e3c0"/>
   </g>
   <g id="patch_7">
    <path d="M 69.7935 59.4 
L 73.1085 59.4 
L 73.1085 59.4 
L 69.7935 59.4 
z
" clip-path="url(#pc0ca5431e7)" style="fill: #c0e3c0"/>
   </g>
   <g id="patch_8">
    <path d="M 76.4235 59.4 
L 79.7385 59.4 
L 79.7385 59.4 
L 76.4235 59.4 
z
" clip-path="url(#pc0ca5431e7)" style="fill: #c0e3c0"/>
   </g>
   <g id="patch_9">
    <path d="M 83.0535 59.4 
L 86.3685 59.4 
L 86.3685 59.4 
L 83.0535 59.4 
z
" clip-path="url(#pc0ca5431e7)" style="fill: #c0e3c0"/>
   </g>
   <g id="patch_10">
    <path d="M 89.6835 59.4 
L 92.9985 59.4 
L 92.9985 62.216432 
L 89.6835 62.216432 
z
" clip-path="url(#pc0ca5431e7)" style="fill: #c0e3c0"/>
   </g>
   <g id="patch_11">
    <path d="M 96.3135 59.4 
L 99.6285 59.4 
L 99.6285 68.284118 
L 96.3135 68.284118 
z
" clip-path="url(#pc0ca5431e7)" style="fill: #c0e3c0"/>
   </g>
   <g id="patch_12">
    <path d="M 102.9435 59.4 
L 106.2585 59.4 
L 106.2585 73.89005 
L 102.9435 73.89005 
z
" clip-path="url(#pc0ca5431e7)" style="fill: #c0e3c0"/>
   </g>
   <g id="patch_13">
    <path d="M 109.5735 59.4 
L 112.8885 59.4 
L 112.8885 78.750069 
L 109.5735 78.750069 
z
" clip-path="url(#pc0ca5431e7)" style="fill: #c0e3c0"/>
   </g>
   <g id="patch_14">
    <path d="M 116.2035 59.4 
L 119.5185 59.4 
L 119.5185 82.422661 
L 116.2035 82.422661 
z
" clip-path="url(#pc0ca5431e7)" style="fill: #c0e3c0"/>
   </g>
   <g id="patch_15">
    <path d="M 122.8335 59.4 
L 126.1485 59.4 
L 126.1485 83.824782 
L 122.8335 83.824782 
z
" clip-path="url(#pc0ca5431e7)" style="fill: #c0e3c0"/>
   </g>
   <g id="patch_16">
    <path d="M 129.4635 59.4 
L 132.7785 59.4 
L 132.7785 82.183926 
L 129.4635 82.183926 
z
" clip-path="url(#pc0ca5431e7)" style="fill: #c0e3c0"/>
   </g>
   <g id="patch_17">
    <path d="M 136.0935 59.4 
L 139.4085 59.4 
L 139.4085 78.145998 
L 136.0935 78.145998 
z
" clip-path="url(#pc0ca5431e7)" style="fill: #c0e3c0"/>
   </g>
   <g id="patch_18">
    <path d="M 142.7235 59.4 
L 146.0385 59.4 
L 146.0385 71.679084 
L 142.7235 71.679084 
z
" clip-path="url(#pc0ca5431e7)" style="fill: #c0e3c0"/>
   </g>
   <g id="patch_19">
    <path d="M 149.3535 59.4 
L 152.6685 59.4 
L 152.6685 63.852799 
L 149.3535 63.852799 
z
" clip-path="url(#pc0ca5431e7)" style="fill: #c0e3c0"/>
   </g>
   <g id="patch_20">
    <path d="M 155.9835 59.4 
L 159.2985 59.4 
L 159.2985 59.4 
L 155.9835 59.4 
z
" clip-path="url(#pc0ca5431e7)" style="fill: #c0e3c0"/>
   </g>
   <g id="patch_21">
    <path d="M 162.6135 59.4 
L 165.9285 59.4 
L 165.9285 59.4 
L 162.6135 59.4 
z
" clip-path="url(#pc0ca5431e7)" style="fill: #c0e3c0"/>
   </g>
   <g id="patch_22">
    <path d="M 169.2435 59.4 
L 172.5585 59.4 
L 172.5585 59.4 
L 169.2435 59.4 
z
" clip-path="url(#pc0ca5431e7)" style="fill: #c0e3c0"/>
   </g>
   <g id="patch_23">
    <path d="M 175.8735 59.4 
L 179.1885 59.4 
L 179.1885 59.4 
L 175.8735 59.4 
z
" clip-path="url(#pc0ca5431e7)" style="fill: #c0e3c0"/>
   </g>
   <g id="patch_24">
    <path d="M 182.5035 59.4 
L 185.8185 59.4 
L 185.8185 59.4 
L 182.5035 59.4 
z
" clip-path="url(#pc0ca5431e7)" style="fill: #c0e3c0"/>
   </g>
   <g id="patch_25">
    <path d="M 189.1335 59.4 
L 192.4485 59.4 
L 192.4485 59.4 
L 189.1335 59.4 
z
" clip-path="url(#pc0ca5431e7)" style="fill: #c0e3c0"/>
   </g>
   <g id="patch_26">
    <path d="M 195.7635 59.4 
L 199.0785 59.4 
L 199.0785 59.4 
L 195.7635 59.4 
z
" clip-path="url(#pc0ca5431e7)" style="fill: #c0e3c0"/>
   </g>
   <g id="patch_27">
    <path d="M 43.2735 59.4 
L 46.5885 59.4 
L 46.5885 59.4 
L 43.2735 59.4 
z
" clip-path="url(#pc0ca5431e7)" style="fill: #029e73"/>
   </g>
   <g id="patch_28">
    <path d="M 49.9035 59.4 
L 53.2185 59.4 
L 53.2185 59.4 
L 49.9035 59.4 
z
" clip-path="url(#pc0ca5431e7)" style="fill: #029e73"/>
   </g>
   <g id="patch_29">
    <path d="M 56.5335 59.4 
L 59.8485 59.4 
L 59.8485 59.4 
L 56.5335 59.4 
z
" clip-path="url(#pc0ca5431e7)" style="fill: #029e73"/>
   </g>
   <g id="patch_30">
    <path d="M 63.1635 59.4 
L 66.4785 59.4 
L 66.4785 59.4 
L 63.1635 59.4 
z
" clip-path="url(#pc0ca5431e7)" style="fill: #029e73"/>
   </g>
   <g id="patch_31">
    <path d="M 69.7935 59.4 
L 73.1085 59.4 
L 73.1085 59.4 
L 69.7935 59.4 
z
" clip-path="url(#pc0ca5431e7)" style="fill: #029e73"/>
   </g>
   <g id="patch_32">
    <path d="M 76.4235 59.4 
L 79.7385 59.4 
L 79.7385 59.4 
L 76.4235 59.4 
z
" clip-path="url(#pc0ca5431e7)" style="fill: #029e73"/>
   </g>
   <g id="patch_33">
    <path d="M 83.0535 59.4 
L 86.3685 59.4 
L 86.3685 59.4 
L 83.0535 59.4 
z
" clip-path="url(#pc0ca5431e7)" style="fill: #029e73"/>
   </g>
   <g id="patch_34">
    <path d="M 89.6835 59.4 
L 92.9985 59.4 
L 92.9985 59.400001 
L 89.6835 59.400001 
z
" clip-path="url(#pc0ca5431e7)" style="fill: #029e73"/>
   </g>
   <g id="patch_35">
    <path d="M 96.3135 59.4 
L 99.6285 59.4 
L 99.6285 59.400001 
L 96.3135 59.400001 
z
" clip-path="url(#pc0ca5431e7)" style="fill: #029e73"/>
   </g>
   <g id="patch_36">
    <path d="M 102.9435 59.4 
L 106.2585 59.4 
L 106.2585 59.400001 
L 102.9435 59.400001 
z
" clip-path="url(#pc0ca5431e7)" style="fill: #029e73"/>
   </g>
   <g id="patch_37">
    <path d="M 109.5735 59.4 
L 112.8885 59.4 
L 112.8885 59.400001 
L 109.5735 59.400001 
z
" clip-path="url(#pc0ca5431e7)" style="fill: #029e73"/>
   </g>
   <g id="patch_38">
    <path d="M 116.2035 59.4 
L 119.5185 59.4 
L 119.5185 82.358009 
L 116.2035 82.358009 
z
" clip-path="url(#pc0ca5431e7)" style="fill: #029e73"/>
   </g>
   <g id="patch_39">
    <path d="M 122.8335 59.4 
L 126.1485 59.4 
L 126.1485 83.758873 
L 122.8335 83.758873 
z
" clip-path="url(#pc0ca5431e7)" style="fill: #029e73"/>
   </g>
   <g id="patch_40">
    <path d="M 129.4635 59.4 
L 132.7785 59.4 
L 132.7785 82.119561 
L 129.4635 82.119561 
z
" clip-path="url(#pc0ca5431e7)" style="fill: #029e73"/>
   </g>
   <g id="patch_41">
    <path d="M 136.0935 59.4 
L 139.4085 59.4 
L 139.4085 59.400001 
L 136.0935 59.400001 
z
" clip-path="url(#pc0ca5431e7)" style="fill: #029e73"/>
   </g>
   <g id="patch_42">
    <path d="M 142.7235 59.4 
L 146.0385 59.4 
L 146.0385 59.400001 
L 142.7235 59.400001 
z
" clip-path="url(#pc0ca5431e7)" style="fill: #029e73"/>
   </g>
   <g id="patch_43">
    <path d="M 149.3535 59.4 
L 152.6685 59.4 
L 152.6685 59.400001 
L 149.3535 59.400001 
z
" clip-path="url(#pc0ca5431e7)" style="fill: #029e73"/>
   </g>
   <g id="patch_44">
    <path d="M 155.9835 59.4 
L 159.2985 59.4 
L 159.2985 59.4 
L 155.9835 59.4 
z
" clip-path="url(#pc0ca5431e7)" style="fill: #029e73"/>
   </g>
   <g id="patch_45">
    <path d="M 162.6135 59.4 
L 165.9285 59.4 
L 165.9285 59.4 
L 162.6135 59.4 
z
" clip-path="url(#pc0ca5431e7)" style="fill: #029e73"/>
   </g>
   <g id="patch_46">
    <path d="M 169.2435 59.4 
L 172.5585 59.4 
L 172.5585 59.4 
L 169.2435 59.4 
z
" clip-path="url(#pc0ca5431e7)" style="fill: #029e73"/>
   </g>
   <g id="patch_47">
    <path d="M 175.8735 59.4 
L 179.1885 59.4 
L 179.1885 59.4 
L 175.8735 59.4 
z
" clip-path="url(#pc0ca5431e7)" style="fill: #029e73"/>
   </g>
   <g id="patch_48">
    <path d="M 182.5035 59.4 
L 185.8185 59.4 
L 185.8185 59.4 
L 182.5035 59.4 
z
" clip-path="url(#pc0ca5431e7)" style="fill: #029e73"/>
   </g>
   <g id="patch_49">
    <path d="M 189.1335 59.4 
L 192.4485 59.4 
L 192.4485 59.4 
L 189.1335 59.4 
z
" clip-path="url(#pc0ca5431e7)" style="fill: #029e73"/>
   </g>
   <g id="patch_50">
    <path d="M 195.7635 59.4 
L 199.0785 59.4 
L 199.0785 59.4 
L 195.7635 59.4 
z
" clip-path="url(#pc0ca5431e7)" style="fill: #029e73"/>
   </g>
   <g id="patch_51">
    <path d="M 43.2735 59.4 
L 46.5885 59.4 
L 46.5885 59.4 
L 43.2735 59.4 
z
" clip-path="url(#pc0ca5431e7)" style="fill: #d55e00"/>
   </g>
   <g id="patch_52">
    <path d="M 49.9035 59.4 
L 53.2185 59.4 
L 53.2185 59.4 
L 49.9035 59.4 
z
" clip-path="url(#pc0ca5431e7)" style="fill: #d55e00"/>
   </g>
   <g id="patch_53">
    <path d="M 56.5335 59.4 
L 59.8485 59.4 
L 59.8485 59.4 
L 56.5335 59.4 
z
" clip-path="url(#pc0ca5431e7)" style="fill: #d55e00"/>
   </g>
   <g id="patch_54">
    <path d="M 63.1635 59.4 
L 66.4785 59.4 
L 66.4785 59.4 
L 63.1635 59.4 
z
" clip-path="url(#pc0ca5431e7)" style="fill: #d55e00"/>
   </g>
   <g id="patch_55">
    <path d="M 69.7935 59.4 
L 73.1085 59.4 
L 73.1085 59.4 
L 69.7935 59.4 
z
" clip-path="url(#pc0ca5431e7)" style="fill: #d55e00"/>
   </g>
   <g id="patch_56">
    <path d="M 76.4235 59.4 
L 79.7385 59.4 
L 79.7385 59.4 
L 76.4235 59.4 
z
" clip-path="url(#pc0ca5431e7)" style="fill: #d55e00"/>
   </g>
   <g id="patch_57">
    <path d="M 83.0535 59.4 
L 86.3685 59.4 
L 86.3685 59.4 
L 83.0535 59.4 
z
" clip-path="url(#pc0ca5431e7)" style="fill: #d55e00"/>
   </g>
   <g id="patch_58">
    <path d="M 89.6835 59.4 
L 92.9985 59.4 
L 92.9985 59.399999 
L 89.6835 59.399999 
z
" clip-path="url(#pc0ca5431e7)" style="fill: #d55e00"/>
   </g>
   <g id="patch_59">
    <path d="M 96.3135 59.4 
L 99.6285 59.4 
L 99.6285 59.399999 
L 96.3135 59.399999 
z
" clip-path="url(#pc0ca5431e7)" style="fill: #d55e00"/>
   </g>
   <g id="patch_60">
    <path d="M 102.9435 59.4 
L 106.2585 59.4 
L 106.2585 59.399999 
L 102.9435 59.399999 
z
" clip-path="url(#pc0ca5431e7)" style="fill: #d55e00"/>
   </g>
   <g id="patch_61">
    <path d="M 109.5735 59.4 
L 112.8885 59.4 
L 112.8885 59.399999 
L 109.5735 59.399999 
z
" clip-path="url(#pc0ca5431e7)" style="fill: #d55e00"/>
   </g>
   <g id="patch_62">
    <path d="M 116.2035 59.4 
L 119.5185 59.4 
L 119.5185 36.441991 
L 116.2035 36.441991 
z
" clip-path="url(#pc0ca5431e7)" style="fill: #d55e00"/>
   </g>
   <g id="patch_63">
    <path d="M 122.8335 59.4 
L 126.1485 59.4 
L 126.1485 35.041127 
L 122.8335 35.041127 
z
" clip-path="url(#pc0ca5431e7)" style="fill: #d55e00"/>
   </g>
   <g id="patch_64">
    <path d="M 129.4635 59.4 
L 132.7785 59.4 
L 132.7785 36.680439 
L 129.4635 36.680439 
z
" clip-path="url(#pc0ca5431e7)" style="fill: #d55e00"/>
   </g>
   <g id="patch_65">
    <path d="M 136.0935 59.4 
L 139.4085 59.4 
L 139.4085 59.399999 
L 136.0935 59.399999 
z
" clip-path="url(#pc0ca5431e7)" style="fill: #d55e00"/>
   </g>
   <g id="patch_66">
    <path d="M 142.7235 59.4 
L 146.0385 59.4 
L 146.0385 59.399999 
L 142.7235 59.399999 
z
" clip-path="url(#pc0ca5431e7)" style="fill: #d55e00"/>
   </g>
   <g id="patch_67">
    <path d="M 149.3535 59.4 
L 152.6685 59.4 
L 152.6685 59.399999 
L 149.3535 59.399999 
z
" clip-path="url(#pc0ca5431e7)" style="fill: #d55e00"/>
   </g>
   <g id="patch_68">
    <path d="M 155.9835 59.4 
L 159.2985 59.4 
L 159.2985 59.4 
L 155.9835 59.4 
z
" clip-path="url(#pc0ca5431e7)" style="fill: #d55e00"/>
   </g>
   <g id="patch_69">
    <path d="M 162.6135 59.4 
L 165.9285 59.4 
L 165.9285 59.4 
L 162.6135 59.4 
z
" clip-path="url(#pc0ca5431e7)" style="fill: #d55e00"/>
   </g>
   <g id="patch_70">
    <path d="M 169.2435 59.4 
L 172.5585 59.4 
L 172.5585 59.4 
L 169.2435 59.4 
z
" clip-path="url(#pc0ca5431e7)" style="fill: #d55e00"/>
   </g>
   <g id="patch_71">
    <path d="M 175.8735 59.4 
L 179.1885 59.4 
L 179.1885 59.4 
L 175.8735 59.4 
z
" clip-path="url(#pc0ca5431e7)" style="fill: #d55e00"/>
   </g>
   <g id="patch_72">
    <path d="M 182.5035 59.4 
L 185.8185 59.4 
L 185.8185 59.4 
L 182.5035 59.4 
z
" clip-path="url(#pc0ca5431e7)" style="fill: #d55e00"/>
   </g>
   <g id="patch_73">
    <path d="M 189.1335 59.4 
L 192.4485 59.4 
L 192.4485 59.4 
L 189.1335 59.4 
z
" clip-path="url(#pc0ca5431e7)" style="fill: #d55e00"/>
   </g>
   <g id="patch_74">
    <path d="M 195.7635 59.4 
L 199.0785 59.4 
L 199.0785 59.4 
L 195.7635 59.4 
z
" clip-path="url(#pc0ca5431e7)" style="fill: #d55e00"/>
   </g>
   <g id="patch_75">
    <path d="M 43.2735 59.4 
L 46.5885 59.4 
L 46.5885 59.4 
L 43.2735 59.4 
z
" clip-path="url(#pc0ca5431e7)" style="fill: #cc78bc"/>
   </g>
   <g id="patch_76">
    <path d="M 49.9035 59.4 
L 53.2185 59.4 
L 53.2185 59.4 
L 49.9035 59.4 
z
" clip-path="url(#pc0ca5431e7)" style="fill: #cc78bc"/>
   </g>
   <g id="patch_77">
    <path d="M 56.5335 59.4 
L 59.8485 59.4 
L 59.8485 59.4 
L 56.5335 59.4 
z
" clip-path="url(#pc0ca5431e7)" style="fill: #cc78bc"/>
   </g>
   <g id="patch_78">
    <path d="M 63.1635 59.4 
L 66.4785 59.4 
L 66.4785 59.4 
L 63.1635 59.4 
z
" clip-path="url(#pc0ca5431e7)" style="fill: #cc78bc"/>
   </g>
   <g id="patch_79">
    <path d="M 69.7935 59.4 
L 73.1085 59.4 
L 73.1085 59.4 
L 69.7935 59.4 
z
" clip-path="url(#pc0ca5431e7)" style="fill: #cc78bc"/>
   </g>
   <g id="patch_80">
    <path d="M 76.4235 59.4 
L 79.7385 59.4 
L 79.7385 59.4 
L 76.4235 59.4 
z
" clip-path="url(#pc0ca5431e7)" style="fill: #cc78bc"/>
   </g>
   <g id="patch_81">
    <path d="M 83.0535 59.4 
L 86.3685 59.4 
L 86.3685 59.4 
L 83.0535 59.4 
z
" clip-path="url(#pc0ca5431e7)" style="fill: #cc78bc"/>
   </g>
   <g id="patch_82">
    <path d="M 89.6835 59.399999 
L 92.9985 59.399999 
L 92.9985 59.399999 
L 89.6835 59.399999 
z
" clip-path="url(#pc0ca5431e7)" style="fill: #cc78bc"/>
   </g>
   <g id="patch_83">
    <path d="M 96.3135 59.399999 
L 99.6285 59.399999 
L 99.6285 59.399999 
L 96.3135 59.399999 
z
" clip-path="url(#pc0ca5431e7)" style="fill: #cc78bc"/>
   </g>
   <g id="patch_84">
    <path d="M 102.9435 59.399999 
L 106.2585 59.399999 
L 106.2585 59.399999 
L 102.9435 59.399999 
z
" clip-path="url(#pc0ca5431e7)" style="fill: #cc78bc"/>
   </g>
   <g id="patch_85">
    <path d="M 109.5735 59.399999 
L 112.8885 59.399999 
L 112.8885 59.399999 
L 109.5735 59.399999 
z
" clip-path="url(#pc0ca5431e7)" style="fill: #cc78bc"/>
   </g>
   <g id="patch_86">
    <path d="M 116.2035 36.441991 
L 119.5185 36.441991 
L 119.5185 36.441991 
L 116.2035 36.441991 
z
" clip-path="url(#pc0ca5431e7)" style="fill: #cc78bc"/>
   </g>
   <g id="patch_87">
    <path d="M 122.8335 35.041127 
L 126.1485 35.041127 
L 126.1485 35.041127 
L 122.8335 35.041127 
z
" clip-path="url(#pc0ca5431e7)" style="fill: #cc78bc"/>
   </g>
   <g id="patch_88">
    <path d="M 129.4635 36.680439 
L 132.7785 36.680439 
L 132.7785 36.680439 
L 129.4635 36.680439 
z
" clip-path="url(#pc0ca5431e7)" style="fill: #cc78bc"/>
   </g>
   <g id="patch_89">
    <path d="M 136.0935 59.399999 
L 139.4085 59.399999 
L 139.4085 59.399999 
L 136.0935 59.399999 
z
" clip-path="url(#pc0ca5431e7)" style="fill: #cc78bc"/>
   </g>
   <g id="patch_90">
    <path d="M 142.7235 59.399999 
L 146.0385 59.399999 
L 146.0385 59.399999 
L 142.7235 59.399999 
z
" clip-path="url(#pc0ca5431e7)" style="fill: #cc78bc"/>
   </g>
   <g id="patch_91">
    <path d="M 149.3535 59.399999 
L 152.6685 59.399999 
L 152.6685 59.399999 
L 149.3535 59.399999 
z
" clip-path="url(#pc0ca5431e7)" style="fill: #cc78bc"/>
   </g>
   <g id="patch_92">
    <path d="M 155.9835 59.4 
L 159.2985 59.4 
L 159.2985 59.4 
L 155.9835 59.4 
z
" clip-path="url(#pc0ca5431e7)" style="fill: #cc78bc"/>
   </g>
   <g id="patch_93">
    <path d="M 162.6135 59.4 
L 165.9285 59.4 
L 165.9285 59.4 
L 162.6135 59.4 
z
" clip-path="url(#pc0ca5431e7)" style="fill: #cc78bc"/>
   </g>
   <g id="patch_94">
    <path d="M 169.2435 59.4 
L 172.5585 59.4 
L 172.5585 59.4 
L 169.2435 59.4 
z
" clip-path="url(#pc0ca5431e7)" style="fill: #cc78bc"/>
   </g>
   <g id="patch_95">
    <path d="M 175.8735 59.4 
L 179.1885 59.4 
L 179.1885 59.4 
L 175.8735 59.4 
z
" clip-path="url(#pc0ca5431e7)" style="fill: #cc78bc"/>
   </g>
   <g id="patch_96">
    <path d="M 182.5035 59.4 
L 185.8185 59.4 
L 185.8185 59.4 
L 182.5035 59.4 
z
" clip-path="url(#pc0ca5431e7)" style="fill: #cc78bc"/>
   </g>
   <g id="patch_97">
    <path d="M 189.1335 59.4 
L 192.4485 59.4 
L 192.4485 59.4 
L 189.1335 59.4 
z
" clip-path="url(#pc0ca5431e7)" style="fill: #cc78bc"/>
   </g>
   <g id="patch_98">
    <path d="M 195.7635 59.4 
L 199.0785 59.4 
L 199.0785 59.4 
L 195.7635 59.4 
z
" clip-path="url(#pc0ca5431e7)" style="fill: #cc78bc"/>
   </g>
   <g id="patch_99">
    <path d="M 43.2735 59.4 
L 46.5885 59.4 
L 46.5885 59.4 
L 43.2735 59.4 
z
" clip-path="url(#pc0ca5431e7)" style="fill: #949494"/>
   </g>
   <g id="patch_100">
    <path d="M 49.9035 59.4 
L 53.2185 59.4 
L 53.2185 59.4 
L 49.9035 59.4 
z
" clip-path="url(#pc0ca5431e7)" style="fill: #949494"/>
   </g>
   <g id="patch_101">
    <path d="M 56.5335 59.4 
L 59.8485 59.4 
L 59.8485 59.4 
L 56.5335 59.4 
z
" clip-path="url(#pc0ca5431e7)" style="fill: #949494"/>
   </g>
   <g id="patch_102">
    <path d="M 63.1635 59.4 
L 66.4785 59.4 
L 66.4785 59.4 
L 63.1635 59.4 
z
" clip-path="url(#pc0ca5431e7)" style="fill: #949494"/>
   </g>
   <g id="patch_103">
    <path d="M 69.7935 59.4 
L 73.1085 59.4 
L 73.1085 59.4 
L 69.7935 59.4 
z
" clip-path="url(#pc0ca5431e7)" style="fill: #949494"/>
   </g>
   <g id="patch_104">
    <path d="M 76.4235 59.4 
L 79.7385 59.4 
L 79.7385 59.4 
L 76.4235 59.4 
z
" clip-path="url(#pc0ca5431e7)" style="fill: #949494"/>
   </g>
   <g id="patch_105">
    <path d="M 83.0535 59.4 
L 86.3685 59.4 
L 86.3685 59.4 
L 83.0535 59.4 
z
" clip-path="url(#pc0ca5431e7)" style="fill: #949494"/>
   </g>
   <g id="patch_106">
    <path d="M 89.6835 59.400001 
L 92.9985 59.400001 
L 92.9985 59.400001 
L 89.6835 59.400001 
z
" clip-path="url(#pc0ca5431e7)" style="fill: #949494"/>
   </g>
   <g id="patch_107">
    <path d="M 96.3135 59.400001 
L 99.6285 59.400001 
L 99.6285 59.400001 
L 96.3135 59.400001 
z
" clip-path="url(#pc0ca5431e7)" style="fill: #949494"/>
   </g>
   <g id="patch_108">
    <path d="M 102.9435 59.400001 
L 106.2585 59.400001 
L 106.2585 59.400001 
L 102.9435 59.400001 
z
" clip-path="url(#pc0ca5431e7)" style="fill: #949494"/>
   </g>
   <g id="patch_109">
    <path d="M 109.5735 59.400001 
L 112.8885 59.400001 
L 112.8885 59.400001 
L 109.5735 59.400001 
z
" clip-path="url(#pc0ca5431e7)" style="fill: #949494"/>
   </g>
   <g id="patch_110">
    <path d="M 116.2035 82.358009 
L 119.5185 82.358009 
L 119.5185 82.358009 
L 116.2035 82.358009 
z
" clip-path="url(#pc0ca5431e7)" style="fill: #949494"/>
   </g>
   <g id="patch_111">
    <path d="M 122.8335 83.758873 
L 126.1485 83.758873 
L 126.1485 83.758873 
L 122.8335 83.758873 
z
" clip-path="url(#pc0ca5431e7)" style="fill: #949494"/>
   </g>
   <g id="patch_112">
    <path d="M 129.4635 82.119561 
L 132.7785 82.119561 
L 132.7785 82.119561 
L 129.4635 82.119561 
z
" clip-path="url(#pc0ca5431e7)" style="fill: #949494"/>
   </g>
   <g id="patch_113">
    <path d="M 136.0935 59.400001 
L 139.4085 59.400001 
L 139.4085 59.400001 
L 136.0935 59.400001 
z
" clip-path="url(#pc0ca5431e7)" style="fill: #949494"/>
   </g>
   <g id="patch_114">
    <path d="M 142.7235 59.400001 
L 146.0385 59.400001 
L 146.0385 59.400001 
L 142.7235 59.400001 
z
" clip-path="url(#pc0ca5431e7)" style="fill: #949494"/>
   </g>
   <g id="patch_115">
    <path d="M 149.3535 59.400001 
L 152.6685 59.400001 
L 152.6685 59.400001 
L 149.3535 59.400001 
z
" clip-path="url(#pc0ca5431e7)" style="fill: #949494"/>
   </g>
   <g id="patch_116">
    <path d="M 155.9835 59.4 
L 159.2985 59.4 
L 159.2985 59.4 
L 155.9835 59.4 
z
" clip-path="url(#pc0ca5431e7)" style="fill: #949494"/>
   </g>
   <g id="patch_117">
    <path d="M 162.6135 59.4 
L 165.9285 59.4 
L 165.9285 59.4 
L 162.6135 59.4 
z
" clip-path="url(#pc0ca5431e7)" style="fill: #949494"/>
   </g>
   <g id="patch_118">
    <path d="M 169.2435 59.4 
L 172.5585 59.4 
L 172.5585 59.4 
L 169.2435 59.4 
z
" clip-path="url(#pc0ca5431e7)" style="fill: #949494"/>
   </g>
   <g id="patch_119">
    <path d="M 175.8735 59.4 
L 179.1885 59.4 
L 179.1885 59.4 
L 175.8735 59.4 
z
" clip-path="url(#pc0ca5431e7)" style="fill: #949494"/>
   </g>
   <g id="patch_120">
    <path d="M 182.5035 59.4 
L 185.8185 59.4 
L 185.8185 59.4 
L 182.5035 59.4 
z
" clip-path="url(#pc0ca5431e7)" style="fill: #949494"/>
   </g>
   <g id="patch_121">
    <path d="M 189.1335 59.4 
L 192.4485 59.4 
L 192.4485 59.4 
L 189.1335 59.4 
z
" clip-path="url(#pc0ca5431e7)" style="fill: #949494"/>
   </g>
   <g id="patch_122">
    <path d="M 195.7635 59.4 
L 199.0785 59.4 
L 199.0785 59.4 
L 195.7635 59.4 
z
" clip-path="url(#pc0ca5431e7)" style="fill: #949494"/>
   </g>
   <g id="matplotlib.axis_1">
    <g id="xtick_1">
     <g id="line2d_1">
      <defs>
       <path id="m011700ac78" d="M 0 0 
L 0 3.5 
" style="stroke: #000000; stroke-width: 0.8"/>
      </defs>
      <g>
       <use xlink:href="#m011700ac78" x="44.931" y="114.048" style="stroke: #000000; stroke-width: 0.8"/>
      </g>
     </g>
     <g id="text_1">
      <!-- 0 -->
      <g transform="translate(47.172594 125.655691) rotate(-90) scale(0.09 -0.09)">
       <defs>
        <path id="CMR17-30" d="M 2688 2025 
C 2688 2416 2682 3080 2413 3591 
C 2176 4039 1798 4198 1466 4198 
C 1158 4198 768 4058 525 3597 
C 269 3118 243 2524 243 2025 
C 243 1661 250 1106 448 619 
C 723 -39 1216 -128 1466 -128 
C 1760 -128 2208 -7 2470 600 
C 2662 1042 2688 1559 2688 2025 
z
M 1466 -26 
C 1056 -26 813 325 723 812 
C 653 1188 653 1738 653 2096 
C 653 2588 653 2997 736 3387 
C 858 3929 1216 4096 1466 4096 
C 1728 4096 2067 3923 2189 3400 
C 2272 3036 2278 2607 2278 2096 
C 2278 1680 2278 1169 2202 792 
C 2067 95 1690 -26 1466 -26 
z
" transform="scale(0.015625)"/>
       </defs>
       <use xlink:href="#CMR17-30" transform="scale(0.996264)"/>
      </g>
     </g>
    </g>
    <g id="xtick_2">
     <g id="line2d_2">
      <g>
       <use xlink:href="#m011700ac78" x="51.561" y="114.048" style="stroke: #000000; stroke-width: 0.8"/>
      </g>
     </g>
    </g>
    <g id="xtick_3">
     <g id="line2d_3">
      <g>
       <use xlink:href="#m011700ac78" x="58.191" y="114.048" style="stroke: #000000; stroke-width: 0.8"/>
      </g>
     </g>
    </g>
    <g id="xtick_4">
     <g id="line2d_4">
      <g>
       <use xlink:href="#m011700ac78" x="64.821" y="114.048" style="stroke: #000000; stroke-width: 0.8"/>
      </g>
     </g>
    </g>
    <g id="xtick_5">
     <g id="line2d_5">
      <g>
       <use xlink:href="#m011700ac78" x="71.451" y="114.048" style="stroke: #000000; stroke-width: 0.8"/>
      </g>
     </g>
    </g>
    <g id="xtick_6">
     <g id="line2d_6">
      <g>
       <use xlink:href="#m011700ac78" x="78.081" y="114.048" style="stroke: #000000; stroke-width: 0.8"/>
      </g>
     </g>
    </g>
    <g id="xtick_7">
     <g id="line2d_7">
      <g>
       <use xlink:href="#m011700ac78" x="84.711" y="114.048" style="stroke: #000000; stroke-width: 0.8"/>
      </g>
     </g>
     <g id="text_2">
      <!-- 6 -->
      <g transform="translate(86.952594 125.655691) rotate(-90) scale(0.09 -0.09)">
       <defs>
        <path id="CMR17-36" d="M 678 2176 
C 678 3690 1395 4032 1811 4032 
C 1946 4032 2272 4009 2400 3776 
C 2298 3776 2106 3776 2106 3553 
C 2106 3381 2246 3323 2336 3323 
C 2394 3323 2566 3348 2566 3560 
C 2566 3954 2246 4179 1805 4179 
C 1043 4179 243 3390 243 1984 
C 243 253 966 -128 1478 -128 
C 2099 -128 2688 427 2688 1283 
C 2688 2081 2170 2662 1517 2662 
C 1126 2662 838 2407 678 1960 
L 678 2176 
z
M 1478 25 
C 691 25 691 1200 691 1436 
C 691 1896 909 2560 1504 2560 
C 1613 2560 1926 2560 2138 2120 
C 2253 1870 2253 1609 2253 1289 
C 2253 944 2253 690 2118 434 
C 1978 171 1773 25 1478 25 
z
" transform="scale(0.015625)"/>
       </defs>
       <use xlink:href="#CMR17-36" transform="scale(0.996264)"/>
      </g>
     </g>
    </g>
    <g id="xtick_8">
     <g id="line2d_8">
      <g>
       <use xlink:href="#m011700ac78" x="91.341" y="114.048" style="stroke: #000000; stroke-width: 0.8"/>
      </g>
     </g>
    </g>
    <g id="xtick_9">
     <g id="line2d_9">
      <g>
       <use xlink:href="#m011700ac78" x="97.971" y="114.048" style="stroke: #000000; stroke-width: 0.8"/>
      </g>
     </g>
    </g>
    <g id="xtick_10">
     <g id="line2d_10">
      <g>
       <use xlink:href="#m011700ac78" x="104.601" y="114.048" style="stroke: #000000; stroke-width: 0.8"/>
      </g>
     </g>
    </g>
    <g id="xtick_11">
     <g id="line2d_11">
      <g>
       <use xlink:href="#m011700ac78" x="111.231" y="114.048" style="stroke: #000000; stroke-width: 0.8"/>
      </g>
     </g>
    </g>
    <g id="xtick_12">
     <g id="line2d_12">
      <g>
       <use xlink:href="#m011700ac78" x="117.861" y="114.048" style="stroke: #000000; stroke-width: 0.8"/>
      </g>
     </g>
    </g>
    <g id="xtick_13">
     <g id="line2d_13">
      <g>
       <use xlink:href="#m011700ac78" x="124.491" y="114.048" style="stroke: #000000; stroke-width: 0.8"/>
      </g>
     </g>
     <g id="text_3">
      <!-- 12 -->
      <g transform="translate(126.732594 130.263381) rotate(-90) scale(0.09 -0.09)">
       <defs>
        <path id="CMR17-31" d="M 1702 4058 
C 1702 4192 1696 4192 1606 4192 
C 1357 3916 979 3827 621 3827 
C 602 3827 570 3827 563 3808 
C 557 3795 557 3782 557 3648 
C 755 3648 1088 3686 1344 3839 
L 1344 461 
C 1344 236 1331 160 781 160 
L 589 160 
L 589 0 
C 896 0 1216 0 1523 0 
C 1830 0 2150 0 2458 0 
L 2458 160 
L 2266 160 
C 1715 160 1702 230 1702 458 
L 1702 4058 
z
" transform="scale(0.015625)"/>
        <path id="CMR17-32" d="M 2669 989 
L 2554 989 
C 2490 536 2438 459 2413 420 
C 2381 369 1920 369 1830 369 
L 602 369 
C 832 619 1280 1072 1824 1597 
C 2214 1967 2669 2402 2669 3035 
C 2669 3790 2067 4224 1395 4224 
C 691 4224 262 3604 262 3030 
C 262 2780 448 2748 525 2748 
C 589 2748 781 2787 781 3010 
C 781 3207 614 3264 525 3264 
C 486 3264 448 3258 422 3245 
C 544 3790 915 4058 1306 4058 
C 1862 4058 2227 3617 2227 3035 
C 2227 2479 1901 2000 1536 1584 
L 262 146 
L 262 0 
L 2515 0 
L 2669 989 
z
" transform="scale(0.015625)"/>
       </defs>
       <use xlink:href="#CMR17-31" transform="scale(0.996264)"/>
       <use xlink:href="#CMR17-32" transform="translate(45.690477 0) scale(0.996264)"/>
      </g>
     </g>
    </g>
    <g id="xtick_14">
     <g id="line2d_14">
      <g>
       <use xlink:href="#m011700ac78" x="131.121" y="114.048" style="stroke: #000000; stroke-width: 0.8"/>
      </g>
     </g>
    </g>
    <g id="xtick_15">
     <g id="line2d_15">
      <g>
       <use xlink:href="#m011700ac78" x="137.751" y="114.048" style="stroke: #000000; stroke-width: 0.8"/>
      </g>
     </g>
    </g>
    <g id="xtick_16">
     <g id="line2d_16">
      <g>
       <use xlink:href="#m011700ac78" x="144.381" y="114.048" style="stroke: #000000; stroke-width: 0.8"/>
      </g>
     </g>
    </g>
    <g id="xtick_17">
     <g id="line2d_17">
      <g>
       <use xlink:href="#m011700ac78" x="151.011" y="114.048" style="stroke: #000000; stroke-width: 0.8"/>
      </g>
     </g>
    </g>
    <g id="xtick_18">
     <g id="line2d_18">
      <g>
       <use xlink:href="#m011700ac78" x="157.641" y="114.048" style="stroke: #000000; stroke-width: 0.8"/>
      </g>
     </g>
    </g>
    <g id="xtick_19">
     <g id="line2d_19">
      <g>
       <use xlink:href="#m011700ac78" x="164.271" y="114.048" style="stroke: #000000; stroke-width: 0.8"/>
      </g>
     </g>
     <g id="text_4">
      <!-- 18 -->
      <g transform="translate(166.512594 130.263381) rotate(-90) scale(0.09 -0.09)">
       <defs>
        <path id="CMR17-38" d="M 1741 2264 
C 2144 2467 2554 2773 2554 3263 
C 2554 3841 1990 4179 1472 4179 
C 890 4179 378 3759 378 3180 
C 378 3021 416 2747 666 2505 
C 730 2442 998 2251 1171 2130 
C 883 1983 211 1634 211 934 
C 211 279 838 -128 1459 -128 
C 2144 -128 2720 362 2720 1010 
C 2720 1590 2330 1857 2074 2029 
L 1741 2264 
z
M 902 2822 
C 851 2854 595 3051 595 3351 
C 595 3739 998 4032 1459 4032 
C 1965 4032 2336 3676 2336 3262 
C 2336 2669 1670 2331 1638 2331 
C 1632 2331 1626 2331 1574 2370 
L 902 2822 
z
M 2080 1519 
C 2176 1449 2483 1240 2483 851 
C 2483 381 2010 25 1472 25 
C 890 25 448 438 448 940 
C 448 1443 838 1862 1280 2060 
L 2080 1519 
z
" transform="scale(0.015625)"/>
       </defs>
       <use xlink:href="#CMR17-31" transform="scale(0.996264)"/>
       <use xlink:href="#CMR17-38" transform="translate(45.690477 0) scale(0.996264)"/>
      </g>
     </g>
    </g>
    <g id="xtick_20">
     <g id="line2d_20">
      <g>
       <use xlink:href="#m011700ac78" x="170.901" y="114.048" style="stroke: #000000; stroke-width: 0.8"/>
      </g>
     </g>
    </g>
    <g id="xtick_21">
     <g id="line2d_21">
      <g>
       <use xlink:href="#m011700ac78" x="177.531" y="114.048" style="stroke: #000000; stroke-width: 0.8"/>
      </g>
     </g>
    </g>
    <g id="xtick_22">
     <g id="line2d_22">
      <g>
       <use xlink:href="#m011700ac78" x="184.161" y="114.048" style="stroke: #000000; stroke-width: 0.8"/>
      </g>
     </g>
    </g>
    <g id="xtick_23">
     <g id="line2d_23">
      <g>
       <use xlink:href="#m011700ac78" x="190.791" y="114.048" style="stroke: #000000; stroke-width: 0.8"/>
      </g>
     </g>
    </g>
    <g id="xtick_24">
     <g id="line2d_24">
      <g>
       <use xlink:href="#m011700ac78" x="197.421" y="114.048" style="stroke: #000000; stroke-width: 0.8"/>
      </g>
     </g>
     <g id="text_5">
      <!-- 23 -->
      <g transform="translate(199.662594 130.263381) rotate(-90) scale(0.09 -0.09)">
       <defs>
        <path id="CMR17-33" d="M 1414 2157 
C 1984 2157 2234 1662 2234 1090 
C 2234 320 1824 25 1453 25 
C 1114 25 563 194 390 693 
C 422 680 454 680 486 680 
C 640 680 755 782 755 948 
C 755 1133 614 1216 486 1216 
C 378 1216 211 1165 211 926 
C 211 335 787 -128 1466 -128 
C 2176 -128 2720 430 2720 1085 
C 2720 1707 2208 2157 1600 2227 
C 2086 2328 2554 2756 2554 3329 
C 2554 3820 2048 4179 1472 4179 
C 890 4179 378 3829 378 3329 
C 378 3110 544 3072 627 3072 
C 762 3072 877 3155 877 3321 
C 877 3486 762 3569 627 3569 
C 602 3569 570 3569 544 3557 
C 730 3959 1235 4032 1459 4032 
C 1683 4032 2106 3925 2106 3320 
C 2106 3143 2080 2828 1862 2550 
C 1670 2304 1453 2304 1242 2284 
C 1210 2284 1062 2269 1037 2269 
C 992 2263 966 2257 966 2208 
C 966 2163 973 2157 1101 2157 
L 1414 2157 
z
" transform="scale(0.015625)"/>
       </defs>
       <use xlink:href="#CMR17-32" transform="scale(0.996264)"/>
       <use xlink:href="#CMR17-33" transform="translate(45.690477 0) scale(0.996264)"/>
      </g>
     </g>
    </g>
   </g>
   <g id="matplotlib.axis_2">
    <g id="ytick_1">
     <g id="line2d_25">
      <defs>
       <path id="m7034ad086f" d="M 0 0 
L -3.5 0 
" style="stroke: #000000; stroke-width: 0.8"/>
      </defs>
      <g>
       <use xlink:href="#m7034ad086f" x="41.616" y="114.048" style="stroke: #000000; stroke-width: 0.8"/>
      </g>
     </g>
    </g>
    <g id="ytick_2">
     <g id="line2d_26">
      <g>
       <use xlink:href="#m7034ad086f" x="41.616" y="95.832" style="stroke: #000000; stroke-width: 0.8"/>
      </g>
     </g>
     <g id="text_6">
      <!-- -500 -->
      <g transform="translate(17.721134 98.945325) scale(0.09 -0.09)">
       <defs>
        <path id="CMR17-2d" d="M 1632 1216 
L 1632 1496 
L 26 1496 
L 26 1216 
L 1632 1216 
z
" transform="scale(0.015625)"/>
        <path id="CMR17-35" d="M 730 3692 
C 794 3666 1056 3584 1325 3584 
C 1920 3584 2246 3911 2432 4100 
C 2432 4157 2432 4192 2394 4192 
C 2387 4192 2374 4192 2323 4163 
C 2099 4058 1837 3973 1517 3973 
C 1325 3973 1037 3999 723 4139 
C 653 4171 640 4171 634 4171 
C 602 4171 595 4164 595 4037 
L 595 2203 
C 595 2089 595 2057 659 2057 
C 691 2057 704 2070 736 2114 
C 941 2401 1222 2522 1542 2522 
C 1766 2522 2246 2382 2246 1289 
C 2246 1085 2246 715 2054 421 
C 1894 159 1645 25 1370 25 
C 947 25 518 320 403 814 
C 429 807 480 795 506 795 
C 589 795 749 840 749 1038 
C 749 1210 627 1280 506 1280 
C 358 1280 262 1190 262 1011 
C 262 454 704 -128 1382 -128 
C 2042 -128 2669 440 2669 1264 
C 2669 2030 2170 2624 1549 2624 
C 1222 2624 947 2503 730 2274 
L 730 3692 
z
" transform="scale(0.015625)"/>
       </defs>
       <use xlink:href="#CMR17-2d" transform="scale(0.996264)"/>
       <use xlink:href="#CMR17-35" transform="translate(30.075966 0) scale(0.996264)"/>
       <use xlink:href="#CMR17-30" transform="translate(75.766443 0) scale(0.996264)"/>
       <use xlink:href="#CMR17-30" transform="translate(121.456921 0) scale(0.996264)"/>
      </g>
     </g>
    </g>
    <g id="ytick_3">
     <g id="line2d_27">
      <g>
       <use xlink:href="#m7034ad086f" x="41.616" y="77.616" style="stroke: #000000; stroke-width: 0.8"/>
      </g>
     </g>
    </g>
    <g id="ytick_4">
     <g id="line2d_28">
      <g>
       <use xlink:href="#m7034ad086f" x="41.616" y="59.4" style="stroke: #000000; stroke-width: 0.8"/>
      </g>
     </g>
     <g id="text_7">
      <!-- 0 -->
      <g transform="translate(30.008309 62.513325) scale(0.09 -0.09)">
       <use xlink:href="#CMR17-30" transform="scale(0.996264)"/>
      </g>
     </g>
    </g>
    <g id="ytick_5">
     <g id="line2d_29">
      <g>
       <use xlink:href="#m7034ad086f" x="41.616" y="41.184" style="stroke: #000000; stroke-width: 0.8"/>
      </g>
     </g>
    </g>
    <g id="ytick_6">
     <g id="line2d_30">
      <g>
       <use xlink:href="#m7034ad086f" x="41.616" y="22.968" style="stroke: #000000; stroke-width: 0.8"/>
      </g>
     </g>
     <g id="text_8">
      <!-- 500 -->
      <g transform="translate(20.792928 26.081325) scale(0.09 -0.09)">
       <use xlink:href="#CMR17-35" transform="scale(0.996264)"/>
       <use xlink:href="#CMR17-30" transform="translate(45.690477 0) scale(0.996264)"/>
       <use xlink:href="#CMR17-30" transform="translate(91.380954 0) scale(0.996264)"/>
      </g>
     </g>
    </g>
    <g id="ytick_7">
     <g id="line2d_31">
      <g>
       <use xlink:href="#m7034ad086f" x="41.616" y="4.752" style="stroke: #000000; stroke-width: 0.8"/>
      </g>
     </g>
    </g>
    <g id="text_9">
     <!-- P (kW) -->
     <g transform="translate(11.47954 74.821912) rotate(-90) scale(0.09 -0.09)">
      <defs>
       <path id="CMR17-50" d="M 1267 2042 
L 2291 2042 
C 3117 2042 3718 2578 3718 3184 
C 3718 3791 3130 4352 2291 4352 
L 333 4352 
L 333 4186 
C 774 4186 845 4186 845 3899 
L 845 446 
C 845 160 774 160 333 160 
L 333 0 
C 518 0 858 0 1056 0 
C 1254 0 1594 0 1779 0 
L 1779 160 
C 1338 160 1267 160 1267 446 
L 1267 2042 
z
M 1254 2176 
L 1254 3938 
C 1254 4155 1267 4186 1523 4186 
L 2170 4186 
C 2995 4186 3232 3714 3232 3184 
C 3232 2604 2950 2176 2170 2176 
L 1254 2176 
z
" transform="scale(0.015625)"/>
       <path id="CMR17-28" d="M 1958 -1561 
C 1958 -1555 1958 -1542 1939 -1523 
C 1645 -1224 858 -407 858 1581 
C 858 3569 1632 4379 1946 4697 
C 1946 4704 1958 4717 1958 4736 
C 1958 4755 1939 4768 1914 4768 
C 1843 4768 1299 4296 986 3594 
C 666 2887 576 2199 576 1588 
C 576 1128 621 351 1005 -471 
C 1312 -1135 1837 -1600 1914 -1600 
C 1946 -1600 1958 -1587 1958 -1561 
z
" transform="scale(0.015625)"/>
       <path id="CMR17-6b" d="M 1670 1673 
C 1664 1686 1632 1724 1632 1743 
C 1632 1756 2086 2171 2144 2222 
C 2509 2528 2739 2560 2906 2560 
L 2906 2733 
C 2867 2733 2854 2733 2848 2720 
L 2534 2720 
C 2355 2720 2080 2720 1907 2733 
L 1907 2566 
C 1997 2559 2061 2508 2061 2419 
C 2061 2291 1933 2170 1926 2170 
L 960 1289 
L 960 4396 
L 198 4326 
L 198 4160 
C 576 4160 634 4122 634 3817 
L 634 426 
C 634 184 608 153 198 153 
L 198 -13 
C 352 0 634 0 794 0 
C 954 0 1235 0 1389 -13 
L 1389 153 
C 979 153 954 178 954 428 
L 954 1130 
L 1395 1532 
L 2042 574 
C 2118 459 2182 369 2182 286 
C 2182 172 2067 153 1990 153 
L 1990 -13 
C 2144 0 2419 0 2579 0 
C 2694 0 2931 0 3040 0 
L 3040 153 
C 2739 153 2669 210 2477 491 
L 1670 1673 
z
" transform="scale(0.015625)"/>
       <path id="CMR17-57" d="M 5523 3764 
C 5581 3936 5677 4160 6048 4160 
L 6048 4326 
C 5939 4326 5715 4326 5600 4326 
C 5440 4326 5158 4326 5005 4332 
L 5005 4160 
C 5293 4160 5414 4000 5414 3847 
C 5414 3802 5408 3777 5382 3707 
L 4390 555 
L 3347 3873 
C 3328 3937 3322 3963 3322 3988 
C 3322 4160 3603 4160 3725 4160 
L 3725 4326 
C 3539 4326 3219 4326 3021 4326 
C 2861 4326 2573 4326 2426 4332 
L 2426 4160 
C 2720 4160 2797 4141 2861 4027 
C 2886 3969 2989 3638 2989 3619 
C 2989 3593 2976 3555 2970 3536 
L 2029 561 
L 986 3867 
C 954 3957 954 3969 954 3982 
C 954 4160 1235 4160 1363 4160 
L 1363 4326 
C 1178 4326 858 4326 659 4326 
C 493 4326 211 4326 58 4332 
L 58 4160 
C 442 4160 467 4122 531 3918 
L 1779 -20 
C 1811 -115 1811 -128 1869 -128 
C 1920 -128 1939 -115 1965 -26 
L 3053 3433 
L 4141 -26 
C 4166 -115 4186 -128 4237 -128 
C 4294 -128 4294 -115 4326 -20 
L 5523 3764 
z
" transform="scale(0.015625)"/>
       <path id="CMR17-29" d="M 1683 1581 
C 1683 2040 1638 2817 1254 3639 
C 947 4303 422 4768 346 4768 
C 326 4768 301 4761 301 4729 
C 301 4717 307 4710 314 4697 
C 621 4378 1402 3568 1402 1584 
C 1402 -407 627 -1217 314 -1537 
C 307 -1549 301 -1556 301 -1568 
C 301 -1600 326 -1600 346 -1600 
C 416 -1600 960 -1128 1274 -426 
C 1594 281 1683 969 1683 1581 
z
" transform="scale(0.015625)"/>
      </defs>
      <use xlink:href="#CMR17-50" transform="scale(0.996264)"/>
      <use xlink:href="#CMR17-28" transform="translate(92.662267 0) scale(0.996264)"/>
      <use xlink:href="#CMR17-6b" transform="translate(127.943035 0) scale(0.996264)"/>
      <use xlink:href="#CMR17-57" transform="translate(176.235951 0) scale(0.996264)"/>
      <use xlink:href="#CMR17-29" transform="translate(271.3326 0) scale(0.996264)"/>
     </g>
    </g>
   </g>
   <g id="line2d_32">
    <path d="M 41.616 59.4 
L 200.736 59.4 
" clip-path="url(#pc0ca5431e7)" style="fill: none; stroke: #000000; stroke-width: 1.5; stroke-linecap: square"/>
   </g>
   <g id="patch_123">
    <path d="M 41.616 114.048 
L 41.616 4.752 
" style="fill: none; stroke: #000000; stroke-width: 0.8; stroke-linejoin: miter; stroke-linecap: square"/>
   </g>
   <g id="patch_124">
    <path d="M 200.736 114.048 
L 200.736 4.752 
" style="fill: none; stroke: #000000; stroke-width: 0.8; stroke-linejoin: miter; stroke-linecap: square"/>
   </g>
   <g id="patch_125">
    <path d="M 41.616 114.048 
L 200.736 114.048 
" style="fill: none; stroke: #000000; stroke-width: 0.8; stroke-linejoin: miter; stroke-linecap: square"/>
   </g>
   <g id="legend_1">
    <g id="patch_126">
     <path d="M 6.886202 169.640101 
L 235.465798 169.640101 
L 235.465798 140.4072 
L 6.886202 140.4072 
z
" style="fill: #ffffff; opacity: 0.8; stroke: #cccccc; stroke-linejoin: miter"/>
    </g>
    <g id="patch_127">
     <path d="M 10.486202 151.753177 
L 28.486202 151.753177 
L 28.486202 145.453177 
L 10.486202 145.453177 
z
" style="fill: #c0e3c0"/>
    </g>
    <g id="text_10">
     <!-- $\hat{P}_{PV}$ -->
     <g transform="translate(35.686202 151.753177) scale(0.09 -0.09)">
      <defs>
       <path id="CMR17-5e" d="M 1466 4421 
L 678 3555 
L 755 3478 
L 1466 4166 
L 2176 3478 
L 2253 3555 
L 1466 4421 
z
" transform="scale(0.015625)"/>
       <path id="CMMI12-50" d="M 1894 2023 
L 2970 2023 
C 3853 2023 4736 2673 4736 3401 
C 4736 3898 4314 4352 3507 4352 
L 1530 4352 
C 1408 4352 1350 4352 1350 4231 
C 1350 4167 1408 4167 1504 4167 
C 1894 4167 1894 4116 1894 4046 
C 1894 4034 1894 3995 1869 3899 
L 1005 472 
C 947 249 934 185 486 185 
C 365 185 301 185 301 70 
C 301 0 358 0 397 0 
C 518 0 646 0 768 0 
L 1517 0 
C 1638 0 1773 0 1894 0 
C 1946 0 2016 0 2016 121 
C 2016 185 1958 185 1862 185 
C 1478 185 1472 230 1472 293 
C 1472 325 1478 369 1485 401 
L 1894 2023 
z
M 2355 3930 
C 2413 4167 2438 4167 2688 4167 
L 3322 4167 
C 3802 4167 4198 4013 4198 3535 
C 4198 3369 4115 2827 3821 2534 
C 3712 2419 3405 2176 2822 2176 
L 1920 2176 
L 2355 3930 
z
" transform="scale(0.015625)"/>
       <path id="CMMI12-56" d="M 3962 3640 
C 4179 3984 4378 4136 4704 4162 
C 4768 4168 4819 4168 4819 4282 
C 4819 4308 4806 4346 4749 4346 
C 4634 4346 4358 4346 4243 4346 
C 4058 4346 3866 4346 3686 4346 
C 3635 4346 3571 4346 3571 4226 
C 3571 4168 3629 4162 3654 4162 
C 3891 4143 3917 4029 3917 3952 
C 3917 3857 3827 3710 3821 3704 
L 1811 540 
L 1363 3969 
C 1363 4160 1696 4160 1766 4160 
C 1862 4160 1920 4160 1920 4282 
C 1920 4346 1850 4346 1830 4346 
C 1722 4346 1594 4346 1485 4346 
L 1126 4346 
C 659 4346 467 4346 461 4346 
C 422 4346 346 4346 346 4230 
C 346 4160 390 4160 493 4160 
C 819 4160 838 4102 858 3944 
L 1370 24 
C 1389 -109 1389 -128 1478 -128 
C 1555 -128 1587 -109 1651 -8 
L 3962 3640 
z
" transform="scale(0.015625)"/>
      </defs>
      <use xlink:href="#CMR17-5e" transform="translate(23.496833 25.189733) scale(0.996264)"/>
      <use xlink:href="#CMMI12-50" transform="scale(0.996264)"/>
      <use xlink:href="#CMMI12-50" transform="translate(62.877232 -14.943915) scale(0.697382)"/>
      <use xlink:href="#CMMI12-56" transform="translate(116.375056 -14.943915) scale(0.697382)"/>
     </g>
    </g>
    <g id="patch_128">
     <path d="M 10.486202 164.296639 
L 28.486202 164.296639 
L 28.486202 157.996639 
L 10.486202 157.996639 
z
" style="fill: #029e73"/>
    </g>
    <g id="text_11">
     <!-- $P_{PV}$ -->
     <g transform="translate(35.686202 164.296639) scale(0.09 -0.09)">
      <use xlink:href="#CMMI12-50" transform="scale(0.996264)"/>
      <use xlink:href="#CMMI12-50" transform="translate(62.877232 -14.943915) scale(0.697382)"/>
      <use xlink:href="#CMMI12-56" transform="translate(116.375056 -14.943915) scale(0.697382)"/>
     </g>
    </g>
    <g id="patch_129">
     <path d="M 69.56232 151.753177 
L 87.56232 151.753177 
L 87.56232 145.453177 
L 69.56232 145.453177 
z
" style="fill: #d55e00"/>
    </g>
    <g id="text_12">
     <!-- $P_{p24s}$ -->
     <g transform="translate(94.76232 151.753177) scale(0.09 -0.09)">
      <defs>
       <path id="CMMI12-70" d="M 275 -789 
C 230 -980 205 -1031 -58 -1031 
C -134 -1031 -198 -1031 -198 -1152 
C -198 -1165 -192 -1216 -122 -1216 
C -38 -1216 51 -1216 134 -1216 
L 410 -1216 
C 544 -1216 870 -1216 1005 -1216 
C 1043 -1216 1120 -1216 1120 -1101 
C 1120 -1031 1075 -1031 966 -1031 
C 672 -1031 653 -987 653 -937 
C 653 -861 941 219 979 364 
C 1050 185 1222 -64 1555 -64 
C 2278 -64 3059 875 3059 1814 
C 3059 2401 2726 2816 2246 2816 
C 1837 2816 1491 2420 1421 2331 
C 1370 2650 1120 2816 864 2816 
C 678 2816 531 2727 410 2484 
C 294 2254 205 1865 205 1839 
C 205 1814 230 1782 275 1782 
C 326 1782 333 1788 371 1935 
C 467 2312 589 2689 845 2689 
C 992 2689 1043 2587 1043 2397 
C 1043 2245 1024 2181 998 2067 
L 275 -789 
z
M 1382 1993 
C 1427 2171 1606 2357 1709 2446 
C 1779 2510 1990 2689 2234 2689 
C 2515 2689 2643 2408 2643 2076 
C 2643 1769 2464 1047 2304 715 
C 2144 370 1850 64 1555 64 
C 1120 64 1050 613 1050 639 
C 1050 658 1062 709 1069 741 
L 1382 1993 
z
" transform="scale(0.015625)"/>
       <path id="CMR17-34" d="M 2150 4122 
C 2150 4256 2144 4256 2029 4256 
L 128 1254 
L 128 1088 
L 1779 1088 
L 1779 457 
C 1779 224 1766 160 1318 160 
L 1197 160 
L 1197 0 
C 1402 0 1747 0 1965 0 
C 2182 0 2528 0 2733 0 
L 2733 160 
L 2611 160 
C 2163 160 2150 224 2150 457 
L 2150 1088 
L 2803 1088 
L 2803 1254 
L 2150 1254 
L 2150 4122 
z
M 1798 3703 
L 1798 1254 
L 256 1254 
L 1798 3703 
z
" transform="scale(0.015625)"/>
       <path id="CMMI12-73" d="M 1459 1280 
C 1568 1261 1741 1223 1779 1216 
C 1862 1192 2150 1090 2150 783 
C 2150 586 1971 70 1229 70 
C 1094 70 614 70 486 436 
C 742 404 870 603 870 745 
C 870 880 781 950 653 950 
C 512 950 326 841 326 552 
C 326 173 710 -64 1222 -64 
C 2195 -64 2483 651 2483 984 
C 2483 1079 2483 1258 2278 1462 
C 2118 1616 1965 1648 1619 1718 
C 1446 1756 1171 1814 1171 2101 
C 1171 2229 1286 2689 1894 2689 
C 2163 2689 2426 2589 2490 2368 
C 2208 2368 2195 2125 2195 2119 
C 2195 1984 2317 1946 2374 1946 
C 2464 1946 2643 2015 2643 2281 
C 2643 2545 2400 2816 1901 2816 
C 1062 2816 838 2160 838 1899 
C 838 1414 1312 1312 1459 1280 
z
" transform="scale(0.015625)"/>
      </defs>
      <use xlink:href="#CMMI12-50" transform="scale(0.996264)"/>
      <use xlink:href="#CMMI12-70" transform="translate(62.877232 -14.943915) scale(0.697382)"/>
      <use xlink:href="#CMR17-32" transform="translate(97.148738 -14.943915) scale(0.697382)"/>
      <use xlink:href="#CMR17-34" transform="translate(129.13192 -14.943915) scale(0.697382)"/>
      <use xlink:href="#CMMI12-73" transform="translate(161.115102 -14.943915) scale(0.697382)"/>
     </g>
    </g>
    <g id="patch_130">
     <path d="M 133.286231 151.753177 
L 151.286231 151.753177 
L 151.286231 145.453177 
L 133.286231 145.453177 
z
" style="fill: #cc78bc"/>
    </g>
    <g id="text_13">
     <!-- $P_{p24g}$ -->
     <g transform="translate(158.486231 151.753177) scale(0.09 -0.09)">
      <defs>
       <path id="CMMI12-67" d="M 2163 811 
C 2138 709 2125 683 2042 588 
C 1779 249 1510 128 1312 128 
C 1101 128 902 294 902 734 
C 902 1073 1094 1788 1235 2076 
C 1421 2433 1709 2689 1978 2689 
C 2400 2689 2483 2165 2483 2127 
L 2464 2037 
L 2163 811 
z
M 2560 2395 
C 2477 2580 2298 2816 1978 2816 
C 1280 2816 486 1941 486 990 
C 486 326 890 0 1299 0 
C 1638 0 1939 268 2054 396 
L 1914 -171 
C 1824 -516 1786 -674 1555 -894 
C 1293 -1152 1050 -1152 909 -1152 
C 717 -1152 557 -1139 397 -1089 
C 602 -1033 653 -858 653 -789 
C 653 -689 576 -588 435 -588 
C 282 -588 115 -714 115 -922 
C 115 -1180 378 -1280 922 -1280 
C 1747 -1280 2176 -753 2259 -410 
L 2970 2435 
C 2989 2511 2989 2524 2989 2536 
C 2989 2625 2918 2695 2822 2695 
C 2669 2695 2579 2567 2560 2395 
z
" transform="scale(0.015625)"/>
      </defs>
      <use xlink:href="#CMMI12-50" transform="scale(0.996264)"/>
      <use xlink:href="#CMMI12-70" transform="translate(62.877232 -14.943915) scale(0.697382)"/>
      <use xlink:href="#CMR17-32" transform="translate(97.148738 -14.943915) scale(0.697382)"/>
      <use xlink:href="#CMR17-34" transform="translate(129.13192 -14.943915) scale(0.697382)"/>
      <use xlink:href="#CMMI12-67" transform="translate(161.115102 -14.943915) scale(0.697382)"/>
     </g>
    </g>
    <g id="patch_131">
     <path d="M 197.149148 151.753177 
L 215.149148 151.753177 
L 215.149148 145.453177 
L 197.149148 145.453177 
z
" style="fill: #949494"/>
    </g>
    <g id="text_14">
     <!-- $P_{g}$ -->
     <g transform="translate(222.349148 151.753177) scale(0.09 -0.09)">
      <use xlink:href="#CMMI12-50" transform="scale(0.996264)"/>
      <use xlink:href="#CMMI12-67" transform="translate(62.877232 -14.943915) scale(0.697382)"/>
     </g>
    </g>
   </g>
  </g>
  <g id="axes_2">
   <g id="FillBetweenPolyCollection_1"/>
   <g id="FillBetweenPolyCollection_2"/>
   <g id="FillBetweenPolyCollection_3"/>
   <g id="FillBetweenPolyCollection_4"/>
   <g id="matplotlib.axis_3">
    <g id="ytick_8">
     <g id="line2d_33">
      <defs>
       <path id="m50efa5219b" d="M 0 0 
L 3.5 0 
" style="stroke: #000000; stroke-width: 0.8"/>
      </defs>
      <g>
       <use xlink:href="#m50efa5219b" x="200.736" y="111.904941" style="stroke: #000000; stroke-width: 0.8"/>
      </g>
     </g>
     <g id="text_15">
      <!-- $\mathdefault{50}$ -->
      <g transform="translate(207.736 115.018266) scale(0.09 -0.09)">
       <use xlink:href="#CMR17-35" transform="scale(0.996264)"/>
       <use xlink:href="#CMR17-30" transform="translate(45.690477 0) scale(0.996264)"/>
      </g>
     </g>
    </g>
    <g id="ytick_9">
     <g id="line2d_34">
      <g>
       <use xlink:href="#m50efa5219b" x="200.736" y="90.474353" style="stroke: #000000; stroke-width: 0.8"/>
      </g>
     </g>
     <g id="text_16">
      <!-- $\mathdefault{100}$ -->
      <g transform="translate(207.736 93.587678) scale(0.09 -0.09)">
       <use xlink:href="#CMR17-31" transform="scale(0.996264)"/>
       <use xlink:href="#CMR17-30" transform="translate(45.690477 0) scale(0.996264)"/>
       <use xlink:href="#CMR17-30" transform="translate(91.380954 0) scale(0.996264)"/>
      </g>
     </g>
    </g>
    <g id="ytick_10">
     <g id="line2d_35">
      <g>
       <use xlink:href="#m50efa5219b" x="200.736" y="69.043765" style="stroke: #000000; stroke-width: 0.8"/>
      </g>
     </g>
     <g id="text_17">
      <!-- $\mathdefault{150}$ -->
      <g transform="translate(207.736 72.15709) scale(0.09 -0.09)">
       <use xlink:href="#CMR17-31" transform="scale(0.996264)"/>
       <use xlink:href="#CMR17-35" transform="translate(45.690477 0) scale(0.996264)"/>
       <use xlink:href="#CMR17-30" transform="translate(91.380954 0) scale(0.996264)"/>
      </g>
     </g>
    </g>
    <g id="ytick_11">
     <g id="line2d_36">
      <g>
       <use xlink:href="#m50efa5219b" x="200.736" y="47.613176" style="stroke: #000000; stroke-width: 0.8"/>
      </g>
     </g>
     <g id="text_18">
      <!-- $\mathdefault{200}$ -->
      <g transform="translate(207.736 50.726502) scale(0.09 -0.09)">
       <use xlink:href="#CMR17-32" transform="scale(0.996264)"/>
       <use xlink:href="#CMR17-30" transform="translate(45.690477 0) scale(0.996264)"/>
       <use xlink:href="#CMR17-30" transform="translate(91.380954 0) scale(0.996264)"/>
      </g>
     </g>
    </g>
    <g id="ytick_12">
     <g id="line2d_37">
      <g>
       <use xlink:href="#m50efa5219b" x="200.736" y="26.182588" style="stroke: #000000; stroke-width: 0.8"/>
      </g>
     </g>
     <g id="text_19">
      <!-- $\mathdefault{250}$ -->
      <g transform="translate(207.736 29.295913) scale(0.09 -0.09)">
       <use xlink:href="#CMR17-32" transform="scale(0.996264)"/>
       <use xlink:href="#CMR17-35" transform="translate(45.690477 0) scale(0.996264)"/>
       <use xlink:href="#CMR17-30" transform="translate(91.380954 0) scale(0.996264)"/>
      </g>
     </g>
    </g>
    <g id="ytick_13">
     <g id="line2d_38">
      <g>
       <use xlink:href="#m50efa5219b" x="200.736" y="4.752" style="stroke: #000000; stroke-width: 0.8"/>
      </g>
     </g>
     <g id="text_20">
      <!-- $\mathdefault{300}$ -->
      <g transform="translate(207.736 7.865325) scale(0.09 -0.09)">
       <use xlink:href="#CMR17-33" transform="scale(0.996264)"/>
       <use xlink:href="#CMR17-30" transform="translate(45.690477 0) scale(0.996264)"/>
       <use xlink:href="#CMR17-30" transform="translate(91.380954 0) scale(0.996264)"/>
      </g>
     </g>
    </g>
    <g id="text_21">
     <!-- Price (/MWh) -->
     <g transform="translate(232.283854 92.239293) rotate(-90) scale(0.09 -0.09)">
      <defs>
       <path id="CMR17-72" d="M 960 1497 
C 960 2112 1222 2688 1702 2688 
C 1747 2688 1792 2682 1837 2662 
C 1837 2662 1696 2617 1696 2452 
C 1696 2298 1818 2234 1914 2234 
C 1990 2234 2131 2279 2131 2458 
C 2131 2663 1926 2790 1709 2790 
C 1222 2790 1011 2317 947 2093 
L 941 2093 
L 941 2790 
L 198 2720 
L 198 2554 
C 576 2554 634 2515 634 2208 
L 634 428 
C 634 184 608 153 198 153 
L 198 -13 
C 352 0 646 0 813 0 
C 998 0 1325 0 1498 -13 
L 1498 153 
C 1037 153 960 153 960 440 
L 960 1497 
z
" transform="scale(0.015625)"/>
       <path id="CMR17-69" d="M 992 3909 
C 992 4049 877 4170 730 4170 
C 589 4170 467 4056 467 3909 
C 467 3769 582 3648 730 3648 
C 870 3648 992 3763 992 3909 
z
M 243 2706 
L 243 2541 
C 602 2541 653 2502 653 2197 
L 653 427 
C 653 184 627 153 218 153 
L 218 -13 
C 371 0 646 0 806 0 
C 960 0 1222 0 1370 -13 
L 1370 153 
C 992 153 979 191 979 420 
L 979 2776 
L 243 2706 
z
" transform="scale(0.015625)"/>
       <path id="CMR17-63" d="M 2234 2240 
C 2112 2240 1933 2240 1933 2017 
C 1933 1838 2080 1787 2163 1787 
C 2208 1787 2394 1807 2394 2024 
C 2394 2467 1958 2803 1466 2803 
C 787 2803 211 2178 211 1363 
C 211 516 813 -64 1466 -64 
C 2259 -64 2458 677 2458 748 
C 2458 774 2451 793 2406 793 
C 2362 793 2355 787 2330 703 
C 2163 180 1798 51 1523 51 
C 1114 51 621 427 621 1369 
C 621 2338 1094 2688 1472 2688 
C 1722 2688 2093 2573 2234 2240 
z
" transform="scale(0.015625)"/>
       <path id="CMR17-65" d="M 2438 1472 
C 2464 1498 2464 1511 2464 1576 
C 2464 2238 2118 2816 1389 2816 
C 710 2816 173 2169 173 1383 
C 173 551 781 -64 1459 -64 
C 2176 -64 2458 607 2458 740 
C 2458 784 2419 784 2406 784 
C 2362 784 2355 771 2330 696 
C 2189 265 1837 51 1504 51 
C 1229 51 954 203 781 480 
C 582 803 582 1176 582 1472 
L 2438 1472 
z
M 589 1568 
C 634 2505 1126 2714 1382 2714 
C 1818 2714 2112 2297 2118 1568 
L 589 1568 
z
" transform="scale(0.015625)"/>
       <path id="SFRM3583-bf" d="M 806 2496 
L 307 2496 
C 307 2477 301 2458 301 2432 
C 301 2374 320 2349 378 2349 
C 403 2349 422 2355 442 2355 
L 794 2355 
L 794 2208 
L 378 2208 
C 314 2208 301 2181 301 2127 
C 301 2099 307 2073 307 2073 
L 723 2073 
C 845 2073 826 1853 858 1731 
C 1069 769 1875 0 2867 0 
L 3872 0 
C 3968 0 3955 225 3974 342 
C 4026 734 4070 1127 4128 1513 
L 4128 1558 
C 4128 1577 4128 1590 4109 1597 
L 4090 1597 
C 4019 1597 3974 1004 3917 747 
C 3866 495 3750 186 3405 141 
L 2982 141 
C 2803 141 2624 154 2451 205 
C 1760 422 1318 1104 1197 1793 
C 1178 1876 1178 1965 1158 2048 
L 1914 2048 
C 2406 2048 2963 2048 3072 1354 
C 3098 1197 3072 811 3142 811 
C 3181 817 3181 849 3181 881 
L 3181 2157 
C 3181 2201 3149 2208 3123 2208 
L 1152 2208 
L 1152 2355 
L 3123 2355 
C 3149 2355 3181 2362 3181 2406 
L 3181 3665 
C 3181 3697 3181 3729 3142 3729 
C 3072 3729 3091 3306 3072 3196 
C 3040 2997 2963 2804 2810 2676 
C 2598 2496 2259 2496 1965 2496 
L 1165 2496 
C 1197 3335 1901 4148 2790 4224 
L 3456 4224 
C 3885 4148 3962 3817 4026 3239 
L 4045 3061 
C 4045 3023 4051 2985 4096 2985 
C 4122 2985 4134 3010 4134 3036 
C 4134 3125 4109 3221 4102 3309 
C 4077 3634 4032 3951 4006 4275 
C 4006 4320 4006 4365 3942 4365 
L 2771 4365 
C 1920 4301 1242 3805 941 3049 
C 870 2877 813 2681 806 2496 
z
" transform="scale(0.015625)"/>
       <path id="CMR17-2f" d="M 2605 4545 
C 2637 4627 2637 4640 2637 4653 
C 2637 4729 2579 4768 2528 4768 
C 2451 4768 2426 4717 2400 4640 
L 326 -1377 
C 294 -1460 294 -1473 294 -1486 
C 294 -1562 352 -1600 403 -1600 
C 480 -1600 506 -1549 531 -1473 
L 2605 4545 
z
" transform="scale(0.015625)"/>
       <path id="CMR17-4d" d="M 1338 4224 
C 1299 4320 1293 4320 1158 4320 
L 339 4320 
L 339 4160 
C 781 4160 851 4160 851 3875 
L 851 610 
C 851 451 851 153 339 153 
L 339 -13 
C 486 0 755 0 915 0 
C 1075 0 1344 0 1491 -13 
L 1491 153 
C 979 153 979 451 979 610 
L 979 4135 
L 986 4135 
L 2490 89 
C 2515 25 2528 -13 2579 -13 
C 2630 -13 2643 25 2669 89 
L 4186 4166 
L 4192 4166 
L 4192 438 
C 4192 153 4122 153 3680 153 
L 3680 -13 
C 3853 0 4198 0 4384 0 
C 4570 0 4922 0 5094 -13 
L 5094 153 
C 4653 153 4582 153 4582 438 
L 4582 3875 
C 4582 4160 4653 4160 5094 4160 
L 5094 4320 
L 4282 4320 
C 4147 4320 4141 4314 4102 4218 
L 2720 502 
L 1338 4224 
z
" transform="scale(0.015625)"/>
       <path id="CMR17-68" d="M 2656 1933 
C 2656 2259 2592 2790 1837 2790 
C 1312 2790 1056 2368 979 2157 
L 973 2157 
L 973 4396 
L 211 4326 
L 211 4160 
C 589 4160 646 4122 646 3817 
L 646 426 
C 646 184 621 153 211 153 
L 211 -13 
C 365 0 646 0 813 0 
C 979 0 1267 0 1421 -13 
L 1421 153 
C 1011 153 986 178 986 428 
L 986 1658 
C 986 2247 1344 2688 1792 2688 
C 2266 2688 2317 2266 2317 1958 
L 2317 428 
C 2317 184 2291 153 1882 153 
L 1882 -13 
C 2035 0 2317 0 2483 0 
C 2650 0 2938 0 3091 -13 
L 3091 153 
C 2682 153 2656 178 2656 428 
L 2656 1933 
z
" transform="scale(0.015625)"/>
      </defs>
      <use xlink:href="#CMR17-50" transform="scale(0.996264)"/>
      <use xlink:href="#CMR17-72" transform="translate(62.586301 0) scale(0.996264)"/>
      <use xlink:href="#CMR17-69" transform="translate(97.867068 0) scale(0.996264)"/>
      <use xlink:href="#CMR17-63" transform="translate(122.738127 0) scale(0.996264)"/>
      <use xlink:href="#CMR17-65" transform="translate(163.223787 0) scale(0.996264)"/>
      <use xlink:href="#CMR17-28" transform="translate(233.785414 0) scale(0.996264)"/>
      <use xlink:href="#SFRM3583-bf" transform="translate(269.066182 0) scale(0.356961)"/>
      <use xlink:href="#CMR17-2f" transform="translate(293.924516 0) scale(0.996264)"/>
      <use xlink:href="#CMR17-4d" transform="translate(339.614994 0) scale(0.996264)"/>
      <use xlink:href="#CMR17-57" transform="translate(424.301934 0) scale(0.996264)"/>
      <use xlink:href="#CMR17-68" transform="translate(519.398584 0) scale(0.996264)"/>
      <use xlink:href="#CMR17-29" transform="translate(570.293954 0) scale(0.996264)"/>
     </g>
    </g>
   </g>
   <g id="line2d_39">
    <path d="M 44.931 91.094087 
L 51.561 92.615074 
L 58.191 92.579616 
L 64.821 93.158437 
L 71.451 91.078111 
L 78.081 85.185868 
L 84.711 78.074809 
L 91.341 58.101112 
L 97.971 61.592934 
L 104.601 50.60138 
L 111.231 54.970297 
L 117.861 56.672471 
L 124.491 58.25697 
L 131.121 78.937878 
L 137.751 79.411883 
L 144.381 74.774888 
L 151.011 64.533016 
L 157.641 35.071996 
L 164.271 22.312224 
L 170.901 24.648743 
L 177.531 33.816943 
L 184.161 65.387706 
L 190.791 73.313712 
L 197.421 85.452656 
" clip-path="url(#pc0ca5431e7)" style="fill: none; stroke: #ffffff; stroke-width: 3; stroke-linecap: square"/>
   </g>
   <g id="line2d_40">
    <path d="M 44.931 91.094087 
L 51.561 92.615074 
L 58.191 92.579616 
L 64.821 93.158437 
L 71.451 91.078111 
L 78.081 85.185868 
L 84.711 78.074809 
L 91.341 58.101112 
L 97.971 61.592934 
L 104.601 50.60138 
L 111.231 54.970297 
L 117.861 56.672471 
L 124.491 58.25697 
L 131.121 78.937878 
L 137.751 79.411883 
L 144.381 74.774888 
L 151.011 64.533016 
L 157.641 35.071996 
L 164.271 22.312224 
L 170.901 24.648743 
L 177.531 33.816943 
L 184.161 65.387706 
L 190.791 73.313712 
L 197.421 85.452656 
" clip-path="url(#pc0ca5431e7)" style="fill: none; stroke: #d62728; stroke-width: 1.5; stroke-linecap: square"/>
   </g>
   <g id="line2d_41">
    <path d="M 44.931 109.406524 
L 51.561 111.393335 
L 58.191 112.177304 
L 64.821 112.733136 
L 71.451 110.623782 
L 78.081 104.55386 
L 84.711 96.471411 
L 91.341 87.307302 
L 97.971 90.117631 
L 104.601 96.258079 
L 111.231 99.855885 
L 117.861 101.251991 
L 124.491 102.55575 
L 131.121 104.17824 
L 137.751 104.80713 
L 144.381 101.579294 
L 151.011 92.507531 
L 157.641 83.460511 
L 164.271 73.038426 
L 170.901 74.968543 
L 177.531 82.620432 
L 184.161 93.69576 
L 190.791 100.963652 
L 197.421 103.612528 
" clip-path="url(#pc0ca5431e7)" style="fill: none; stroke: #ffffff; stroke-width: 3; stroke-linecap: square"/>
   </g>
   <g id="line2d_42">
    <path d="M 44.931 109.406524 
L 51.561 111.393335 
L 58.191 112.177304 
L 64.821 112.733136 
L 71.451 110.623782 
L 78.081 104.55386 
L 84.711 96.471411 
L 91.341 87.307302 
L 97.971 90.117631 
L 104.601 96.258079 
L 111.231 99.855885 
L 117.861 101.251991 
L 124.491 102.55575 
L 131.121 104.17824 
L 137.751 104.80713 
L 144.381 101.579294 
L 151.011 92.507531 
L 157.641 83.460511 
L 164.271 73.038426 
L 170.901 74.968543 
L 177.531 82.620432 
L 184.161 93.69576 
L 190.791 100.963652 
L 197.421 103.612528 
" clip-path="url(#pc0ca5431e7)" style="fill: none; stroke-dasharray: 5.55,2.4; stroke-dashoffset: 0; stroke: #d62728; stroke-width: 1.5"/>
   </g>
   <g id="patch_132">
    <path d="M 41.616 114.048 
L 41.616 4.752 
" style="fill: none; stroke: #000000; stroke-width: 0.8; stroke-linejoin: miter; stroke-linecap: square"/>
   </g>
   <g id="patch_133">
    <path d="M 200.736 114.048 
L 200.736 4.752 
" style="fill: none; stroke: #000000; stroke-width: 0.8; stroke-linejoin: miter; stroke-linecap: square"/>
   </g>
   <g id="patch_134">
    <path d="M 41.616 114.048 
L 200.736 114.048 
" style="fill: none; stroke: #000000; stroke-width: 0.8; stroke-linejoin: miter; stroke-linecap: square"/>
   </g>
   <g id="text_22">
    <!-- Time (h) -->
    <g transform="translate(207.366 133.292668) scale(0.09 -0.09)">
     <defs>
      <path id="CMR17-54" d="M 3981 4326 
L 288 4326 
L 179 2918 
L 294 2918 
C 378 3976 467 4160 1453 4160 
C 1568 4160 1754 4160 1805 4154 
C 1926 4135 1926 4058 1926 3912 
L 1926 459 
C 1926 230 1907 160 1376 160 
L 1197 160 
L 1197 0 
C 1504 0 1824 0 2138 0 
C 2451 0 2771 0 3078 0 
L 3078 160 
L 2899 160 
C 2368 160 2349 230 2349 459 
L 2349 3912 
C 2349 4052 2349 4129 2464 4154 
C 2515 4160 2701 4160 2816 4160 
C 3795 4160 3891 3976 3974 2918 
L 4090 2918 
L 3981 4326 
z
" transform="scale(0.015625)"/>
      <path id="CMR17-6d" d="M 4326 1933 
C 4326 2252 4269 2790 3507 2790 
C 3072 2790 2771 2496 2656 2151 
L 2650 2151 
C 2573 2676 2195 2790 1837 2790 
C 1331 2790 1069 2400 973 2144 
L 966 2144 
L 966 2790 
L 211 2720 
L 211 2554 
C 589 2554 646 2515 646 2208 
L 646 428 
C 646 184 621 153 211 153 
L 211 -13 
C 365 0 646 0 813 0 
C 979 0 1267 0 1421 -13 
L 1421 153 
C 1011 153 986 178 986 428 
L 986 1658 
C 986 2247 1344 2688 1792 2688 
C 2266 2688 2317 2266 2317 1958 
L 2317 428 
C 2317 184 2291 153 1882 153 
L 1882 -13 
C 2035 0 2317 0 2483 0 
C 2650 0 2938 0 3091 -13 
L 3091 153 
C 2682 153 2656 178 2656 428 
L 2656 1658 
C 2656 2247 3014 2688 3462 2688 
C 3936 2688 3987 2266 3987 1958 
L 3987 428 
C 3987 184 3962 153 3552 153 
L 3552 -13 
C 3706 0 3987 0 4154 0 
C 4320 0 4608 0 4762 -13 
L 4762 153 
C 4352 153 4326 178 4326 428 
L 4326 1933 
z
" transform="scale(0.015625)"/>
     </defs>
     <use xlink:href="#CMR17-54" transform="scale(0.996264)"/>
     <use xlink:href="#CMR17-69" transform="translate(66.509881 0) scale(0.996264)"/>
     <use xlink:href="#CMR17-6d" transform="translate(91.380939 0) scale(0.996264)"/>
     <use xlink:href="#CMR17-65" transform="translate(168.300529 0) scale(0.996264)"/>
     <use xlink:href="#CMR17-28" transform="translate(238.862156 0) scale(0.996264)"/>
     <use xlink:href="#CMR17-68" transform="translate(274.142924 0) scale(0.996264)"/>
     <use xlink:href="#CMR17-29" transform="translate(325.038293 0) scale(0.996264)"/>
    </g>
   </g>
  </g>
 </g>
 <defs>
  <clipPath id="pc0ca5431e7">
   <rect x="41.616" y="4.752" width="159.12" height="109.296"/>
  </clipPath>
 </defs>
</svg>
