<?xml version="1.0" encoding="utf-8" standalone="no"?>
<!DOCTYPE svg PUBLIC "-//W3C//DTD SVG 1.1//EN"
  "http://www.w3.org/Graphics/SVG/1.1/DTD/svg11.dtd">
<svg xmlns:xlink="http://www.w3.org/1999/xlink" width="244.8pt" height="144pt" viewBox="0 0 244.8 144" xmlns="http://www.w3.org/2000/svg" version="1.1">
 <metadata>
  <rdf:RDF xmlns:dc="http://purl.org/dc/elements/1.1/" xmlns:cc="http://creativecommons.org/ns#" xmlns:rdf="http://www.w3.org/1999/02/22-rdf-syntax-ns#">
   <cc:Work>
    <dc:type rdf:resource="http://purl.org/dc/dcmitype/StillImage"/>
    <dc:date>2024-05-30T19:02:26.114589</dc:date>
    <dc:format>image/svg+xml</dc:format>
    <dc:creator>
     <cc:Agent>
      <dc:title>Matplotlib v3.8.4, https://matplotlib.org/</dc:title>
     </cc:Agent>
    </dc:creator>
   </cc:Work>
  </rdf:RDF>
 </metadata>
 <defs>
  <style type="text/css">*{stroke-linejoin: round; stroke-linecap: butt}</style>
 </defs>
 <g id="figure_1">
  <g id="patch_1">
   <path d="M 0 144 
L 244.8 144 
L 244.8 0 
L 0 0 
z
" style="fill: #ffffff"/>
  </g>
  <g id="axes_1">
   <g id="patch_2">
    <path d="M 53.661259 57.717192 
L 235.047444 57.717192 
L 235.047444 12.833325 
L 53.661259 12.833325 
z
" style="fill: #ffffff"/>
   </g>
   <g id="patch_3">
    <path d="M 55.550699 35.275258 
L 59.329577 35.275258 
L 59.329577 36.584371 
L 55.550699 36.584371 
z
" clip-path="url(#pfbaa2525ec)" style="fill: #029e73"/>
   </g>
   <g id="patch_4">
    <path d="M 63.108456 35.275258 
L 66.887335 35.275258 
L 66.887335 36.979842 
L 63.108456 36.979842 
z
" clip-path="url(#pfbaa2525ec)" style="fill: #029e73"/>
   </g>
   <g id="patch_5">
    <path d="M 70.666214 35.275258 
L 74.445093 35.275258 
L 74.445093 37.600447 
L 70.666214 37.600447 
z
" clip-path="url(#pfbaa2525ec)" style="fill: #029e73"/>
   </g>
   <g id="patch_6">
    <path d="M 78.223972 35.275258 
L 82.00285 35.275258 
L 82.00285 39.335115 
L 78.223972 39.335115 
z
" clip-path="url(#pfbaa2525ec)" style="fill: #029e73"/>
   </g>
   <g id="patch_7">
    <path d="M 85.781729 35.275258 
L 89.560608 35.275258 
L 89.560608 38.934719 
L 85.781729 38.934719 
z
" clip-path="url(#pfbaa2525ec)" style="fill: #029e73"/>
   </g>
   <g id="patch_8">
    <path d="M 93.339487 35.275258 
L 97.118366 35.275258 
L 97.118366 43.165503 
L 93.339487 43.165503 
z
" clip-path="url(#pfbaa2525ec)" style="fill: #029e73"/>
   </g>
   <g id="patch_9">
    <path d="M 100.897245 35.275258 
L 104.676124 35.275258 
L 104.676124 46.065667 
L 100.897245 46.065667 
z
" clip-path="url(#pfbaa2525ec)" style="fill: #029e73"/>
   </g>
   <g id="patch_10">
    <path d="M 108.455002 35.275258 
L 112.233881 35.275258 
L 112.233881 42.637429 
L 108.455002 42.637429 
z
" clip-path="url(#pfbaa2525ec)" style="fill: #029e73"/>
   </g>
   <g id="patch_11">
    <path d="M 116.01276 35.275258 
L 119.791639 35.275258 
L 119.791639 40.794453 
L 116.01276 40.794453 
z
" clip-path="url(#pfbaa2525ec)" style="fill: #029e73"/>
   </g>
   <g id="patch_12">
    <path d="M 123.570518 35.275258 
L 127.349397 35.275258 
L 127.349397 40.267474 
L 123.570518 40.267474 
z
" clip-path="url(#pfbaa2525ec)" style="fill: #029e73"/>
   </g>
   <g id="patch_13">
    <path d="M 131.128276 35.275258 
L 134.907154 35.275258 
L 134.907154 40.465097 
L 131.128276 40.465097 
z
" clip-path="url(#pfbaa2525ec)" style="fill: #029e73"/>
   </g>
   <g id="patch_14">
    <path d="M 138.686033 35.275258 
L 142.464912 35.275258 
L 142.464912 41.180279 
L 138.686033 41.180279 
z
" clip-path="url(#pfbaa2525ec)" style="fill: #029e73"/>
   </g>
   <g id="patch_15">
    <path d="M 146.243791 35.275258 
L 150.02267 35.275258 
L 150.02267 41.610033 
L 146.243791 41.610033 
z
" clip-path="url(#pfbaa2525ec)" style="fill: #029e73"/>
   </g>
   <g id="patch_16">
    <path d="M 153.801549 35.275258 
L 157.580428 35.275258 
L 157.580428 41.237949 
L 153.801549 41.237949 
z
" clip-path="url(#pfbaa2525ec)" style="fill: #029e73"/>
   </g>
   <g id="patch_17">
    <path d="M 161.359306 35.275258 
L 165.138185 35.275258 
L 165.138185 41.054861 
L 161.359306 41.054861 
z
" clip-path="url(#pfbaa2525ec)" style="fill: #029e73"/>
   </g>
   <g id="patch_18">
    <path d="M 168.917064 35.275258 
L 172.695943 35.275258 
L 172.695943 41.138802 
L 168.917064 41.138802 
z
" clip-path="url(#pfbaa2525ec)" style="fill: #029e73"/>
   </g>
   <g id="patch_19">
    <path d="M 176.474822 35.275258 
L 180.253701 35.275258 
L 180.253701 41.484838 
L 176.474822 41.484838 
z
" clip-path="url(#pfbaa2525ec)" style="fill: #029e73"/>
   </g>
   <g id="patch_20">
    <path d="M 184.032579 35.275258 
L 187.811458 35.275258 
L 187.811458 42.068396 
L 184.032579 42.068396 
z
" clip-path="url(#pfbaa2525ec)" style="fill: #029e73"/>
   </g>
   <g id="patch_21">
    <path d="M 191.590337 35.275258 
L 195.369216 35.275258 
L 195.369216 36.037174 
L 191.590337 36.037174 
z
" clip-path="url(#pfbaa2525ec)" style="fill: #029e73"/>
   </g>
   <g id="patch_22">
    <path d="M 199.148095 35.275258 
L 202.926974 35.275258 
L 202.926974 37.770587 
L 199.148095 37.770587 
z
" clip-path="url(#pfbaa2525ec)" style="fill: #029e73"/>
   </g>
   <g id="patch_23">
    <path d="M 206.705853 35.275258 
L 210.484731 35.275258 
L 210.484731 38.043219 
L 206.705853 38.043219 
z
" clip-path="url(#pfbaa2525ec)" style="fill: #029e73"/>
   </g>
   <g id="patch_24">
    <path d="M 214.26361 35.275258 
L 218.042489 35.275258 
L 218.042489 36.876898 
L 214.26361 36.876898 
z
" clip-path="url(#pfbaa2525ec)" style="fill: #029e73"/>
   </g>
   <g id="patch_25">
    <path d="M 221.821368 35.275258 
L 225.600247 35.275258 
L 225.600247 35.275258 
L 221.821368 35.275258 
z
" clip-path="url(#pfbaa2525ec)" style="fill: #029e73"/>
   </g>
   <g id="patch_26">
    <path d="M 229.379126 35.275258 
L 233.158005 35.275258 
L 233.158005 36.78544 
L 229.379126 36.78544 
z
" clip-path="url(#pfbaa2525ec)" style="fill: #029e73"/>
   </g>
   <g id="patch_27">
    <path d="M 55.550699 35.275258 
L 59.329577 35.275258 
L 59.329577 32.15583 
L 55.550699 32.15583 
z
" clip-path="url(#pfbaa2525ec)" style="fill: #de8f05"/>
   </g>
   <g id="patch_28">
    <path d="M 63.108456 36.979842 
L 66.887335 36.979842 
L 66.887335 36.979842 
L 63.108456 36.979842 
z
" clip-path="url(#pfbaa2525ec)" style="fill: #de8f05"/>
   </g>
   <g id="patch_29">
    <path d="M 70.666214 37.600447 
L 74.445093 37.600447 
L 74.445093 37.600447 
L 70.666214 37.600447 
z
" clip-path="url(#pfbaa2525ec)" style="fill: #de8f05"/>
   </g>
   <g id="patch_30">
    <path d="M 78.223972 39.335115 
L 82.00285 39.335115 
L 82.00285 39.335115 
L 78.223972 39.335115 
z
" clip-path="url(#pfbaa2525ec)" style="fill: #de8f05"/>
   </g>
   <g id="patch_31">
    <path d="M 85.781729 38.934719 
L 89.560608 38.934719 
L 89.560608 38.934719 
L 85.781729 38.934719 
z
" clip-path="url(#pfbaa2525ec)" style="fill: #de8f05"/>
   </g>
   <g id="patch_32">
    <path d="M 93.339487 43.165503 
L 97.118366 43.165503 
L 97.118366 43.165503 
L 93.339487 43.165503 
z
" clip-path="url(#pfbaa2525ec)" style="fill: #de8f05"/>
   </g>
   <g id="patch_33">
    <path d="M 100.897245 46.065667 
L 104.676124 46.065667 
L 104.676124 46.065667 
L 100.897245 46.065667 
z
" clip-path="url(#pfbaa2525ec)" style="fill: #de8f05"/>
   </g>
   <g id="patch_34">
    <path d="M 108.455002 35.275258 
L 112.233881 35.275258 
L 112.233881 30.463015 
L 108.455002 30.463015 
z
" clip-path="url(#pfbaa2525ec)" style="fill: #de8f05"/>
   </g>
   <g id="patch_35">
    <path d="M 116.01276 35.275258 
L 119.791639 35.275258 
L 119.791639 29.756064 
L 116.01276 29.756064 
z
" clip-path="url(#pfbaa2525ec)" style="fill: #de8f05"/>
   </g>
   <g id="patch_36">
    <path d="M 123.570518 35.275258 
L 127.349397 35.275258 
L 127.349397 30.283043 
L 123.570518 30.283043 
z
" clip-path="url(#pfbaa2525ec)" style="fill: #de8f05"/>
   </g>
   <g id="patch_37">
    <path d="M 131.128276 35.275258 
L 134.907154 35.275258 
L 134.907154 21.50702 
L 131.128276 21.50702 
z
" clip-path="url(#pfbaa2525ec)" style="fill: #de8f05"/>
   </g>
   <g id="patch_38">
    <path d="M 138.686033 35.275258 
L 142.464912 35.275258 
L 142.464912 19.292372 
L 138.686033 19.292372 
z
" clip-path="url(#pfbaa2525ec)" style="fill: #de8f05"/>
   </g>
   <g id="patch_39">
    <path d="M 146.243791 35.275258 
L 150.02267 35.275258 
L 150.02267 19.309392 
L 146.243791 19.309392 
z
" clip-path="url(#pfbaa2525ec)" style="fill: #de8f05"/>
   </g>
   <g id="patch_40">
    <path d="M 153.801549 35.275258 
L 157.580428 35.275258 
L 157.580428 20.566552 
L 153.801549 20.566552 
z
" clip-path="url(#pfbaa2525ec)" style="fill: #de8f05"/>
   </g>
   <g id="patch_41">
    <path d="M 161.359306 35.275258 
L 165.138185 35.275258 
L 165.138185 22.941067 
L 161.359306 22.941067 
z
" clip-path="url(#pfbaa2525ec)" style="fill: #de8f05"/>
   </g>
   <g id="patch_42">
    <path d="M 168.917064 41.138802 
L 172.695943 41.138802 
L 172.695943 41.138802 
L 168.917064 41.138802 
z
" clip-path="url(#pfbaa2525ec)" style="fill: #de8f05"/>
   </g>
   <g id="patch_43">
    <path d="M 176.474822 41.484838 
L 180.253701 41.484838 
L 180.253701 41.484838 
L 176.474822 41.484838 
z
" clip-path="url(#pfbaa2525ec)" style="fill: #de8f05"/>
   </g>
   <g id="patch_44">
    <path d="M 184.032579 42.068396 
L 187.811458 42.068396 
L 187.811458 42.068396 
L 184.032579 42.068396 
z
" clip-path="url(#pfbaa2525ec)" style="fill: #de8f05"/>
   </g>
   <g id="patch_45">
    <path d="M 191.590337 36.037174 
L 195.369216 36.037174 
L 195.369216 36.037174 
L 191.590337 36.037174 
z
" clip-path="url(#pfbaa2525ec)" style="fill: #de8f05"/>
   </g>
   <g id="patch_46">
    <path d="M 199.148095 37.770587 
L 202.926974 37.770587 
L 202.926974 37.770587 
L 199.148095 37.770587 
z
" clip-path="url(#pfbaa2525ec)" style="fill: #de8f05"/>
   </g>
   <g id="patch_47">
    <path d="M 206.705853 38.043219 
L 210.484731 38.043219 
L 210.484731 38.043219 
L 206.705853 38.043219 
z
" clip-path="url(#pfbaa2525ec)" style="fill: #de8f05"/>
   </g>
   <g id="patch_48">
    <path d="M 214.26361 36.876898 
L 218.042489 36.876898 
L 218.042489 36.876898 
L 214.26361 36.876898 
z
" clip-path="url(#pfbaa2525ec)" style="fill: #de8f05"/>
   </g>
   <g id="patch_49">
    <path d="M 221.821368 35.275258 
L 225.600247 35.275258 
L 225.600247 35.275258 
L 221.821368 35.275258 
z
" clip-path="url(#pfbaa2525ec)" style="fill: #de8f05"/>
   </g>
   <g id="patch_50">
    <path d="M 229.379126 36.78544 
L 233.158005 36.78544 
L 233.158005 36.78544 
L 229.379126 36.78544 
z
" clip-path="url(#pfbaa2525ec)" style="fill: #de8f05"/>
   </g>
   <g id="matplotlib.axis_1">
    <g id="xtick_1">
     <g id="line2d_1">
      <defs>
       <path id="mb493fe3f55" d="M 0 0 
L 0 3.5 
" style="stroke: #000000; stroke-width: 0.8"/>
      </defs>
      <g>
       <use xlink:href="#mb493fe3f55" x="57.440138" y="57.717192" style="stroke: #000000; stroke-width: 0.8"/>
      </g>
     </g>
     <g id="text_1">
      <!-- 0 -->
      <g transform="translate(59.681732 69.324883) rotate(-90) scale(0.09 -0.09)">
       <defs>
        <path id="CMR17-30" d="M 2688 2025 
C 2688 2416 2682 3080 2413 3591 
C 2176 4039 1798 4198 1466 4198 
C 1158 4198 768 4058 525 3597 
C 269 3118 243 2524 243 2025 
C 243 1661 250 1106 448 619 
C 723 -39 1216 -128 1466 -128 
C 1760 -128 2208 -7 2470 600 
C 2662 1042 2688 1559 2688 2025 
z
M 1466 -26 
C 1056 -26 813 325 723 812 
C 653 1188 653 1738 653 2096 
C 653 2588 653 2997 736 3387 
C 858 3929 1216 4096 1466 4096 
C 1728 4096 2067 3923 2189 3400 
C 2272 3036 2278 2607 2278 2096 
C 2278 1680 2278 1169 2202 792 
C 2067 95 1690 -26 1466 -26 
z
" transform="scale(0.015625)"/>
       </defs>
       <use xlink:href="#CMR17-30" transform="scale(0.996264)"/>
      </g>
     </g>
    </g>
    <g id="xtick_2">
     <g id="line2d_2">
      <g>
       <use xlink:href="#mb493fe3f55" x="64.997896" y="57.717192" style="stroke: #000000; stroke-width: 0.8"/>
      </g>
     </g>
    </g>
    <g id="xtick_3">
     <g id="line2d_3">
      <g>
       <use xlink:href="#mb493fe3f55" x="72.555653" y="57.717192" style="stroke: #000000; stroke-width: 0.8"/>
      </g>
     </g>
    </g>
    <g id="xtick_4">
     <g id="line2d_4">
      <g>
       <use xlink:href="#mb493fe3f55" x="80.113411" y="57.717192" style="stroke: #000000; stroke-width: 0.8"/>
      </g>
     </g>
    </g>
    <g id="xtick_5">
     <g id="line2d_5">
      <g>
       <use xlink:href="#mb493fe3f55" x="87.671169" y="57.717192" style="stroke: #000000; stroke-width: 0.8"/>
      </g>
     </g>
    </g>
    <g id="xtick_6">
     <g id="line2d_6">
      <g>
       <use xlink:href="#mb493fe3f55" x="95.228926" y="57.717192" style="stroke: #000000; stroke-width: 0.8"/>
      </g>
     </g>
    </g>
    <g id="xtick_7">
     <g id="line2d_7">
      <g>
       <use xlink:href="#mb493fe3f55" x="102.786684" y="57.717192" style="stroke: #000000; stroke-width: 0.8"/>
      </g>
     </g>
     <g id="text_2">
      <!-- 6 -->
      <g transform="translate(105.028278 69.324883) rotate(-90) scale(0.09 -0.09)">
       <defs>
        <path id="CMR17-36" d="M 678 2176 
C 678 3690 1395 4032 1811 4032 
C 1946 4032 2272 4009 2400 3776 
C 2298 3776 2106 3776 2106 3553 
C 2106 3381 2246 3323 2336 3323 
C 2394 3323 2566 3348 2566 3560 
C 2566 3954 2246 4179 1805 4179 
C 1043 4179 243 3390 243 1984 
C 243 253 966 -128 1478 -128 
C 2099 -128 2688 427 2688 1283 
C 2688 2081 2170 2662 1517 2662 
C 1126 2662 838 2407 678 1960 
L 678 2176 
z
M 1478 25 
C 691 25 691 1200 691 1436 
C 691 1896 909 2560 1504 2560 
C 1613 2560 1926 2560 2138 2120 
C 2253 1870 2253 1609 2253 1289 
C 2253 944 2253 690 2118 434 
C 1978 171 1773 25 1478 25 
z
" transform="scale(0.015625)"/>
       </defs>
       <use xlink:href="#CMR17-36" transform="scale(0.996264)"/>
      </g>
     </g>
    </g>
    <g id="xtick_8">
     <g id="line2d_8">
      <g>
       <use xlink:href="#mb493fe3f55" x="110.344442" y="57.717192" style="stroke: #000000; stroke-width: 0.8"/>
      </g>
     </g>
    </g>
    <g id="xtick_9">
     <g id="line2d_9">
      <g>
       <use xlink:href="#mb493fe3f55" x="117.9022" y="57.717192" style="stroke: #000000; stroke-width: 0.8"/>
      </g>
     </g>
    </g>
    <g id="xtick_10">
     <g id="line2d_10">
      <g>
       <use xlink:href="#mb493fe3f55" x="125.459957" y="57.717192" style="stroke: #000000; stroke-width: 0.8"/>
      </g>
     </g>
    </g>
    <g id="xtick_11">
     <g id="line2d_11">
      <g>
       <use xlink:href="#mb493fe3f55" x="133.017715" y="57.717192" style="stroke: #000000; stroke-width: 0.8"/>
      </g>
     </g>
    </g>
    <g id="xtick_12">
     <g id="line2d_12">
      <g>
       <use xlink:href="#mb493fe3f55" x="140.575473" y="57.717192" style="stroke: #000000; stroke-width: 0.8"/>
      </g>
     </g>
    </g>
    <g id="xtick_13">
     <g id="line2d_13">
      <g>
       <use xlink:href="#mb493fe3f55" x="148.13323" y="57.717192" style="stroke: #000000; stroke-width: 0.8"/>
      </g>
     </g>
     <g id="text_3">
      <!-- 12 -->
      <g transform="translate(150.374824 73.932573) rotate(-90) scale(0.09 -0.09)">
       <defs>
        <path id="CMR17-31" d="M 1702 4058 
C 1702 4192 1696 4192 1606 4192 
C 1357 3916 979 3827 621 3827 
C 602 3827 570 3827 563 3808 
C 557 3795 557 3782 557 3648 
C 755 3648 1088 3686 1344 3839 
L 1344 461 
C 1344 236 1331 160 781 160 
L 589 160 
L 589 0 
C 896 0 1216 0 1523 0 
C 1830 0 2150 0 2458 0 
L 2458 160 
L 2266 160 
C 1715 160 1702 230 1702 458 
L 1702 4058 
z
" transform="scale(0.015625)"/>
        <path id="CMR17-32" d="M 2669 989 
L 2554 989 
C 2490 536 2438 459 2413 420 
C 2381 369 1920 369 1830 369 
L 602 369 
C 832 619 1280 1072 1824 1597 
C 2214 1967 2669 2402 2669 3035 
C 2669 3790 2067 4224 1395 4224 
C 691 4224 262 3604 262 3030 
C 262 2780 448 2748 525 2748 
C 589 2748 781 2787 781 3010 
C 781 3207 614 3264 525 3264 
C 486 3264 448 3258 422 3245 
C 544 3790 915 4058 1306 4058 
C 1862 4058 2227 3617 2227 3035 
C 2227 2479 1901 2000 1536 1584 
L 262 146 
L 262 0 
L 2515 0 
L 2669 989 
z
" transform="scale(0.015625)"/>
       </defs>
       <use xlink:href="#CMR17-31" transform="scale(0.996264)"/>
       <use xlink:href="#CMR17-32" transform="translate(45.690477 0) scale(0.996264)"/>
      </g>
     </g>
    </g>
    <g id="xtick_14">
     <g id="line2d_14">
      <g>
       <use xlink:href="#mb493fe3f55" x="155.690988" y="57.717192" style="stroke: #000000; stroke-width: 0.8"/>
      </g>
     </g>
    </g>
    <g id="xtick_15">
     <g id="line2d_15">
      <g>
       <use xlink:href="#mb493fe3f55" x="163.248746" y="57.717192" style="stroke: #000000; stroke-width: 0.8"/>
      </g>
     </g>
    </g>
    <g id="xtick_16">
     <g id="line2d_16">
      <g>
       <use xlink:href="#mb493fe3f55" x="170.806503" y="57.717192" style="stroke: #000000; stroke-width: 0.8"/>
      </g>
     </g>
    </g>
    <g id="xtick_17">
     <g id="line2d_17">
      <g>
       <use xlink:href="#mb493fe3f55" x="178.364261" y="57.717192" style="stroke: #000000; stroke-width: 0.8"/>
      </g>
     </g>
    </g>
    <g id="xtick_18">
     <g id="line2d_18">
      <g>
       <use xlink:href="#mb493fe3f55" x="185.922019" y="57.717192" style="stroke: #000000; stroke-width: 0.8"/>
      </g>
     </g>
    </g>
    <g id="xtick_19">
     <g id="line2d_19">
      <g>
       <use xlink:href="#mb493fe3f55" x="193.479777" y="57.717192" style="stroke: #000000; stroke-width: 0.8"/>
      </g>
     </g>
     <g id="text_4">
      <!-- 18 -->
      <g transform="translate(195.721371 73.932573) rotate(-90) scale(0.09 -0.09)">
       <defs>
        <path id="CMR17-38" d="M 1741 2264 
C 2144 2467 2554 2773 2554 3263 
C 2554 3841 1990 4179 1472 4179 
C 890 4179 378 3759 378 3180 
C 378 3021 416 2747 666 2505 
C 730 2442 998 2251 1171 2130 
C 883 1983 211 1634 211 934 
C 211 279 838 -128 1459 -128 
C 2144 -128 2720 362 2720 1010 
C 2720 1590 2330 1857 2074 2029 
L 1741 2264 
z
M 902 2822 
C 851 2854 595 3051 595 3351 
C 595 3739 998 4032 1459 4032 
C 1965 4032 2336 3676 2336 3262 
C 2336 2669 1670 2331 1638 2331 
C 1632 2331 1626 2331 1574 2370 
L 902 2822 
z
M 2080 1519 
C 2176 1449 2483 1240 2483 851 
C 2483 381 2010 25 1472 25 
C 890 25 448 438 448 940 
C 448 1443 838 1862 1280 2060 
L 2080 1519 
z
" transform="scale(0.015625)"/>
       </defs>
       <use xlink:href="#CMR17-31" transform="scale(0.996264)"/>
       <use xlink:href="#CMR17-38" transform="translate(45.690477 0) scale(0.996264)"/>
      </g>
     </g>
    </g>
    <g id="xtick_20">
     <g id="line2d_20">
      <g>
       <use xlink:href="#mb493fe3f55" x="201.037534" y="57.717192" style="stroke: #000000; stroke-width: 0.8"/>
      </g>
     </g>
    </g>
    <g id="xtick_21">
     <g id="line2d_21">
      <g>
       <use xlink:href="#mb493fe3f55" x="208.595292" y="57.717192" style="stroke: #000000; stroke-width: 0.8"/>
      </g>
     </g>
    </g>
    <g id="xtick_22">
     <g id="line2d_22">
      <g>
       <use xlink:href="#mb493fe3f55" x="216.15305" y="57.717192" style="stroke: #000000; stroke-width: 0.8"/>
      </g>
     </g>
    </g>
    <g id="xtick_23">
     <g id="line2d_23">
      <g>
       <use xlink:href="#mb493fe3f55" x="223.710807" y="57.717192" style="stroke: #000000; stroke-width: 0.8"/>
      </g>
     </g>
    </g>
    <g id="xtick_24">
     <g id="line2d_24">
      <g>
       <use xlink:href="#mb493fe3f55" x="231.268565" y="57.717192" style="stroke: #000000; stroke-width: 0.8"/>
      </g>
     </g>
     <g id="text_5">
      <!-- 23 -->
      <g transform="translate(233.510159 73.932573) rotate(-90) scale(0.09 -0.09)">
       <defs>
        <path id="CMR17-33" d="M 1414 2157 
C 1984 2157 2234 1662 2234 1090 
C 2234 320 1824 25 1453 25 
C 1114 25 563 194 390 693 
C 422 680 454 680 486 680 
C 640 680 755 782 755 948 
C 755 1133 614 1216 486 1216 
C 378 1216 211 1165 211 926 
C 211 335 787 -128 1466 -128 
C 2176 -128 2720 430 2720 1085 
C 2720 1707 2208 2157 1600 2227 
C 2086 2328 2554 2756 2554 3329 
C 2554 3820 2048 4179 1472 4179 
C 890 4179 378 3829 378 3329 
C 378 3110 544 3072 627 3072 
C 762 3072 877 3155 877 3321 
C 877 3486 762 3569 627 3569 
C 602 3569 570 3569 544 3557 
C 730 3959 1235 4032 1459 4032 
C 1683 4032 2106 3925 2106 3320 
C 2106 3143 2080 2828 1862 2550 
C 1670 2304 1453 2304 1242 2284 
C 1210 2284 1062 2269 1037 2269 
C 992 2263 966 2257 966 2208 
C 966 2163 973 2157 1101 2157 
L 1414 2157 
z
" transform="scale(0.015625)"/>
       </defs>
       <use xlink:href="#CMR17-32" transform="scale(0.996264)"/>
       <use xlink:href="#CMR17-33" transform="translate(45.690477 0) scale(0.996264)"/>
      </g>
     </g>
    </g>
   </g>
   <g id="matplotlib.axis_2">
    <g id="ytick_1">
     <g id="line2d_25">
      <defs>
       <path id="mbb1198c692" d="M 0 0 
L -3.5 0 
" style="stroke: #000000; stroke-width: 0.8"/>
      </defs>
      <g>
       <use xlink:href="#mbb1198c692" x="53.661259" y="57.717192" style="stroke: #000000; stroke-width: 0.8"/>
      </g>
     </g>
     <g id="text_6">
      <!-- $\mathdefault{−0.2}$ -->
      <g transform="translate(27.718531 60.830517) scale(0.09 -0.09)">
       <defs>
        <path id="CMSY10-0" d="M 4218 1472 
C 4326 1472 4442 1472 4442 1600 
C 4442 1728 4326 1728 4218 1728 
L 755 1728 
C 646 1728 531 1728 531 1600 
C 531 1472 646 1472 755 1472 
L 4218 1472 
z
" transform="scale(0.015625)"/>
        <path id="CMMI12-3a" d="M 1178 307 
C 1178 492 1024 619 870 619 
C 685 619 557 466 557 313 
C 557 128 710 0 864 0 
C 1050 0 1178 153 1178 307 
z
" transform="scale(0.015625)"/>
       </defs>
       <use xlink:href="#CMSY10-0" transform="scale(0.996264)"/>
       <use xlink:href="#CMR17-30" transform="translate(77.487468 0) scale(0.996264)"/>
       <use xlink:href="#CMMI12-3a" transform="translate(123.177945 0) scale(0.996264)"/>
       <use xlink:href="#CMR17-32" transform="translate(150.275122 0) scale(0.996264)"/>
      </g>
     </g>
    </g>
    <g id="ytick_2">
     <g id="line2d_26">
      <g>
       <use xlink:href="#mbb1198c692" x="53.661259" y="35.275258" style="stroke: #000000; stroke-width: 0.8"/>
      </g>
     </g>
     <g id="text_7">
      <!-- $\mathdefault{0.0}$ -->
      <g transform="translate(34.88605 38.388584) scale(0.09 -0.09)">
       <use xlink:href="#CMR17-30" transform="scale(0.996264)"/>
       <use xlink:href="#CMMI12-3a" transform="translate(45.690477 0) scale(0.996264)"/>
       <use xlink:href="#CMR17-30" transform="translate(72.787654 0) scale(0.996264)"/>
      </g>
     </g>
    </g>
    <g id="ytick_3">
     <g id="line2d_27">
      <g>
       <use xlink:href="#mbb1198c692" x="53.661259" y="12.833325" style="stroke: #000000; stroke-width: 0.8"/>
      </g>
     </g>
     <g id="text_8">
      <!-- $\mathdefault{0.2}$ -->
      <g transform="translate(34.88605 15.94665) scale(0.09 -0.09)">
       <use xlink:href="#CMR17-30" transform="scale(0.996264)"/>
       <use xlink:href="#CMMI12-3a" transform="translate(45.690477 0) scale(0.996264)"/>
       <use xlink:href="#CMR17-32" transform="translate(72.787654 0) scale(0.996264)"/>
      </g>
     </g>
    </g>
    <g id="text_9">
     <!-- Q (m$^3$/s) -->
     <g transform="translate(21.476937 54.015263) rotate(-90) scale(0.09 -0.09)">
      <defs>
       <path id="CMR17-51" d="M 3027 83 
C 3789 408 4307 1236 4307 2193 
C 4307 3499 3366 4480 2304 4480 
C 1216 4480 294 3488 294 2199 
C 294 928 1216 -64 2304 -64 
C 2451 -64 2656 -45 2899 38 
C 3008 -747 3078 -1216 3629 -1216 
C 4307 -1216 4339 -213 4339 -33 
C 4339 32 4339 76 4294 76 
C 4262 76 4256 31 4256 18 
C 4211 -603 3866 -732 3661 -732 
C 3283 -732 3149 -394 3027 83 
z
M 1958 100 
C 1293 310 768 1017 768 2199 
C 768 3711 1606 4365 2298 4365 
C 3014 4365 3834 3686 3834 2198 
C 3834 1124 3405 527 2976 254 
C 2880 579 2726 960 2310 960 
C 2003 960 1830 692 1830 450 
C 1830 304 1888 183 1958 100 
z
M 2874 192 
C 2618 57 2413 57 2304 57 
C 2016 57 1933 315 1933 454 
C 1933 650 2067 858 2310 858 
C 2720 858 2822 493 2874 192 
z
" transform="scale(0.015625)"/>
       <path id="CMR17-28" d="M 1958 -1561 
C 1958 -1555 1958 -1542 1939 -1523 
C 1645 -1224 858 -407 858 1581 
C 858 3569 1632 4379 1946 4697 
C 1946 4704 1958 4717 1958 4736 
C 1958 4755 1939 4768 1914 4768 
C 1843 4768 1299 4296 986 3594 
C 666 2887 576 2199 576 1588 
C 576 1128 621 351 1005 -471 
C 1312 -1135 1837 -1600 1914 -1600 
C 1946 -1600 1958 -1587 1958 -1561 
z
" transform="scale(0.015625)"/>
       <path id="CMR17-6d" d="M 4326 1933 
C 4326 2252 4269 2790 3507 2790 
C 3072 2790 2771 2496 2656 2151 
L 2650 2151 
C 2573 2676 2195 2790 1837 2790 
C 1331 2790 1069 2400 973 2144 
L 966 2144 
L 966 2790 
L 211 2720 
L 211 2554 
C 589 2554 646 2515 646 2208 
L 646 428 
C 646 184 621 153 211 153 
L 211 -13 
C 365 0 646 0 813 0 
C 979 0 1267 0 1421 -13 
L 1421 153 
C 1011 153 986 178 986 428 
L 986 1658 
C 986 2247 1344 2688 1792 2688 
C 2266 2688 2317 2266 2317 1958 
L 2317 428 
C 2317 184 2291 153 1882 153 
L 1882 -13 
C 2035 0 2317 0 2483 0 
C 2650 0 2938 0 3091 -13 
L 3091 153 
C 2682 153 2656 178 2656 428 
L 2656 1658 
C 2656 2247 3014 2688 3462 2688 
C 3936 2688 3987 2266 3987 1958 
L 3987 428 
C 3987 184 3962 153 3552 153 
L 3552 -13 
C 3706 0 3987 0 4154 0 
C 4320 0 4608 0 4762 -13 
L 4762 153 
C 4352 153 4326 178 4326 428 
L 4326 1933 
z
" transform="scale(0.015625)"/>
       <path id="CMR17-2f" d="M 2605 4545 
C 2637 4627 2637 4640 2637 4653 
C 2637 4729 2579 4768 2528 4768 
C 2451 4768 2426 4717 2400 4640 
L 326 -1377 
C 294 -1460 294 -1473 294 -1486 
C 294 -1562 352 -1600 403 -1600 
C 480 -1600 506 -1549 531 -1473 
L 2605 4545 
z
" transform="scale(0.015625)"/>
       <path id="CMR17-73" d="M 1978 2697 
C 1978 2813 1971 2819 1933 2819 
C 1907 2819 1901 2813 1824 2717 
C 1805 2691 1747 2626 1728 2601 
C 1523 2819 1235 2819 1126 2819 
C 416 2819 160 2447 160 2076 
C 160 1498 813 1365 998 1325 
C 1402 1243 1542 1217 1677 1101 
C 1760 1025 1901 884 1901 654 
C 1901 384 1747 38 1158 38 
C 602 38 403 460 288 1021 
C 269 1110 269 1117 218 1117 
C 166 1117 160 1110 160 983 
L 160 63 
C 160 -51 166 -58 205 -58 
C 237 -58 243 -51 275 0 
C 314 57 410 211 448 276 
C 576 103 800 -64 1158 -64 
C 1792 -64 2131 283 2131 784 
C 2131 1112 1958 1285 1875 1362 
C 1683 1561 1459 1606 1190 1657 
C 838 1735 390 1825 390 2217 
C 390 2383 480 2737 1126 2737 
C 1811 2737 1850 2094 1862 1888 
C 1869 1856 1901 1849 1920 1849 
C 1978 1849 1978 1869 1978 1978 
L 1978 2697 
z
" transform="scale(0.015625)"/>
       <path id="CMR17-29" d="M 1683 1581 
C 1683 2040 1638 2817 1254 3639 
C 947 4303 422 4768 346 4768 
C 326 4768 301 4761 301 4729 
C 301 4717 307 4710 314 4697 
C 621 4378 1402 3568 1402 1584 
C 1402 -407 627 -1217 314 -1537 
C 307 -1549 301 -1556 301 -1568 
C 301 -1600 326 -1600 346 -1600 
C 416 -1600 960 -1128 1274 -426 
C 1594 281 1683 969 1683 1581 
z
" transform="scale(0.015625)"/>
      </defs>
      <use xlink:href="#CMR17-51" transform="scale(0.996264)"/>
      <use xlink:href="#CMR17-28" transform="translate(101.790755 0) scale(0.996264)"/>
      <use xlink:href="#CMR17-6d" transform="translate(137.071523 0) scale(0.996264)"/>
      <use xlink:href="#CMR17-33" transform="translate(213.991112 36.153639) scale(0.697382)"/>
      <use xlink:href="#CMR17-2f" transform="translate(246.472426 0) scale(0.996264)"/>
      <use xlink:href="#CMR17-73" transform="translate(292.162904 0) scale(0.996264)"/>
      <use xlink:href="#CMR17-29" transform="translate(327.964241 0) scale(0.996264)"/>
     </g>
    </g>
   </g>
   <g id="line2d_28">
    <path d="M 53.661259 35.275258 
L 235.047444 35.275258 
" clip-path="url(#pfbaa2525ec)" style="fill: none; stroke: #000000; stroke-width: 1.5; stroke-linecap: square"/>
   </g>
   <g id="patch_51">
    <path d="M 53.661259 57.717192 
L 53.661259 12.833325 
" style="fill: none; stroke: #000000; stroke-width: 0.8; stroke-linejoin: miter; stroke-linecap: square"/>
   </g>
   <g id="patch_52">
    <path d="M 53.661259 57.717192 
L 235.047444 57.717192 
" style="fill: none; stroke: #000000; stroke-width: 0.8; stroke-linejoin: miter; stroke-linecap: square"/>
   </g>
   <g id="legend_1">
    <g id="patch_53">
     <path d="M 128.580867 32.991887 
L 228.747444 32.991887 
Q 230.547444 32.991887 230.547444 31.191887 
L 230.547444 19.133325 
Q 230.547444 17.333325 228.747444 17.333325 
L 128.580867 17.333325 
Q 126.780867 17.333325 126.780867 19.133325 
L 126.780867 31.191887 
Q 126.780867 32.991887 128.580867 32.991887 
z
" style="fill: #ffffff; opacity: 0.8; stroke: #cccccc; stroke-linejoin: miter"/>
    </g>
    <g id="patch_54">
     <path d="M 130.380867 27.233325 
L 148.380867 27.233325 
L 148.380867 20.933325 
L 130.380867 20.933325 
z
" style="fill: #029e73"/>
    </g>
    <g id="text_10">
     <!-- $Q_{irr}$ -->
     <g transform="translate(155.580867 27.233325) scale(0.09 -0.09)">
      <defs>
       <path id="CMMI12-51" d="M 2726 45 
C 3827 490 4646 1663 4646 2829 
C 4646 3893 3955 4544 3059 4544 
C 1690 4544 307 3062 307 1573 
C 307 561 973 -128 1901 -128 
C 2118 -128 2330 -96 2534 -33 
C 2496 -411 2496 -442 2496 -562 
C 2496 -744 2496 -1216 3008 -1216 
C 3770 -1216 4051 -37 4051 2 
C 4051 39 4026 64 3994 64 
C 3955 64 3942 34 3923 -36 
C 3782 -429 3450 -654 3168 -654 
C 2842 -654 2758 -435 2726 45 
z
M 1574 77 
C 1069 252 826 787 826 1379 
C 826 1831 992 2689 1414 3340 
C 1888 4075 2522 4404 3021 4404 
C 3686 4404 4134 3862 4134 3024 
C 4134 2547 3910 948 2707 240 
C 2675 571 2586 960 2163 960 
C 1818 960 1523 609 1523 291 
C 1523 220 1549 123 1574 77 
z
M 2547 156 
C 2317 52 2118 12 1939 12 
C 1875 12 1651 12 1651 298 
C 1651 533 1875 832 2163 832 
C 2483 832 2554 611 2554 286 
C 2554 246 2554 194 2547 156 
z
" transform="scale(0.015625)"/>
       <path id="CMMI12-69" d="M 1811 913 
C 1811 945 1786 971 1747 971 
C 1690 971 1683 952 1651 843 
C 1485 262 1222 64 1011 64 
C 934 64 845 83 845 275 
C 845 447 922 639 992 830 
L 1440 2018 
C 1459 2069 1504 2184 1504 2305 
C 1504 2574 1312 2816 998 2816 
C 410 2816 173 1890 173 1839 
C 173 1814 198 1782 243 1782 
C 301 1782 307 1807 333 1896 
C 486 2428 730 2682 979 2682 
C 1037 2682 1146 2682 1146 2478 
C 1146 2312 1062 2101 1011 1961 
L 563 773 
C 525 671 486 568 486 453 
C 486 166 685 -64 992 -64 
C 1581 -64 1811 869 1811 913 
z
M 1760 4013 
C 1760 4109 1683 4224 1542 4224 
C 1395 4224 1229 4083 1229 3917 
C 1229 3758 1363 3707 1440 3707 
C 1613 3707 1760 3873 1760 4013 
z
" transform="scale(0.015625)"/>
       <path id="CMMI12-72" d="M 2490 2612 
C 2291 2574 2189 2433 2189 2293 
C 2189 2139 2310 2088 2400 2088 
C 2579 2088 2726 2242 2726 2433 
C 2726 2638 2528 2816 2208 2816 
C 1952 2816 1658 2701 1389 2312 
C 1344 2650 1088 2816 832 2816 
C 582 2816 454 2625 378 2484 
C 269 2254 173 1871 173 1839 
C 173 1814 198 1782 243 1782 
C 294 1782 301 1788 339 1935 
C 435 2318 557 2689 813 2689 
C 966 2689 1011 2580 1011 2395 
C 1011 2254 947 2005 902 1807 
L 723 1118 
C 698 996 627 709 595 594 
C 550 428 480 128 480 96 
C 480 6 550 -64 646 -64 
C 717 -64 838 -19 877 109 
C 896 160 1133 1124 1171 1271 
C 1203 1411 1242 1546 1274 1686 
C 1299 1775 1325 1878 1344 1961 
C 1363 2018 1536 2331 1696 2472 
C 1773 2542 1939 2689 2202 2689 
C 2304 2689 2406 2670 2490 2612 
z
" transform="scale(0.015625)"/>
      </defs>
      <use xlink:href="#CMMI12-51" transform="scale(0.996264)"/>
      <use xlink:href="#CMMI12-69" transform="translate(77.260399 -14.943915) scale(0.697382)"/>
      <use xlink:href="#CMMI12-72" transform="translate(100.555306 -14.943915) scale(0.697382)"/>
      <use xlink:href="#CMMI12-72" transform="translate(133.224575 -14.943915) scale(0.697382)"/>
     </g>
    </g>
    <g id="patch_55">
     <path d="M 190.638757 27.233325 
L 208.638757 27.233325 
L 208.638757 20.933325 
L 190.638757 20.933325 
z
" style="fill: #de8f05"/>
    </g>
    <g id="text_11">
     <!-- $Q_{p}$ -->
     <g transform="translate(215.838757 27.233325) scale(0.09 -0.09)">
      <defs>
       <path id="CMMI12-70" d="M 275 -789 
C 230 -980 205 -1031 -58 -1031 
C -134 -1031 -198 -1031 -198 -1152 
C -198 -1165 -192 -1216 -122 -1216 
C -38 -1216 51 -1216 134 -1216 
L 410 -1216 
C 544 -1216 870 -1216 1005 -1216 
C 1043 -1216 1120 -1216 1120 -1101 
C 1120 -1031 1075 -1031 966 -1031 
C 672 -1031 653 -987 653 -937 
C 653 -861 941 219 979 364 
C 1050 185 1222 -64 1555 -64 
C 2278 -64 3059 875 3059 1814 
C 3059 2401 2726 2816 2246 2816 
C 1837 2816 1491 2420 1421 2331 
C 1370 2650 1120 2816 864 2816 
C 678 2816 531 2727 410 2484 
C 294 2254 205 1865 205 1839 
C 205 1814 230 1782 275 1782 
C 326 1782 333 1788 371 1935 
C 467 2312 589 2689 845 2689 
C 992 2689 1043 2587 1043 2397 
C 1043 2245 1024 2181 998 2067 
L 275 -789 
z
M 1382 1993 
C 1427 2171 1606 2357 1709 2446 
C 1779 2510 1990 2689 2234 2689 
C 2515 2689 2643 2408 2643 2076 
C 2643 1769 2464 1047 2304 715 
C 2144 370 1850 64 1555 64 
C 1120 64 1050 613 1050 639 
C 1050 658 1062 709 1069 741 
L 1382 1993 
z
" transform="scale(0.015625)"/>
      </defs>
      <use xlink:href="#CMMI12-51" transform="scale(0.996264)"/>
      <use xlink:href="#CMMI12-70" transform="translate(77.260399 -14.943915) scale(0.697382)"/>
     </g>
    </g>
   </g>
  </g>
  <g id="axes_2">
   <g id="patch_56">
    <path d="M 53.661259 106.094507 
L 235.047444 106.094507 
L 235.047444 83.652573 
L 53.661259 83.652573 
z
" style="fill: #ffffff"/>
   </g>
   <g id="PolyCollection_1"/>
   <g id="matplotlib.axis_3">
    <g id="xtick_25">
     <g id="line2d_29">
      <g>
       <use xlink:href="#mb493fe3f55" x="57.440138" y="106.094507" style="stroke: #000000; stroke-width: 0.8"/>
      </g>
     </g>
     <g id="text_12">
      <!-- 0 -->
      <g transform="translate(59.681732 117.702197) rotate(-90) scale(0.09 -0.09)">
       <use xlink:href="#CMR17-30" transform="scale(0.996264)"/>
      </g>
     </g>
    </g>
    <g id="xtick_26">
     <g id="line2d_30">
      <g>
       <use xlink:href="#mb493fe3f55" x="64.997896" y="106.094507" style="stroke: #000000; stroke-width: 0.8"/>
      </g>
     </g>
    </g>
    <g id="xtick_27">
     <g id="line2d_31">
      <g>
       <use xlink:href="#mb493fe3f55" x="72.555653" y="106.094507" style="stroke: #000000; stroke-width: 0.8"/>
      </g>
     </g>
    </g>
    <g id="xtick_28">
     <g id="line2d_32">
      <g>
       <use xlink:href="#mb493fe3f55" x="80.113411" y="106.094507" style="stroke: #000000; stroke-width: 0.8"/>
      </g>
     </g>
    </g>
    <g id="xtick_29">
     <g id="line2d_33">
      <g>
       <use xlink:href="#mb493fe3f55" x="87.671169" y="106.094507" style="stroke: #000000; stroke-width: 0.8"/>
      </g>
     </g>
    </g>
    <g id="xtick_30">
     <g id="line2d_34">
      <g>
       <use xlink:href="#mb493fe3f55" x="95.228926" y="106.094507" style="stroke: #000000; stroke-width: 0.8"/>
      </g>
     </g>
    </g>
    <g id="xtick_31">
     <g id="line2d_35">
      <g>
       <use xlink:href="#mb493fe3f55" x="102.786684" y="106.094507" style="stroke: #000000; stroke-width: 0.8"/>
      </g>
     </g>
     <g id="text_13">
      <!-- 6 -->
      <g transform="translate(105.028278 117.702197) rotate(-90) scale(0.09 -0.09)">
       <use xlink:href="#CMR17-36" transform="scale(0.996264)"/>
      </g>
     </g>
    </g>
    <g id="xtick_32">
     <g id="line2d_36">
      <g>
       <use xlink:href="#mb493fe3f55" x="110.344442" y="106.094507" style="stroke: #000000; stroke-width: 0.8"/>
      </g>
     </g>
    </g>
    <g id="xtick_33">
     <g id="line2d_37">
      <g>
       <use xlink:href="#mb493fe3f55" x="117.9022" y="106.094507" style="stroke: #000000; stroke-width: 0.8"/>
      </g>
     </g>
    </g>
    <g id="xtick_34">
     <g id="line2d_38">
      <g>
       <use xlink:href="#mb493fe3f55" x="125.459957" y="106.094507" style="stroke: #000000; stroke-width: 0.8"/>
      </g>
     </g>
    </g>
    <g id="xtick_35">
     <g id="line2d_39">
      <g>
       <use xlink:href="#mb493fe3f55" x="133.017715" y="106.094507" style="stroke: #000000; stroke-width: 0.8"/>
      </g>
     </g>
    </g>
    <g id="xtick_36">
     <g id="line2d_40">
      <g>
       <use xlink:href="#mb493fe3f55" x="140.575473" y="106.094507" style="stroke: #000000; stroke-width: 0.8"/>
      </g>
     </g>
    </g>
    <g id="xtick_37">
     <g id="line2d_41">
      <g>
       <use xlink:href="#mb493fe3f55" x="148.13323" y="106.094507" style="stroke: #000000; stroke-width: 0.8"/>
      </g>
     </g>
     <g id="text_14">
      <!-- 12 -->
      <g transform="translate(150.374824 122.309888) rotate(-90) scale(0.09 -0.09)">
       <use xlink:href="#CMR17-31" transform="scale(0.996264)"/>
       <use xlink:href="#CMR17-32" transform="translate(45.690477 0) scale(0.996264)"/>
      </g>
     </g>
    </g>
    <g id="xtick_38">
     <g id="line2d_42">
      <g>
       <use xlink:href="#mb493fe3f55" x="155.690988" y="106.094507" style="stroke: #000000; stroke-width: 0.8"/>
      </g>
     </g>
    </g>
    <g id="xtick_39">
     <g id="line2d_43">
      <g>
       <use xlink:href="#mb493fe3f55" x="163.248746" y="106.094507" style="stroke: #000000; stroke-width: 0.8"/>
      </g>
     </g>
    </g>
    <g id="xtick_40">
     <g id="line2d_44">
      <g>
       <use xlink:href="#mb493fe3f55" x="170.806503" y="106.094507" style="stroke: #000000; stroke-width: 0.8"/>
      </g>
     </g>
    </g>
    <g id="xtick_41">
     <g id="line2d_45">
      <g>
       <use xlink:href="#mb493fe3f55" x="178.364261" y="106.094507" style="stroke: #000000; stroke-width: 0.8"/>
      </g>
     </g>
    </g>
    <g id="xtick_42">
     <g id="line2d_46">
      <g>
       <use xlink:href="#mb493fe3f55" x="185.922019" y="106.094507" style="stroke: #000000; stroke-width: 0.8"/>
      </g>
     </g>
    </g>
    <g id="xtick_43">
     <g id="line2d_47">
      <g>
       <use xlink:href="#mb493fe3f55" x="193.479777" y="106.094507" style="stroke: #000000; stroke-width: 0.8"/>
      </g>
     </g>
     <g id="text_15">
      <!-- 18 -->
      <g transform="translate(195.721371 122.309888) rotate(-90) scale(0.09 -0.09)">
       <use xlink:href="#CMR17-31" transform="scale(0.996264)"/>
       <use xlink:href="#CMR17-38" transform="translate(45.690477 0) scale(0.996264)"/>
      </g>
     </g>
    </g>
    <g id="xtick_44">
     <g id="line2d_48">
      <g>
       <use xlink:href="#mb493fe3f55" x="201.037534" y="106.094507" style="stroke: #000000; stroke-width: 0.8"/>
      </g>
     </g>
    </g>
    <g id="xtick_45">
     <g id="line2d_49">
      <g>
       <use xlink:href="#mb493fe3f55" x="208.595292" y="106.094507" style="stroke: #000000; stroke-width: 0.8"/>
      </g>
     </g>
    </g>
    <g id="xtick_46">
     <g id="line2d_50">
      <g>
       <use xlink:href="#mb493fe3f55" x="216.15305" y="106.094507" style="stroke: #000000; stroke-width: 0.8"/>
      </g>
     </g>
    </g>
    <g id="xtick_47">
     <g id="line2d_51">
      <g>
       <use xlink:href="#mb493fe3f55" x="223.710807" y="106.094507" style="stroke: #000000; stroke-width: 0.8"/>
      </g>
     </g>
    </g>
    <g id="xtick_48">
     <g id="line2d_52">
      <g>
       <use xlink:href="#mb493fe3f55" x="231.268565" y="106.094507" style="stroke: #000000; stroke-width: 0.8"/>
      </g>
     </g>
     <g id="text_16">
      <!-- 23 -->
      <g transform="translate(233.510159 122.309888) rotate(-90) scale(0.09 -0.09)">
       <use xlink:href="#CMR17-32" transform="scale(0.996264)"/>
       <use xlink:href="#CMR17-33" transform="translate(45.690477 0) scale(0.996264)"/>
      </g>
     </g>
    </g>
    <g id="text_17">
     <!-- Hour -->
     <g transform="translate(134.233354 132.536538) scale(0.09 -0.09)">
      <defs>
       <path id="CMR17-48" d="M 3590 3905 
C 3590 4192 3661 4192 4102 4192 
L 4102 4352 
C 3917 4352 3578 4352 3379 4352 
C 3181 4352 2842 4352 2656 4352 
L 2656 4192 
C 3098 4192 3168 4192 3168 3904 
L 3168 2341 
L 1261 2341 
L 1261 3904 
C 1261 4192 1331 4192 1773 4192 
L 1773 4352 
C 1587 4352 1248 4352 1050 4352 
C 851 4352 512 4352 326 4352 
L 326 4192 
C 768 4192 838 4192 838 3905 
L 838 447 
C 838 160 768 160 326 160 
L 326 0 
C 512 0 851 0 1050 0 
C 1248 0 1587 0 1773 0 
L 1773 160 
C 1331 160 1261 160 1261 446 
L 1261 2176 
L 3168 2176 
L 3168 446 
C 3168 160 3098 160 2656 160 
L 2656 0 
C 2842 0 3181 0 3379 0 
C 3578 0 3917 0 4102 0 
L 4102 160 
C 3661 160 3590 160 3590 447 
L 3590 3905 
z
" transform="scale(0.015625)"/>
       <path id="CMR17-6f" d="M 2758 1356 
C 2758 2176 2163 2816 1466 2816 
C 768 2816 173 2176 173 1356 
C 173 551 768 -64 1466 -64 
C 2163 -64 2758 551 2758 1356 
z
M 1466 51 
C 1165 51 909 230 762 480 
C 602 767 582 1126 582 1408 
C 582 1677 595 2010 762 2298 
C 890 2509 1139 2714 1466 2714 
C 1754 2714 1997 2554 2150 2330 
C 2349 2029 2349 1607 2349 1408 
C 2349 1158 2336 775 2163 467 
C 1984 173 1709 51 1466 51 
z
" transform="scale(0.015625)"/>
       <path id="CMR17-75" d="M 1882 2693 
L 1882 2528 
C 2259 2528 2317 2489 2317 2186 
L 2317 1032 
C 2317 500 2029 38 1555 38 
C 1030 38 986 348 986 678 
L 986 2763 
L 211 2693 
L 211 2528 
C 467 2528 640 2528 646 2274 
L 646 1058 
C 646 633 646 361 813 183 
C 896 101 1056 -64 1517 -64 
C 2061 -64 2272 377 2323 506 
L 2330 506 
L 2330 -63 
L 3091 -63 
L 3091 128 
C 2714 128 2656 166 2656 473 
L 2656 2763 
L 1882 2693 
z
" transform="scale(0.015625)"/>
       <path id="CMR17-72" d="M 960 1497 
C 960 2112 1222 2688 1702 2688 
C 1747 2688 1792 2682 1837 2662 
C 1837 2662 1696 2617 1696 2452 
C 1696 2298 1818 2234 1914 2234 
C 1990 2234 2131 2279 2131 2458 
C 2131 2663 1926 2790 1709 2790 
C 1222 2790 1011 2317 947 2093 
L 941 2093 
L 941 2790 
L 198 2720 
L 198 2554 
C 576 2554 634 2515 634 2208 
L 634 428 
C 634 184 608 153 198 153 
L 198 -13 
C 352 0 646 0 813 0 
C 998 0 1325 0 1498 -13 
L 1498 153 
C 1037 153 960 153 960 440 
L 960 1497 
z
" transform="scale(0.015625)"/>
      </defs>
      <use xlink:href="#CMR17-48" transform="scale(0.996264)"/>
      <use xlink:href="#CMR17-6f" transform="translate(69.07243 0) scale(0.996264)"/>
      <use xlink:href="#CMR17-75" transform="translate(114.762907 0) scale(0.996264)"/>
      <use xlink:href="#CMR17-72" transform="translate(165.658277 0) scale(0.996264)"/>
     </g>
    </g>
   </g>
   <g id="matplotlib.axis_4">
    <g id="ytick_4">
     <g id="line2d_53">
      <g>
       <use xlink:href="#mbb1198c692" x="53.661259" y="106.094507" style="stroke: #000000; stroke-width: 0.8"/>
      </g>
     </g>
     <g id="text_18">
      <!-- $\mathdefault{7500}$ -->
      <g transform="translate(28.230497 109.207832) scale(0.09 -0.09)">
       <defs>
        <path id="CMR17-37" d="M 2886 3941 
L 2886 4081 
L 1382 4081 
C 634 4081 621 4165 595 4288 
L 480 4288 
L 294 3094 
L 410 3094 
C 429 3215 474 3540 550 3661 
C 589 3712 1062 3712 1171 3712 
L 2579 3712 
L 1869 2661 
C 1395 1954 1069 999 1069 165 
C 1069 89 1069 -128 1299 -128 
C 1530 -128 1530 89 1530 171 
L 1530 465 
C 1530 1508 1709 2196 2003 2636 
L 2886 3941 
z
" transform="scale(0.015625)"/>
        <path id="CMR17-35" d="M 730 3692 
C 794 3666 1056 3584 1325 3584 
C 1920 3584 2246 3911 2432 4100 
C 2432 4157 2432 4192 2394 4192 
C 2387 4192 2374 4192 2323 4163 
C 2099 4058 1837 3973 1517 3973 
C 1325 3973 1037 3999 723 4139 
C 653 4171 640 4171 634 4171 
C 602 4171 595 4164 595 4037 
L 595 2203 
C 595 2089 595 2057 659 2057 
C 691 2057 704 2070 736 2114 
C 941 2401 1222 2522 1542 2522 
C 1766 2522 2246 2382 2246 1289 
C 2246 1085 2246 715 2054 421 
C 1894 159 1645 25 1370 25 
C 947 25 518 320 403 814 
C 429 807 480 795 506 795 
C 589 795 749 840 749 1038 
C 749 1210 627 1280 506 1280 
C 358 1280 262 1190 262 1011 
C 262 454 704 -128 1382 -128 
C 2042 -128 2669 440 2669 1264 
C 2669 2030 2170 2624 1549 2624 
C 1222 2624 947 2503 730 2274 
L 730 3692 
z
" transform="scale(0.015625)"/>
       </defs>
       <use xlink:href="#CMR17-37" transform="scale(0.996264)"/>
       <use xlink:href="#CMR17-35" transform="translate(45.690477 0) scale(0.996264)"/>
       <use xlink:href="#CMR17-30" transform="translate(91.380954 0) scale(0.996264)"/>
       <use xlink:href="#CMR17-30" transform="translate(137.071431 0) scale(0.996264)"/>
      </g>
     </g>
    </g>
    <g id="ytick_5">
     <g id="line2d_54">
      <g>
       <use xlink:href="#mbb1198c692" x="53.661259" y="97.462994" style="stroke: #000000; stroke-width: 0.8"/>
      </g>
     </g>
     <g id="text_19">
      <!-- $\mathdefault{10000}$ -->
      <g transform="translate(23.622806 100.576319) scale(0.09 -0.09)">
       <use xlink:href="#CMR17-31" transform="scale(0.996264)"/>
       <use xlink:href="#CMR17-30" transform="translate(45.690477 0) scale(0.996264)"/>
       <use xlink:href="#CMR17-30" transform="translate(91.380954 0) scale(0.996264)"/>
       <use xlink:href="#CMR17-30" transform="translate(137.071431 0) scale(0.996264)"/>
       <use xlink:href="#CMR17-30" transform="translate(182.761908 0) scale(0.996264)"/>
      </g>
     </g>
    </g>
    <g id="ytick_6">
     <g id="line2d_55">
      <g>
       <use xlink:href="#mbb1198c692" x="53.661259" y="87.105178" style="stroke: #000000; stroke-width: 0.8"/>
      </g>
     </g>
     <g id="text_20">
      <!-- $\mathdefault{13000}$ -->
      <g transform="translate(23.622806 90.218503) scale(0.09 -0.09)">
       <use xlink:href="#CMR17-31" transform="scale(0.996264)"/>
       <use xlink:href="#CMR17-33" transform="translate(45.690477 0) scale(0.996264)"/>
       <use xlink:href="#CMR17-30" transform="translate(91.380954 0) scale(0.996264)"/>
       <use xlink:href="#CMR17-30" transform="translate(137.071431 0) scale(0.996264)"/>
       <use xlink:href="#CMR17-30" transform="translate(182.761908 0) scale(0.996264)"/>
      </g>
     </g>
    </g>
    <g id="text_21">
     <!-- R1 Volume (m$^3$) -->
     <g transform="translate(17.381212 128.243634) rotate(-90) scale(0.09 -0.09)">
      <defs>
       <path id="CMR17-52" d="M 2509 2146 
C 3117 2268 3629 2676 3629 3186 
C 3629 3785 2950 4326 2054 4326 
L 333 4326 
L 333 4160 
C 774 4160 845 4160 845 3873 
L 845 415 
C 845 128 774 128 333 128 
L 333 -26 
C 518 -26 851 -26 1050 -26 
C 1248 -26 1581 -26 1766 -26 
L 1766 128 
C 1325 128 1254 128 1254 417 
L 1254 2112 
L 2003 2112 
C 2368 2112 2573 1964 2662 1881 
C 2918 1632 2918 1459 2918 1024 
C 2918 595 2918 377 3110 160 
C 3354 -102 3680 -128 3821 -128 
C 4294 -128 4365 396 4365 503 
C 4365 540 4365 585 4307 585 
C 4256 585 4250 547 4250 522 
C 4218 112 4032 -26 3834 -26 
C 3482 -26 3443 375 3405 764 
C 3386 898 3373 993 3360 1133 
C 3322 1452 3270 1917 2509 2146 
z
M 1984 2214 
L 1254 2214 
L 1254 3913 
C 1254 4129 1267 4160 1523 4160 
L 1990 4160 
C 2522 4160 3142 3977 3142 3190 
C 3142 2372 2464 2214 1984 2214 
z
" transform="scale(0.015625)"/>
       <path id="CMR17-56" d="M 3776 3745 
C 3834 3886 3936 4160 4365 4160 
L 4365 4332 
C 4218 4319 4051 4319 3891 4319 
C 3738 4319 3475 4319 3328 4332 
L 3328 4160 
C 3648 4160 3661 3936 3661 3898 
C 3661 3827 3642 3783 3622 3732 
L 2362 446 
L 1043 3886 
C 1024 3931 1011 3963 1011 3994 
C 1011 4160 1267 4160 1402 4160 
L 1402 4319 
C 1197 4319 896 4319 685 4319 
C 518 4319 218 4319 64 4332 
L 64 4160 
C 435 4160 506 4135 582 3931 
L 2106 -26 
C 2138 -115 2144 -128 2214 -128 
C 2285 -128 2291 -115 2323 -26 
L 3776 3745 
z
" transform="scale(0.015625)"/>
       <path id="CMR17-6c" d="M 979 4396 
L 218 4326 
L 218 4160 
C 595 4160 653 4122 653 3817 
L 653 426 
C 653 184 627 153 218 153 
L 218 -13 
C 371 0 653 0 813 0 
C 979 0 1261 0 1414 -13 
L 1414 153 
C 1005 153 979 178 979 426 
L 979 4396 
z
" transform="scale(0.015625)"/>
       <path id="CMR17-65" d="M 2438 1472 
C 2464 1498 2464 1511 2464 1576 
C 2464 2238 2118 2816 1389 2816 
C 710 2816 173 2169 173 1383 
C 173 551 781 -64 1459 -64 
C 2176 -64 2458 607 2458 740 
C 2458 784 2419 784 2406 784 
C 2362 784 2355 771 2330 696 
C 2189 265 1837 51 1504 51 
C 1229 51 954 203 781 480 
C 582 803 582 1176 582 1472 
L 2438 1472 
z
M 589 1568 
C 634 2505 1126 2714 1382 2714 
C 1818 2714 2112 2297 2118 1568 
L 589 1568 
z
" transform="scale(0.015625)"/>
      </defs>
      <use xlink:href="#CMR17-52" transform="scale(0.996264)"/>
      <use xlink:href="#CMR17-31" transform="translate(67.791102 0) scale(0.996264)"/>
      <use xlink:href="#CMR17-56" transform="translate(143.557545 0) scale(0.996264)"/>
      <use xlink:href="#CMR17-6f" transform="translate(204.82272 0) scale(0.996264)"/>
      <use xlink:href="#CMR17-6c" transform="translate(250.513197 0) scale(0.996264)"/>
      <use xlink:href="#CMR17-75" transform="translate(275.384255 0) scale(0.996264)"/>
      <use xlink:href="#CMR17-6d" transform="translate(326.279625 0) scale(0.996264)"/>
      <use xlink:href="#CMR17-65" transform="translate(403.199215 0) scale(0.996264)"/>
      <use xlink:href="#CMR17-28" transform="translate(473.760842 0) scale(0.996264)"/>
      <use xlink:href="#CMR17-6d" transform="translate(509.04161 0) scale(0.996264)"/>
      <use xlink:href="#CMR17-33" transform="translate(585.9612 36.153639) scale(0.697382)"/>
      <use xlink:href="#CMR17-29" transform="translate(618.442514 0) scale(0.996264)"/>
     </g>
    </g>
   </g>
   <g id="line2d_56">
    <path d="M 53.661259 100.915599 
L 235.047444 100.915599 
" clip-path="url(#p0e65a565f1)" style="fill: none; stroke: #afafaf; stroke-width: 1.5; stroke-linecap: square"/>
   </g>
   <g id="line2d_57">
    <path d="M 53.661259 87.105178 
L 235.047444 87.105178 
" clip-path="url(#p0e65a565f1)" style="fill: none; stroke: #afafaf; stroke-width: 1.5; stroke-linecap: square"/>
   </g>
   <g id="line2d_58">
    <path d="M 53.661259 99.189296 
L 235.047444 99.189296 
" clip-path="url(#p0e65a565f1)" style="fill: none; stroke-dasharray: 5.55,2.4; stroke-dashoffset: 0; stroke: #afafaf; stroke-width: 1.5"/>
   </g>
   <g id="line2d_59">
    <path d="M 53.661259 95.736691 
L 235.047444 95.736691 
" clip-path="url(#p0e65a565f1)" style="fill: none; stroke-dasharray: 5.55,2.4; stroke-dashoffset: 0; stroke: #afafaf; stroke-width: 1.5"/>
   </g>
   <g id="line2d_60">
    <path d="M 57.440138 97.262466 
L 64.997896 97.451282 
L 72.555653 97.708841 
L 80.113411 98.158548 
L 87.671169 98.563904 
L 95.228926 99.4379 
L 102.786684 100.633145 
L 110.344442 100.915599 
L 117.9022 100.915599 
L 125.459957 100.915599 
L 133.017715 99.965376 
L 140.575473 98.849059 
L 148.13323 97.78223 
L 155.690988 96.813441 
L 163.248746 96.087394 
L 170.806503 96.736894 
L 178.364261 97.424724 
L 185.922019 98.177195 
L 193.479777 98.261592 
L 201.037534 98.537998 
L 208.595292 98.844602 
L 216.15305 99.022015 
L 223.710807 99.022015 
L 231.268565 99.189296 
" clip-path="url(#p0e65a565f1)" style="fill: none; stroke: #d62728; stroke-width: 1.5; stroke-linecap: square"/>
   </g>
   <g id="patch_57">
    <path d="M 53.661259 106.094507 
L 53.661259 83.652573 
" style="fill: none; stroke: #000000; stroke-width: 0.8; stroke-linejoin: miter; stroke-linecap: square"/>
   </g>
   <g id="patch_58">
    <path d="M 53.661259 106.094507 
L 235.047444 106.094507 
" style="fill: none; stroke: #000000; stroke-width: 0.8; stroke-linejoin: miter; stroke-linecap: square"/>
   </g>
  </g>
 </g>
 <defs>
  <clipPath id="pfbaa2525ec">
   <rect x="53.661259" y="12.833325" width="181.386185" height="44.883867"/>
  </clipPath>
  <clipPath id="p0e65a565f1">
   <rect x="53.661259" y="83.652573" width="181.386185" height="22.441933"/>
  </clipPath>
 </defs>
</svg>
