<?xml version="1.0" encoding="utf-8" standalone="no"?>
<!DOCTYPE svg PUBLIC "-//W3C//DTD SVG 1.1//EN"
  "http://www.w3.org/Graphics/SVG/1.1/DTD/svg11.dtd">
<svg xmlns:xlink="http://www.w3.org/1999/xlink" width="244.8pt" height="158.4pt" viewBox="0 0 244.8 158.4" xmlns="http://www.w3.org/2000/svg" version="1.1">
 <metadata>
  <rdf:RDF xmlns:dc="http://purl.org/dc/elements/1.1/" xmlns:cc="http://creativecommons.org/ns#" xmlns:rdf="http://www.w3.org/1999/02/22-rdf-syntax-ns#">
   <cc:Work>
    <dc:type rdf:resource="http://purl.org/dc/dcmitype/StillImage"/>
    <dc:date>2024-11-19T11:22:16.785220</dc:date>
    <dc:format>image/svg+xml</dc:format>
    <dc:creator>
     <cc:Agent>
      <dc:title>Matplotlib v3.9.1, https://matplotlib.org/</dc:title>
     </cc:Agent>
    </dc:creator>
   </cc:Work>
  </rdf:RDF>
 </metadata>
 <defs>
  <style type="text/css">*{stroke-linejoin: round; stroke-linecap: butt}</style>
 </defs>
 <g id="figure_1">
  <g id="patch_1">
   <path d="M 0 158.4 
L 244.8 158.4 
L 244.8 0 
L 0 0 
z
" style="fill: #ffffff"/>
  </g>
  <g id="axes_1">
   <g id="patch_2">
    <path d="M 51.408 91.872 
L 195.84 91.872 
L 195.84 4.752 
L 51.408 4.752 
z
" style="fill: #ffffff"/>
   </g>
   <g id="patch_3">
    <path d="M 52.9125 48.312 
L 55.9215 48.312 
L 55.9215 48.312 
L 52.9125 48.312 
z
" clip-path="url(#pced88328c7)" style="fill: #c0e3c0"/>
   </g>
   <g id="patch_4">
    <path d="M 58.9305 48.312 
L 61.9395 48.312 
L 61.9395 48.312 
L 58.9305 48.312 
z
" clip-path="url(#pced88328c7)" style="fill: #c0e3c0"/>
   </g>
   <g id="patch_5">
    <path d="M 64.9485 48.312 
L 67.9575 48.312 
L 67.9575 48.312 
L 64.9485 48.312 
z
" clip-path="url(#pced88328c7)" style="fill: #c0e3c0"/>
   </g>
   <g id="patch_6">
    <path d="M 70.9665 48.312 
L 73.9755 48.312 
L 73.9755 48.312 
L 70.9665 48.312 
z
" clip-path="url(#pced88328c7)" style="fill: #c0e3c0"/>
   </g>
   <g id="patch_7">
    <path d="M 76.9845 48.312 
L 79.9935 48.312 
L 79.9935 48.312 
L 76.9845 48.312 
z
" clip-path="url(#pced88328c7)" style="fill: #c0e3c0"/>
   </g>
   <g id="patch_8">
    <path d="M 83.0025 48.312 
L 86.0115 48.312 
L 86.0115 48.312 
L 83.0025 48.312 
z
" clip-path="url(#pced88328c7)" style="fill: #c0e3c0"/>
   </g>
   <g id="patch_9">
    <path d="M 89.0205 48.312 
L 92.0295 48.312 
L 92.0295 51.692695 
L 89.0205 51.692695 
z
" clip-path="url(#pced88328c7)" style="fill: #c0e3c0"/>
   </g>
   <g id="patch_10">
    <path d="M 95.0385 48.312 
L 98.0475 48.312 
L 98.0475 61.152876 
L 95.0385 61.152876 
z
" clip-path="url(#pced88328c7)" style="fill: #c0e3c0"/>
   </g>
   <g id="patch_11">
    <path d="M 101.0565 48.312 
L 104.0655 48.312 
L 104.0655 71.154219 
L 101.0565 71.154219 
z
" clip-path="url(#pced88328c7)" style="fill: #c0e3c0"/>
   </g>
   <g id="patch_12">
    <path d="M 107.0745 48.312 
L 110.0835 48.312 
L 110.0835 80.027579 
L 107.0745 80.027579 
z
" clip-path="url(#pced88328c7)" style="fill: #c0e3c0"/>
   </g>
   <g id="patch_13">
    <path d="M 113.0925 48.312 
L 116.1015 48.312 
L 116.1015 86.320764 
L 113.0925 86.320764 
z
" clip-path="url(#pced88328c7)" style="fill: #c0e3c0"/>
   </g>
   <g id="patch_14">
    <path d="M 119.1105 48.312 
L 122.1195 48.312 
L 122.1195 90.005813 
L 119.1105 90.005813 
z
" clip-path="url(#pced88328c7)" style="fill: #c0e3c0"/>
   </g>
   <g id="patch_15">
    <path d="M 125.1285 48.312 
L 128.1375 48.312 
L 128.1375 90.01591 
L 125.1285 90.01591 
z
" clip-path="url(#pced88328c7)" style="fill: #c0e3c0"/>
   </g>
   <g id="patch_16">
    <path d="M 131.1465 48.312 
L 134.1555 48.312 
L 134.1555 86.777716 
L 131.1465 86.777716 
z
" clip-path="url(#pced88328c7)" style="fill: #c0e3c0"/>
   </g>
   <g id="patch_17">
    <path d="M 137.1645 48.312 
L 140.1735 48.312 
L 140.1735 80.596622 
L 137.1645 80.596622 
z
" clip-path="url(#pced88328c7)" style="fill: #c0e3c0"/>
   </g>
   <g id="patch_18">
    <path d="M 143.1825 48.312 
L 146.1915 48.312 
L 146.1915 72.142906 
L 143.1825 72.142906 
z
" clip-path="url(#pced88328c7)" style="fill: #c0e3c0"/>
   </g>
   <g id="patch_19">
    <path d="M 149.2005 48.312 
L 152.2095 48.312 
L 152.2095 63.127767 
L 149.2005 63.127767 
z
" clip-path="url(#pced88328c7)" style="fill: #c0e3c0"/>
   </g>
   <g id="patch_20">
    <path d="M 155.2185 48.312 
L 158.2275 48.312 
L 158.2275 53.788343 
L 155.2185 53.788343 
z
" clip-path="url(#pced88328c7)" style="fill: #c0e3c0"/>
   </g>
   <g id="patch_21">
    <path d="M 161.2365 48.312 
L 164.2455 48.312 
L 164.2455 48.616287 
L 161.2365 48.616287 
z
" clip-path="url(#pced88328c7)" style="fill: #c0e3c0"/>
   </g>
   <g id="patch_22">
    <path d="M 167.2545 48.312 
L 170.2635 48.312 
L 170.2635 48.312 
L 167.2545 48.312 
z
" clip-path="url(#pced88328c7)" style="fill: #c0e3c0"/>
   </g>
   <g id="patch_23">
    <path d="M 173.2725 48.312 
L 176.2815 48.312 
L 176.2815 48.312 
L 173.2725 48.312 
z
" clip-path="url(#pced88328c7)" style="fill: #c0e3c0"/>
   </g>
   <g id="patch_24">
    <path d="M 179.2905 48.312 
L 182.2995 48.312 
L 182.2995 48.312 
L 179.2905 48.312 
z
" clip-path="url(#pced88328c7)" style="fill: #c0e3c0"/>
   </g>
   <g id="patch_25">
    <path d="M 185.3085 48.312 
L 188.3175 48.312 
L 188.3175 48.312 
L 185.3085 48.312 
z
" clip-path="url(#pced88328c7)" style="fill: #c0e3c0"/>
   </g>
   <g id="patch_26">
    <path d="M 191.3265 48.312 
L 194.3355 48.312 
L 194.3355 48.312 
L 191.3265 48.312 
z
" clip-path="url(#pced88328c7)" style="fill: #c0e3c0"/>
   </g>
   <g id="patch_27">
    <path d="M 52.9125 48.312 
L 55.9215 48.312 
L 55.9215 48.312 
L 52.9125 48.312 
z
" clip-path="url(#pced88328c7)" style="fill: #029e73"/>
   </g>
   <g id="patch_28">
    <path d="M 58.9305 48.312 
L 61.9395 48.312 
L 61.9395 48.312 
L 58.9305 48.312 
z
" clip-path="url(#pced88328c7)" style="fill: #029e73"/>
   </g>
   <g id="patch_29">
    <path d="M 64.9485 48.312 
L 67.9575 48.312 
L 67.9575 48.312 
L 64.9485 48.312 
z
" clip-path="url(#pced88328c7)" style="fill: #029e73"/>
   </g>
   <g id="patch_30">
    <path d="M 70.9665 48.312 
L 73.9755 48.312 
L 73.9755 48.312 
L 70.9665 48.312 
z
" clip-path="url(#pced88328c7)" style="fill: #029e73"/>
   </g>
   <g id="patch_31">
    <path d="M 76.9845 48.312 
L 79.9935 48.312 
L 79.9935 48.312 
L 76.9845 48.312 
z
" clip-path="url(#pced88328c7)" style="fill: #029e73"/>
   </g>
   <g id="patch_32">
    <path d="M 83.0025 48.312 
L 86.0115 48.312 
L 86.0115 48.312 
L 83.0025 48.312 
z
" clip-path="url(#pced88328c7)" style="fill: #029e73"/>
   </g>
   <g id="patch_33">
    <path d="M 89.0205 48.312 
L 92.0295 48.312 
L 92.0295 52.018076 
L 89.0205 52.018076 
z
" clip-path="url(#pced88328c7)" style="fill: #029e73"/>
   </g>
   <g id="patch_34">
    <path d="M 95.0385 48.312 
L 98.0475 48.312 
L 98.0475 62.388769 
L 95.0385 62.388769 
z
" clip-path="url(#pced88328c7)" style="fill: #029e73"/>
   </g>
   <g id="patch_35">
    <path d="M 101.0565 48.312 
L 104.0655 48.312 
L 104.0655 73.352708 
L 101.0565 73.352708 
z
" clip-path="url(#pced88328c7)" style="fill: #029e73"/>
   </g>
   <g id="patch_36">
    <path d="M 107.0745 48.312 
L 110.0835 48.312 
L 110.0835 83.0801 
L 107.0745 83.0801 
z
" clip-path="url(#pced88328c7)" style="fill: #029e73"/>
   </g>
   <g id="patch_37">
    <path d="M 113.0925 48.312 
L 116.1015 48.312 
L 116.1015 89.978984 
L 113.0925 89.978984 
z
" clip-path="url(#pced88328c7)" style="fill: #029e73"/>
   </g>
   <g id="patch_38">
    <path d="M 119.1105 48.312 
L 122.1195 48.312 
L 122.1195 94.018707 
L 119.1105 94.018707 
z
" clip-path="url(#pced88328c7)" style="fill: #029e73"/>
   </g>
   <g id="patch_39">
    <path d="M 125.1285 48.312 
L 128.1375 48.312 
L 128.1375 94.029776 
L 125.1285 94.029776 
z
" clip-path="url(#pced88328c7)" style="fill: #029e73"/>
   </g>
   <g id="patch_40">
    <path d="M 131.1465 48.312 
L 134.1555 48.312 
L 134.1555 90.479916 
L 131.1465 90.479916 
z
" clip-path="url(#pced88328c7)" style="fill: #029e73"/>
   </g>
   <g id="patch_41">
    <path d="M 137.1645 48.312 
L 140.1735 48.312 
L 140.1735 83.703912 
L 137.1645 83.703912 
z
" clip-path="url(#pced88328c7)" style="fill: #029e73"/>
   </g>
   <g id="patch_42">
    <path d="M 143.1825 48.312 
L 146.1915 48.312 
L 146.1915 74.436553 
L 143.1825 74.436553 
z
" clip-path="url(#pced88328c7)" style="fill: #029e73"/>
   </g>
   <g id="patch_43">
    <path d="M 149.2005 48.312 
L 152.2095 48.312 
L 152.2095 64.553736 
L 149.2005 64.553736 
z
" clip-path="url(#pced88328c7)" style="fill: #029e73"/>
   </g>
   <g id="patch_44">
    <path d="M 155.2185 48.312 
L 158.2275 48.312 
L 158.2275 54.315424 
L 155.2185 54.315424 
z
" clip-path="url(#pced88328c7)" style="fill: #029e73"/>
   </g>
   <g id="patch_45">
    <path d="M 161.2365 48.312 
L 164.2455 48.312 
L 164.2455 48.645574 
L 161.2365 48.645574 
z
" clip-path="url(#pced88328c7)" style="fill: #029e73"/>
   </g>
   <g id="patch_46">
    <path d="M 167.2545 48.312 
L 170.2635 48.312 
L 170.2635 48.312 
L 167.2545 48.312 
z
" clip-path="url(#pced88328c7)" style="fill: #029e73"/>
   </g>
   <g id="patch_47">
    <path d="M 173.2725 48.312 
L 176.2815 48.312 
L 176.2815 48.312 
L 173.2725 48.312 
z
" clip-path="url(#pced88328c7)" style="fill: #029e73"/>
   </g>
   <g id="patch_48">
    <path d="M 179.2905 48.312 
L 182.2995 48.312 
L 182.2995 48.312 
L 179.2905 48.312 
z
" clip-path="url(#pced88328c7)" style="fill: #029e73"/>
   </g>
   <g id="patch_49">
    <path d="M 185.3085 48.312 
L 188.3175 48.312 
L 188.3175 48.312 
L 185.3085 48.312 
z
" clip-path="url(#pced88328c7)" style="fill: #029e73"/>
   </g>
   <g id="patch_50">
    <path d="M 191.3265 48.312 
L 194.3355 48.312 
L 194.3355 48.312 
L 191.3265 48.312 
z
" clip-path="url(#pced88328c7)" style="fill: #029e73"/>
   </g>
   <g id="patch_51">
    <path d="M 52.9125 48.312 
L 55.9215 48.312 
L 55.9215 48.312 
L 52.9125 48.312 
z
" clip-path="url(#pced88328c7)" style="fill: #d55e00"/>
   </g>
   <g id="patch_52">
    <path d="M 58.9305 48.312 
L 61.9395 48.312 
L 61.9395 48.312 
L 58.9305 48.312 
z
" clip-path="url(#pced88328c7)" style="fill: #d55e00"/>
   </g>
   <g id="patch_53">
    <path d="M 64.9485 48.312 
L 67.9575 48.312 
L 67.9575 48.312 
L 64.9485 48.312 
z
" clip-path="url(#pced88328c7)" style="fill: #d55e00"/>
   </g>
   <g id="patch_54">
    <path d="M 70.9665 48.312 
L 73.9755 48.312 
L 73.9755 48.312 
L 70.9665 48.312 
z
" clip-path="url(#pced88328c7)" style="fill: #d55e00"/>
   </g>
   <g id="patch_55">
    <path d="M 76.9845 48.312 
L 79.9935 48.312 
L 79.9935 48.312 
L 76.9845 48.312 
z
" clip-path="url(#pced88328c7)" style="fill: #d55e00"/>
   </g>
   <g id="patch_56">
    <path d="M 83.0025 48.312 
L 86.0115 48.312 
L 86.0115 48.312 
L 83.0025 48.312 
z
" clip-path="url(#pced88328c7)" style="fill: #d55e00"/>
   </g>
   <g id="patch_57">
    <path d="M 89.0205 52.018076 
L 92.0295 52.018076 
L 92.0295 52.018076 
L 89.0205 52.018076 
z
" clip-path="url(#pced88328c7)" style="fill: #d55e00"/>
   </g>
   <g id="patch_58">
    <path d="M 95.0385 62.388769 
L 98.0475 62.388769 
L 98.0475 62.388769 
L 95.0385 62.388769 
z
" clip-path="url(#pced88328c7)" style="fill: #d55e00"/>
   </g>
   <g id="patch_59">
    <path d="M 101.0565 73.352708 
L 104.0655 73.352708 
L 104.0655 73.352708 
L 101.0565 73.352708 
z
" clip-path="url(#pced88328c7)" style="fill: #d55e00"/>
   </g>
   <g id="patch_60">
    <path d="M 107.0745 83.0801 
L 110.0835 83.0801 
L 110.0835 83.0801 
L 107.0745 83.0801 
z
" clip-path="url(#pced88328c7)" style="fill: #d55e00"/>
   </g>
   <g id="patch_61">
    <path d="M 113.0925 89.978984 
L 116.1015 89.978984 
L 116.1015 89.978984 
L 113.0925 89.978984 
z
" clip-path="url(#pced88328c7)" style="fill: #d55e00"/>
   </g>
   <g id="patch_62">
    <path d="M 119.1105 94.018707 
L 122.1195 94.018707 
L 122.1195 94.018707 
L 119.1105 94.018707 
z
" clip-path="url(#pced88328c7)" style="fill: #d55e00"/>
   </g>
   <g id="patch_63">
    <path d="M 125.1285 94.029776 
L 128.1375 94.029776 
L 128.1375 94.029776 
L 125.1285 94.029776 
z
" clip-path="url(#pced88328c7)" style="fill: #d55e00"/>
   </g>
   <g id="patch_64">
    <path d="M 131.1465 90.479916 
L 134.1555 90.479916 
L 134.1555 90.479916 
L 131.1465 90.479916 
z
" clip-path="url(#pced88328c7)" style="fill: #d55e00"/>
   </g>
   <g id="patch_65">
    <path d="M 137.1645 83.703912 
L 140.1735 83.703912 
L 140.1735 83.703912 
L 137.1645 83.703912 
z
" clip-path="url(#pced88328c7)" style="fill: #d55e00"/>
   </g>
   <g id="patch_66">
    <path d="M 143.1825 74.436553 
L 146.1915 74.436553 
L 146.1915 74.436553 
L 143.1825 74.436553 
z
" clip-path="url(#pced88328c7)" style="fill: #d55e00"/>
   </g>
   <g id="patch_67">
    <path d="M 149.2005 64.553736 
L 152.2095 64.553736 
L 152.2095 64.553736 
L 149.2005 64.553736 
z
" clip-path="url(#pced88328c7)" style="fill: #d55e00"/>
   </g>
   <g id="patch_68">
    <path d="M 155.2185 54.315424 
L 158.2275 54.315424 
L 158.2275 54.315424 
L 155.2185 54.315424 
z
" clip-path="url(#pced88328c7)" style="fill: #d55e00"/>
   </g>
   <g id="patch_69">
    <path d="M 161.2365 48.312 
L 164.2455 48.312 
L 164.2455 34.000257 
L 161.2365 34.000257 
z
" clip-path="url(#pced88328c7)" style="fill: #d55e00"/>
   </g>
   <g id="patch_70">
    <path d="M 167.2545 48.312 
L 170.2635 48.312 
L 170.2635 48.312 
L 167.2545 48.312 
z
" clip-path="url(#pced88328c7)" style="fill: #d55e00"/>
   </g>
   <g id="patch_71">
    <path d="M 173.2725 48.312 
L 176.2815 48.312 
L 176.2815 48.312 
L 173.2725 48.312 
z
" clip-path="url(#pced88328c7)" style="fill: #d55e00"/>
   </g>
   <g id="patch_72">
    <path d="M 179.2905 48.312 
L 182.2995 48.312 
L 182.2995 48.312 
L 179.2905 48.312 
z
" clip-path="url(#pced88328c7)" style="fill: #d55e00"/>
   </g>
   <g id="patch_73">
    <path d="M 185.3085 48.312 
L 188.3175 48.312 
L 188.3175 48.312 
L 185.3085 48.312 
z
" clip-path="url(#pced88328c7)" style="fill: #d55e00"/>
   </g>
   <g id="patch_74">
    <path d="M 191.3265 48.312 
L 194.3355 48.312 
L 194.3355 48.312 
L 191.3265 48.312 
z
" clip-path="url(#pced88328c7)" style="fill: #d55e00"/>
   </g>
   <g id="patch_75">
    <path d="M 52.9125 48.312 
L 55.9215 48.312 
L 55.9215 70.062939 
L 52.9125 70.062939 
z
" clip-path="url(#pced88328c7)" style="fill: #949494"/>
   </g>
   <g id="patch_76">
    <path d="M 58.9305 48.312 
L 61.9395 48.312 
L 61.9395 48.312 
L 58.9305 48.312 
z
" clip-path="url(#pced88328c7)" style="fill: #949494"/>
   </g>
   <g id="patch_77">
    <path d="M 64.9485 48.312 
L 67.9575 48.312 
L 67.9575 48.312 
L 64.9485 48.312 
z
" clip-path="url(#pced88328c7)" style="fill: #949494"/>
   </g>
   <g id="patch_78">
    <path d="M 70.9665 48.312 
L 73.9755 48.312 
L 73.9755 48.312 
L 70.9665 48.312 
z
" clip-path="url(#pced88328c7)" style="fill: #949494"/>
   </g>
   <g id="patch_79">
    <path d="M 76.9845 48.312 
L 79.9935 48.312 
L 79.9935 48.312 
L 76.9845 48.312 
z
" clip-path="url(#pced88328c7)" style="fill: #949494"/>
   </g>
   <g id="patch_80">
    <path d="M 83.0025 48.312 
L 86.0115 48.312 
L 86.0115 48.312 
L 83.0025 48.312 
z
" clip-path="url(#pced88328c7)" style="fill: #949494"/>
   </g>
   <g id="patch_81">
    <path d="M 89.0205 48.312 
L 92.0295 48.312 
L 92.0295 44.605924 
L 89.0205 44.605924 
z
" clip-path="url(#pced88328c7)" style="fill: #949494"/>
   </g>
   <g id="patch_82">
    <path d="M 95.0385 48.312 
L 98.0475 48.312 
L 98.0475 34.235231 
L 95.0385 34.235231 
z
" clip-path="url(#pced88328c7)" style="fill: #949494"/>
   </g>
   <g id="patch_83">
    <path d="M 101.0565 48.312 
L 104.0655 48.312 
L 104.0655 23.271292 
L 101.0565 23.271292 
z
" clip-path="url(#pced88328c7)" style="fill: #949494"/>
   </g>
   <g id="patch_84">
    <path d="M 107.0745 48.312 
L 110.0835 48.312 
L 110.0835 13.5439 
L 107.0745 13.5439 
z
" clip-path="url(#pced88328c7)" style="fill: #949494"/>
   </g>
   <g id="patch_85">
    <path d="M 113.0925 48.312 
L 116.1015 48.312 
L 116.1015 6.645016 
L 113.0925 6.645016 
z
" clip-path="url(#pced88328c7)" style="fill: #949494"/>
   </g>
   <g id="patch_86">
    <path d="M 119.1105 48.312 
L 122.1195 48.312 
L 122.1195 2.605293 
L 119.1105 2.605293 
z
" clip-path="url(#pced88328c7)" style="fill: #949494"/>
   </g>
   <g id="patch_87">
    <path d="M 125.1285 48.312 
L 128.1375 48.312 
L 128.1375 2.594224 
L 125.1285 2.594224 
z
" clip-path="url(#pced88328c7)" style="fill: #949494"/>
   </g>
   <g id="patch_88">
    <path d="M 131.1465 48.312 
L 134.1555 48.312 
L 134.1555 6.144084 
L 131.1465 6.144084 
z
" clip-path="url(#pced88328c7)" style="fill: #949494"/>
   </g>
   <g id="patch_89">
    <path d="M 137.1645 48.312 
L 140.1735 48.312 
L 140.1735 12.920088 
L 137.1645 12.920088 
z
" clip-path="url(#pced88328c7)" style="fill: #949494"/>
   </g>
   <g id="patch_90">
    <path d="M 143.1825 48.312 
L 146.1915 48.312 
L 146.1915 22.187447 
L 143.1825 22.187447 
z
" clip-path="url(#pced88328c7)" style="fill: #949494"/>
   </g>
   <g id="patch_91">
    <path d="M 149.2005 48.312 
L 152.2095 48.312 
L 152.2095 32.070264 
L 149.2005 32.070264 
z
" clip-path="url(#pced88328c7)" style="fill: #949494"/>
   </g>
   <g id="patch_92">
    <path d="M 155.2185 48.312 
L 158.2275 48.312 
L 158.2275 42.308576 
L 155.2185 42.308576 
z
" clip-path="url(#pced88328c7)" style="fill: #949494"/>
   </g>
   <g id="patch_93">
    <path d="M 161.2365 48.312 
L 164.2455 48.312 
L 164.2455 62.290169 
L 161.2365 62.290169 
z
" clip-path="url(#pced88328c7)" style="fill: #949494"/>
   </g>
   <g id="patch_94">
    <path d="M 167.2545 48.312 
L 170.2635 48.312 
L 170.2635 48.312 
L 167.2545 48.312 
z
" clip-path="url(#pced88328c7)" style="fill: #949494"/>
   </g>
   <g id="patch_95">
    <path d="M 173.2725 48.312 
L 176.2815 48.312 
L 176.2815 48.312 
L 173.2725 48.312 
z
" clip-path="url(#pced88328c7)" style="fill: #949494"/>
   </g>
   <g id="patch_96">
    <path d="M 179.2905 48.312 
L 182.2995 48.312 
L 182.2995 48.312 
L 179.2905 48.312 
z
" clip-path="url(#pced88328c7)" style="fill: #949494"/>
   </g>
   <g id="patch_97">
    <path d="M 185.3085 48.312 
L 188.3175 48.312 
L 188.3175 48.312 
L 185.3085 48.312 
z
" clip-path="url(#pced88328c7)" style="fill: #949494"/>
   </g>
   <g id="patch_98">
    <path d="M 191.3265 48.312 
L 194.3355 48.312 
L 194.3355 48.312 
L 191.3265 48.312 
z
" clip-path="url(#pced88328c7)" style="fill: #949494"/>
   </g>
   <g id="patch_99">
    <path d="M 52.9125 48.312 
L 55.9215 48.312 
L 55.9215 26.561061 
L 52.9125 26.561061 
z
" clip-path="url(#pced88328c7)" style="fill: #0173b2"/>
   </g>
   <g id="patch_100">
    <path d="M 58.9305 48.312 
L 61.9395 48.312 
L 61.9395 48.312 
L 58.9305 48.312 
z
" clip-path="url(#pced88328c7)" style="fill: #0173b2"/>
   </g>
   <g id="patch_101">
    <path d="M 64.9485 48.312 
L 67.9575 48.312 
L 67.9575 48.312 
L 64.9485 48.312 
z
" clip-path="url(#pced88328c7)" style="fill: #0173b2"/>
   </g>
   <g id="patch_102">
    <path d="M 70.9665 48.312 
L 73.9755 48.312 
L 73.9755 48.312 
L 70.9665 48.312 
z
" clip-path="url(#pced88328c7)" style="fill: #0173b2"/>
   </g>
   <g id="patch_103">
    <path d="M 76.9845 48.312 
L 79.9935 48.312 
L 79.9935 48.312 
L 76.9845 48.312 
z
" clip-path="url(#pced88328c7)" style="fill: #0173b2"/>
   </g>
   <g id="patch_104">
    <path d="M 83.0025 48.312 
L 86.0115 48.312 
L 86.0115 48.312 
L 83.0025 48.312 
z
" clip-path="url(#pced88328c7)" style="fill: #0173b2"/>
   </g>
   <g id="patch_105">
    <path d="M 89.0205 48.312 
L 92.0295 48.312 
L 92.0295 48.312 
L 89.0205 48.312 
z
" clip-path="url(#pced88328c7)" style="fill: #0173b2"/>
   </g>
   <g id="patch_106">
    <path d="M 95.0385 48.312 
L 98.0475 48.312 
L 98.0475 48.312 
L 95.0385 48.312 
z
" clip-path="url(#pced88328c7)" style="fill: #0173b2"/>
   </g>
   <g id="patch_107">
    <path d="M 101.0565 48.312 
L 104.0655 48.312 
L 104.0655 48.312 
L 101.0565 48.312 
z
" clip-path="url(#pced88328c7)" style="fill: #0173b2"/>
   </g>
   <g id="patch_108">
    <path d="M 107.0745 48.312 
L 110.0835 48.312 
L 110.0835 48.312 
L 107.0745 48.312 
z
" clip-path="url(#pced88328c7)" style="fill: #0173b2"/>
   </g>
   <g id="patch_109">
    <path d="M 113.0925 48.312 
L 116.1015 48.312 
L 116.1015 48.312 
L 113.0925 48.312 
z
" clip-path="url(#pced88328c7)" style="fill: #0173b2"/>
   </g>
   <g id="patch_110">
    <path d="M 119.1105 48.312 
L 122.1195 48.312 
L 122.1195 48.312 
L 119.1105 48.312 
z
" clip-path="url(#pced88328c7)" style="fill: #0173b2"/>
   </g>
   <g id="patch_111">
    <path d="M 125.1285 48.312 
L 128.1375 48.312 
L 128.1375 48.312 
L 125.1285 48.312 
z
" clip-path="url(#pced88328c7)" style="fill: #0173b2"/>
   </g>
   <g id="patch_112">
    <path d="M 131.1465 48.312 
L 134.1555 48.312 
L 134.1555 48.312 
L 131.1465 48.312 
z
" clip-path="url(#pced88328c7)" style="fill: #0173b2"/>
   </g>
   <g id="patch_113">
    <path d="M 137.1645 48.312 
L 140.1735 48.312 
L 140.1735 48.312 
L 137.1645 48.312 
z
" clip-path="url(#pced88328c7)" style="fill: #0173b2"/>
   </g>
   <g id="patch_114">
    <path d="M 143.1825 48.312 
L 146.1915 48.312 
L 146.1915 48.312 
L 143.1825 48.312 
z
" clip-path="url(#pced88328c7)" style="fill: #0173b2"/>
   </g>
   <g id="patch_115">
    <path d="M 149.2005 48.312 
L 152.2095 48.312 
L 152.2095 48.312 
L 149.2005 48.312 
z
" clip-path="url(#pced88328c7)" style="fill: #0173b2"/>
   </g>
   <g id="patch_116">
    <path d="M 155.2185 48.312 
L 158.2275 48.312 
L 158.2275 48.312 
L 155.2185 48.312 
z
" clip-path="url(#pced88328c7)" style="fill: #0173b2"/>
   </g>
   <g id="patch_117">
    <path d="M 161.2365 62.290169 
L 164.2455 62.290169 
L 164.2455 62.290169 
L 161.2365 62.290169 
z
" clip-path="url(#pced88328c7)" style="fill: #0173b2"/>
   </g>
   <g id="patch_118">
    <path d="M 167.2545 48.312 
L 170.2635 48.312 
L 170.2635 48.312 
L 167.2545 48.312 
z
" clip-path="url(#pced88328c7)" style="fill: #0173b2"/>
   </g>
   <g id="patch_119">
    <path d="M 173.2725 48.312 
L 176.2815 48.312 
L 176.2815 48.312 
L 173.2725 48.312 
z
" clip-path="url(#pced88328c7)" style="fill: #0173b2"/>
   </g>
   <g id="patch_120">
    <path d="M 179.2905 48.312 
L 182.2995 48.312 
L 182.2995 48.312 
L 179.2905 48.312 
z
" clip-path="url(#pced88328c7)" style="fill: #0173b2"/>
   </g>
   <g id="patch_121">
    <path d="M 185.3085 48.312 
L 188.3175 48.312 
L 188.3175 48.312 
L 185.3085 48.312 
z
" clip-path="url(#pced88328c7)" style="fill: #0173b2"/>
   </g>
   <g id="patch_122">
    <path d="M 191.3265 48.312 
L 194.3355 48.312 
L 194.3355 48.312 
L 191.3265 48.312 
z
" clip-path="url(#pced88328c7)" style="fill: #0173b2"/>
   </g>
   <g id="matplotlib.axis_1">
    <g id="xtick_1">
     <g id="line2d_1">
      <defs>
       <path id="m806f714c85" d="M 0 0 
L 0 3.5 
" style="stroke: #000000; stroke-width: 0.8"/>
      </defs>
      <g>
       <use xlink:href="#m806f714c85" x="54.417" y="91.872" style="stroke: #000000; stroke-width: 0.8"/>
      </g>
     </g>
     <g id="text_1">
      <!-- 0 -->
      <g transform="translate(57.176375 105.2345) rotate(-90) scale(0.1 -0.1)">
       <defs>
        <path id="DejaVuSans-30" d="M 2034 4250 
Q 1547 4250 1301 3770 
Q 1056 3291 1056 2328 
Q 1056 1369 1301 889 
Q 1547 409 2034 409 
Q 2525 409 2770 889 
Q 3016 1369 3016 2328 
Q 3016 3291 2770 3770 
Q 2525 4250 2034 4250 
z
M 2034 4750 
Q 2819 4750 3233 4129 
Q 3647 3509 3647 2328 
Q 3647 1150 3233 529 
Q 2819 -91 2034 -91 
Q 1250 -91 836 529 
Q 422 1150 422 2328 
Q 422 3509 836 4129 
Q 1250 4750 2034 4750 
z
" transform="scale(0.015625)"/>
       </defs>
       <use xlink:href="#DejaVuSans-30"/>
      </g>
     </g>
    </g>
    <g id="xtick_2">
     <g id="line2d_2">
      <g>
       <use xlink:href="#m806f714c85" x="60.435" y="91.872" style="stroke: #000000; stroke-width: 0.8"/>
      </g>
     </g>
    </g>
    <g id="xtick_3">
     <g id="line2d_3">
      <g>
       <use xlink:href="#m806f714c85" x="66.453" y="91.872" style="stroke: #000000; stroke-width: 0.8"/>
      </g>
     </g>
    </g>
    <g id="xtick_4">
     <g id="line2d_4">
      <g>
       <use xlink:href="#m806f714c85" x="72.471" y="91.872" style="stroke: #000000; stroke-width: 0.8"/>
      </g>
     </g>
    </g>
    <g id="xtick_5">
     <g id="line2d_5">
      <g>
       <use xlink:href="#m806f714c85" x="78.489" y="91.872" style="stroke: #000000; stroke-width: 0.8"/>
      </g>
     </g>
    </g>
    <g id="xtick_6">
     <g id="line2d_6">
      <g>
       <use xlink:href="#m806f714c85" x="84.507" y="91.872" style="stroke: #000000; stroke-width: 0.8"/>
      </g>
     </g>
    </g>
    <g id="xtick_7">
     <g id="line2d_7">
      <g>
       <use xlink:href="#m806f714c85" x="90.525" y="91.872" style="stroke: #000000; stroke-width: 0.8"/>
      </g>
     </g>
     <g id="text_2">
      <!-- 6 -->
      <g transform="translate(93.284375 105.2345) rotate(-90) scale(0.1 -0.1)">
       <defs>
        <path id="DejaVuSans-36" d="M 2113 2584 
Q 1688 2584 1439 2293 
Q 1191 2003 1191 1497 
Q 1191 994 1439 701 
Q 1688 409 2113 409 
Q 2538 409 2786 701 
Q 3034 994 3034 1497 
Q 3034 2003 2786 2293 
Q 2538 2584 2113 2584 
z
M 3366 4563 
L 3366 3988 
Q 3128 4100 2886 4159 
Q 2644 4219 2406 4219 
Q 1781 4219 1451 3797 
Q 1122 3375 1075 2522 
Q 1259 2794 1537 2939 
Q 1816 3084 2150 3084 
Q 2853 3084 3261 2657 
Q 3669 2231 3669 1497 
Q 3669 778 3244 343 
Q 2819 -91 2113 -91 
Q 1303 -91 875 529 
Q 447 1150 447 2328 
Q 447 3434 972 4092 
Q 1497 4750 2381 4750 
Q 2619 4750 2861 4703 
Q 3103 4656 3366 4563 
z
" transform="scale(0.015625)"/>
       </defs>
       <use xlink:href="#DejaVuSans-36"/>
      </g>
     </g>
    </g>
    <g id="xtick_8">
     <g id="line2d_8">
      <g>
       <use xlink:href="#m806f714c85" x="96.543" y="91.872" style="stroke: #000000; stroke-width: 0.8"/>
      </g>
     </g>
    </g>
    <g id="xtick_9">
     <g id="line2d_9">
      <g>
       <use xlink:href="#m806f714c85" x="102.561" y="91.872" style="stroke: #000000; stroke-width: 0.8"/>
      </g>
     </g>
    </g>
    <g id="xtick_10">
     <g id="line2d_10">
      <g>
       <use xlink:href="#m806f714c85" x="108.579" y="91.872" style="stroke: #000000; stroke-width: 0.8"/>
      </g>
     </g>
    </g>
    <g id="xtick_11">
     <g id="line2d_11">
      <g>
       <use xlink:href="#m806f714c85" x="114.597" y="91.872" style="stroke: #000000; stroke-width: 0.8"/>
      </g>
     </g>
    </g>
    <g id="xtick_12">
     <g id="line2d_12">
      <g>
       <use xlink:href="#m806f714c85" x="120.615" y="91.872" style="stroke: #000000; stroke-width: 0.8"/>
      </g>
     </g>
    </g>
    <g id="xtick_13">
     <g id="line2d_13">
      <g>
       <use xlink:href="#m806f714c85" x="126.633" y="91.872" style="stroke: #000000; stroke-width: 0.8"/>
      </g>
     </g>
     <g id="text_3">
      <!-- 12 -->
      <g transform="translate(129.392375 111.597) rotate(-90) scale(0.1 -0.1)">
       <defs>
        <path id="DejaVuSans-31" d="M 794 531 
L 1825 531 
L 1825 4091 
L 703 3866 
L 703 4441 
L 1819 4666 
L 2450 4666 
L 2450 531 
L 3481 531 
L 3481 0 
L 794 0 
L 794 531 
z
" transform="scale(0.015625)"/>
        <path id="DejaVuSans-32" d="M 1228 531 
L 3431 531 
L 3431 0 
L 469 0 
L 469 531 
Q 828 903 1448 1529 
Q 2069 2156 2228 2338 
Q 2531 2678 2651 2914 
Q 2772 3150 2772 3378 
Q 2772 3750 2511 3984 
Q 2250 4219 1831 4219 
Q 1534 4219 1204 4116 
Q 875 4013 500 3803 
L 500 4441 
Q 881 4594 1212 4672 
Q 1544 4750 1819 4750 
Q 2544 4750 2975 4387 
Q 3406 4025 3406 3419 
Q 3406 3131 3298 2873 
Q 3191 2616 2906 2266 
Q 2828 2175 2409 1742 
Q 1991 1309 1228 531 
z
" transform="scale(0.015625)"/>
       </defs>
       <use xlink:href="#DejaVuSans-31"/>
       <use xlink:href="#DejaVuSans-32" x="63.623047"/>
      </g>
     </g>
    </g>
    <g id="xtick_14">
     <g id="line2d_14">
      <g>
       <use xlink:href="#m806f714c85" x="132.651" y="91.872" style="stroke: #000000; stroke-width: 0.8"/>
      </g>
     </g>
    </g>
    <g id="xtick_15">
     <g id="line2d_15">
      <g>
       <use xlink:href="#m806f714c85" x="138.669" y="91.872" style="stroke: #000000; stroke-width: 0.8"/>
      </g>
     </g>
    </g>
    <g id="xtick_16">
     <g id="line2d_16">
      <g>
       <use xlink:href="#m806f714c85" x="144.687" y="91.872" style="stroke: #000000; stroke-width: 0.8"/>
      </g>
     </g>
    </g>
    <g id="xtick_17">
     <g id="line2d_17">
      <g>
       <use xlink:href="#m806f714c85" x="150.705" y="91.872" style="stroke: #000000; stroke-width: 0.8"/>
      </g>
     </g>
    </g>
    <g id="xtick_18">
     <g id="line2d_18">
      <g>
       <use xlink:href="#m806f714c85" x="156.723" y="91.872" style="stroke: #000000; stroke-width: 0.8"/>
      </g>
     </g>
    </g>
    <g id="xtick_19">
     <g id="line2d_19">
      <g>
       <use xlink:href="#m806f714c85" x="162.741" y="91.872" style="stroke: #000000; stroke-width: 0.8"/>
      </g>
     </g>
     <g id="text_4">
      <!-- 18 -->
      <g transform="translate(165.500375 111.597) rotate(-90) scale(0.1 -0.1)">
       <defs>
        <path id="DejaVuSans-38" d="M 2034 2216 
Q 1584 2216 1326 1975 
Q 1069 1734 1069 1313 
Q 1069 891 1326 650 
Q 1584 409 2034 409 
Q 2484 409 2743 651 
Q 3003 894 3003 1313 
Q 3003 1734 2745 1975 
Q 2488 2216 2034 2216 
z
M 1403 2484 
Q 997 2584 770 2862 
Q 544 3141 544 3541 
Q 544 4100 942 4425 
Q 1341 4750 2034 4750 
Q 2731 4750 3128 4425 
Q 3525 4100 3525 3541 
Q 3525 3141 3298 2862 
Q 3072 2584 2669 2484 
Q 3125 2378 3379 2068 
Q 3634 1759 3634 1313 
Q 3634 634 3220 271 
Q 2806 -91 2034 -91 
Q 1263 -91 848 271 
Q 434 634 434 1313 
Q 434 1759 690 2068 
Q 947 2378 1403 2484 
z
M 1172 3481 
Q 1172 3119 1398 2916 
Q 1625 2713 2034 2713 
Q 2441 2713 2670 2916 
Q 2900 3119 2900 3481 
Q 2900 3844 2670 4047 
Q 2441 4250 2034 4250 
Q 1625 4250 1398 4047 
Q 1172 3844 1172 3481 
z
" transform="scale(0.015625)"/>
       </defs>
       <use xlink:href="#DejaVuSans-31"/>
       <use xlink:href="#DejaVuSans-38" x="63.623047"/>
      </g>
     </g>
    </g>
    <g id="xtick_20">
     <g id="line2d_20">
      <g>
       <use xlink:href="#m806f714c85" x="168.759" y="91.872" style="stroke: #000000; stroke-width: 0.8"/>
      </g>
     </g>
    </g>
    <g id="xtick_21">
     <g id="line2d_21">
      <g>
       <use xlink:href="#m806f714c85" x="174.777" y="91.872" style="stroke: #000000; stroke-width: 0.8"/>
      </g>
     </g>
    </g>
    <g id="xtick_22">
     <g id="line2d_22">
      <g>
       <use xlink:href="#m806f714c85" x="180.795" y="91.872" style="stroke: #000000; stroke-width: 0.8"/>
      </g>
     </g>
    </g>
    <g id="xtick_23">
     <g id="line2d_23">
      <g>
       <use xlink:href="#m806f714c85" x="186.813" y="91.872" style="stroke: #000000; stroke-width: 0.8"/>
      </g>
     </g>
    </g>
    <g id="xtick_24">
     <g id="line2d_24">
      <g>
       <use xlink:href="#m806f714c85" x="192.831" y="91.872" style="stroke: #000000; stroke-width: 0.8"/>
      </g>
     </g>
     <g id="text_5">
      <!-- 23 -->
      <g transform="translate(195.590375 111.597) rotate(-90) scale(0.1 -0.1)">
       <defs>
        <path id="DejaVuSans-33" d="M 2597 2516 
Q 3050 2419 3304 2112 
Q 3559 1806 3559 1356 
Q 3559 666 3084 287 
Q 2609 -91 1734 -91 
Q 1441 -91 1130 -33 
Q 819 25 488 141 
L 488 750 
Q 750 597 1062 519 
Q 1375 441 1716 441 
Q 2309 441 2620 675 
Q 2931 909 2931 1356 
Q 2931 1769 2642 2001 
Q 2353 2234 1838 2234 
L 1294 2234 
L 1294 2753 
L 1863 2753 
Q 2328 2753 2575 2939 
Q 2822 3125 2822 3475 
Q 2822 3834 2567 4026 
Q 2313 4219 1838 4219 
Q 1578 4219 1281 4162 
Q 984 4106 628 3988 
L 628 4550 
Q 988 4650 1302 4700 
Q 1616 4750 1894 4750 
Q 2613 4750 3031 4423 
Q 3450 4097 3450 3541 
Q 3450 3153 3228 2886 
Q 3006 2619 2597 2516 
z
" transform="scale(0.015625)"/>
       </defs>
       <use xlink:href="#DejaVuSans-32"/>
       <use xlink:href="#DejaVuSans-33" x="63.623047"/>
      </g>
     </g>
    </g>
   </g>
   <g id="matplotlib.axis_2">
    <g id="ytick_1">
     <g id="line2d_25">
      <defs>
       <path id="ma715772800" d="M 0 0 
L -3.5 0 
" style="stroke: #000000; stroke-width: 0.8"/>
      </defs>
      <g>
       <use xlink:href="#ma715772800" x="51.408" y="91.872" style="stroke: #000000; stroke-width: 0.8"/>
      </g>
     </g>
     <g id="text_6">
      <!-- −200 -->
      <g transform="translate(16.940812 95.671219) scale(0.1 -0.1)">
       <defs>
        <path id="DejaVuSans-2212" d="M 678 2272 
L 4684 2272 
L 4684 1741 
L 678 1741 
L 678 2272 
z
" transform="scale(0.015625)"/>
       </defs>
       <use xlink:href="#DejaVuSans-2212"/>
       <use xlink:href="#DejaVuSans-32" x="83.789062"/>
       <use xlink:href="#DejaVuSans-30" x="147.412109"/>
       <use xlink:href="#DejaVuSans-30" x="211.035156"/>
      </g>
     </g>
    </g>
    <g id="ytick_2">
     <g id="line2d_26">
      <g>
       <use xlink:href="#ma715772800" x="51.408" y="70.092" style="stroke: #000000; stroke-width: 0.8"/>
      </g>
     </g>
     <g id="text_7">
      <!-- −100 -->
      <g transform="translate(16.940812 73.891219) scale(0.1 -0.1)">
       <use xlink:href="#DejaVuSans-2212"/>
       <use xlink:href="#DejaVuSans-31" x="83.789062"/>
       <use xlink:href="#DejaVuSans-30" x="147.412109"/>
       <use xlink:href="#DejaVuSans-30" x="211.035156"/>
      </g>
     </g>
    </g>
    <g id="ytick_3">
     <g id="line2d_27">
      <g>
       <use xlink:href="#ma715772800" x="51.408" y="48.312" style="stroke: #000000; stroke-width: 0.8"/>
      </g>
     </g>
     <g id="text_8">
      <!-- 0 -->
      <g transform="translate(38.0455 52.111219) scale(0.1 -0.1)">
       <use xlink:href="#DejaVuSans-30"/>
      </g>
     </g>
    </g>
    <g id="ytick_4">
     <g id="line2d_28">
      <g>
       <use xlink:href="#ma715772800" x="51.408" y="26.532" style="stroke: #000000; stroke-width: 0.8"/>
      </g>
     </g>
     <g id="text_9">
      <!-- 100 -->
      <g transform="translate(25.3205 30.331219) scale(0.1 -0.1)">
       <use xlink:href="#DejaVuSans-31"/>
       <use xlink:href="#DejaVuSans-30" x="63.623047"/>
       <use xlink:href="#DejaVuSans-30" x="127.246094"/>
      </g>
     </g>
    </g>
    <g id="ytick_5">
     <g id="line2d_29">
      <g>
       <use xlink:href="#ma715772800" x="51.408" y="4.752" style="stroke: #000000; stroke-width: 0.8"/>
      </g>
     </g>
     <g id="text_10">
      <!-- 200 -->
      <g transform="translate(25.3205 8.551219) scale(0.1 -0.1)">
       <use xlink:href="#DejaVuSans-32"/>
       <use xlink:href="#DejaVuSans-30" x="63.623047"/>
       <use xlink:href="#DejaVuSans-30" x="127.246094"/>
      </g>
     </g>
    </g>
    <g id="text_11">
     <!-- P(kW) -->
     <g transform="translate(10.861125 63.067469) rotate(-90) scale(0.1 -0.1)">
      <defs>
       <path id="DejaVuSans-50" d="M 1259 4147 
L 1259 2394 
L 2053 2394 
Q 2494 2394 2734 2622 
Q 2975 2850 2975 3272 
Q 2975 3691 2734 3919 
Q 2494 4147 2053 4147 
L 1259 4147 
z
M 628 4666 
L 2053 4666 
Q 2838 4666 3239 4311 
Q 3641 3956 3641 3272 
Q 3641 2581 3239 2228 
Q 2838 1875 2053 1875 
L 1259 1875 
L 1259 0 
L 628 0 
L 628 4666 
z
" transform="scale(0.015625)"/>
       <path id="DejaVuSans-28" d="M 1984 4856 
Q 1566 4138 1362 3434 
Q 1159 2731 1159 2009 
Q 1159 1288 1364 580 
Q 1569 -128 1984 -844 
L 1484 -844 
Q 1016 -109 783 600 
Q 550 1309 550 2009 
Q 550 2706 781 3412 
Q 1013 4119 1484 4856 
L 1984 4856 
z
" transform="scale(0.015625)"/>
       <path id="DejaVuSans-6b" d="M 581 4863 
L 1159 4863 
L 1159 1991 
L 2875 3500 
L 3609 3500 
L 1753 1863 
L 3688 0 
L 2938 0 
L 1159 1709 
L 1159 0 
L 581 0 
L 581 4863 
z
" transform="scale(0.015625)"/>
       <path id="DejaVuSans-57" d="M 213 4666 
L 850 4666 
L 1831 722 
L 2809 4666 
L 3519 4666 
L 4500 722 
L 5478 4666 
L 6119 4666 
L 4947 0 
L 4153 0 
L 3169 4050 
L 2175 0 
L 1381 0 
L 213 4666 
z
" transform="scale(0.015625)"/>
       <path id="DejaVuSans-29" d="M 513 4856 
L 1013 4856 
Q 1481 4119 1714 3412 
Q 1947 2706 1947 2009 
Q 1947 1309 1714 600 
Q 1481 -109 1013 -844 
L 513 -844 
Q 928 -128 1133 580 
Q 1338 1288 1338 2009 
Q 1338 2731 1133 3434 
Q 928 4138 513 4856 
z
" transform="scale(0.015625)"/>
      </defs>
      <use xlink:href="#DejaVuSans-50"/>
      <use xlink:href="#DejaVuSans-28" x="60.302734"/>
      <use xlink:href="#DejaVuSans-6b" x="99.316406"/>
      <use xlink:href="#DejaVuSans-57" x="157.226562"/>
      <use xlink:href="#DejaVuSans-29" x="256.103516"/>
     </g>
    </g>
   </g>
   <g id="line2d_30">
    <path d="M 51.408 48.312 
L 195.84 48.312 
" clip-path="url(#pced88328c7)" style="fill: none; stroke: #000000; stroke-width: 1.5; stroke-linecap: square"/>
   </g>
   <g id="patch_123">
    <path d="M 51.408 91.872 
L 51.408 4.752 
" style="fill: none; stroke: #000000; stroke-width: 0.8; stroke-linejoin: miter; stroke-linecap: square"/>
   </g>
   <g id="patch_124">
    <path d="M 195.84 91.872 
L 195.84 4.752 
" style="fill: none; stroke: #000000; stroke-width: 0.8; stroke-linejoin: miter; stroke-linecap: square"/>
   </g>
   <g id="patch_125">
    <path d="M 51.408 91.872 
L 195.84 91.872 
" style="fill: none; stroke: #000000; stroke-width: 0.8; stroke-linejoin: miter; stroke-linecap: square"/>
   </g>
   <g id="legend_1">
    <g id="patch_126">
     <path d="M 23.374 150.694438 
L 223.874 150.694438 
L 223.874 114.296 
L 23.374 114.296 
z
" style="fill: #ffffff; opacity: 0.8; stroke: #cccccc; stroke-linejoin: miter"/>
    </g>
    <g id="patch_127">
     <path d="M 27.374 128.916313 
L 47.374 128.916313 
L 47.374 121.916313 
L 27.374 121.916313 
z
" style="fill: #c0e3c0"/>
    </g>
    <g id="text_12">
     <!-- $\hat{P}_{PV}$ -->
     <g transform="translate(55.374 128.916313) scale(0.1 -0.1)">
      <defs>
       <path id="DejaVuSans-302" d="M -1831 5119 
L -1369 5119 
L -603 3944 
L -1038 3944 
L -1600 4709 
L -2163 3944 
L -2597 3944 
L -1831 5119 
z
M -1600 3584 
L -1600 3584 
z
" transform="scale(0.015625)"/>
       <path id="DejaVuSans-Oblique-50" d="M 1081 4666 
L 2541 4666 
Q 3178 4666 3512 4369 
Q 3847 4072 3847 3500 
Q 3847 2731 3353 2303 
Q 2859 1875 1966 1875 
L 1172 1875 
L 806 0 
L 172 0 
L 1081 4666 
z
M 1613 4147 
L 1275 2394 
L 2069 2394 
Q 2606 2394 2893 2669 
Q 3181 2944 3181 3456 
Q 3181 3784 2986 3965 
Q 2791 4147 2438 4147 
L 1613 4147 
z
" transform="scale(0.015625)"/>
       <path id="DejaVuSans-Oblique-56" d="M 1319 0 
L 500 4666 
L 1119 4666 
L 1797 653 
L 4063 4666 
L 4750 4666 
L 2053 0 
L 1319 0 
z
" transform="scale(0.015625)"/>
      </defs>
      <use xlink:href="#DejaVuSans-302" transform="translate(62.653809 30.015625)"/>
      <use xlink:href="#DejaVuSans-Oblique-50" transform="translate(0 0.609375)"/>
      <use xlink:href="#DejaVuSans-Oblique-50" transform="translate(61.259766 -15.796875) scale(0.7)"/>
      <use xlink:href="#DejaVuSans-Oblique-56" transform="translate(103.47168 -15.796875) scale(0.7)"/>
     </g>
    </g>
    <g id="patch_128">
     <path d="M 27.374 143.594438 
L 47.374 143.594438 
L 47.374 136.594438 
L 27.374 136.594438 
z
" style="fill: #029e73"/>
    </g>
    <g id="text_13">
     <!-- $P_{PV}$ -->
     <g transform="translate(55.374 143.594438) scale(0.1 -0.1)">
      <use xlink:href="#DejaVuSans-Oblique-50" transform="translate(0 0.09375)"/>
      <use xlink:href="#DejaVuSans-Oblique-50" transform="translate(60.302734 -16.3125) scale(0.7)"/>
      <use xlink:href="#DejaVuSans-Oblique-56" transform="translate(102.514648 -16.3125) scale(0.7)"/>
     </g>
    </g>
    <g id="patch_129">
     <path d="M 90.874 128.916313 
L 110.874 128.916313 
L 110.874 121.916313 
L 90.874 121.916313 
z
" style="fill: #d55e00"/>
    </g>
    <g id="text_14">
     <!-- $P_{pump2}$ -->
     <g transform="translate(118.874 128.916313) scale(0.1 -0.1)">
      <defs>
       <path id="DejaVuSans-Oblique-70" d="M 3175 2156 
Q 3175 2616 2975 2859 
Q 2775 3103 2400 3103 
Q 2144 3103 1911 2972 
Q 1678 2841 1497 2591 
Q 1319 2344 1212 1994 
Q 1106 1644 1106 1300 
Q 1106 863 1306 627 
Q 1506 391 1875 391 
Q 2147 391 2380 519 
Q 2613 647 2778 891 
Q 2956 1147 3065 1494 
Q 3175 1841 3175 2156 
z
M 1394 2969 
Q 1625 3272 1939 3428 
Q 2253 3584 2638 3584 
Q 3175 3584 3472 3232 
Q 3769 2881 3769 2247 
Q 3769 1728 3584 1258 
Q 3400 788 3053 416 
Q 2822 169 2531 39 
Q 2241 -91 1919 -91 
Q 1547 -91 1294 64 
Q 1041 219 916 525 
L 556 -1331 
L -19 -1331 
L 922 3500 
L 1497 3500 
L 1394 2969 
z
" transform="scale(0.015625)"/>
       <path id="DejaVuSans-Oblique-75" d="M 428 1388 
L 838 3500 
L 1416 3500 
L 1006 1409 
Q 975 1256 961 1147 
Q 947 1038 947 966 
Q 947 700 1109 554 
Q 1272 409 1569 409 
Q 2031 409 2368 721 
Q 2706 1034 2809 1563 
L 3194 3500 
L 3769 3500 
L 3091 0 
L 2516 0 
L 2631 550 
Q 2388 244 2052 76 
Q 1716 -91 1338 -91 
Q 878 -91 622 161 
Q 366 413 366 863 
Q 366 956 381 1097 
Q 397 1238 428 1388 
z
" transform="scale(0.015625)"/>
       <path id="DejaVuSans-Oblique-6d" d="M 5747 2113 
L 5338 0 
L 4763 0 
L 5166 2094 
Q 5191 2228 5203 2325 
Q 5216 2422 5216 2491 
Q 5216 2772 5059 2928 
Q 4903 3084 4622 3084 
Q 4203 3084 3875 2770 
Q 3547 2456 3450 1953 
L 3066 0 
L 2491 0 
L 2900 2094 
Q 2925 2209 2937 2307 
Q 2950 2406 2950 2484 
Q 2950 2769 2794 2926 
Q 2638 3084 2363 3084 
Q 1938 3084 1609 2770 
Q 1281 2456 1184 1953 
L 800 0 
L 225 0 
L 909 3500 
L 1484 3500 
L 1375 2956 
Q 1609 3263 1923 3423 
Q 2238 3584 2597 3584 
Q 2978 3584 3223 3384 
Q 3469 3184 3519 2828 
Q 3781 3197 4126 3390 
Q 4472 3584 4856 3584 
Q 5306 3584 5551 3325 
Q 5797 3066 5797 2591 
Q 5797 2488 5784 2364 
Q 5772 2241 5747 2113 
z
" transform="scale(0.015625)"/>
      </defs>
      <use xlink:href="#DejaVuSans-Oblique-50" transform="translate(0 0.09375)"/>
      <use xlink:href="#DejaVuSans-Oblique-70" transform="translate(60.302734 -16.3125) scale(0.7)"/>
      <use xlink:href="#DejaVuSans-Oblique-75" transform="translate(104.736328 -16.3125) scale(0.7)"/>
      <use xlink:href="#DejaVuSans-Oblique-6d" transform="translate(149.101562 -16.3125) scale(0.7)"/>
      <use xlink:href="#DejaVuSans-Oblique-70" transform="translate(217.290039 -16.3125) scale(0.7)"/>
      <use xlink:href="#DejaVuSans-32" transform="translate(261.723633 -16.3125) scale(0.7)"/>
     </g>
    </g>
    <g id="patch_130">
     <path d="M 90.874 144.61475 
L 110.874 144.61475 
L 110.874 137.61475 
L 90.874 137.61475 
z
" style="fill: #949494"/>
    </g>
    <g id="text_15">
     <!-- $P_{Grid}$ -->
     <g transform="translate(118.874 144.61475) scale(0.1 -0.1)">
      <defs>
       <path id="DejaVuSans-Oblique-47" d="M 3494 697 
L 3738 1919 
L 2700 1919 
L 2797 2438 
L 4453 2438 
L 4050 384 
Q 3634 156 3143 32 
Q 2653 -91 2156 -91 
Q 1278 -91 783 396 
Q 288 884 288 1753 
Q 288 2475 589 3126 
Q 891 3778 1422 4213 
Q 1756 4484 2153 4617 
Q 2550 4750 3034 4750 
Q 3472 4750 3873 4639 
Q 4275 4528 4641 4306 
L 4513 3634 
Q 4231 3928 3853 4083 
Q 3475 4238 3047 4238 
Q 2550 4238 2172 4048 
Q 1794 3859 1497 3463 
Q 1244 3125 1098 2667 
Q 953 2209 953 1734 
Q 953 1081 1287 751 
Q 1622 422 2284 422 
Q 2616 422 2925 492 
Q 3234 563 3494 697 
z
" transform="scale(0.015625)"/>
       <path id="DejaVuSans-Oblique-72" d="M 2853 2969 
Q 2766 3016 2653 3041 
Q 2541 3066 2413 3066 
Q 1953 3066 1609 2717 
Q 1266 2369 1153 1784 
L 800 0 
L 225 0 
L 909 3500 
L 1484 3500 
L 1375 2956 
Q 1603 3259 1920 3421 
Q 2238 3584 2597 3584 
Q 2691 3584 2781 3573 
Q 2872 3563 2963 3538 
L 2853 2969 
z
" transform="scale(0.015625)"/>
       <path id="DejaVuSans-Oblique-69" d="M 1172 4863 
L 1747 4863 
L 1606 4134 
L 1031 4134 
L 1172 4863 
z
M 909 3500 
L 1484 3500 
L 800 0 
L 225 0 
L 909 3500 
z
" transform="scale(0.015625)"/>
       <path id="DejaVuSans-Oblique-64" d="M 2675 525 
Q 2444 222 2128 65 
Q 1813 -91 1428 -91 
Q 903 -91 598 267 
Q 294 625 294 1247 
Q 294 1766 478 2236 
Q 663 2706 1013 3078 
Q 1244 3325 1534 3454 
Q 1825 3584 2144 3584 
Q 2481 3584 2739 3421 
Q 2997 3259 3138 2956 
L 3513 4863 
L 4091 4863 
L 3144 0 
L 2566 0 
L 2675 525 
z
M 891 1350 
Q 891 897 1095 644 
Q 1300 391 1663 391 
Q 1931 391 2161 520 
Q 2391 650 2566 903 
Q 2750 1166 2856 1509 
Q 2963 1853 2963 2188 
Q 2963 2622 2758 2865 
Q 2553 3109 2194 3109 
Q 1922 3109 1687 2981 
Q 1453 2853 1288 2613 
Q 1106 2353 998 2009 
Q 891 1666 891 1350 
z
" transform="scale(0.015625)"/>
      </defs>
      <use xlink:href="#DejaVuSans-Oblique-50" transform="translate(0 0.09375)"/>
      <use xlink:href="#DejaVuSans-Oblique-47" transform="translate(60.302734 -16.3125) scale(0.7)"/>
      <use xlink:href="#DejaVuSans-Oblique-72" transform="translate(114.545898 -16.3125) scale(0.7)"/>
      <use xlink:href="#DejaVuSans-Oblique-69" transform="translate(143.325195 -16.3125) scale(0.7)"/>
      <use xlink:href="#DejaVuSans-Oblique-64" transform="translate(162.773438 -16.3125) scale(0.7)"/>
     </g>
    </g>
    <g id="patch_131">
     <path d="M 169.774 128.916313 
L 189.774 128.916313 
L 189.774 121.916313 
L 169.774 121.916313 
z
" style="fill: #0173b2"/>
    </g>
    <g id="text_16">
     <!-- $P_{rev1}$ -->
     <g transform="translate(197.774 128.916313) scale(0.1 -0.1)">
      <defs>
       <path id="DejaVuSans-Oblique-65" d="M 3078 2063 
Q 3088 2113 3092 2166 
Q 3097 2219 3097 2272 
Q 3097 2653 2873 2875 
Q 2650 3097 2266 3097 
Q 1838 3097 1509 2826 
Q 1181 2556 1013 2059 
L 3078 2063 
z
M 3578 1613 
L 903 1613 
Q 884 1494 878 1425 
Q 872 1356 872 1306 
Q 872 872 1139 634 
Q 1406 397 1894 397 
Q 2269 397 2603 481 
Q 2938 566 3225 728 
L 3116 159 
Q 2806 34 2476 -28 
Q 2147 -91 1806 -91 
Q 1078 -91 686 257 
Q 294 606 294 1247 
Q 294 1794 489 2264 
Q 684 2734 1063 3103 
Q 1306 3334 1642 3459 
Q 1978 3584 2356 3584 
Q 2950 3584 3301 3228 
Q 3653 2872 3653 2272 
Q 3653 2128 3634 1964 
Q 3616 1800 3578 1613 
z
" transform="scale(0.015625)"/>
       <path id="DejaVuSans-Oblique-76" d="M 459 3500 
L 1069 3500 
L 1581 525 
L 3256 3500 
L 3866 3500 
L 1875 0 
L 1100 0 
L 459 3500 
z
" transform="scale(0.015625)"/>
      </defs>
      <use xlink:href="#DejaVuSans-Oblique-50" transform="translate(0 0.09375)"/>
      <use xlink:href="#DejaVuSans-Oblique-72" transform="translate(60.302734 -16.3125) scale(0.7)"/>
      <use xlink:href="#DejaVuSans-Oblique-65" transform="translate(89.082031 -16.3125) scale(0.7)"/>
      <use xlink:href="#DejaVuSans-Oblique-76" transform="translate(132.148438 -16.3125) scale(0.7)"/>
      <use xlink:href="#DejaVuSans-31" transform="translate(173.574219 -16.3125) scale(0.7)"/>
     </g>
    </g>
   </g>
  </g>
  <g id="axes_2">
   <g id="PolyCollection_1"/>
   <g id="PolyCollection_2"/>
   <g id="matplotlib.axis_3">
    <g id="ytick_6">
     <g id="line2d_31">
      <defs>
       <path id="m3510c71591" d="M 0 0 
L 3.5 0 
" style="stroke: #000000; stroke-width: 0.8"/>
      </defs>
      <g>
       <use xlink:href="#m3510c71591" x="195.84" y="73.081412" style="stroke: #000000; stroke-width: 0.8"/>
      </g>
     </g>
     <g id="text_17">
      <!-- 100 -->
      <g transform="translate(202.84 76.880631) scale(0.1 -0.1)">
       <use xlink:href="#DejaVuSans-31"/>
       <use xlink:href="#DejaVuSans-30" x="63.623047"/>
       <use xlink:href="#DejaVuSans-30" x="127.246094"/>
      </g>
     </g>
    </g>
    <g id="ytick_7">
     <g id="line2d_32">
      <g>
       <use xlink:href="#m3510c71591" x="195.84" y="38.916706" style="stroke: #000000; stroke-width: 0.8"/>
      </g>
     </g>
     <g id="text_18">
      <!-- 200 -->
      <g transform="translate(202.84 42.715925) scale(0.1 -0.1)">
       <use xlink:href="#DejaVuSans-32"/>
       <use xlink:href="#DejaVuSans-30" x="63.623047"/>
       <use xlink:href="#DejaVuSans-30" x="127.246094"/>
      </g>
     </g>
    </g>
    <g id="ytick_8">
     <g id="line2d_33">
      <g>
       <use xlink:href="#m3510c71591" x="195.84" y="4.752" style="stroke: #000000; stroke-width: 0.8"/>
      </g>
     </g>
     <g id="text_19">
      <!-- 300 -->
      <g transform="translate(202.84 8.551219) scale(0.1 -0.1)">
       <use xlink:href="#DejaVuSans-33"/>
       <use xlink:href="#DejaVuSans-30" x="63.623047"/>
       <use xlink:href="#DejaVuSans-30" x="127.246094"/>
      </g>
     </g>
    </g>
    <g id="text_20">
     <!-- Price (€/MWh) -->
     <g transform="translate(233.525937 83.292469) rotate(-90) scale(0.1 -0.1)">
      <defs>
       <path id="DejaVuSans-72" d="M 2631 2963 
Q 2534 3019 2420 3045 
Q 2306 3072 2169 3072 
Q 1681 3072 1420 2755 
Q 1159 2438 1159 1844 
L 1159 0 
L 581 0 
L 581 3500 
L 1159 3500 
L 1159 2956 
Q 1341 3275 1631 3429 
Q 1922 3584 2338 3584 
Q 2397 3584 2469 3576 
Q 2541 3569 2628 3553 
L 2631 2963 
z
" transform="scale(0.015625)"/>
       <path id="DejaVuSans-69" d="M 603 3500 
L 1178 3500 
L 1178 0 
L 603 0 
L 603 3500 
z
M 603 4863 
L 1178 4863 
L 1178 4134 
L 603 4134 
L 603 4863 
z
" transform="scale(0.015625)"/>
       <path id="DejaVuSans-63" d="M 3122 3366 
L 3122 2828 
Q 2878 2963 2633 3030 
Q 2388 3097 2138 3097 
Q 1578 3097 1268 2742 
Q 959 2388 959 1747 
Q 959 1106 1268 751 
Q 1578 397 2138 397 
Q 2388 397 2633 464 
Q 2878 531 3122 666 
L 3122 134 
Q 2881 22 2623 -34 
Q 2366 -91 2075 -91 
Q 1284 -91 818 406 
Q 353 903 353 1747 
Q 353 2603 823 3093 
Q 1294 3584 2113 3584 
Q 2378 3584 2631 3529 
Q 2884 3475 3122 3366 
z
" transform="scale(0.015625)"/>
       <path id="DejaVuSans-65" d="M 3597 1894 
L 3597 1613 
L 953 1613 
Q 991 1019 1311 708 
Q 1631 397 2203 397 
Q 2534 397 2845 478 
Q 3156 559 3463 722 
L 3463 178 
Q 3153 47 2828 -22 
Q 2503 -91 2169 -91 
Q 1331 -91 842 396 
Q 353 884 353 1716 
Q 353 2575 817 3079 
Q 1281 3584 2069 3584 
Q 2775 3584 3186 3129 
Q 3597 2675 3597 1894 
z
M 3022 2063 
Q 3016 2534 2758 2815 
Q 2500 3097 2075 3097 
Q 1594 3097 1305 2825 
Q 1016 2553 972 2059 
L 3022 2063 
z
" transform="scale(0.015625)"/>
       <path id="DejaVuSans-20" transform="scale(0.015625)"/>
       <path id="DejaVuSans-20ac" d="M 3647 4306 
L 3647 3641 
Q 3363 3969 3098 4109 
Q 2834 4250 2516 4250 
Q 2025 4250 1709 3937 
Q 1394 3625 1294 3041 
L 3097 3041 
L 2925 2656 
L 1244 2656 
Q 1238 2581 1236 2509 
Q 1234 2438 1234 2328 
Q 1234 2228 1236 2156 
Q 1238 2084 1244 2009 
L 2638 2009 
L 2463 1625 
L 1294 1625 
Q 1394 1041 1709 725 
Q 2025 409 2516 409 
Q 2834 409 3098 550 
Q 3363 691 3647 1019 
L 3647 359 
Q 3369 134 3080 21 
Q 2791 -91 2491 -91 
Q 1750 -91 1267 362 
Q 784 816 659 1625 
L 0 1625 
L 172 2009 
L 606 2009 
Q 606 2081 604 2154 
Q 603 2228 603 2328 
Q 603 2438 604 2511 
Q 606 2584 606 2656 
L 0 2656 
L 172 3041 
L 659 3041 
Q 784 3844 1268 4297 
Q 1753 4750 2491 4750 
Q 2797 4750 3086 4639 
Q 3375 4528 3647 4306 
z
" transform="scale(0.015625)"/>
       <path id="DejaVuSans-2f" d="M 1625 4666 
L 2156 4666 
L 531 -594 
L 0 -594 
L 1625 4666 
z
" transform="scale(0.015625)"/>
       <path id="DejaVuSans-4d" d="M 628 4666 
L 1569 4666 
L 2759 1491 
L 3956 4666 
L 4897 4666 
L 4897 0 
L 4281 0 
L 4281 4097 
L 3078 897 
L 2444 897 
L 1241 4097 
L 1241 0 
L 628 0 
L 628 4666 
z
" transform="scale(0.015625)"/>
       <path id="DejaVuSans-68" d="M 3513 2113 
L 3513 0 
L 2938 0 
L 2938 2094 
Q 2938 2591 2744 2837 
Q 2550 3084 2163 3084 
Q 1697 3084 1428 2787 
Q 1159 2491 1159 1978 
L 1159 0 
L 581 0 
L 581 4863 
L 1159 4863 
L 1159 2956 
Q 1366 3272 1645 3428 
Q 1925 3584 2291 3584 
Q 2894 3584 3203 3211 
Q 3513 2838 3513 2113 
z
" transform="scale(0.015625)"/>
      </defs>
      <use xlink:href="#DejaVuSans-50"/>
      <use xlink:href="#DejaVuSans-72" x="58.552734"/>
      <use xlink:href="#DejaVuSans-69" x="99.666016"/>
      <use xlink:href="#DejaVuSans-63" x="127.449219"/>
      <use xlink:href="#DejaVuSans-65" x="182.429688"/>
      <use xlink:href="#DejaVuSans-20" x="243.953125"/>
      <use xlink:href="#DejaVuSans-28" x="275.740234"/>
      <use xlink:href="#DejaVuSans-20ac" x="314.753906"/>
      <use xlink:href="#DejaVuSans-2f" x="378.376953"/>
      <use xlink:href="#DejaVuSans-4d" x="412.068359"/>
      <use xlink:href="#DejaVuSans-57" x="498.347656"/>
      <use xlink:href="#DejaVuSans-68" x="597.224609"/>
      <use xlink:href="#DejaVuSans-29" x="660.603516"/>
     </g>
    </g>
   </g>
   <g id="line2d_34">
    <path d="M 54.417 61.475364 
L 60.435 62.030021 
L 66.453 62.778673 
L 72.471 61.308254 
L 78.489 57.469775 
L 84.507 55.152071 
L 90.525 46.763893 
L 96.543 52.207816 
L 102.561 41.952017 
L 108.579 44.829577 
L 114.597 45.401019 
L 120.615 45.961617 
L 126.633 61.884746 
L 132.651 62.935831 
L 138.669 62.269471 
L 144.687 59.185883 
L 150.705 39.875397 
L 156.723 32.614209 
L 162.741 27.464994 
L 168.759 25.284097 
L 174.777 42.847875 
L 180.795 45.730782 
L 186.813 56.158296 
L 192.831 57.906192 
" clip-path="url(#pced88328c7)" style="fill: none; stroke: #d62728; stroke-width: 1.5; stroke-linecap: square"/>
   </g>
   <g id="line2d_35">
    <path d="M 54.417 73.760844 
L 60.435 74.425125 
L 66.453 75.151347 
L 72.471 73.6787 
L 78.489 69.905877 
L 84.507 67.705075 
L 90.525 67.394474 
L 96.543 72.173076 
L 102.561 76.62756 
L 108.579 78.809348 
L 114.597 79.36133 
L 120.615 79.781111 
L 126.633 80.759707 
L 132.651 81.799056 
L 138.669 81.3004 
L 144.687 78.76122 
L 150.705 75.420654 
L 156.723 68.868458 
L 162.741 64.375205 
L 168.759 62.669495 
L 174.777 65.156834 
L 180.795 67.757659 
L 186.813 68.501707 
L 192.831 70.244404 
" clip-path="url(#pced88328c7)" style="fill: none; stroke-dasharray: 5.55,2.4; stroke-dashoffset: 0; stroke: #d62728; stroke-width: 1.5"/>
   </g>
   <g id="patch_132">
    <path d="M 51.408 91.872 
L 51.408 4.752 
" style="fill: none; stroke: #000000; stroke-width: 0.8; stroke-linejoin: miter; stroke-linecap: square"/>
   </g>
   <g id="patch_133">
    <path d="M 195.84 91.872 
L 195.84 4.752 
" style="fill: none; stroke: #000000; stroke-width: 0.8; stroke-linejoin: miter; stroke-linecap: square"/>
   </g>
   <g id="patch_134">
    <path d="M 51.408 91.872 
L 195.84 91.872 
" style="fill: none; stroke: #000000; stroke-width: 0.8; stroke-linejoin: miter; stroke-linecap: square"/>
   </g>
   <g id="text_21">
    <!-- Time (h) -->
    <g transform="translate(201.858 107.211953) scale(0.1 -0.1)">
     <defs>
      <path id="DejaVuSans-54" d="M -19 4666 
L 3928 4666 
L 3928 4134 
L 2272 4134 
L 2272 0 
L 1638 0 
L 1638 4134 
L -19 4134 
L -19 4666 
z
" transform="scale(0.015625)"/>
      <path id="DejaVuSans-6d" d="M 3328 2828 
Q 3544 3216 3844 3400 
Q 4144 3584 4550 3584 
Q 5097 3584 5394 3201 
Q 5691 2819 5691 2113 
L 5691 0 
L 5113 0 
L 5113 2094 
Q 5113 2597 4934 2840 
Q 4756 3084 4391 3084 
Q 3944 3084 3684 2787 
Q 3425 2491 3425 1978 
L 3425 0 
L 2847 0 
L 2847 2094 
Q 2847 2600 2669 2842 
Q 2491 3084 2119 3084 
Q 1678 3084 1418 2786 
Q 1159 2488 1159 1978 
L 1159 0 
L 581 0 
L 581 3500 
L 1159 3500 
L 1159 2956 
Q 1356 3278 1631 3431 
Q 1906 3584 2284 3584 
Q 2666 3584 2933 3390 
Q 3200 3197 3328 2828 
z
" transform="scale(0.015625)"/>
     </defs>
     <use xlink:href="#DejaVuSans-54"/>
     <use xlink:href="#DejaVuSans-69" x="57.958984"/>
     <use xlink:href="#DejaVuSans-6d" x="85.742188"/>
     <use xlink:href="#DejaVuSans-65" x="183.154297"/>
     <use xlink:href="#DejaVuSans-20" x="244.677734"/>
     <use xlink:href="#DejaVuSans-28" x="276.464844"/>
     <use xlink:href="#DejaVuSans-68" x="315.478516"/>
     <use xlink:href="#DejaVuSans-29" x="378.857422"/>
    </g>
   </g>
  </g>
 </g>
 <defs>
  <clipPath id="pced88328c7">
   <rect x="51.408" y="4.752" width="144.432" height="87.12"/>
  </clipPath>
 </defs>
</svg>
