<?xml version="1.0" encoding="utf-8" standalone="no"?>
<!DOCTYPE svg PUBLIC "-//W3C//DTD SVG 1.1//EN"
  "http://www.w3.org/Graphics/SVG/1.1/DTD/svg11.dtd">
<svg xmlns:xlink="http://www.w3.org/1999/xlink" width="244.8pt" height="129.6pt" viewBox="0 0 244.8 129.6" xmlns="http://www.w3.org/2000/svg" version="1.1">
 <metadata>
  <rdf:RDF xmlns:dc="http://purl.org/dc/elements/1.1/" xmlns:cc="http://creativecommons.org/ns#" xmlns:rdf="http://www.w3.org/1999/02/22-rdf-syntax-ns#">
   <cc:Work>
    <dc:type rdf:resource="http://purl.org/dc/dcmitype/StillImage"/>
    <dc:date>2024-10-17T15:31:16.109309</dc:date>
    <dc:format>image/svg+xml</dc:format>
    <dc:creator>
     <cc:Agent>
      <dc:title>Matplotlib v3.9.1, https://matplotlib.org/</dc:title>
     </cc:Agent>
    </dc:creator>
   </cc:Work>
  </rdf:RDF>
 </metadata>
 <defs>
  <style type="text/css">*{stroke-linejoin: round; stroke-linecap: butt}</style>
 </defs>
 <g id="figure_1">
  <g id="patch_1">
   <path d="M 0 129.6 
L 244.8 129.6 
L 244.8 0 
L 0 0 
z
" style="fill: #ffffff"/>
  </g>
  <g id="axes_1">
   <g id="patch_2">
    <path d="M 41.616 90.72 
L 200.736 90.72 
L 200.736 3.888 
L 41.616 3.888 
z
" style="fill: #ffffff"/>
   </g>
   <g id="patch_3">
    <path d="M 43.2735 47.304 
L 46.5885 47.304 
L 46.5885 47.304 
L 43.2735 47.304 
z
" clip-path="url(#pb635945b00)" style="fill: #c0e3c0"/>
   </g>
   <g id="patch_4">
    <path d="M 49.9035 47.304 
L 53.2185 47.304 
L 53.2185 47.304 
L 49.9035 47.304 
z
" clip-path="url(#pb635945b00)" style="fill: #c0e3c0"/>
   </g>
   <g id="patch_5">
    <path d="M 56.5335 47.304 
L 59.8485 47.304 
L 59.8485 47.304 
L 56.5335 47.304 
z
" clip-path="url(#pb635945b00)" style="fill: #c0e3c0"/>
   </g>
   <g id="patch_6">
    <path d="M 63.1635 47.304 
L 66.4785 47.304 
L 66.4785 47.304 
L 63.1635 47.304 
z
" clip-path="url(#pb635945b00)" style="fill: #c0e3c0"/>
   </g>
   <g id="patch_7">
    <path d="M 69.7935 47.304 
L 73.1085 47.304 
L 73.1085 47.304 
L 69.7935 47.304 
z
" clip-path="url(#pb635945b00)" style="fill: #c0e3c0"/>
   </g>
   <g id="patch_8">
    <path d="M 76.4235 47.304 
L 79.7385 47.304 
L 79.7385 47.304 
L 76.4235 47.304 
z
" clip-path="url(#pb635945b00)" style="fill: #c0e3c0"/>
   </g>
   <g id="patch_9">
    <path d="M 83.0535 47.304 
L 86.3685 47.304 
L 86.3685 47.304 
L 83.0535 47.304 
z
" clip-path="url(#pb635945b00)" style="fill: #c0e3c0"/>
   </g>
   <g id="patch_10">
    <path d="M 89.6835 47.304 
L 92.9985 47.304 
L 92.9985 50.728422 
L 89.6835 50.728422 
z
" clip-path="url(#pb635945b00)" style="fill: #c0e3c0"/>
   </g>
   <g id="patch_11">
    <path d="M 96.3135 47.304 
L 99.6285 47.304 
L 99.6285 58.105954 
L 96.3135 58.105954 
z
" clip-path="url(#pb635945b00)" style="fill: #c0e3c0"/>
   </g>
   <g id="patch_12">
    <path d="M 102.9435 47.304 
L 106.2585 47.304 
L 106.2585 64.922052 
L 102.9435 64.922052 
z
" clip-path="url(#pb635945b00)" style="fill: #c0e3c0"/>
   </g>
   <g id="patch_13">
    <path d="M 109.5735 47.304 
L 112.8885 47.304 
L 112.8885 70.831216 
L 109.5735 70.831216 
z
" clip-path="url(#pb635945b00)" style="fill: #c0e3c0"/>
   </g>
   <g id="patch_14">
    <path d="M 116.2035 47.304 
L 119.5185 47.304 
L 119.5185 75.29662 
L 116.2035 75.29662 
z
" clip-path="url(#pb635945b00)" style="fill: #c0e3c0"/>
   </g>
   <g id="patch_15">
    <path d="M 122.8335 47.304 
L 126.1485 47.304 
L 126.1485 77.00142 
L 122.8335 77.00142 
z
" clip-path="url(#pb635945b00)" style="fill: #c0e3c0"/>
   </g>
   <g id="patch_16">
    <path d="M 129.4635 47.304 
L 132.7785 47.304 
L 132.7785 75.006348 
L 129.4635 75.006348 
z
" clip-path="url(#pb635945b00)" style="fill: #c0e3c0"/>
   </g>
   <g id="patch_17">
    <path d="M 136.0935 47.304 
L 139.4085 47.304 
L 139.4085 70.096743 
L 136.0935 70.096743 
z
" clip-path="url(#pb635945b00)" style="fill: #c0e3c0"/>
   </g>
   <g id="patch_18">
    <path d="M 142.7235 47.304 
L 146.0385 47.304 
L 146.0385 62.233801 
L 142.7235 62.233801 
z
" clip-path="url(#pb635945b00)" style="fill: #c0e3c0"/>
   </g>
   <g id="patch_19">
    <path d="M 149.3535 47.304 
L 152.6685 47.304 
L 152.6685 52.718035 
L 149.3535 52.718035 
z
" clip-path="url(#pb635945b00)" style="fill: #c0e3c0"/>
   </g>
   <g id="patch_20">
    <path d="M 155.9835 47.304 
L 159.2985 47.304 
L 159.2985 47.304 
L 155.9835 47.304 
z
" clip-path="url(#pb635945b00)" style="fill: #c0e3c0"/>
   </g>
   <g id="patch_21">
    <path d="M 162.6135 47.304 
L 165.9285 47.304 
L 165.9285 47.304 
L 162.6135 47.304 
z
" clip-path="url(#pb635945b00)" style="fill: #c0e3c0"/>
   </g>
   <g id="patch_22">
    <path d="M 169.2435 47.304 
L 172.5585 47.304 
L 172.5585 47.304 
L 169.2435 47.304 
z
" clip-path="url(#pb635945b00)" style="fill: #c0e3c0"/>
   </g>
   <g id="patch_23">
    <path d="M 175.8735 47.304 
L 179.1885 47.304 
L 179.1885 47.304 
L 175.8735 47.304 
z
" clip-path="url(#pb635945b00)" style="fill: #c0e3c0"/>
   </g>
   <g id="patch_24">
    <path d="M 182.5035 47.304 
L 185.8185 47.304 
L 185.8185 47.304 
L 182.5035 47.304 
z
" clip-path="url(#pb635945b00)" style="fill: #c0e3c0"/>
   </g>
   <g id="patch_25">
    <path d="M 189.1335 47.304 
L 192.4485 47.304 
L 192.4485 47.304 
L 189.1335 47.304 
z
" clip-path="url(#pb635945b00)" style="fill: #c0e3c0"/>
   </g>
   <g id="patch_26">
    <path d="M 195.7635 47.304 
L 199.0785 47.304 
L 199.0785 47.304 
L 195.7635 47.304 
z
" clip-path="url(#pb635945b00)" style="fill: #c0e3c0"/>
   </g>
   <g id="patch_27">
    <path d="M 43.2735 47.304 
L 46.5885 47.304 
L 46.5885 47.304 
L 43.2735 47.304 
z
" clip-path="url(#pb635945b00)" style="fill: #029e73"/>
   </g>
   <g id="patch_28">
    <path d="M 49.9035 47.304 
L 53.2185 47.304 
L 53.2185 47.304 
L 49.9035 47.304 
z
" clip-path="url(#pb635945b00)" style="fill: #029e73"/>
   </g>
   <g id="patch_29">
    <path d="M 56.5335 47.304 
L 59.8485 47.304 
L 59.8485 47.304 
L 56.5335 47.304 
z
" clip-path="url(#pb635945b00)" style="fill: #029e73"/>
   </g>
   <g id="patch_30">
    <path d="M 63.1635 47.304 
L 66.4785 47.304 
L 66.4785 47.304 
L 63.1635 47.304 
z
" clip-path="url(#pb635945b00)" style="fill: #029e73"/>
   </g>
   <g id="patch_31">
    <path d="M 69.7935 47.304 
L 73.1085 47.304 
L 73.1085 47.304 
L 69.7935 47.304 
z
" clip-path="url(#pb635945b00)" style="fill: #029e73"/>
   </g>
   <g id="patch_32">
    <path d="M 76.4235 47.304 
L 79.7385 47.304 
L 79.7385 47.304 
L 76.4235 47.304 
z
" clip-path="url(#pb635945b00)" style="fill: #029e73"/>
   </g>
   <g id="patch_33">
    <path d="M 83.0535 47.304 
L 86.3685 47.304 
L 86.3685 47.304 
L 83.0535 47.304 
z
" clip-path="url(#pb635945b00)" style="fill: #029e73"/>
   </g>
   <g id="patch_34">
    <path d="M 89.6835 47.304 
L 92.9985 47.304 
L 92.9985 51.058011 
L 89.6835 51.058011 
z
" clip-path="url(#pb635945b00)" style="fill: #029e73"/>
   </g>
   <g id="patch_35">
    <path d="M 96.3135 47.304 
L 99.6285 47.304 
L 99.6285 59.145607 
L 96.3135 59.145607 
z
" clip-path="url(#pb635945b00)" style="fill: #029e73"/>
   </g>
   <g id="patch_36">
    <path d="M 102.9435 47.304 
L 106.2585 47.304 
L 106.2585 66.617733 
L 102.9435 66.617733 
z
" clip-path="url(#pb635945b00)" style="fill: #029e73"/>
   </g>
   <g id="patch_37">
    <path d="M 109.5735 47.304 
L 112.8885 47.304 
L 112.8885 73.095634 
L 109.5735 73.095634 
z
" clip-path="url(#pb635945b00)" style="fill: #029e73"/>
   </g>
   <g id="patch_38">
    <path d="M 116.2035 47.304 
L 119.5185 47.304 
L 119.5185 77.990818 
L 116.2035 77.990818 
z
" clip-path="url(#pb635945b00)" style="fill: #029e73"/>
   </g>
   <g id="patch_39">
    <path d="M 122.8335 47.304 
L 126.1485 47.304 
L 126.1485 79.859701 
L 122.8335 79.859701 
z
" clip-path="url(#pb635945b00)" style="fill: #029e73"/>
   </g>
   <g id="patch_40">
    <path d="M 129.4635 47.304 
L 132.7785 47.304 
L 132.7785 77.672609 
L 129.4635 77.672609 
z
" clip-path="url(#pb635945b00)" style="fill: #029e73"/>
   </g>
   <g id="patch_41">
    <path d="M 136.0935 47.304 
L 139.4085 47.304 
L 139.4085 72.29047 
L 136.0935 72.29047 
z
" clip-path="url(#pb635945b00)" style="fill: #029e73"/>
   </g>
   <g id="patch_42">
    <path d="M 142.7235 47.304 
L 146.0385 47.304 
L 146.0385 63.670745 
L 142.7235 63.670745 
z
" clip-path="url(#pb635945b00)" style="fill: #029e73"/>
   </g>
   <g id="patch_43">
    <path d="M 149.3535 47.304 
L 152.6685 47.304 
L 152.6685 53.239118 
L 149.3535 53.239118 
z
" clip-path="url(#pb635945b00)" style="fill: #029e73"/>
   </g>
   <g id="patch_44">
    <path d="M 155.9835 47.304 
L 159.2985 47.304 
L 159.2985 47.304 
L 155.9835 47.304 
z
" clip-path="url(#pb635945b00)" style="fill: #029e73"/>
   </g>
   <g id="patch_45">
    <path d="M 162.6135 47.304 
L 165.9285 47.304 
L 165.9285 47.304 
L 162.6135 47.304 
z
" clip-path="url(#pb635945b00)" style="fill: #029e73"/>
   </g>
   <g id="patch_46">
    <path d="M 169.2435 47.304 
L 172.5585 47.304 
L 172.5585 47.304 
L 169.2435 47.304 
z
" clip-path="url(#pb635945b00)" style="fill: #029e73"/>
   </g>
   <g id="patch_47">
    <path d="M 175.8735 47.304 
L 179.1885 47.304 
L 179.1885 47.304 
L 175.8735 47.304 
z
" clip-path="url(#pb635945b00)" style="fill: #029e73"/>
   </g>
   <g id="patch_48">
    <path d="M 182.5035 47.304 
L 185.8185 47.304 
L 185.8185 47.304 
L 182.5035 47.304 
z
" clip-path="url(#pb635945b00)" style="fill: #029e73"/>
   </g>
   <g id="patch_49">
    <path d="M 189.1335 47.304 
L 192.4485 47.304 
L 192.4485 47.304 
L 189.1335 47.304 
z
" clip-path="url(#pb635945b00)" style="fill: #029e73"/>
   </g>
   <g id="patch_50">
    <path d="M 195.7635 47.304 
L 199.0785 47.304 
L 199.0785 47.304 
L 195.7635 47.304 
z
" clip-path="url(#pb635945b00)" style="fill: #029e73"/>
   </g>
   <g id="patch_51">
    <path d="M 43.2735 47.304 
L 46.5885 47.304 
L 46.5885 47.304 
L 43.2735 47.304 
z
" clip-path="url(#pb635945b00)" style="fill: #d55e00"/>
   </g>
   <g id="patch_52">
    <path d="M 49.9035 47.304 
L 53.2185 47.304 
L 53.2185 47.304 
L 49.9035 47.304 
z
" clip-path="url(#pb635945b00)" style="fill: #d55e00"/>
   </g>
   <g id="patch_53">
    <path d="M 56.5335 47.304 
L 59.8485 47.304 
L 59.8485 47.304 
L 56.5335 47.304 
z
" clip-path="url(#pb635945b00)" style="fill: #d55e00"/>
   </g>
   <g id="patch_54">
    <path d="M 63.1635 47.304 
L 66.4785 47.304 
L 66.4785 47.304 
L 63.1635 47.304 
z
" clip-path="url(#pb635945b00)" style="fill: #d55e00"/>
   </g>
   <g id="patch_55">
    <path d="M 69.7935 47.304 
L 73.1085 47.304 
L 73.1085 47.304 
L 69.7935 47.304 
z
" clip-path="url(#pb635945b00)" style="fill: #d55e00"/>
   </g>
   <g id="patch_56">
    <path d="M 76.4235 47.304 
L 79.7385 47.304 
L 79.7385 47.304 
L 76.4235 47.304 
z
" clip-path="url(#pb635945b00)" style="fill: #d55e00"/>
   </g>
   <g id="patch_57">
    <path d="M 83.0535 47.304 
L 86.3685 47.304 
L 86.3685 47.304 
L 83.0535 47.304 
z
" clip-path="url(#pb635945b00)" style="fill: #d55e00"/>
   </g>
   <g id="patch_58">
    <path d="M 89.6835 51.058011 
L 92.9985 51.058011 
L 92.9985 51.058011 
L 89.6835 51.058011 
z
" clip-path="url(#pb635945b00)" style="fill: #d55e00"/>
   </g>
   <g id="patch_59">
    <path d="M 96.3135 59.145607 
L 99.6285 59.145607 
L 99.6285 59.145607 
L 96.3135 59.145607 
z
" clip-path="url(#pb635945b00)" style="fill: #d55e00"/>
   </g>
   <g id="patch_60">
    <path d="M 102.9435 66.617733 
L 106.2585 66.617733 
L 106.2585 66.617733 
L 102.9435 66.617733 
z
" clip-path="url(#pb635945b00)" style="fill: #d55e00"/>
   </g>
   <g id="patch_61">
    <path d="M 109.5735 73.095634 
L 112.8885 73.095634 
L 112.8885 73.095634 
L 109.5735 73.095634 
z
" clip-path="url(#pb635945b00)" style="fill: #d55e00"/>
   </g>
   <g id="patch_62">
    <path d="M 116.2035 77.990818 
L 119.5185 77.990818 
L 119.5185 77.990818 
L 116.2035 77.990818 
z
" clip-path="url(#pb635945b00)" style="fill: #d55e00"/>
   </g>
   <g id="patch_63">
    <path d="M 122.8335 79.859701 
L 126.1485 79.859701 
L 126.1485 79.859701 
L 122.8335 79.859701 
z
" clip-path="url(#pb635945b00)" style="fill: #d55e00"/>
   </g>
   <g id="patch_64">
    <path d="M 129.4635 77.672609 
L 132.7785 77.672609 
L 132.7785 77.672609 
L 129.4635 77.672609 
z
" clip-path="url(#pb635945b00)" style="fill: #d55e00"/>
   </g>
   <g id="patch_65">
    <path d="M 136.0935 72.29047 
L 139.4085 72.29047 
L 139.4085 72.29047 
L 136.0935 72.29047 
z
" clip-path="url(#pb635945b00)" style="fill: #d55e00"/>
   </g>
   <g id="patch_66">
    <path d="M 142.7235 63.670745 
L 146.0385 63.670745 
L 146.0385 63.670745 
L 142.7235 63.670745 
z
" clip-path="url(#pb635945b00)" style="fill: #d55e00"/>
   </g>
   <g id="patch_67">
    <path d="M 149.3535 53.239118 
L 152.6685 53.239118 
L 152.6685 53.239118 
L 149.3535 53.239118 
z
" clip-path="url(#pb635945b00)" style="fill: #d55e00"/>
   </g>
   <g id="patch_68">
    <path d="M 155.9835 47.304 
L 159.2985 47.304 
L 159.2985 47.304 
L 155.9835 47.304 
z
" clip-path="url(#pb635945b00)" style="fill: #d55e00"/>
   </g>
   <g id="patch_69">
    <path d="M 162.6135 47.304 
L 165.9285 47.304 
L 165.9285 47.304 
L 162.6135 47.304 
z
" clip-path="url(#pb635945b00)" style="fill: #d55e00"/>
   </g>
   <g id="patch_70">
    <path d="M 169.2435 47.304 
L 172.5585 47.304 
L 172.5585 47.304 
L 169.2435 47.304 
z
" clip-path="url(#pb635945b00)" style="fill: #d55e00"/>
   </g>
   <g id="patch_71">
    <path d="M 175.8735 47.304 
L 179.1885 47.304 
L 179.1885 47.304 
L 175.8735 47.304 
z
" clip-path="url(#pb635945b00)" style="fill: #d55e00"/>
   </g>
   <g id="patch_72">
    <path d="M 182.5035 47.304 
L 185.8185 47.304 
L 185.8185 47.304 
L 182.5035 47.304 
z
" clip-path="url(#pb635945b00)" style="fill: #d55e00"/>
   </g>
   <g id="patch_73">
    <path d="M 189.1335 47.304 
L 192.4485 47.304 
L 192.4485 47.304 
L 189.1335 47.304 
z
" clip-path="url(#pb635945b00)" style="fill: #d55e00"/>
   </g>
   <g id="patch_74">
    <path d="M 195.7635 47.304 
L 199.0785 47.304 
L 199.0785 47.304 
L 195.7635 47.304 
z
" clip-path="url(#pb635945b00)" style="fill: #d55e00"/>
   </g>
   <g id="patch_75">
    <path d="M 43.2735 47.304 
L 46.5885 47.304 
L 46.5885 47.304 
L 43.2735 47.304 
z
" clip-path="url(#pb635945b00)" style="fill: #0173b2"/>
   </g>
   <g id="patch_76">
    <path d="M 49.9035 47.304 
L 53.2185 47.304 
L 53.2185 47.304 
L 49.9035 47.304 
z
" clip-path="url(#pb635945b00)" style="fill: #0173b2"/>
   </g>
   <g id="patch_77">
    <path d="M 56.5335 47.304 
L 59.8485 47.304 
L 59.8485 47.304 
L 56.5335 47.304 
z
" clip-path="url(#pb635945b00)" style="fill: #0173b2"/>
   </g>
   <g id="patch_78">
    <path d="M 63.1635 47.304 
L 66.4785 47.304 
L 66.4785 47.304 
L 63.1635 47.304 
z
" clip-path="url(#pb635945b00)" style="fill: #0173b2"/>
   </g>
   <g id="patch_79">
    <path d="M 69.7935 47.304 
L 73.1085 47.304 
L 73.1085 47.304 
L 69.7935 47.304 
z
" clip-path="url(#pb635945b00)" style="fill: #0173b2"/>
   </g>
   <g id="patch_80">
    <path d="M 76.4235 47.304 
L 79.7385 47.304 
L 79.7385 47.304 
L 76.4235 47.304 
z
" clip-path="url(#pb635945b00)" style="fill: #0173b2"/>
   </g>
   <g id="patch_81">
    <path d="M 83.0535 47.304 
L 86.3685 47.304 
L 86.3685 47.304 
L 83.0535 47.304 
z
" clip-path="url(#pb635945b00)" style="fill: #0173b2"/>
   </g>
   <g id="patch_82">
    <path d="M 89.6835 47.304 
L 92.9985 47.304 
L 92.9985 43.549989 
L 89.6835 43.549989 
z
" clip-path="url(#pb635945b00)" style="fill: #0173b2"/>
   </g>
   <g id="patch_83">
    <path d="M 96.3135 47.304 
L 99.6285 47.304 
L 99.6285 35.462393 
L 96.3135 35.462393 
z
" clip-path="url(#pb635945b00)" style="fill: #0173b2"/>
   </g>
   <g id="patch_84">
    <path d="M 102.9435 47.304 
L 106.2585 47.304 
L 106.2585 27.990267 
L 102.9435 27.990267 
z
" clip-path="url(#pb635945b00)" style="fill: #0173b2"/>
   </g>
   <g id="patch_85">
    <path d="M 109.5735 47.304 
L 112.8885 47.304 
L 112.8885 21.512366 
L 109.5735 21.512366 
z
" clip-path="url(#pb635945b00)" style="fill: #0173b2"/>
   </g>
   <g id="patch_86">
    <path d="M 116.2035 47.304 
L 119.5185 47.304 
L 119.5185 16.617182 
L 116.2035 16.617182 
z
" clip-path="url(#pb635945b00)" style="fill: #0173b2"/>
   </g>
   <g id="patch_87">
    <path d="M 122.8335 47.304 
L 126.1485 47.304 
L 126.1485 14.748299 
L 122.8335 14.748299 
z
" clip-path="url(#pb635945b00)" style="fill: #0173b2"/>
   </g>
   <g id="patch_88">
    <path d="M 129.4635 47.304 
L 132.7785 47.304 
L 132.7785 16.935391 
L 129.4635 16.935391 
z
" clip-path="url(#pb635945b00)" style="fill: #0173b2"/>
   </g>
   <g id="patch_89">
    <path d="M 136.0935 47.304 
L 139.4085 47.304 
L 139.4085 22.31753 
L 136.0935 22.31753 
z
" clip-path="url(#pb635945b00)" style="fill: #0173b2"/>
   </g>
   <g id="patch_90">
    <path d="M 142.7235 47.304 
L 146.0385 47.304 
L 146.0385 30.937255 
L 142.7235 30.937255 
z
" clip-path="url(#pb635945b00)" style="fill: #0173b2"/>
   </g>
   <g id="patch_91">
    <path d="M 149.3535 47.304 
L 152.6685 47.304 
L 152.6685 41.368882 
L 149.3535 41.368882 
z
" clip-path="url(#pb635945b00)" style="fill: #0173b2"/>
   </g>
   <g id="patch_92">
    <path d="M 155.9835 47.304 
L 159.2985 47.304 
L 159.2985 47.303997 
L 155.9835 47.303997 
z
" clip-path="url(#pb635945b00)" style="fill: #0173b2"/>
   </g>
   <g id="patch_93">
    <path d="M 162.6135 47.304 
L 165.9285 47.304 
L 165.9285 43.781831 
L 162.6135 43.781831 
z
" clip-path="url(#pb635945b00)" style="fill: #0173b2"/>
   </g>
   <g id="patch_94">
    <path d="M 169.2435 47.304 
L 172.5585 47.304 
L 172.5585 46.774262 
L 169.2435 46.774262 
z
" clip-path="url(#pb635945b00)" style="fill: #0173b2"/>
   </g>
   <g id="patch_95">
    <path d="M 175.8735 47.304 
L 179.1885 47.304 
L 179.1885 47.304 
L 175.8735 47.304 
z
" clip-path="url(#pb635945b00)" style="fill: #0173b2"/>
   </g>
   <g id="patch_96">
    <path d="M 182.5035 47.304 
L 185.8185 47.304 
L 185.8185 47.304 
L 182.5035 47.304 
z
" clip-path="url(#pb635945b00)" style="fill: #0173b2"/>
   </g>
   <g id="patch_97">
    <path d="M 189.1335 47.304 
L 192.4485 47.304 
L 192.4485 47.304 
L 189.1335 47.304 
z
" clip-path="url(#pb635945b00)" style="fill: #0173b2"/>
   </g>
   <g id="patch_98">
    <path d="M 195.7635 47.304 
L 199.0785 47.304 
L 199.0785 47.304 
L 195.7635 47.304 
z
" clip-path="url(#pb635945b00)" style="fill: #0173b2"/>
   </g>
   <g id="patch_99">
    <path d="M 43.2735 47.304 
L 46.5885 47.304 
L 46.5885 47.304 
L 43.2735 47.304 
z
" clip-path="url(#pb635945b00)" style="fill: #de8f05"/>
   </g>
   <g id="patch_100">
    <path d="M 49.9035 47.304 
L 53.2185 47.304 
L 53.2185 47.304 
L 49.9035 47.304 
z
" clip-path="url(#pb635945b00)" style="fill: #de8f05"/>
   </g>
   <g id="patch_101">
    <path d="M 56.5335 47.304 
L 59.8485 47.304 
L 59.8485 47.304 
L 56.5335 47.304 
z
" clip-path="url(#pb635945b00)" style="fill: #de8f05"/>
   </g>
   <g id="patch_102">
    <path d="M 63.1635 47.304 
L 66.4785 47.304 
L 66.4785 47.304 
L 63.1635 47.304 
z
" clip-path="url(#pb635945b00)" style="fill: #de8f05"/>
   </g>
   <g id="patch_103">
    <path d="M 69.7935 47.304 
L 73.1085 47.304 
L 73.1085 47.304 
L 69.7935 47.304 
z
" clip-path="url(#pb635945b00)" style="fill: #de8f05"/>
   </g>
   <g id="patch_104">
    <path d="M 76.4235 47.304 
L 79.7385 47.304 
L 79.7385 47.304 
L 76.4235 47.304 
z
" clip-path="url(#pb635945b00)" style="fill: #de8f05"/>
   </g>
   <g id="patch_105">
    <path d="M 83.0535 47.304 
L 86.3685 47.304 
L 86.3685 47.304 
L 83.0535 47.304 
z
" clip-path="url(#pb635945b00)" style="fill: #de8f05"/>
   </g>
   <g id="patch_106">
    <path d="M 89.6835 47.304 
L 92.9985 47.304 
L 92.9985 47.304 
L 89.6835 47.304 
z
" clip-path="url(#pb635945b00)" style="fill: #de8f05"/>
   </g>
   <g id="patch_107">
    <path d="M 96.3135 47.304 
L 99.6285 47.304 
L 99.6285 47.304 
L 96.3135 47.304 
z
" clip-path="url(#pb635945b00)" style="fill: #de8f05"/>
   </g>
   <g id="patch_108">
    <path d="M 102.9435 47.304 
L 106.2585 47.304 
L 106.2585 47.304 
L 102.9435 47.304 
z
" clip-path="url(#pb635945b00)" style="fill: #de8f05"/>
   </g>
   <g id="patch_109">
    <path d="M 109.5735 47.304 
L 112.8885 47.304 
L 112.8885 47.304 
L 109.5735 47.304 
z
" clip-path="url(#pb635945b00)" style="fill: #de8f05"/>
   </g>
   <g id="patch_110">
    <path d="M 116.2035 47.304 
L 119.5185 47.304 
L 119.5185 47.304 
L 116.2035 47.304 
z
" clip-path="url(#pb635945b00)" style="fill: #de8f05"/>
   </g>
   <g id="patch_111">
    <path d="M 122.8335 47.304 
L 126.1485 47.304 
L 126.1485 47.304 
L 122.8335 47.304 
z
" clip-path="url(#pb635945b00)" style="fill: #de8f05"/>
   </g>
   <g id="patch_112">
    <path d="M 129.4635 47.304 
L 132.7785 47.304 
L 132.7785 47.304 
L 129.4635 47.304 
z
" clip-path="url(#pb635945b00)" style="fill: #de8f05"/>
   </g>
   <g id="patch_113">
    <path d="M 136.0935 47.304 
L 139.4085 47.304 
L 139.4085 47.304 
L 136.0935 47.304 
z
" clip-path="url(#pb635945b00)" style="fill: #de8f05"/>
   </g>
   <g id="patch_114">
    <path d="M 142.7235 47.304 
L 146.0385 47.304 
L 146.0385 47.304 
L 142.7235 47.304 
z
" clip-path="url(#pb635945b00)" style="fill: #de8f05"/>
   </g>
   <g id="patch_115">
    <path d="M 149.3535 47.304 
L 152.6685 47.304 
L 152.6685 47.304 
L 149.3535 47.304 
z
" clip-path="url(#pb635945b00)" style="fill: #de8f05"/>
   </g>
   <g id="patch_116">
    <path d="M 155.9835 47.304 
L 159.2985 47.304 
L 159.2985 47.304003 
L 155.9835 47.304003 
z
" clip-path="url(#pb635945b00)" style="fill: #de8f05"/>
   </g>
   <g id="patch_117">
    <path d="M 162.6135 47.304 
L 165.9285 47.304 
L 165.9285 50.826169 
L 162.6135 50.826169 
z
" clip-path="url(#pb635945b00)" style="fill: #de8f05"/>
   </g>
   <g id="patch_118">
    <path d="M 169.2435 47.304 
L 172.5585 47.304 
L 172.5585 47.833738 
L 169.2435 47.833738 
z
" clip-path="url(#pb635945b00)" style="fill: #de8f05"/>
   </g>
   <g id="patch_119">
    <path d="M 175.8735 47.304 
L 179.1885 47.304 
L 179.1885 47.304 
L 175.8735 47.304 
z
" clip-path="url(#pb635945b00)" style="fill: #de8f05"/>
   </g>
   <g id="patch_120">
    <path d="M 182.5035 47.304 
L 185.8185 47.304 
L 185.8185 47.304 
L 182.5035 47.304 
z
" clip-path="url(#pb635945b00)" style="fill: #de8f05"/>
   </g>
   <g id="patch_121">
    <path d="M 189.1335 47.304 
L 192.4485 47.304 
L 192.4485 47.304 
L 189.1335 47.304 
z
" clip-path="url(#pb635945b00)" style="fill: #de8f05"/>
   </g>
   <g id="patch_122">
    <path d="M 195.7635 47.304 
L 199.0785 47.304 
L 199.0785 47.304 
L 195.7635 47.304 
z
" clip-path="url(#pb635945b00)" style="fill: #de8f05"/>
   </g>
   <g id="matplotlib.axis_1">
    <g id="xtick_1">
     <g id="line2d_1">
      <defs>
       <path id="m1093aa38d3" d="M 0 0 
L 0 3.5 
" style="stroke: #000000; stroke-width: 0.8"/>
      </defs>
      <g>
       <use xlink:href="#m1093aa38d3" x="44.931" y="90.72" style="stroke: #000000; stroke-width: 0.8"/>
      </g>
     </g>
     <g id="text_1">
      <!-- 0 -->
      <g transform="translate(47.414437 103.44625) rotate(-90) scale(0.09 -0.09)">
       <defs>
        <path id="DejaVuSans-30" d="M 2034 4250 
Q 1547 4250 1301 3770 
Q 1056 3291 1056 2328 
Q 1056 1369 1301 889 
Q 1547 409 2034 409 
Q 2525 409 2770 889 
Q 3016 1369 3016 2328 
Q 3016 3291 2770 3770 
Q 2525 4250 2034 4250 
z
M 2034 4750 
Q 2819 4750 3233 4129 
Q 3647 3509 3647 2328 
Q 3647 1150 3233 529 
Q 2819 -91 2034 -91 
Q 1250 -91 836 529 
Q 422 1150 422 2328 
Q 422 3509 836 4129 
Q 1250 4750 2034 4750 
z
" transform="scale(0.015625)"/>
       </defs>
       <use xlink:href="#DejaVuSans-30"/>
      </g>
     </g>
    </g>
    <g id="xtick_2">
     <g id="line2d_2">
      <g>
       <use xlink:href="#m1093aa38d3" x="51.561" y="90.72" style="stroke: #000000; stroke-width: 0.8"/>
      </g>
     </g>
    </g>
    <g id="xtick_3">
     <g id="line2d_3">
      <g>
       <use xlink:href="#m1093aa38d3" x="58.191" y="90.72" style="stroke: #000000; stroke-width: 0.8"/>
      </g>
     </g>
    </g>
    <g id="xtick_4">
     <g id="line2d_4">
      <g>
       <use xlink:href="#m1093aa38d3" x="64.821" y="90.72" style="stroke: #000000; stroke-width: 0.8"/>
      </g>
     </g>
    </g>
    <g id="xtick_5">
     <g id="line2d_5">
      <g>
       <use xlink:href="#m1093aa38d3" x="71.451" y="90.72" style="stroke: #000000; stroke-width: 0.8"/>
      </g>
     </g>
    </g>
    <g id="xtick_6">
     <g id="line2d_6">
      <g>
       <use xlink:href="#m1093aa38d3" x="78.081" y="90.72" style="stroke: #000000; stroke-width: 0.8"/>
      </g>
     </g>
    </g>
    <g id="xtick_7">
     <g id="line2d_7">
      <g>
       <use xlink:href="#m1093aa38d3" x="84.711" y="90.72" style="stroke: #000000; stroke-width: 0.8"/>
      </g>
     </g>
     <g id="text_2">
      <!-- 6 -->
      <g transform="translate(87.194437 103.44625) rotate(-90) scale(0.09 -0.09)">
       <defs>
        <path id="DejaVuSans-36" d="M 2113 2584 
Q 1688 2584 1439 2293 
Q 1191 2003 1191 1497 
Q 1191 994 1439 701 
Q 1688 409 2113 409 
Q 2538 409 2786 701 
Q 3034 994 3034 1497 
Q 3034 2003 2786 2293 
Q 2538 2584 2113 2584 
z
M 3366 4563 
L 3366 3988 
Q 3128 4100 2886 4159 
Q 2644 4219 2406 4219 
Q 1781 4219 1451 3797 
Q 1122 3375 1075 2522 
Q 1259 2794 1537 2939 
Q 1816 3084 2150 3084 
Q 2853 3084 3261 2657 
Q 3669 2231 3669 1497 
Q 3669 778 3244 343 
Q 2819 -91 2113 -91 
Q 1303 -91 875 529 
Q 447 1150 447 2328 
Q 447 3434 972 4092 
Q 1497 4750 2381 4750 
Q 2619 4750 2861 4703 
Q 3103 4656 3366 4563 
z
" transform="scale(0.015625)"/>
       </defs>
       <use xlink:href="#DejaVuSans-36"/>
      </g>
     </g>
    </g>
    <g id="xtick_8">
     <g id="line2d_8">
      <g>
       <use xlink:href="#m1093aa38d3" x="91.341" y="90.72" style="stroke: #000000; stroke-width: 0.8"/>
      </g>
     </g>
    </g>
    <g id="xtick_9">
     <g id="line2d_9">
      <g>
       <use xlink:href="#m1093aa38d3" x="97.971" y="90.72" style="stroke: #000000; stroke-width: 0.8"/>
      </g>
     </g>
    </g>
    <g id="xtick_10">
     <g id="line2d_10">
      <g>
       <use xlink:href="#m1093aa38d3" x="104.601" y="90.72" style="stroke: #000000; stroke-width: 0.8"/>
      </g>
     </g>
    </g>
    <g id="xtick_11">
     <g id="line2d_11">
      <g>
       <use xlink:href="#m1093aa38d3" x="111.231" y="90.72" style="stroke: #000000; stroke-width: 0.8"/>
      </g>
     </g>
    </g>
    <g id="xtick_12">
     <g id="line2d_12">
      <g>
       <use xlink:href="#m1093aa38d3" x="117.861" y="90.72" style="stroke: #000000; stroke-width: 0.8"/>
      </g>
     </g>
    </g>
    <g id="xtick_13">
     <g id="line2d_13">
      <g>
       <use xlink:href="#m1093aa38d3" x="124.491" y="90.72" style="stroke: #000000; stroke-width: 0.8"/>
      </g>
     </g>
     <g id="text_3">
      <!-- 12 -->
      <g transform="translate(126.974437 109.1725) rotate(-90) scale(0.09 -0.09)">
       <defs>
        <path id="DejaVuSans-31" d="M 794 531 
L 1825 531 
L 1825 4091 
L 703 3866 
L 703 4441 
L 1819 4666 
L 2450 4666 
L 2450 531 
L 3481 531 
L 3481 0 
L 794 0 
L 794 531 
z
" transform="scale(0.015625)"/>
        <path id="DejaVuSans-32" d="M 1228 531 
L 3431 531 
L 3431 0 
L 469 0 
L 469 531 
Q 828 903 1448 1529 
Q 2069 2156 2228 2338 
Q 2531 2678 2651 2914 
Q 2772 3150 2772 3378 
Q 2772 3750 2511 3984 
Q 2250 4219 1831 4219 
Q 1534 4219 1204 4116 
Q 875 4013 500 3803 
L 500 4441 
Q 881 4594 1212 4672 
Q 1544 4750 1819 4750 
Q 2544 4750 2975 4387 
Q 3406 4025 3406 3419 
Q 3406 3131 3298 2873 
Q 3191 2616 2906 2266 
Q 2828 2175 2409 1742 
Q 1991 1309 1228 531 
z
" transform="scale(0.015625)"/>
       </defs>
       <use xlink:href="#DejaVuSans-31"/>
       <use xlink:href="#DejaVuSans-32" x="63.623047"/>
      </g>
     </g>
    </g>
    <g id="xtick_14">
     <g id="line2d_14">
      <g>
       <use xlink:href="#m1093aa38d3" x="131.121" y="90.72" style="stroke: #000000; stroke-width: 0.8"/>
      </g>
     </g>
    </g>
    <g id="xtick_15">
     <g id="line2d_15">
      <g>
       <use xlink:href="#m1093aa38d3" x="137.751" y="90.72" style="stroke: #000000; stroke-width: 0.8"/>
      </g>
     </g>
    </g>
    <g id="xtick_16">
     <g id="line2d_16">
      <g>
       <use xlink:href="#m1093aa38d3" x="144.381" y="90.72" style="stroke: #000000; stroke-width: 0.8"/>
      </g>
     </g>
    </g>
    <g id="xtick_17">
     <g id="line2d_17">
      <g>
       <use xlink:href="#m1093aa38d3" x="151.011" y="90.72" style="stroke: #000000; stroke-width: 0.8"/>
      </g>
     </g>
    </g>
    <g id="xtick_18">
     <g id="line2d_18">
      <g>
       <use xlink:href="#m1093aa38d3" x="157.641" y="90.72" style="stroke: #000000; stroke-width: 0.8"/>
      </g>
     </g>
    </g>
    <g id="xtick_19">
     <g id="line2d_19">
      <g>
       <use xlink:href="#m1093aa38d3" x="164.271" y="90.72" style="stroke: #000000; stroke-width: 0.8"/>
      </g>
     </g>
     <g id="text_4">
      <!-- 18 -->
      <g transform="translate(166.754437 109.1725) rotate(-90) scale(0.09 -0.09)">
       <defs>
        <path id="DejaVuSans-38" d="M 2034 2216 
Q 1584 2216 1326 1975 
Q 1069 1734 1069 1313 
Q 1069 891 1326 650 
Q 1584 409 2034 409 
Q 2484 409 2743 651 
Q 3003 894 3003 1313 
Q 3003 1734 2745 1975 
Q 2488 2216 2034 2216 
z
M 1403 2484 
Q 997 2584 770 2862 
Q 544 3141 544 3541 
Q 544 4100 942 4425 
Q 1341 4750 2034 4750 
Q 2731 4750 3128 4425 
Q 3525 4100 3525 3541 
Q 3525 3141 3298 2862 
Q 3072 2584 2669 2484 
Q 3125 2378 3379 2068 
Q 3634 1759 3634 1313 
Q 3634 634 3220 271 
Q 2806 -91 2034 -91 
Q 1263 -91 848 271 
Q 434 634 434 1313 
Q 434 1759 690 2068 
Q 947 2378 1403 2484 
z
M 1172 3481 
Q 1172 3119 1398 2916 
Q 1625 2713 2034 2713 
Q 2441 2713 2670 2916 
Q 2900 3119 2900 3481 
Q 2900 3844 2670 4047 
Q 2441 4250 2034 4250 
Q 1625 4250 1398 4047 
Q 1172 3844 1172 3481 
z
" transform="scale(0.015625)"/>
       </defs>
       <use xlink:href="#DejaVuSans-31"/>
       <use xlink:href="#DejaVuSans-38" x="63.623047"/>
      </g>
     </g>
    </g>
    <g id="xtick_20">
     <g id="line2d_20">
      <g>
       <use xlink:href="#m1093aa38d3" x="170.901" y="90.72" style="stroke: #000000; stroke-width: 0.8"/>
      </g>
     </g>
    </g>
    <g id="xtick_21">
     <g id="line2d_21">
      <g>
       <use xlink:href="#m1093aa38d3" x="177.531" y="90.72" style="stroke: #000000; stroke-width: 0.8"/>
      </g>
     </g>
    </g>
    <g id="xtick_22">
     <g id="line2d_22">
      <g>
       <use xlink:href="#m1093aa38d3" x="184.161" y="90.72" style="stroke: #000000; stroke-width: 0.8"/>
      </g>
     </g>
    </g>
    <g id="xtick_23">
     <g id="line2d_23">
      <g>
       <use xlink:href="#m1093aa38d3" x="190.791" y="90.72" style="stroke: #000000; stroke-width: 0.8"/>
      </g>
     </g>
    </g>
    <g id="xtick_24">
     <g id="line2d_24">
      <g>
       <use xlink:href="#m1093aa38d3" x="197.421" y="90.72" style="stroke: #000000; stroke-width: 0.8"/>
      </g>
     </g>
     <g id="text_5">
      <!-- 23 -->
      <g transform="translate(199.904437 109.1725) rotate(-90) scale(0.09 -0.09)">
       <defs>
        <path id="DejaVuSans-33" d="M 2597 2516 
Q 3050 2419 3304 2112 
Q 3559 1806 3559 1356 
Q 3559 666 3084 287 
Q 2609 -91 1734 -91 
Q 1441 -91 1130 -33 
Q 819 25 488 141 
L 488 750 
Q 750 597 1062 519 
Q 1375 441 1716 441 
Q 2309 441 2620 675 
Q 2931 909 2931 1356 
Q 2931 1769 2642 2001 
Q 2353 2234 1838 2234 
L 1294 2234 
L 1294 2753 
L 1863 2753 
Q 2328 2753 2575 2939 
Q 2822 3125 2822 3475 
Q 2822 3834 2567 4026 
Q 2313 4219 1838 4219 
Q 1578 4219 1281 4162 
Q 984 4106 628 3988 
L 628 4550 
Q 988 4650 1302 4700 
Q 1616 4750 1894 4750 
Q 2613 4750 3031 4423 
Q 3450 4097 3450 3541 
Q 3450 3153 3228 2886 
Q 3006 2619 2597 2516 
z
" transform="scale(0.015625)"/>
       </defs>
       <use xlink:href="#DejaVuSans-32"/>
       <use xlink:href="#DejaVuSans-33" x="63.623047"/>
      </g>
     </g>
    </g>
   </g>
   <g id="matplotlib.axis_2">
    <g id="ytick_1">
     <g id="line2d_25">
      <defs>
       <path id="m37e774df99" d="M 0 0 
L -3.5 0 
" style="stroke: #000000; stroke-width: 0.8"/>
      </defs>
      <g>
       <use xlink:href="#m37e774df99" x="41.616" y="90.72" style="stroke: #000000; stroke-width: 0.8"/>
      </g>
     </g>
     <g id="text_6">
      <!-- −200 -->
      <g transform="translate(9.895531 94.139297) scale(0.09 -0.09)">
       <defs>
        <path id="DejaVuSans-2212" d="M 678 2272 
L 4684 2272 
L 4684 1741 
L 678 1741 
L 678 2272 
z
" transform="scale(0.015625)"/>
       </defs>
       <use xlink:href="#DejaVuSans-2212"/>
       <use xlink:href="#DejaVuSans-32" x="83.789062"/>
       <use xlink:href="#DejaVuSans-30" x="147.412109"/>
       <use xlink:href="#DejaVuSans-30" x="211.035156"/>
      </g>
     </g>
    </g>
    <g id="ytick_2">
     <g id="line2d_26">
      <g>
       <use xlink:href="#m37e774df99" x="41.616" y="69.012" style="stroke: #000000; stroke-width: 0.8"/>
      </g>
     </g>
     <g id="text_7">
      <!-- −100 -->
      <g transform="translate(9.895531 72.431297) scale(0.09 -0.09)">
       <use xlink:href="#DejaVuSans-2212"/>
       <use xlink:href="#DejaVuSans-31" x="83.789062"/>
       <use xlink:href="#DejaVuSans-30" x="147.412109"/>
       <use xlink:href="#DejaVuSans-30" x="211.035156"/>
      </g>
     </g>
    </g>
    <g id="ytick_3">
     <g id="line2d_27">
      <g>
       <use xlink:href="#m37e774df99" x="41.616" y="47.304" style="stroke: #000000; stroke-width: 0.8"/>
      </g>
     </g>
     <g id="text_8">
      <!-- 0 -->
      <g transform="translate(28.88975 50.723297) scale(0.09 -0.09)">
       <use xlink:href="#DejaVuSans-30"/>
      </g>
     </g>
    </g>
    <g id="ytick_4">
     <g id="line2d_28">
      <g>
       <use xlink:href="#m37e774df99" x="41.616" y="25.596" style="stroke: #000000; stroke-width: 0.8"/>
      </g>
     </g>
     <g id="text_9">
      <!-- 100 -->
      <g transform="translate(17.43725 29.015297) scale(0.09 -0.09)">
       <use xlink:href="#DejaVuSans-31"/>
       <use xlink:href="#DejaVuSans-30" x="63.623047"/>
       <use xlink:href="#DejaVuSans-30" x="127.246094"/>
      </g>
     </g>
    </g>
    <g id="ytick_5">
     <g id="line2d_29">
      <g>
       <use xlink:href="#m37e774df99" x="41.616" y="3.888" style="stroke: #000000; stroke-width: 0.8"/>
      </g>
     </g>
     <g id="text_10">
      <!-- 200 -->
      <g transform="translate(17.43725 7.307297) scale(0.09 -0.09)">
       <use xlink:href="#DejaVuSans-32"/>
       <use xlink:href="#DejaVuSans-30" x="63.623047"/>
       <use xlink:href="#DejaVuSans-30" x="127.246094"/>
      </g>
     </g>
    </g>
    <g id="text_11">
     <!-- P(kW) -->
     <g transform="translate(4.023813 60.583922) rotate(-90) scale(0.09 -0.09)">
      <defs>
       <path id="DejaVuSans-50" d="M 1259 4147 
L 1259 2394 
L 2053 2394 
Q 2494 2394 2734 2622 
Q 2975 2850 2975 3272 
Q 2975 3691 2734 3919 
Q 2494 4147 2053 4147 
L 1259 4147 
z
M 628 4666 
L 2053 4666 
Q 2838 4666 3239 4311 
Q 3641 3956 3641 3272 
Q 3641 2581 3239 2228 
Q 2838 1875 2053 1875 
L 1259 1875 
L 1259 0 
L 628 0 
L 628 4666 
z
" transform="scale(0.015625)"/>
       <path id="DejaVuSans-28" d="M 1984 4856 
Q 1566 4138 1362 3434 
Q 1159 2731 1159 2009 
Q 1159 1288 1364 580 
Q 1569 -128 1984 -844 
L 1484 -844 
Q 1016 -109 783 600 
Q 550 1309 550 2009 
Q 550 2706 781 3412 
Q 1013 4119 1484 4856 
L 1984 4856 
z
" transform="scale(0.015625)"/>
       <path id="DejaVuSans-6b" d="M 581 4863 
L 1159 4863 
L 1159 1991 
L 2875 3500 
L 3609 3500 
L 1753 1863 
L 3688 0 
L 2938 0 
L 1159 1709 
L 1159 0 
L 581 0 
L 581 4863 
z
" transform="scale(0.015625)"/>
       <path id="DejaVuSans-57" d="M 213 4666 
L 850 4666 
L 1831 722 
L 2809 4666 
L 3519 4666 
L 4500 722 
L 5478 4666 
L 6119 4666 
L 4947 0 
L 4153 0 
L 3169 4050 
L 2175 0 
L 1381 0 
L 213 4666 
z
" transform="scale(0.015625)"/>
       <path id="DejaVuSans-29" d="M 513 4856 
L 1013 4856 
Q 1481 4119 1714 3412 
Q 1947 2706 1947 2009 
Q 1947 1309 1714 600 
Q 1481 -109 1013 -844 
L 513 -844 
Q 928 -128 1133 580 
Q 1338 1288 1338 2009 
Q 1338 2731 1133 3434 
Q 928 4138 513 4856 
z
" transform="scale(0.015625)"/>
      </defs>
      <use xlink:href="#DejaVuSans-50"/>
      <use xlink:href="#DejaVuSans-28" x="60.302734"/>
      <use xlink:href="#DejaVuSans-6b" x="99.316406"/>
      <use xlink:href="#DejaVuSans-57" x="157.226562"/>
      <use xlink:href="#DejaVuSans-29" x="256.103516"/>
     </g>
    </g>
   </g>
   <g id="line2d_30">
    <path d="M 41.616 47.304 
L 200.736 47.304 
" clip-path="url(#pb635945b00)" style="fill: none; stroke: #000000; stroke-width: 1.5; stroke-linecap: square"/>
   </g>
   <g id="patch_123">
    <path d="M 41.616 90.72 
L 41.616 3.888 
" style="fill: none; stroke: #000000; stroke-width: 0.8; stroke-linejoin: miter; stroke-linecap: square"/>
   </g>
   <g id="patch_124">
    <path d="M 200.736 90.72 
L 200.736 3.888 
" style="fill: none; stroke: #000000; stroke-width: 0.8; stroke-linejoin: miter; stroke-linecap: square"/>
   </g>
   <g id="patch_125">
    <path d="M 41.616 90.72 
L 200.736 90.72 
" style="fill: none; stroke: #000000; stroke-width: 0.8; stroke-linejoin: miter; stroke-linecap: square"/>
   </g>
   <g id="legend_1">
    <g id="patch_126">
     <path d="M 84.437016 77.139562 
L 157.914984 77.139562 
Q 159.714984 77.139562 159.714984 75.339562 
L 159.714984 10.188 
Q 159.714984 8.388 157.914984 8.388 
L 84.437016 8.388 
Q 82.637016 8.388 82.637016 10.188 
L 82.637016 75.339562 
Q 82.637016 77.139562 84.437016 77.139562 
z
" style="fill: #ffffff; opacity: 0.8; stroke: #cccccc; stroke-linejoin: miter"/>
    </g>
    <g id="patch_127">
     <path d="M 86.237016 18.826594 
L 104.237016 18.826594 
L 104.237016 12.526594 
L 86.237016 12.526594 
z
" style="fill: #c0e3c0"/>
    </g>
    <g id="text_12">
     <!-- PV.Pf -->
     <g transform="translate(111.437016 18.826594) scale(0.09 -0.09)">
      <defs>
       <path id="DejaVuSans-56" d="M 1831 0 
L 50 4666 
L 709 4666 
L 2188 738 
L 3669 4666 
L 4325 4666 
L 2547 0 
L 1831 0 
z
" transform="scale(0.015625)"/>
       <path id="DejaVuSans-2e" d="M 684 794 
L 1344 794 
L 1344 0 
L 684 0 
L 684 794 
z
" transform="scale(0.015625)"/>
       <path id="DejaVuSans-66" d="M 2375 4863 
L 2375 4384 
L 1825 4384 
Q 1516 4384 1395 4259 
Q 1275 4134 1275 3809 
L 1275 3500 
L 2222 3500 
L 2222 3053 
L 1275 3053 
L 1275 0 
L 697 0 
L 697 3053 
L 147 3053 
L 147 3500 
L 697 3500 
L 697 3744 
Q 697 4328 969 4595 
Q 1241 4863 1831 4863 
L 2375 4863 
z
" transform="scale(0.015625)"/>
      </defs>
      <use xlink:href="#DejaVuSans-50"/>
      <use xlink:href="#DejaVuSans-56" x="60.302734"/>
      <use xlink:href="#DejaVuSans-2e" x="115.835938"/>
      <use xlink:href="#DejaVuSans-50" x="147.623047"/>
      <use xlink:href="#DejaVuSans-66" x="207.925781"/>
     </g>
    </g>
    <g id="patch_128">
     <path d="M 86.237016 32.036906 
L 104.237016 32.036906 
L 104.237016 25.736906 
L 86.237016 25.736906 
z
" style="fill: #029e73"/>
    </g>
    <g id="text_13">
     <!-- PV.P -->
     <g transform="translate(111.437016 32.036906) scale(0.09 -0.09)">
      <use xlink:href="#DejaVuSans-50"/>
      <use xlink:href="#DejaVuSans-56" x="60.302734"/>
      <use xlink:href="#DejaVuSans-2e" x="115.835938"/>
      <use xlink:href="#DejaVuSans-50" x="147.623047"/>
     </g>
    </g>
    <g id="patch_129">
     <path d="M 86.237016 45.247219 
L 104.237016 45.247219 
L 104.237016 38.947219 
L 86.237016 38.947219 
z
" style="fill: #d55e00"/>
    </g>
    <g id="text_14">
     <!-- Pump2.Pe -->
     <g transform="translate(111.437016 45.247219) scale(0.09 -0.09)">
      <defs>
       <path id="DejaVuSans-75" d="M 544 1381 
L 544 3500 
L 1119 3500 
L 1119 1403 
Q 1119 906 1312 657 
Q 1506 409 1894 409 
Q 2359 409 2629 706 
Q 2900 1003 2900 1516 
L 2900 3500 
L 3475 3500 
L 3475 0 
L 2900 0 
L 2900 538 
Q 2691 219 2414 64 
Q 2138 -91 1772 -91 
Q 1169 -91 856 284 
Q 544 659 544 1381 
z
M 1991 3584 
L 1991 3584 
z
" transform="scale(0.015625)"/>
       <path id="DejaVuSans-6d" d="M 3328 2828 
Q 3544 3216 3844 3400 
Q 4144 3584 4550 3584 
Q 5097 3584 5394 3201 
Q 5691 2819 5691 2113 
L 5691 0 
L 5113 0 
L 5113 2094 
Q 5113 2597 4934 2840 
Q 4756 3084 4391 3084 
Q 3944 3084 3684 2787 
Q 3425 2491 3425 1978 
L 3425 0 
L 2847 0 
L 2847 2094 
Q 2847 2600 2669 2842 
Q 2491 3084 2119 3084 
Q 1678 3084 1418 2786 
Q 1159 2488 1159 1978 
L 1159 0 
L 581 0 
L 581 3500 
L 1159 3500 
L 1159 2956 
Q 1356 3278 1631 3431 
Q 1906 3584 2284 3584 
Q 2666 3584 2933 3390 
Q 3200 3197 3328 2828 
z
" transform="scale(0.015625)"/>
       <path id="DejaVuSans-70" d="M 1159 525 
L 1159 -1331 
L 581 -1331 
L 581 3500 
L 1159 3500 
L 1159 2969 
Q 1341 3281 1617 3432 
Q 1894 3584 2278 3584 
Q 2916 3584 3314 3078 
Q 3713 2572 3713 1747 
Q 3713 922 3314 415 
Q 2916 -91 2278 -91 
Q 1894 -91 1617 61 
Q 1341 213 1159 525 
z
M 3116 1747 
Q 3116 2381 2855 2742 
Q 2594 3103 2138 3103 
Q 1681 3103 1420 2742 
Q 1159 2381 1159 1747 
Q 1159 1113 1420 752 
Q 1681 391 2138 391 
Q 2594 391 2855 752 
Q 3116 1113 3116 1747 
z
" transform="scale(0.015625)"/>
       <path id="DejaVuSans-65" d="M 3597 1894 
L 3597 1613 
L 953 1613 
Q 991 1019 1311 708 
Q 1631 397 2203 397 
Q 2534 397 2845 478 
Q 3156 559 3463 722 
L 3463 178 
Q 3153 47 2828 -22 
Q 2503 -91 2169 -91 
Q 1331 -91 842 396 
Q 353 884 353 1716 
Q 353 2575 817 3079 
Q 1281 3584 2069 3584 
Q 2775 3584 3186 3129 
Q 3597 2675 3597 1894 
z
M 3022 2063 
Q 3016 2534 2758 2815 
Q 2500 3097 2075 3097 
Q 1594 3097 1305 2825 
Q 1016 2553 972 2059 
L 3022 2063 
z
" transform="scale(0.015625)"/>
      </defs>
      <use xlink:href="#DejaVuSans-50"/>
      <use xlink:href="#DejaVuSans-75" x="58.552734"/>
      <use xlink:href="#DejaVuSans-6d" x="121.931641"/>
      <use xlink:href="#DejaVuSans-70" x="219.34375"/>
      <use xlink:href="#DejaVuSans-32" x="282.820312"/>
      <use xlink:href="#DejaVuSans-2e" x="346.443359"/>
      <use xlink:href="#DejaVuSans-50" x="378.230469"/>
      <use xlink:href="#DejaVuSans-65" x="434.908203"/>
     </g>
    </g>
    <g id="patch_130">
     <path d="M 86.237016 58.457531 
L 104.237016 58.457531 
L 104.237016 52.157531 
L 86.237016 52.157531 
z
" style="fill: #0173b2"/>
    </g>
    <g id="text_15">
     <!-- Grid.P -->
     <g transform="translate(111.437016 58.457531) scale(0.09 -0.09)">
      <defs>
       <path id="DejaVuSans-47" d="M 3809 666 
L 3809 1919 
L 2778 1919 
L 2778 2438 
L 4434 2438 
L 4434 434 
Q 4069 175 3628 42 
Q 3188 -91 2688 -91 
Q 1594 -91 976 548 
Q 359 1188 359 2328 
Q 359 3472 976 4111 
Q 1594 4750 2688 4750 
Q 3144 4750 3555 4637 
Q 3966 4525 4313 4306 
L 4313 3634 
Q 3963 3931 3569 4081 
Q 3175 4231 2741 4231 
Q 1884 4231 1454 3753 
Q 1025 3275 1025 2328 
Q 1025 1384 1454 906 
Q 1884 428 2741 428 
Q 3075 428 3337 486 
Q 3600 544 3809 666 
z
" transform="scale(0.015625)"/>
       <path id="DejaVuSans-72" d="M 2631 2963 
Q 2534 3019 2420 3045 
Q 2306 3072 2169 3072 
Q 1681 3072 1420 2755 
Q 1159 2438 1159 1844 
L 1159 0 
L 581 0 
L 581 3500 
L 1159 3500 
L 1159 2956 
Q 1341 3275 1631 3429 
Q 1922 3584 2338 3584 
Q 2397 3584 2469 3576 
Q 2541 3569 2628 3553 
L 2631 2963 
z
" transform="scale(0.015625)"/>
       <path id="DejaVuSans-69" d="M 603 3500 
L 1178 3500 
L 1178 0 
L 603 0 
L 603 3500 
z
M 603 4863 
L 1178 4863 
L 1178 4134 
L 603 4134 
L 603 4863 
z
" transform="scale(0.015625)"/>
       <path id="DejaVuSans-64" d="M 2906 2969 
L 2906 4863 
L 3481 4863 
L 3481 0 
L 2906 0 
L 2906 525 
Q 2725 213 2448 61 
Q 2172 -91 1784 -91 
Q 1150 -91 751 415 
Q 353 922 353 1747 
Q 353 2572 751 3078 
Q 1150 3584 1784 3584 
Q 2172 3584 2448 3432 
Q 2725 3281 2906 2969 
z
M 947 1747 
Q 947 1113 1208 752 
Q 1469 391 1925 391 
Q 2381 391 2643 752 
Q 2906 1113 2906 1747 
Q 2906 2381 2643 2742 
Q 2381 3103 1925 3103 
Q 1469 3103 1208 2742 
Q 947 2381 947 1747 
z
" transform="scale(0.015625)"/>
      </defs>
      <use xlink:href="#DejaVuSans-47"/>
      <use xlink:href="#DejaVuSans-72" x="77.490234"/>
      <use xlink:href="#DejaVuSans-69" x="118.603516"/>
      <use xlink:href="#DejaVuSans-64" x="146.386719"/>
      <use xlink:href="#DejaVuSans-2e" x="209.863281"/>
      <use xlink:href="#DejaVuSans-50" x="241.650391"/>
     </g>
    </g>
    <g id="patch_131">
     <path d="M 86.237016 71.667844 
L 104.237016 71.667844 
L 104.237016 65.367844 
L 86.237016 65.367844 
z
" style="fill: #de8f05"/>
    </g>
    <g id="text_16">
     <!-- Rev1.Pe -->
     <g transform="translate(111.437016 71.667844) scale(0.09 -0.09)">
      <defs>
       <path id="DejaVuSans-52" d="M 2841 2188 
Q 3044 2119 3236 1894 
Q 3428 1669 3622 1275 
L 4263 0 
L 3584 0 
L 2988 1197 
Q 2756 1666 2539 1819 
Q 2322 1972 1947 1972 
L 1259 1972 
L 1259 0 
L 628 0 
L 628 4666 
L 2053 4666 
Q 2853 4666 3247 4331 
Q 3641 3997 3641 3322 
Q 3641 2881 3436 2590 
Q 3231 2300 2841 2188 
z
M 1259 4147 
L 1259 2491 
L 2053 2491 
Q 2509 2491 2742 2702 
Q 2975 2913 2975 3322 
Q 2975 3731 2742 3939 
Q 2509 4147 2053 4147 
L 1259 4147 
z
" transform="scale(0.015625)"/>
       <path id="DejaVuSans-76" d="M 191 3500 
L 800 3500 
L 1894 563 
L 2988 3500 
L 3597 3500 
L 2284 0 
L 1503 0 
L 191 3500 
z
" transform="scale(0.015625)"/>
      </defs>
      <use xlink:href="#DejaVuSans-52"/>
      <use xlink:href="#DejaVuSans-65" x="64.982422"/>
      <use xlink:href="#DejaVuSans-76" x="126.505859"/>
      <use xlink:href="#DejaVuSans-31" x="185.685547"/>
      <use xlink:href="#DejaVuSans-2e" x="249.308594"/>
      <use xlink:href="#DejaVuSans-50" x="281.095703"/>
      <use xlink:href="#DejaVuSans-65" x="337.773438"/>
     </g>
    </g>
   </g>
  </g>
  <g id="axes_2">
   <g id="PolyCollection_1"/>
   <g id="PolyCollection_2"/>
   <g id="matplotlib.axis_3">
    <g id="ytick_6">
     <g id="line2d_31">
      <defs>
       <path id="m4184aa8d48" d="M 0 0 
L 3.5 0 
" style="stroke: #000000; stroke-width: 0.8"/>
      </defs>
      <g>
       <use xlink:href="#m4184aa8d48" x="200.736" y="71.991529" style="stroke: #000000; stroke-width: 0.8"/>
      </g>
     </g>
     <g id="text_17">
      <!-- 100 -->
      <g transform="translate(207.736 75.410826) scale(0.09 -0.09)">
       <use xlink:href="#DejaVuSans-31"/>
       <use xlink:href="#DejaVuSans-30" x="63.623047"/>
       <use xlink:href="#DejaVuSans-30" x="127.246094"/>
      </g>
     </g>
    </g>
    <g id="ytick_7">
     <g id="line2d_32">
      <g>
       <use xlink:href="#m4184aa8d48" x="200.736" y="37.939765" style="stroke: #000000; stroke-width: 0.8"/>
      </g>
     </g>
     <g id="text_18">
      <!-- 200 -->
      <g transform="translate(207.736 41.359062) scale(0.09 -0.09)">
       <use xlink:href="#DejaVuSans-32"/>
       <use xlink:href="#DejaVuSans-30" x="63.623047"/>
       <use xlink:href="#DejaVuSans-30" x="127.246094"/>
      </g>
     </g>
    </g>
    <g id="ytick_8">
     <g id="line2d_33">
      <g>
       <use xlink:href="#m4184aa8d48" x="200.736" y="3.888" style="stroke: #000000; stroke-width: 0.8"/>
      </g>
     </g>
     <g id="text_19">
      <!-- 300 -->
      <g transform="translate(207.736 7.307297) scale(0.09 -0.09)">
       <use xlink:href="#DejaVuSans-33"/>
       <use xlink:href="#DejaVuSans-30" x="63.623047"/>
       <use xlink:href="#DejaVuSans-30" x="127.246094"/>
      </g>
     </g>
    </g>
    <g id="text_20">
     <!-- Price (€/MWh) -->
     <g transform="translate(235.753344 78.786422) rotate(-90) scale(0.09 -0.09)">
      <defs>
       <path id="DejaVuSans-63" d="M 3122 3366 
L 3122 2828 
Q 2878 2963 2633 3030 
Q 2388 3097 2138 3097 
Q 1578 3097 1268 2742 
Q 959 2388 959 1747 
Q 959 1106 1268 751 
Q 1578 397 2138 397 
Q 2388 397 2633 464 
Q 2878 531 3122 666 
L 3122 134 
Q 2881 22 2623 -34 
Q 2366 -91 2075 -91 
Q 1284 -91 818 406 
Q 353 903 353 1747 
Q 353 2603 823 3093 
Q 1294 3584 2113 3584 
Q 2378 3584 2631 3529 
Q 2884 3475 3122 3366 
z
" transform="scale(0.015625)"/>
       <path id="DejaVuSans-20" transform="scale(0.015625)"/>
       <path id="DejaVuSans-20ac" d="M 3647 4306 
L 3647 3641 
Q 3363 3969 3098 4109 
Q 2834 4250 2516 4250 
Q 2025 4250 1709 3937 
Q 1394 3625 1294 3041 
L 3097 3041 
L 2925 2656 
L 1244 2656 
Q 1238 2581 1236 2509 
Q 1234 2438 1234 2328 
Q 1234 2228 1236 2156 
Q 1238 2084 1244 2009 
L 2638 2009 
L 2463 1625 
L 1294 1625 
Q 1394 1041 1709 725 
Q 2025 409 2516 409 
Q 2834 409 3098 550 
Q 3363 691 3647 1019 
L 3647 359 
Q 3369 134 3080 21 
Q 2791 -91 2491 -91 
Q 1750 -91 1267 362 
Q 784 816 659 1625 
L 0 1625 
L 172 2009 
L 606 2009 
Q 606 2081 604 2154 
Q 603 2228 603 2328 
Q 603 2438 604 2511 
Q 606 2584 606 2656 
L 0 2656 
L 172 3041 
L 659 3041 
Q 784 3844 1268 4297 
Q 1753 4750 2491 4750 
Q 2797 4750 3086 4639 
Q 3375 4528 3647 4306 
z
" transform="scale(0.015625)"/>
       <path id="DejaVuSans-2f" d="M 1625 4666 
L 2156 4666 
L 531 -594 
L 0 -594 
L 1625 4666 
z
" transform="scale(0.015625)"/>
       <path id="DejaVuSans-4d" d="M 628 4666 
L 1569 4666 
L 2759 1491 
L 3956 4666 
L 4897 4666 
L 4897 0 
L 4281 0 
L 4281 4097 
L 3078 897 
L 2444 897 
L 1241 4097 
L 1241 0 
L 628 0 
L 628 4666 
z
" transform="scale(0.015625)"/>
       <path id="DejaVuSans-68" d="M 3513 2113 
L 3513 0 
L 2938 0 
L 2938 2094 
Q 2938 2591 2744 2837 
Q 2550 3084 2163 3084 
Q 1697 3084 1428 2787 
Q 1159 2491 1159 1978 
L 1159 0 
L 581 0 
L 581 4863 
L 1159 4863 
L 1159 2956 
Q 1366 3272 1645 3428 
Q 1925 3584 2291 3584 
Q 2894 3584 3203 3211 
Q 3513 2838 3513 2113 
z
" transform="scale(0.015625)"/>
      </defs>
      <use xlink:href="#DejaVuSans-50"/>
      <use xlink:href="#DejaVuSans-72" x="58.552734"/>
      <use xlink:href="#DejaVuSans-69" x="99.666016"/>
      <use xlink:href="#DejaVuSans-63" x="127.449219"/>
      <use xlink:href="#DejaVuSans-65" x="182.429688"/>
      <use xlink:href="#DejaVuSans-20" x="243.953125"/>
      <use xlink:href="#DejaVuSans-28" x="275.740234"/>
      <use xlink:href="#DejaVuSans-20ac" x="314.753906"/>
      <use xlink:href="#DejaVuSans-2f" x="378.376953"/>
      <use xlink:href="#DejaVuSans-4d" x="412.068359"/>
      <use xlink:href="#DejaVuSans-57" x="498.347656"/>
      <use xlink:href="#DejaVuSans-68" x="597.224609"/>
      <use xlink:href="#DejaVuSans-29" x="660.603516"/>
     </g>
    </g>
   </g>
   <g id="line2d_34">
    <path d="M 44.931 72.483887 
L 51.561 73.69226 
L 58.191 73.66409 
L 64.821 74.123944 
L 71.451 72.471195 
L 78.081 67.790006 
L 84.711 62.140509 
L 91.341 46.272077 
L 97.971 49.046212 
L 104.601 40.313792 
L 111.231 43.78475 
L 117.861 45.13707 
L 124.491 46.395901 
L 131.121 62.826187 
L 137.751 63.202769 
L 144.381 59.518832 
L 151.011 51.382008 
L 157.641 27.976218 
L 164.271 17.839008 
L 170.901 19.695294 
L 177.531 26.979121 
L 184.161 52.061032 
L 190.791 58.357977 
L 197.421 68.00196 
" clip-path="url(#pb635945b00)" style="fill: none; stroke: #d62728; stroke-width: 1.5; stroke-linecap: square"/>
   </g>
   <g id="line2d_35">
    <path d="M 44.931 87.032503 
L 51.561 88.610958 
L 58.191 89.233795 
L 64.821 89.675385 
L 71.451 87.999574 
L 78.081 83.177225 
L 84.711 76.75599 
L 91.341 69.475414 
L 97.971 71.708126 
L 104.601 76.586505 
L 111.231 79.444842 
L 117.861 80.554 
L 124.491 81.589793 
L 131.121 82.878807 
L 137.751 83.37844 
L 144.381 80.814032 
L 151.011 73.606821 
L 157.641 66.419268 
L 164.271 58.139272 
L 170.901 59.672684 
L 177.531 65.751853 
L 184.161 74.550829 
L 190.791 80.324925 
L 197.421 82.429368 
" clip-path="url(#pb635945b00)" style="fill: none; stroke-dasharray: 5.55,2.4; stroke-dashoffset: 0; stroke: #d62728; stroke-width: 1.5"/>
   </g>
   <g id="patch_132">
    <path d="M 41.616 90.72 
L 41.616 3.888 
" style="fill: none; stroke: #000000; stroke-width: 0.8; stroke-linejoin: miter; stroke-linecap: square"/>
   </g>
   <g id="patch_133">
    <path d="M 200.736 90.72 
L 200.736 3.888 
" style="fill: none; stroke: #000000; stroke-width: 0.8; stroke-linejoin: miter; stroke-linecap: square"/>
   </g>
   <g id="patch_134">
    <path d="M 41.616 90.72 
L 200.736 90.72 
" style="fill: none; stroke: #000000; stroke-width: 0.8; stroke-linejoin: miter; stroke-linecap: square"/>
   </g>
   <g id="text_21">
    <!-- Time (h) -->
    <g transform="translate(207.366 106.009242) scale(0.09 -0.09)">
     <defs>
      <path id="DejaVuSans-54" d="M -19 4666 
L 3928 4666 
L 3928 4134 
L 2272 4134 
L 2272 0 
L 1638 0 
L 1638 4134 
L -19 4134 
L -19 4666 
z
" transform="scale(0.015625)"/>
     </defs>
     <use xlink:href="#DejaVuSans-54"/>
     <use xlink:href="#DejaVuSans-69" x="57.958984"/>
     <use xlink:href="#DejaVuSans-6d" x="85.742188"/>
     <use xlink:href="#DejaVuSans-65" x="183.154297"/>
     <use xlink:href="#DejaVuSans-20" x="244.677734"/>
     <use xlink:href="#DejaVuSans-28" x="276.464844"/>
     <use xlink:href="#DejaVuSans-68" x="315.478516"/>
     <use xlink:href="#DejaVuSans-29" x="378.857422"/>
    </g>
   </g>
  </g>
 </g>
 <defs>
  <clipPath id="pb635945b00">
   <rect x="41.616" y="3.888" width="159.12" height="86.832"/>
  </clipPath>
 </defs>
</svg>
