<?xml version="1.0" encoding="utf-8" standalone="no"?>
<!DOCTYPE svg PUBLIC "-//W3C//DTD SVG 1.1//EN"
  "http://www.w3.org/Graphics/SVG/1.1/DTD/svg11.dtd">
<svg xmlns:xlink="http://www.w3.org/1999/xlink" width="244.8pt" height="136.8pt" viewBox="0 0 244.8 136.8" xmlns="http://www.w3.org/2000/svg" version="1.1">
 <metadata>
  <rdf:RDF xmlns:dc="http://purl.org/dc/elements/1.1/" xmlns:cc="http://creativecommons.org/ns#" xmlns:rdf="http://www.w3.org/1999/02/22-rdf-syntax-ns#">
   <cc:Work>
    <dc:type rdf:resource="http://purl.org/dc/dcmitype/StillImage"/>
    <dc:date>2025-03-20T10:32:04.501570</dc:date>
    <dc:format>image/svg+xml</dc:format>
    <dc:creator>
     <cc:Agent>
      <dc:title>Matplotlib v3.10.0, https://matplotlib.org/</dc:title>
     </cc:Agent>
    </dc:creator>
   </cc:Work>
  </rdf:RDF>
 </metadata>
 <defs>
  <style type="text/css">*{stroke-linejoin: round; stroke-linecap: butt}</style>
 </defs>
 <g id="figure_1">
  <g id="patch_1">
   <path d="M 0 136.8 
L 244.8 136.8 
L 244.8 0 
L 0 0 
z
" style="fill: #ffffff"/>
  </g>
  <g id="axes_1">
   <g id="patch_2">
    <path d="M 44.064 88.92 
L 205.632 88.92 
L 205.632 4.104 
L 44.064 4.104 
z
" style="fill: #ffffff"/>
   </g>
   <g id="PathCollection_1">
    <defs>
     <path id="C0_0_4c0f03e44d" d="M 0 3 
C 0.795609 3 1.55874 2.683901 2.12132 2.12132 
C 2.683901 1.55874 3 0.795609 3 -0 
C 3 -0.795609 2.683901 -1.55874 2.12132 -2.12132 
C 1.55874 -2.683901 0.795609 -3 0 -3 
C -0.795609 -3 -1.55874 -2.683901 -2.12132 -2.12132 
C -2.683901 -1.55874 -3 -0.795609 -3 0 
C -3 0.795609 -2.683901 1.55874 -2.12132 2.12132 
C -1.55874 2.683901 -0.795609 3 0 3 
z
"/>
    </defs>
    <g clip-path="url(#p4ac59fd306)">
     <use xlink:href="#C0_0_4c0f03e44d" x="44.064" y="15.970234" style="fill: none; stroke: #de8f05"/>
    </g>
    <g clip-path="url(#p4ac59fd306)">
     <use xlink:href="#C0_0_4c0f03e44d" x="44.064" y="15.987009" style="fill: none; stroke: #de8f05"/>
    </g>
    <g clip-path="url(#p4ac59fd306)">
     <use xlink:href="#C0_0_4c0f03e44d" x="95.525595" y="15.923646" style="fill: none; stroke: #de8f05"/>
    </g>
    <g clip-path="url(#p4ac59fd306)">
     <use xlink:href="#C0_0_4c0f03e44d" x="44.064" y="16.011333" style="fill: none; stroke: #de8f05"/>
    </g>
    <g clip-path="url(#p4ac59fd306)">
     <use xlink:href="#C0_0_4c0f03e44d" x="44.064" y="16.047347" style="fill: none; stroke: #de8f05"/>
    </g>
    <g clip-path="url(#p4ac59fd306)">
     <use xlink:href="#C0_0_4c0f03e44d" x="44.064" y="16.124996" style="fill: none; stroke: #de8f05"/>
    </g>
    <g clip-path="url(#p4ac59fd306)">
     <use xlink:href="#C0_0_4c0f03e44d" x="44.064" y="16.231187" style="fill: none; stroke: #de8f05"/>
    </g>
    <g clip-path="url(#p4ac59fd306)">
     <use xlink:href="#C0_0_4c0f03e44d" x="97.282209" y="16.212766" style="fill: none; stroke: #de8f05"/>
    </g>
    <g clip-path="url(#p4ac59fd306)">
     <use xlink:href="#C0_0_4c0f03e44d" x="116.904659" y="16.167986" style="fill: none; stroke: #de8f05"/>
    </g>
    <g clip-path="url(#p4ac59fd306)">
     <use xlink:href="#C0_0_4c0f03e44d" x="109.722573" y="15.977858" style="fill: none; stroke: #de8f05"/>
    </g>
    <g clip-path="url(#p4ac59fd306)">
     <use xlink:href="#C0_0_4c0f03e44d" x="124.58772" y="15.73709" style="fill: none; stroke: #de8f05"/>
    </g>
    <g clip-path="url(#p4ac59fd306)">
     <use xlink:href="#C0_0_4c0f03e44d" x="124.06224" y="15.638334" style="fill: none; stroke: #de8f05"/>
    </g>
    <g clip-path="url(#p4ac59fd306)">
     <use xlink:href="#C0_0_4c0f03e44d" x="123.775271" y="15.584672" style="fill: none; stroke: #de8f05"/>
    </g>
    <g clip-path="url(#p4ac59fd306)">
     <use xlink:href="#C0_0_4c0f03e44d" x="123.47112" y="15.52799" style="fill: none; stroke: #de8f05"/>
    </g>
    <g clip-path="url(#p4ac59fd306)">
     <use xlink:href="#C0_0_4c0f03e44d" x="123.159013" y="15.47005" style="fill: none; stroke: #de8f05"/>
    </g>
    <g clip-path="url(#p4ac59fd306)">
     <use xlink:href="#C0_0_4c0f03e44d" x="111.784491" y="15.633578" style="fill: none; stroke: #de8f05"/>
    </g>
    <g clip-path="url(#p4ac59fd306)">
     <use xlink:href="#C0_0_4c0f03e44d" x="44.064" y="15.950709" style="fill: none; stroke: #de8f05"/>
    </g>
    <g clip-path="url(#p4ac59fd306)">
     <use xlink:href="#C0_0_4c0f03e44d" x="44.064" y="16.017562" style="fill: none; stroke: #de8f05"/>
    </g>
    <g clip-path="url(#p4ac59fd306)">
     <use xlink:href="#C0_0_4c0f03e44d" x="44.064" y="16.02506" style="fill: none; stroke: #de8f05"/>
    </g>
    <g clip-path="url(#p4ac59fd306)">
     <use xlink:href="#C0_0_4c0f03e44d" x="44.064" y="16.049617" style="fill: none; stroke: #de8f05"/>
    </g>
    <g clip-path="url(#p4ac59fd306)">
     <use xlink:href="#C0_0_4c0f03e44d" x="44.064" y="16.076857" style="fill: none; stroke: #de8f05"/>
    </g>
    <g clip-path="url(#p4ac59fd306)">
     <use xlink:href="#C0_0_4c0f03e44d" x="44.064" y="16.09262" style="fill: none; stroke: #de8f05"/>
    </g>
    <g clip-path="url(#p4ac59fd306)">
     <use xlink:href="#C0_0_4c0f03e44d" x="44.064" y="16.09262" style="fill: none; stroke: #de8f05"/>
    </g>
    <g clip-path="url(#p4ac59fd306)">
     <use xlink:href="#C0_0_4c0f03e44d" x="44.064" y="16.107482" style="fill: none; stroke: #de8f05"/>
    </g>
   </g>
   <g id="PathCollection_2">
    <defs>
     <path id="m74c90e3884" d="M -3 3 
L 3 -3 
M -3 -3 
L 3 3 
" style="stroke: #0173b2"/>
    </defs>
    <g clip-path="url(#p4ac59fd306)">
     <use xlink:href="#m74c90e3884" x="44.064" y="15.970234" style="fill: #0173b2; stroke: #0173b2"/>
     <use xlink:href="#m74c90e3884" x="44.064" y="15.987009" style="fill: #0173b2; stroke: #0173b2"/>
     <use xlink:href="#m74c90e3884" x="44.064" y="15.923646" style="fill: #0173b2; stroke: #0173b2"/>
     <use xlink:href="#m74c90e3884" x="44.064" y="16.011333" style="fill: #0173b2; stroke: #0173b2"/>
     <use xlink:href="#m74c90e3884" x="44.064" y="16.047347" style="fill: #0173b2; stroke: #0173b2"/>
     <use xlink:href="#m74c90e3884" x="44.064" y="16.124996" style="fill: #0173b2; stroke: #0173b2"/>
     <use xlink:href="#m74c90e3884" x="44.064" y="16.231187" style="fill: #0173b2; stroke: #0173b2"/>
     <use xlink:href="#m74c90e3884" x="44.064" y="16.212766" style="fill: #0173b2; stroke: #0173b2"/>
     <use xlink:href="#m74c90e3884" x="44.064" y="16.167986" style="fill: #0173b2; stroke: #0173b2"/>
     <use xlink:href="#m74c90e3884" x="95.525595" y="15.977858" style="fill: #0173b2; stroke: #0173b2"/>
     <use xlink:href="#m74c90e3884" x="116.96347" y="15.73709" style="fill: #0173b2; stroke: #0173b2"/>
     <use xlink:href="#m74c90e3884" x="124.06224" y="15.638334" style="fill: #0173b2; stroke: #0173b2"/>
     <use xlink:href="#m74c90e3884" x="123.775271" y="15.584672" style="fill: #0173b2; stroke: #0173b2"/>
     <use xlink:href="#m74c90e3884" x="123.47112" y="15.52799" style="fill: #0173b2; stroke: #0173b2"/>
     <use xlink:href="#m74c90e3884" x="123.159013" y="15.47005" style="fill: #0173b2; stroke: #0173b2"/>
     <use xlink:href="#m74c90e3884" x="95.525595" y="15.633578" style="fill: #0173b2; stroke: #0173b2"/>
     <use xlink:href="#m74c90e3884" x="44.064" y="15.950709" style="fill: #0173b2; stroke: #0173b2"/>
     <use xlink:href="#m74c90e3884" x="44.064" y="16.017562" style="fill: #0173b2; stroke: #0173b2"/>
     <use xlink:href="#m74c90e3884" x="44.064" y="16.02506" style="fill: #0173b2; stroke: #0173b2"/>
     <use xlink:href="#m74c90e3884" x="44.064" y="16.049617" style="fill: #0173b2; stroke: #0173b2"/>
     <use xlink:href="#m74c90e3884" x="44.064" y="16.076857" style="fill: #0173b2; stroke: #0173b2"/>
     <use xlink:href="#m74c90e3884" x="44.064" y="16.09262" style="fill: #0173b2; stroke: #0173b2"/>
     <use xlink:href="#m74c90e3884" x="44.064" y="16.09262" style="fill: #0173b2; stroke: #0173b2"/>
     <use xlink:href="#m74c90e3884" x="44.064" y="16.107482" style="fill: #0173b2; stroke: #0173b2"/>
    </g>
   </g>
   <g id="matplotlib.axis_1">
    <g id="xtick_1">
     <g id="line2d_1">
      <defs>
       <path id="mfcfd1b7b8e" d="M 0 0 
L 0 3.5 
" style="stroke: #000000; stroke-width: 0.8"/>
      </defs>
      <g>
       <use xlink:href="#mfcfd1b7b8e" x="44.064" y="88.92" style="stroke: #000000; stroke-width: 0.8"/>
      </g>
     </g>
     <g id="text_1">
      <!-- $\mathdefault{0.000}$ -->
      <g transform="translate(33.568705 102.14665) scale(0.09 -0.09)">
       <defs>
        <path id="CMR17-30" d="M 2688 2025 
C 2688 2416 2682 3080 2413 3591 
C 2176 4039 1798 4198 1466 4198 
C 1158 4198 768 4058 525 3597 
C 269 3118 243 2524 243 2025 
C 243 1661 250 1106 448 619 
C 723 -39 1216 -128 1466 -128 
C 1760 -128 2208 -7 2470 600 
C 2662 1042 2688 1559 2688 2025 
z
M 1466 -26 
C 1056 -26 813 325 723 812 
C 653 1188 653 1738 653 2096 
C 653 2588 653 2997 736 3387 
C 858 3929 1216 4096 1466 4096 
C 1728 4096 2067 3923 2189 3400 
C 2272 3036 2278 2607 2278 2096 
C 2278 1680 2278 1169 2202 792 
C 2067 95 1690 -26 1466 -26 
z
" transform="scale(0.015625)"/>
        <path id="CMMI12-3a" d="M 1178 307 
C 1178 492 1024 619 870 619 
C 685 619 557 466 557 313 
C 557 128 710 0 864 0 
C 1050 0 1178 153 1178 307 
z
" transform="scale(0.015625)"/>
       </defs>
       <use xlink:href="#CMR17-30" transform="scale(0.996264)"/>
       <use xlink:href="#CMMI12-3a" transform="translate(45.690477 0) scale(0.996264)"/>
       <use xlink:href="#CMR17-30" transform="translate(72.787654 0) scale(0.996264)"/>
       <use xlink:href="#CMR17-30" transform="translate(118.478131 0) scale(0.996264)"/>
       <use xlink:href="#CMR17-30" transform="translate(164.168608 0) scale(0.996264)"/>
      </g>
     </g>
    </g>
    <g id="xtick_2">
     <g id="line2d_2">
      <g>
       <use xlink:href="#mfcfd1b7b8e" x="81.08673" y="88.92" style="stroke: #000000; stroke-width: 0.8"/>
      </g>
     </g>
     <g id="text_2">
      <!-- $\mathdefault{0.025}$ -->
      <g transform="translate(70.591435 102.14665) scale(0.09 -0.09)">
       <defs>
        <path id="CMR17-32" d="M 2669 989 
L 2554 989 
C 2490 536 2438 459 2413 420 
C 2381 369 1920 369 1830 369 
L 602 369 
C 832 619 1280 1072 1824 1597 
C 2214 1967 2669 2402 2669 3035 
C 2669 3790 2067 4224 1395 4224 
C 691 4224 262 3604 262 3030 
C 262 2780 448 2748 525 2748 
C 589 2748 781 2787 781 3010 
C 781 3207 614 3264 525 3264 
C 486 3264 448 3258 422 3245 
C 544 3790 915 4058 1306 4058 
C 1862 4058 2227 3617 2227 3035 
C 2227 2479 1901 2000 1536 1584 
L 262 146 
L 262 0 
L 2515 0 
L 2669 989 
z
" transform="scale(0.015625)"/>
        <path id="CMR17-35" d="M 730 3692 
C 794 3666 1056 3584 1325 3584 
C 1920 3584 2246 3911 2432 4100 
C 2432 4157 2432 4192 2394 4192 
C 2387 4192 2374 4192 2323 4163 
C 2099 4058 1837 3973 1517 3973 
C 1325 3973 1037 3999 723 4139 
C 653 4171 640 4171 634 4171 
C 602 4171 595 4164 595 4037 
L 595 2203 
C 595 2089 595 2057 659 2057 
C 691 2057 704 2070 736 2114 
C 941 2401 1222 2522 1542 2522 
C 1766 2522 2246 2382 2246 1289 
C 2246 1085 2246 715 2054 421 
C 1894 159 1645 25 1370 25 
C 947 25 518 320 403 814 
C 429 807 480 795 506 795 
C 589 795 749 840 749 1038 
C 749 1210 627 1280 506 1280 
C 358 1280 262 1190 262 1011 
C 262 454 704 -128 1382 -128 
C 2042 -128 2669 440 2669 1264 
C 2669 2030 2170 2624 1549 2624 
C 1222 2624 947 2503 730 2274 
L 730 3692 
z
" transform="scale(0.015625)"/>
       </defs>
       <use xlink:href="#CMR17-30" transform="scale(0.996264)"/>
       <use xlink:href="#CMMI12-3a" transform="translate(45.690477 0) scale(0.996264)"/>
       <use xlink:href="#CMR17-30" transform="translate(72.787654 0) scale(0.996264)"/>
       <use xlink:href="#CMR17-32" transform="translate(118.478131 0) scale(0.996264)"/>
       <use xlink:href="#CMR17-35" transform="translate(164.168608 0) scale(0.996264)"/>
      </g>
     </g>
    </g>
    <g id="xtick_3">
     <g id="line2d_3">
      <g>
       <use xlink:href="#mfcfd1b7b8e" x="118.10946" y="88.92" style="stroke: #000000; stroke-width: 0.8"/>
      </g>
     </g>
     <g id="text_3">
      <!-- $\mathdefault{0.050}$ -->
      <g transform="translate(107.614165 102.14665) scale(0.09 -0.09)">
       <use xlink:href="#CMR17-30" transform="scale(0.996264)"/>
       <use xlink:href="#CMMI12-3a" transform="translate(45.690477 0) scale(0.996264)"/>
       <use xlink:href="#CMR17-30" transform="translate(72.787654 0) scale(0.996264)"/>
       <use xlink:href="#CMR17-35" transform="translate(118.478131 0) scale(0.996264)"/>
       <use xlink:href="#CMR17-30" transform="translate(164.168608 0) scale(0.996264)"/>
      </g>
     </g>
    </g>
    <g id="xtick_4">
     <g id="line2d_4">
      <g>
       <use xlink:href="#mfcfd1b7b8e" x="155.13219" y="88.92" style="stroke: #000000; stroke-width: 0.8"/>
      </g>
     </g>
     <g id="text_4">
      <!-- $\mathdefault{0.075}$ -->
      <g transform="translate(144.636895 102.14665) scale(0.09 -0.09)">
       <defs>
        <path id="CMR17-37" d="M 2886 3941 
L 2886 4081 
L 1382 4081 
C 634 4081 621 4165 595 4288 
L 480 4288 
L 294 3094 
L 410 3094 
C 429 3215 474 3540 550 3661 
C 589 3712 1062 3712 1171 3712 
L 2579 3712 
L 1869 2661 
C 1395 1954 1069 999 1069 165 
C 1069 89 1069 -128 1299 -128 
C 1530 -128 1530 89 1530 171 
L 1530 465 
C 1530 1508 1709 2196 2003 2636 
L 2886 3941 
z
" transform="scale(0.015625)"/>
       </defs>
       <use xlink:href="#CMR17-30" transform="scale(0.996264)"/>
       <use xlink:href="#CMMI12-3a" transform="translate(45.690477 0) scale(0.996264)"/>
       <use xlink:href="#CMR17-30" transform="translate(72.787654 0) scale(0.996264)"/>
       <use xlink:href="#CMR17-37" transform="translate(118.478131 0) scale(0.996264)"/>
       <use xlink:href="#CMR17-35" transform="translate(164.168608 0) scale(0.996264)"/>
      </g>
     </g>
    </g>
    <g id="xtick_5">
     <g id="line2d_5">
      <g>
       <use xlink:href="#mfcfd1b7b8e" x="192.154921" y="88.92" style="stroke: #000000; stroke-width: 0.8"/>
      </g>
     </g>
     <g id="text_5">
      <!-- $\mathdefault{0.100}$ -->
      <g transform="translate(181.659625 102.14665) scale(0.09 -0.09)">
       <defs>
        <path id="CMR17-31" d="M 1702 4058 
C 1702 4192 1696 4192 1606 4192 
C 1357 3916 979 3827 621 3827 
C 602 3827 570 3827 563 3808 
C 557 3795 557 3782 557 3648 
C 755 3648 1088 3686 1344 3839 
L 1344 461 
C 1344 236 1331 160 781 160 
L 589 160 
L 589 0 
C 896 0 1216 0 1523 0 
C 1830 0 2150 0 2458 0 
L 2458 160 
L 2266 160 
C 1715 160 1702 230 1702 458 
L 1702 4058 
z
" transform="scale(0.015625)"/>
       </defs>
       <use xlink:href="#CMR17-30" transform="scale(0.996264)"/>
       <use xlink:href="#CMMI12-3a" transform="translate(45.690477 0) scale(0.996264)"/>
       <use xlink:href="#CMR17-31" transform="translate(72.787654 0) scale(0.996264)"/>
       <use xlink:href="#CMR17-30" transform="translate(118.478131 0) scale(0.996264)"/>
       <use xlink:href="#CMR17-30" transform="translate(164.168608 0) scale(0.996264)"/>
      </g>
     </g>
    </g>
    <g id="text_6">
     <!-- $Q$ (m$^3$/s) € -->
     <g transform="translate(100.938827 115.551324) scale(0.09 -0.09)">
      <defs>
       <path id="CMMI12-51" d="M 2726 45 
C 3827 490 4646 1663 4646 2829 
C 4646 3893 3955 4544 3059 4544 
C 1690 4544 307 3062 307 1573 
C 307 561 973 -128 1901 -128 
C 2118 -128 2330 -96 2534 -33 
C 2496 -411 2496 -442 2496 -562 
C 2496 -744 2496 -1216 3008 -1216 
C 3770 -1216 4051 -37 4051 2 
C 4051 39 4026 64 3994 64 
C 3955 64 3942 34 3923 -36 
C 3782 -429 3450 -654 3168 -654 
C 2842 -654 2758 -435 2726 45 
z
M 1574 77 
C 1069 252 826 787 826 1379 
C 826 1831 992 2689 1414 3340 
C 1888 4075 2522 4404 3021 4404 
C 3686 4404 4134 3862 4134 3024 
C 4134 2547 3910 948 2707 240 
C 2675 571 2586 960 2163 960 
C 1818 960 1523 609 1523 291 
C 1523 220 1549 123 1574 77 
z
M 2547 156 
C 2317 52 2118 12 1939 12 
C 1875 12 1651 12 1651 298 
C 1651 533 1875 832 2163 832 
C 2483 832 2554 611 2554 286 
C 2554 246 2554 194 2547 156 
z
" transform="scale(0.015625)"/>
       <path id="CMR17-28" d="M 1958 -1561 
C 1958 -1555 1958 -1542 1939 -1523 
C 1645 -1224 858 -407 858 1581 
C 858 3569 1632 4379 1946 4697 
C 1946 4704 1958 4717 1958 4736 
C 1958 4755 1939 4768 1914 4768 
C 1843 4768 1299 4296 986 3594 
C 666 2887 576 2199 576 1588 
C 576 1128 621 351 1005 -471 
C 1312 -1135 1837 -1600 1914 -1600 
C 1946 -1600 1958 -1587 1958 -1561 
z
" transform="scale(0.015625)"/>
       <path id="CMR17-6d" d="M 4326 1933 
C 4326 2252 4269 2790 3507 2790 
C 3072 2790 2771 2496 2656 2151 
L 2650 2151 
C 2573 2676 2195 2790 1837 2790 
C 1331 2790 1069 2400 973 2144 
L 966 2144 
L 966 2790 
L 211 2720 
L 211 2554 
C 589 2554 646 2515 646 2208 
L 646 428 
C 646 184 621 153 211 153 
L 211 -13 
C 365 0 646 0 813 0 
C 979 0 1267 0 1421 -13 
L 1421 153 
C 1011 153 986 178 986 428 
L 986 1658 
C 986 2247 1344 2688 1792 2688 
C 2266 2688 2317 2266 2317 1958 
L 2317 428 
C 2317 184 2291 153 1882 153 
L 1882 -13 
C 2035 0 2317 0 2483 0 
C 2650 0 2938 0 3091 -13 
L 3091 153 
C 2682 153 2656 178 2656 428 
L 2656 1658 
C 2656 2247 3014 2688 3462 2688 
C 3936 2688 3987 2266 3987 1958 
L 3987 428 
C 3987 184 3962 153 3552 153 
L 3552 -13 
C 3706 0 3987 0 4154 0 
C 4320 0 4608 0 4762 -13 
L 4762 153 
C 4352 153 4326 178 4326 428 
L 4326 1933 
z
" transform="scale(0.015625)"/>
       <path id="CMR17-33" d="M 1414 2157 
C 1984 2157 2234 1662 2234 1090 
C 2234 320 1824 25 1453 25 
C 1114 25 563 194 390 693 
C 422 680 454 680 486 680 
C 640 680 755 782 755 948 
C 755 1133 614 1216 486 1216 
C 378 1216 211 1165 211 926 
C 211 335 787 -128 1466 -128 
C 2176 -128 2720 430 2720 1085 
C 2720 1707 2208 2157 1600 2227 
C 2086 2328 2554 2756 2554 3329 
C 2554 3820 2048 4179 1472 4179 
C 890 4179 378 3829 378 3329 
C 378 3110 544 3072 627 3072 
C 762 3072 877 3155 877 3321 
C 877 3486 762 3569 627 3569 
C 602 3569 570 3569 544 3557 
C 730 3959 1235 4032 1459 4032 
C 1683 4032 2106 3925 2106 3320 
C 2106 3143 2080 2828 1862 2550 
C 1670 2304 1453 2304 1242 2284 
C 1210 2284 1062 2269 1037 2269 
C 992 2263 966 2257 966 2208 
C 966 2163 973 2157 1101 2157 
L 1414 2157 
z
" transform="scale(0.015625)"/>
       <path id="CMR17-2f" d="M 2605 4545 
C 2637 4627 2637 4640 2637 4653 
C 2637 4729 2579 4768 2528 4768 
C 2451 4768 2426 4717 2400 4640 
L 326 -1377 
C 294 -1460 294 -1473 294 -1486 
C 294 -1562 352 -1600 403 -1600 
C 480 -1600 506 -1549 531 -1473 
L 2605 4545 
z
" transform="scale(0.015625)"/>
       <path id="CMR17-73" d="M 1978 2697 
C 1978 2813 1971 2819 1933 2819 
C 1907 2819 1901 2813 1824 2717 
C 1805 2691 1747 2626 1728 2601 
C 1523 2819 1235 2819 1126 2819 
C 416 2819 160 2447 160 2076 
C 160 1498 813 1365 998 1325 
C 1402 1243 1542 1217 1677 1101 
C 1760 1025 1901 884 1901 654 
C 1901 384 1747 38 1158 38 
C 602 38 403 460 288 1021 
C 269 1110 269 1117 218 1117 
C 166 1117 160 1110 160 983 
L 160 63 
C 160 -51 166 -58 205 -58 
C 237 -58 243 -51 275 0 
C 314 57 410 211 448 276 
C 576 103 800 -64 1158 -64 
C 1792 -64 2131 283 2131 784 
C 2131 1112 1958 1285 1875 1362 
C 1683 1561 1459 1606 1190 1657 
C 838 1735 390 1825 390 2217 
C 390 2383 480 2737 1126 2737 
C 1811 2737 1850 2094 1862 1888 
C 1869 1856 1901 1849 1920 1849 
C 1978 1849 1978 1869 1978 1978 
L 1978 2697 
z
" transform="scale(0.015625)"/>
       <path id="CMR17-29" d="M 1683 1581 
C 1683 2040 1638 2817 1254 3639 
C 947 4303 422 4768 346 4768 
C 326 4768 301 4761 301 4729 
C 301 4717 307 4710 314 4697 
C 621 4378 1402 3568 1402 1584 
C 1402 -407 627 -1217 314 -1537 
C 307 -1549 301 -1556 301 -1568 
C 301 -1600 326 -1600 346 -1600 
C 416 -1600 960 -1128 1274 -426 
C 1594 281 1683 969 1683 1581 
z
" transform="scale(0.015625)"/>
       <path id="SFRM3583-bf" d="M 806 2496 
L 307 2496 
C 307 2477 301 2458 301 2432 
C 301 2374 320 2349 378 2349 
C 403 2349 422 2355 442 2355 
L 794 2355 
L 794 2208 
L 378 2208 
C 314 2208 301 2181 301 2127 
C 301 2099 307 2073 307 2073 
L 723 2073 
C 845 2073 826 1853 858 1731 
C 1069 769 1875 0 2867 0 
L 3872 0 
C 3968 0 3955 225 3974 342 
C 4026 734 4070 1127 4128 1513 
L 4128 1558 
C 4128 1577 4128 1590 4109 1597 
L 4090 1597 
C 4019 1597 3974 1004 3917 747 
C 3866 495 3750 186 3405 141 
L 2982 141 
C 2803 141 2624 154 2451 205 
C 1760 422 1318 1104 1197 1793 
C 1178 1876 1178 1965 1158 2048 
L 1914 2048 
C 2406 2048 2963 2048 3072 1354 
C 3098 1197 3072 811 3142 811 
C 3181 817 3181 849 3181 881 
L 3181 2157 
C 3181 2201 3149 2208 3123 2208 
L 1152 2208 
L 1152 2355 
L 3123 2355 
C 3149 2355 3181 2362 3181 2406 
L 3181 3665 
C 3181 3697 3181 3729 3142 3729 
C 3072 3729 3091 3306 3072 3196 
C 3040 2997 2963 2804 2810 2676 
C 2598 2496 2259 2496 1965 2496 
L 1165 2496 
C 1197 3335 1901 4148 2790 4224 
L 3456 4224 
C 3885 4148 3962 3817 4026 3239 
L 4045 3061 
C 4045 3023 4051 2985 4096 2985 
C 4122 2985 4134 3010 4134 3036 
C 4134 3125 4109 3221 4102 3309 
C 4077 3634 4032 3951 4006 4275 
C 4006 4320 4006 4365 3942 4365 
L 2771 4365 
C 1920 4301 1242 3805 941 3049 
C 870 2877 813 2681 806 2496 
z
" transform="scale(0.015625)"/>
      </defs>
      <use xlink:href="#CMMI12-51" transform="scale(0.996264)"/>
      <use xlink:href="#CMR17-28" transform="translate(107.336365 0) scale(0.996264)"/>
      <use xlink:href="#CMR17-6d" transform="translate(142.617133 0) scale(0.996264)"/>
      <use xlink:href="#CMR17-33" transform="translate(219.536723 36.153639) scale(0.697382)"/>
      <use xlink:href="#CMR17-2f" transform="translate(252.018037 0) scale(0.996264)"/>
      <use xlink:href="#CMR17-73" transform="translate(297.708514 0) scale(0.996264)"/>
      <use xlink:href="#CMR17-29" transform="translate(333.509851 0) scale(0.996264)"/>
      <use xlink:href="#SFRM3583-bf" transform="translate(398.866586 0) scale(0.356961)"/>
     </g>
    </g>
   </g>
   <g id="matplotlib.axis_2">
    <g id="ytick_1">
     <g id="line2d_6">
      <defs>
       <path id="m8561e127b6" d="M 0 0 
L -3.5 0 
" style="stroke: #000000; stroke-width: 0.8"/>
      </defs>
      <g>
       <use xlink:href="#m8561e127b6" x="44.064" y="88.92" style="stroke: #000000; stroke-width: 0.8"/>
      </g>
     </g>
     <g id="text_7">
      <!-- $\mathdefault{0}$ -->
      <g transform="translate(32.456309 92.033325) scale(0.09 -0.09)">
       <use xlink:href="#CMR17-30" transform="scale(0.996264)"/>
      </g>
     </g>
    </g>
    <g id="ytick_2">
     <g id="line2d_7">
      <g>
       <use xlink:href="#m8561e127b6" x="44.064" y="55.689318" style="stroke: #000000; stroke-width: 0.8"/>
      </g>
     </g>
     <g id="text_8">
      <!-- $\mathdefault{50}$ -->
      <g transform="translate(27.848619 58.802643) scale(0.09 -0.09)">
       <use xlink:href="#CMR17-35" transform="scale(0.996264)"/>
       <use xlink:href="#CMR17-30" transform="translate(45.690477 0) scale(0.996264)"/>
      </g>
     </g>
    </g>
    <g id="ytick_3">
     <g id="line2d_8">
      <g>
       <use xlink:href="#m8561e127b6" x="44.064" y="22.458635" style="stroke: #000000; stroke-width: 0.8"/>
      </g>
     </g>
     <g id="text_9">
      <!-- $\mathdefault{100}$ -->
      <g transform="translate(23.240928 25.57196) scale(0.09 -0.09)">
       <use xlink:href="#CMR17-31" transform="scale(0.996264)"/>
       <use xlink:href="#CMR17-30" transform="translate(45.690477 0) scale(0.996264)"/>
       <use xlink:href="#CMR17-30" transform="translate(91.380954 0) scale(0.996264)"/>
      </g>
     </g>
    </g>
    <g id="text_10">
     <!-- $H$ (m) -->
     <g transform="translate(16.999334 59.639081) rotate(-90) scale(0.09 -0.09)">
      <defs>
       <path id="CMMI12-48" d="M 4787 3887 
C 4845 4103 4858 4167 5312 4167 
C 5427 4167 5491 4167 5491 4282 
C 5491 4352 5434 4352 5395 4352 
C 5280 4352 5146 4352 5024 4352 
L 4269 4352 
C 4147 4352 4013 4352 3891 4352 
C 3846 4352 3770 4352 3770 4231 
C 3770 4167 3814 4167 3936 4167 
C 4320 4167 4320 4116 4320 4046 
C 4320 4034 4320 3995 4294 3900 
L 3904 2361 
L 1971 2361 
L 2355 3887 
C 2413 4103 2426 4167 2880 4167 
C 2995 4167 3059 4167 3059 4282 
C 3059 4352 3002 4352 2963 4352 
C 2848 4352 2714 4352 2592 4352 
L 1837 4352 
C 1715 4352 1581 4352 1459 4352 
C 1414 4352 1338 4352 1338 4231 
C 1338 4167 1382 4167 1504 4167 
C 1888 4167 1888 4116 1888 4046 
C 1888 4034 1888 3995 1862 3899 
L 998 472 
C 941 249 928 185 486 185 
C 339 185 294 185 294 64 
C 294 0 365 0 384 0 
C 499 0 634 0 755 0 
L 1510 0 
C 1632 0 1766 0 1888 0 
C 1939 0 2010 0 2010 121 
C 2010 185 1952 185 1856 185 
C 1466 185 1466 236 1466 300 
C 1466 307 1466 351 1478 402 
L 1920 2176 
L 3859 2176 
C 3750 1753 3424 416 3411 376 
C 3341 185 3238 185 2861 185 
C 2784 185 2726 185 2726 64 
C 2726 0 2797 0 2816 0 
C 2931 0 3066 0 3187 0 
L 3942 0 
C 4064 0 4198 0 4320 0 
C 4371 0 4442 0 4442 121 
C 4442 185 4384 185 4288 185 
C 3898 185 3898 236 3898 300 
C 3898 307 3898 351 3910 402 
L 4787 3887 
z
" transform="scale(0.015625)"/>
      </defs>
      <use xlink:href="#CMMI12-48" transform="scale(0.996264)"/>
      <use xlink:href="#CMR17-28" transform="translate(118.597739 0) scale(0.996264)"/>
      <use xlink:href="#CMR17-6d" transform="translate(153.878507 0) scale(0.996264)"/>
      <use xlink:href="#CMR17-29" transform="translate(230.798097 0) scale(0.996264)"/>
     </g>
    </g>
   </g>
   <g id="LineCollection_1">
    <path d="M 95.525595 88.92 
L 95.525595 11.244601 
" clip-path="url(#p4ac59fd306)" style="fill: none; stroke: #7f7f7f; stroke-width: 0.8"/>
   </g>
   <g id="LineCollection_2">
    <path d="M 197.938286 88.92 
L 197.938286 35.874239 
" clip-path="url(#p4ac59fd306)" style="fill: none; stroke: #7f7f7f; stroke-width: 0.8"/>
   </g>
   <g id="LineCollection_3">
    <path d="M 44.064 88.92 
L 44.064 8.142857 
" clip-path="url(#p4ac59fd306)" style="fill: none; stroke: #7f7f7f; stroke-width: 0.8"/>
   </g>
   <g id="line2d_9">
    <path d="M 95.525595 11.244601 
L 97.61565 11.501665 
L 99.705705 11.768961 
L 101.79576 12.04649 
L 103.885815 12.334252 
L 105.975869 12.632246 
L 108.065924 12.940473 
L 110.155979 13.258932 
L 112.246034 13.587624 
L 114.336089 13.926549 
L 116.426144 14.275706 
L 118.516199 14.635096 
L 120.606254 15.004718 
L 122.696309 15.384573 
L 124.786364 15.77466 
L 126.876419 16.17498 
L 128.966474 16.585533 
L 131.056528 17.006318 
L 133.146583 17.437335 
L 135.236638 17.878586 
L 137.326693 18.330069 
L 139.416748 18.791784 
L 141.506803 19.263732 
L 143.596858 19.745912 
L 145.686913 20.238326 
L 147.776968 20.740971 
L 149.867023 21.25385 
L 151.957078 21.77696 
L 154.047133 22.310304 
L 156.137187 22.85388 
L 158.227242 23.407688 
L 160.317297 23.971729 
L 162.407352 24.546003 
L 164.497407 25.130509 
L 166.587462 25.725248 
L 168.677517 26.33022 
L 170.767572 26.945424 
L 172.857627 27.57086 
L 174.947682 28.206529 
L 177.037737 28.852431 
L 179.127791 29.508565 
L 181.217846 30.174932 
L 183.307901 30.851531 
L 185.397956 31.538363 
L 187.488011 32.235428 
L 189.578066 32.942725 
L 191.668121 33.660255 
L 193.758176 34.388017 
L 195.848231 35.126012 
L 197.938286 35.874239 
" clip-path="url(#p4ac59fd306)" style="fill: none; stroke: #7f7f7f; stroke-width: 0.8; stroke-linecap: square"/>
   </g>
   <g id="line2d_10">
    <path d="M 44.064 8.142857 
L 46.802441 8.15164 
L 49.540881 8.177989 
L 52.279322 8.221905 
L 55.017763 8.283386 
L 57.756203 8.362434 
L 60.494644 8.459047 
L 63.233085 8.573227 
L 65.971525 8.704973 
L 68.709966 8.854285 
L 71.448407 9.021164 
L 74.186847 9.205608 
L 76.925288 9.407618 
L 79.663729 9.627195 
L 82.402169 9.864338 
L 85.14061 10.119047 
L 87.879051 10.391322 
L 90.617492 10.681163 
L 93.355932 10.98857 
L 96.094373 11.313544 
L 98.832814 11.656083 
L 101.571254 12.016189 
L 104.309695 12.393861 
L 107.048136 12.789098 
L 109.786576 13.201902 
L 112.525017 13.632273 
L 115.263458 14.080209 
L 118.001898 14.545711 
L 120.740339 15.02878 
L 123.47878 15.529415 
L 126.21722 16.047616 
L 128.955661 16.583382 
L 131.694102 17.136716 
L 134.432542 17.707615 
L 137.170983 18.29608 
L 139.909424 18.902112 
L 142.647864 19.525709 
L 145.386305 20.166873 
L 148.124746 20.825603 
L 150.863186 21.501899 
L 153.601627 22.195761 
L 156.340068 22.907189 
L 159.078508 23.636184 
L 161.816949 24.382744 
L 164.55539 25.146871 
L 167.293831 25.928563 
L 170.032271 26.727822 
L 172.770712 27.544647 
L 175.509153 28.379039 
L 178.247593 29.230996 
L 180.986034 30.100519 
L 183.724475 30.987609 
L 186.462915 31.892264 
L 189.201356 32.814486 
L 191.939797 33.754274 
L 194.678237 34.711628 
L 197.416678 35.686548 
L 200.155119 36.679035 
L 202.893559 37.689087 
L 205.632 38.716706 
" clip-path="url(#p4ac59fd306)" style="fill: none; stroke-dasharray: 0.8,1.32; stroke-dashoffset: 0; stroke: #7f7f7f; stroke-width: 0.8"/>
   </g>
   <g id="patch_3">
    <path d="M 44.064 88.92 
L 44.064 4.104 
" style="fill: none; stroke: #000000; stroke-width: 0.8; stroke-linejoin: miter; stroke-linecap: square"/>
   </g>
   <g id="patch_4">
    <path d="M 44.064 88.92 
L 205.632 88.92 
" style="fill: none; stroke: #000000; stroke-width: 0.8; stroke-linejoin: miter; stroke-linecap: square"/>
   </g>
   <g id="legend_1">
    <g id="patch_5">
     <path d="M 43.724668 135.879336 
L 205.971332 135.879336 
L 205.971332 119.71296 
L 43.724668 119.71296 
z
" style="fill: #ffffff; opacity: 0.8; stroke: #cccccc; stroke-linejoin: miter"/>
    </g>
    <g id="PathCollection_3">
     <path d="M 56.324668 130.675242 
C 57.120278 130.675242 57.883408 130.359143 58.445989 129.796562 
C 59.00857 129.233982 59.324668 128.470851 59.324668 127.675242 
C 59.324668 126.879633 59.00857 126.116502 58.445989 125.553922 
C 57.883408 124.991341 57.120278 124.675242 56.324668 124.675242 
C 55.529059 124.675242 54.765929 124.991341 54.203348 125.553922 
C 53.640767 126.116502 53.324668 126.879633 53.324668 127.675242 
C 53.324668 128.470851 53.640767 129.233982 54.203348 129.796562 
C 54.765929 130.359143 55.529059 130.675242 56.324668 130.675242 
L 56.324668 130.675242 
z
" style="fill: none; stroke: #de8f05"/>
    </g>
    <g id="text_11">
     <!-- Pump (g) -->
     <g transform="translate(72.524668 130.037742) scale(0.09 -0.09)">
      <defs>
       <path id="CMR17-50" d="M 1267 2042 
L 2291 2042 
C 3117 2042 3718 2578 3718 3184 
C 3718 3791 3130 4352 2291 4352 
L 333 4352 
L 333 4186 
C 774 4186 845 4186 845 3899 
L 845 446 
C 845 160 774 160 333 160 
L 333 0 
C 518 0 858 0 1056 0 
C 1254 0 1594 0 1779 0 
L 1779 160 
C 1338 160 1267 160 1267 446 
L 1267 2042 
z
M 1254 2176 
L 1254 3938 
C 1254 4155 1267 4186 1523 4186 
L 2170 4186 
C 2995 4186 3232 3714 3232 3184 
C 3232 2604 2950 2176 2170 2176 
L 1254 2176 
z
" transform="scale(0.015625)"/>
       <path id="CMR17-75" d="M 1882 2693 
L 1882 2528 
C 2259 2528 2317 2489 2317 2186 
L 2317 1032 
C 2317 500 2029 38 1555 38 
C 1030 38 986 348 986 678 
L 986 2763 
L 211 2693 
L 211 2528 
C 467 2528 640 2528 646 2274 
L 646 1058 
C 646 633 646 361 813 183 
C 896 101 1056 -64 1517 -64 
C 2061 -64 2272 377 2323 506 
L 2330 506 
L 2330 -63 
L 3091 -63 
L 3091 128 
C 2714 128 2656 166 2656 473 
L 2656 2763 
L 1882 2693 
z
" transform="scale(0.015625)"/>
       <path id="CMR17-70" d="M 1408 -1063 
C 998 -1063 973 -1037 973 -789 
L 973 402 
C 1158 134 1427 -38 1766 -38 
C 2406 -38 3053 523 3053 1388 
C 3053 2191 2496 2802 1837 2802 
C 1453 2802 1139 2592 960 2338 
L 960 2802 
L 198 2732 
L 198 2567 
C 576 2567 634 2528 634 2223 
L 634 -789 
C 634 -1031 608 -1063 198 -1063 
L 198 -1228 
C 352 -1216 634 -1216 800 -1216 
C 966 -1216 1254 -1216 1408 -1228 
L 1408 -1063 
z
M 973 2012 
C 973 2102 973 2235 1222 2471 
C 1254 2497 1472 2688 1792 2688 
C 2259 2688 2643 2108 2643 1382 
C 2643 656 2234 64 1728 64 
C 1498 64 1248 172 1056 472 
C 973 612 973 650 973 752 
L 973 2012 
z
" transform="scale(0.015625)"/>
       <path id="CMR17-67" d="M 710 1164 
C 832 1068 1043 960 1299 960 
C 1805 960 2240 1357 2240 1888 
C 2240 2054 2189 2310 1997 2509 
C 2176 2692 2438 2752 2586 2752 
C 2611 2752 2650 2752 2682 2734 
C 2656 2728 2598 2703 2598 2605 
C 2598 2527 2656 2471 2739 2471 
C 2835 2471 2886 2533 2886 2614 
C 2886 2731 2790 2854 2586 2854 
C 2330 2854 2106 2738 1926 2580 
C 1734 2753 1504 2816 1299 2816 
C 794 2816 358 2419 358 1888 
C 358 1522 570 1292 634 1228 
C 442 1004 442 743 442 711 
C 442 545 506 302 723 168 
C 390 85 128 -169 128 -486 
C 128 -943 736 -1280 1466 -1280 
C 2170 -1280 2803 -956 2803 -479 
C 2803 384 1856 384 1363 384 
C 1216 384 954 384 922 391 
C 723 423 589 602 589 826 
C 589 883 589 1024 710 1164 
z
M 1299 1068 
C 736 1068 736 1760 736 1889 
C 736 2016 736 2708 1299 2708 
C 1862 2708 1862 2016 1862 1889 
C 1862 1760 1862 1068 1299 1068 
z
M 1466 -1171 
C 826 -1171 384 -835 384 -486 
C 384 -289 493 -105 634 -4 
C 794 104 858 104 1293 104 
C 1818 104 2547 104 2547 -486 
C 2547 -835 2106 -1171 1466 -1171 
z
" transform="scale(0.015625)"/>
      </defs>
      <use xlink:href="#CMR17-50" transform="scale(0.996264)"/>
      <use xlink:href="#CMR17-75" transform="translate(62.586301 0) scale(0.996264)"/>
      <use xlink:href="#CMR17-6d" transform="translate(113.48167 0) scale(0.996264)"/>
      <use xlink:href="#CMR17-70" transform="translate(190.40126 0) scale(0.996264)"/>
      <use xlink:href="#CMR17-28" transform="translate(271.372596 0) scale(0.996264)"/>
      <use xlink:href="#CMR17-67" transform="translate(306.653364 0) scale(0.996264)"/>
      <use xlink:href="#CMR17-29" transform="translate(352.343841 0) scale(0.996264)"/>
     </g>
    </g>
    <g id="PathCollection_4">
     <g>
      <use xlink:href="#m74c90e3884" x="138.561341" y="127.675242" style="fill: #0173b2; stroke: #0173b2"/>
     </g>
    </g>
    <g id="text_12">
     <!-- Pump (PV) -->
     <g transform="translate(154.761341 130.037742) scale(0.09 -0.09)">
      <defs>
       <path id="CMR17-56" d="M 3776 3745 
C 3834 3886 3936 4160 4365 4160 
L 4365 4332 
C 4218 4319 4051 4319 3891 4319 
C 3738 4319 3475 4319 3328 4332 
L 3328 4160 
C 3648 4160 3661 3936 3661 3898 
C 3661 3827 3642 3783 3622 3732 
L 2362 446 
L 1043 3886 
C 1024 3931 1011 3963 1011 3994 
C 1011 4160 1267 4160 1402 4160 
L 1402 4319 
C 1197 4319 896 4319 685 4319 
C 518 4319 218 4319 64 4332 
L 64 4160 
C 435 4160 506 4135 582 3931 
L 2106 -26 
C 2138 -115 2144 -128 2214 -128 
C 2285 -128 2291 -115 2323 -26 
L 3776 3745 
z
" transform="scale(0.015625)"/>
      </defs>
      <use xlink:href="#CMR17-50" transform="scale(0.996264)"/>
      <use xlink:href="#CMR17-75" transform="translate(62.586301 0) scale(0.996264)"/>
      <use xlink:href="#CMR17-6d" transform="translate(113.48167 0) scale(0.996264)"/>
      <use xlink:href="#CMR17-70" transform="translate(190.40126 0) scale(0.996264)"/>
      <use xlink:href="#CMR17-28" transform="translate(271.372596 0) scale(0.996264)"/>
      <use xlink:href="#CMR17-50" transform="translate(306.653364 0) scale(0.996264)"/>
      <use xlink:href="#CMR17-56" transform="translate(369.239665 0) scale(0.996264)"/>
      <use xlink:href="#CMR17-29" transform="translate(438.312094 0) scale(0.996264)"/>
     </g>
    </g>
   </g>
  </g>
 </g>
 <defs>
  <clipPath id="p4ac59fd306">
   <rect x="44.064" y="4.104" width="161.568" height="84.816"/>
  </clipPath>
 </defs>
</svg>
